%TF.GenerationSoftware,KiCad,Pcbnew,9.0.5*%
%TF.CreationDate,2025-11-23T18:29:56+02:00*%
%TF.ProjectId,Business_Card,42757369-6e65-4737-935f-436172642e6b,rev?*%
%TF.SameCoordinates,Original*%
%TF.FileFunction,Copper,L2,Inr*%
%TF.FilePolarity,Positive*%
%FSLAX46Y46*%
G04 Gerber Fmt 4.6, Leading zero omitted, Abs format (unit mm)*
G04 Created by KiCad (PCBNEW 9.0.5) date 2025-11-23 18:29:56*
%MOMM*%
%LPD*%
G01*
G04 APERTURE LIST*
%TA.AperFunction,ViaPad*%
%ADD10C,0.500000*%
%TD*%
%TA.AperFunction,Conductor*%
%ADD11C,0.200000*%
%TD*%
%TA.AperFunction,Conductor*%
%ADD12C,0.300000*%
%TD*%
G04 APERTURE END LIST*
D10*
%TO.N,+5V*%
X154630000Y-109860000D03*
%TO.N,GND*%
X87540000Y-123470000D03*
X130270000Y-128380000D03*
X146400000Y-117154076D03*
X138390000Y-138620000D03*
X144090000Y-88770000D03*
X155250000Y-97550000D03*
X112810000Y-124010000D03*
X144730000Y-107540000D03*
X149400000Y-107350000D03*
X95460000Y-107450000D03*
X102420000Y-97430000D03*
X130100000Y-122320000D03*
X137190000Y-97940000D03*
X158910000Y-107514076D03*
X134160000Y-100180000D03*
X151810000Y-102370000D03*
X156670000Y-117104076D03*
X120810000Y-119480000D03*
X149800000Y-111430000D03*
X111410000Y-106720000D03*
X104290000Y-116650000D03*
X95700000Y-123720000D03*
X135560000Y-125230000D03*
X149360000Y-96930000D03*
X88720000Y-112450000D03*
X114320000Y-101720000D03*
X104980000Y-123720000D03*
X149170000Y-117154076D03*
X153860000Y-117144076D03*
X164880000Y-100110000D03*
X109060000Y-121330000D03*
X137600000Y-88590000D03*
X119940000Y-114970000D03*
X141980000Y-108720000D03*
X92030000Y-120420000D03*
X135190000Y-118830000D03*
X95520000Y-97500000D03*
X164470000Y-135990000D03*
X88790000Y-96940000D03*
X98860000Y-100480000D03*
X102460000Y-107470000D03*
X141990000Y-102500000D03*
X129810000Y-100090000D03*
X118870000Y-109570000D03*
X135560000Y-133580000D03*
X99130000Y-110550000D03*
X95460000Y-102510000D03*
X88750000Y-107340000D03*
X100320000Y-120750000D03*
X165050000Y-107600000D03*
X164140000Y-105044076D03*
X118410000Y-103860000D03*
X130640000Y-88590000D03*
X129990000Y-137750000D03*
X144940000Y-102520000D03*
X111080000Y-102150000D03*
X111820000Y-112410000D03*
X133980000Y-108160000D03*
X127500000Y-111379000D03*
X133010000Y-118150000D03*
X152100000Y-108840000D03*
X95440000Y-112330000D03*
X164340000Y-112150000D03*
X111080000Y-96660000D03*
X162950000Y-139290000D03*
X164260000Y-88560000D03*
X164960000Y-116924076D03*
X146330000Y-136340000D03*
X118870000Y-99590000D03*
X150040000Y-99990000D03*
X138562422Y-96561470D03*
X114750000Y-121740000D03*
X97270000Y-115940000D03*
X160910000Y-102550000D03*
X121350000Y-122690000D03*
X88770000Y-102300000D03*
%TO.N,/LED*%
X133000000Y-139950000D03*
X117870000Y-112290000D03*
%TO.N,Net-(D1-DOUT)*%
X114480000Y-118440000D03*
X89490000Y-94120000D03*
%TO.N,Net-(D2-DOUT)*%
X86590000Y-97450000D03*
X84510000Y-97450000D03*
%TO.N,Net-(D3-DOUT)*%
X84410418Y-102470000D03*
X86690000Y-102500000D03*
%TO.N,Net-(D4-DOUT)*%
X84500000Y-107460000D03*
X86580000Y-107460000D03*
%TO.N,Net-(D5-DOUT)*%
X84410418Y-112350000D03*
X86690000Y-112350000D03*
%TO.N,Net-(D6-DOUT)*%
X94190000Y-114130000D03*
X84720000Y-117660000D03*
%TO.N,Net-(D7-DOUT)*%
X93409501Y-115888712D03*
X94190000Y-109100000D03*
%TO.N,Net-(D8-DOUT)*%
X94230000Y-104130000D03*
X93370000Y-110890000D03*
%TO.N,Net-(D10-DIN)*%
X93370000Y-105900000D03*
X94190000Y-99100000D03*
%TO.N,Net-(D10-DOUT)*%
X93370000Y-100890000D03*
X94220000Y-94110000D03*
%TO.N,Net-(D11-DOUT)*%
X101220000Y-94110000D03*
X93360000Y-95900000D03*
%TO.N,Net-(D12-DOUT)*%
X100350000Y-95900000D03*
X108200000Y-94110000D03*
%TO.N,Net-(D13-DOUT)*%
X108200000Y-99110000D03*
X107400000Y-95880000D03*
%TO.N,Net-(D14-DOUT)*%
X104540000Y-100900000D03*
X101230000Y-104080000D03*
%TO.N,Net-(D15-DOUT)*%
X108220000Y-104120000D03*
X100430000Y-105890000D03*
%TO.N,Net-(D16-DOUT)*%
X107360000Y-105880000D03*
X108220000Y-109120000D03*
%TO.N,Net-(D17-DOUT)*%
X101170000Y-114080000D03*
X104360000Y-110930000D03*
%TO.N,Net-(D18-DOUT)*%
X100370000Y-115890000D03*
X108220000Y-114110000D03*
%TO.N,Net-(D19-DOUT)*%
X107420000Y-115890000D03*
X116460000Y-106110000D03*
%TO.N,Net-(D20-DOUT)*%
X116460000Y-96100000D03*
X115720000Y-107870000D03*
%TO.N,Net-(D21-DOUT)*%
X127520000Y-114110000D03*
X115670000Y-97900000D03*
%TO.N,Net-(D22-DOUT)*%
X122770000Y-117460000D03*
X127550000Y-109100000D03*
%TO.N,Net-(D23-DOUT)*%
X121980000Y-112460000D03*
X127550000Y-104090000D03*
%TO.N,Net-(D24-DOUT)*%
X127530000Y-99090000D03*
X121400000Y-105880000D03*
%TO.N,Net-(D25-DOUT)*%
X121100000Y-100400000D03*
X127550000Y-94130000D03*
%TO.N,Net-(D26-DOUT)*%
X131720000Y-94080000D03*
X121270000Y-95190000D03*
%TO.N,Net-(D27-DOUT)*%
X131010000Y-95910000D03*
X138820000Y-94100000D03*
%TO.N,Net-(D28-DOUT)*%
X136760000Y-96810000D03*
X138820000Y-99130000D03*
%TO.N,Net-(D29-DOUT)*%
X137960000Y-100920000D03*
X134490000Y-104130000D03*
%TO.N,Net-(D30-DOUT)*%
X138670000Y-104140000D03*
X130970000Y-105890000D03*
%TO.N,Net-(D31-DOUT)*%
X138820000Y-109100000D03*
X137980000Y-105900000D03*
%TO.N,Net-(D32-DOUT)*%
X131780000Y-114100000D03*
X135220000Y-111380000D03*
%TO.N,Net-(D33-DOUT)*%
X138820000Y-114110000D03*
X130970000Y-115910000D03*
%TO.N,Net-(D34-DOUT)*%
X146460000Y-114080000D03*
X137970000Y-115890000D03*
%TO.N,Net-(D35-DOUT)*%
X146440000Y-115870000D03*
X147060000Y-109100000D03*
%TO.N,Net-(D36-DOUT)*%
X146430000Y-109979000D03*
X147080000Y-104110000D03*
%TO.N,Net-(D37-DOUT)*%
X146250000Y-105890000D03*
X147130000Y-99100000D03*
%TO.N,Net-(D38-DOUT)*%
X146250000Y-100890000D03*
X149550000Y-94110000D03*
%TO.N,Net-(D39-DOUT)*%
X144420000Y-97480000D03*
X154130000Y-94100000D03*
%TO.N,Net-(D40-DOUT)*%
X160510000Y-94100000D03*
X153720000Y-95910000D03*
%TO.N,Net-(D41-DOUT)*%
X160280000Y-95890000D03*
X161120000Y-99130000D03*
%TO.N,Net-(D42-DOUT)*%
X156120415Y-102490000D03*
X160260000Y-100900000D03*
%TO.N,Net-(D43-DOUT)*%
X153490000Y-105260000D03*
X161040000Y-104140000D03*
%TO.N,Net-(D44-DOUT)*%
X161000000Y-109060000D03*
X160760000Y-105590000D03*
%TO.N,/INT*%
X157880415Y-137719999D03*
X148840415Y-92499999D03*
%TO.N,/SCL*%
X152790415Y-137559999D03*
X148970415Y-90800825D03*
%TO.N,/SDA*%
X155310415Y-137659999D03*
X148870415Y-89599999D03*
%TO.N,/ANTENNA*%
X126381875Y-93192973D03*
X124606541Y-91907913D03*
X123806541Y-92707913D03*
X125406547Y-91107913D03*
X125580209Y-93210000D03*
X124780415Y-94379999D03*
%TO.N,/LED1_PWR*%
X154670415Y-98789999D03*
X114500000Y-110680000D03*
%TO.N,/BTN*%
X160410415Y-137539999D03*
X164160415Y-94229999D03*
%TO.N,Net-(D45-DOUT)*%
X160270000Y-110860000D03*
X155370000Y-112320000D03*
%TO.N,Net-(D46-DOUT)*%
X161730000Y-112920000D03*
X152060000Y-117204076D03*
%TD*%
D11*
%TO.N,Net-(D2-DOUT)*%
X84510000Y-97450000D02*
X86590000Y-97450000D01*
%TO.N,Net-(D3-DOUT)*%
X84410418Y-102470000D02*
X86660000Y-102470000D01*
X86660000Y-102470000D02*
X86690000Y-102500000D01*
%TO.N,Net-(D4-DOUT)*%
X84500000Y-107460000D02*
X86580000Y-107460000D01*
%TO.N,Net-(D5-DOUT)*%
X84410418Y-112350000D02*
X86690000Y-112350000D01*
%TO.N,Net-(D6-DOUT)*%
X94190000Y-114130000D02*
X94190000Y-117230000D01*
X94190000Y-117230000D02*
X93760000Y-117660000D01*
X93760000Y-117660000D02*
X84720000Y-117660000D01*
%TO.N,Net-(D7-DOUT)*%
X94190000Y-113250000D02*
X94190000Y-109100000D01*
X93409501Y-114030499D02*
X94190000Y-113250000D01*
X93409501Y-115888712D02*
X93409501Y-114030499D01*
%TO.N,Net-(D8-DOUT)*%
X93370000Y-110890000D02*
X93370000Y-109040000D01*
X94250000Y-104150000D02*
X94230000Y-104130000D01*
X94250000Y-108160000D02*
X94250000Y-104150000D01*
X93370000Y-109040000D02*
X94250000Y-108160000D01*
%TO.N,Net-(D10-DIN)*%
X93370000Y-103940000D02*
X93370000Y-105900000D01*
X94190000Y-103120000D02*
X93370000Y-103940000D01*
X94190000Y-99100000D02*
X94190000Y-103120000D01*
%TO.N,Net-(D10-DOUT)*%
X93390000Y-98930000D02*
X93390000Y-100870000D01*
X93390000Y-100870000D02*
X93370000Y-100890000D01*
X94220000Y-98100000D02*
X93390000Y-98930000D01*
X94220000Y-94110000D02*
X94220000Y-98100000D01*
%TO.N,Net-(D11-DOUT)*%
X101010000Y-93410000D02*
X94142768Y-93410000D01*
X94142768Y-93410000D02*
X93360000Y-94192768D01*
X101230000Y-94100000D02*
X101230000Y-93630000D01*
X101220000Y-94110000D02*
X101230000Y-94100000D01*
X101230000Y-93630000D02*
X101010000Y-93410000D01*
X93360000Y-94192768D02*
X93360000Y-95900000D01*
%TO.N,Net-(D12-DOUT)*%
X100800000Y-95900000D02*
X103270000Y-93430000D01*
X108200000Y-93690000D02*
X108200000Y-94110000D01*
X103270000Y-93430000D02*
X107940000Y-93430000D01*
X107940000Y-93430000D02*
X108200000Y-93690000D01*
X100350000Y-95900000D02*
X100800000Y-95900000D01*
%TO.N,Net-(D13-DOUT)*%
X107400000Y-95880000D02*
X107400000Y-96970000D01*
X108180000Y-99090000D02*
X108200000Y-99110000D01*
X107400000Y-96970000D02*
X108180000Y-97750000D01*
X108180000Y-97750000D02*
X108180000Y-99090000D01*
%TO.N,Net-(D14-DOUT)*%
X101840000Y-100900000D02*
X104540000Y-100900000D01*
X101230000Y-104080000D02*
X101230000Y-101510000D01*
X101230000Y-101510000D02*
X101840000Y-100900000D01*
%TO.N,Net-(D15-DOUT)*%
X107970000Y-103420000D02*
X103590000Y-103420000D01*
X108220000Y-103670000D02*
X107970000Y-103420000D01*
X101120000Y-105890000D02*
X100430000Y-105890000D01*
X103590000Y-103420000D02*
X101120000Y-105890000D01*
X108220000Y-104120000D02*
X108220000Y-103670000D01*
%TO.N,Net-(D16-DOUT)*%
X108220000Y-109120000D02*
X108220000Y-108080000D01*
X108220000Y-108080000D02*
X107360000Y-107220000D01*
X107360000Y-107220000D02*
X107360000Y-105880000D01*
%TO.N,Net-(D17-DOUT)*%
X101680000Y-110930000D02*
X104360000Y-110930000D01*
X101170000Y-114080000D02*
X101170000Y-111440000D01*
X101170000Y-111440000D02*
X101680000Y-110930000D01*
%TO.N,Net-(D18-DOUT)*%
X103440000Y-113410000D02*
X108030000Y-113410000D01*
X108220000Y-113600000D02*
X108220000Y-114110000D01*
X100960000Y-115890000D02*
X103440000Y-113410000D01*
X108030000Y-113410000D02*
X108220000Y-113600000D01*
X100370000Y-115890000D02*
X100960000Y-115890000D01*
%TO.N,Net-(D19-DOUT)*%
X116460000Y-114620000D02*
X116090000Y-114990000D01*
X116090000Y-114990000D02*
X108320000Y-114990000D01*
X108320000Y-114990000D02*
X107420000Y-115890000D01*
X116460000Y-106110000D02*
X116460000Y-114620000D01*
%TO.N,Net-(D20-DOUT)*%
X116450000Y-96110000D02*
X116450000Y-102120000D01*
X115720000Y-102850000D02*
X115720000Y-107870000D01*
X116450000Y-102120000D02*
X115720000Y-102850000D01*
X116460000Y-96100000D02*
X116450000Y-96110000D01*
%TO.N,Net-(D21-DOUT)*%
X119730000Y-94770000D02*
X120160000Y-95200000D01*
X115670000Y-97900000D02*
X115670000Y-95230000D01*
X120750000Y-114120000D02*
X127510000Y-114120000D01*
X120160000Y-95200000D02*
X120160000Y-113530000D01*
X115670000Y-95230000D02*
X116130000Y-94770000D01*
X127510000Y-114120000D02*
X127520000Y-114110000D01*
X120160000Y-113530000D02*
X120750000Y-114120000D01*
X116130000Y-94770000D02*
X119730000Y-94770000D01*
%TO.N,Net-(D22-DOUT)*%
X128071000Y-116679000D02*
X127290000Y-117460000D01*
X128071000Y-109621000D02*
X128071000Y-116679000D01*
X127550000Y-109100000D02*
X128071000Y-109621000D01*
X127290000Y-117460000D02*
X122770000Y-117460000D01*
%TO.N,Net-(D23-DOUT)*%
X121980000Y-112460000D02*
X121970000Y-112450000D01*
X121010000Y-107450000D02*
X127420000Y-107450000D01*
X120561000Y-112111000D02*
X120561000Y-107899000D01*
X127420000Y-107450000D02*
X127550000Y-107320000D01*
X127550000Y-107320000D02*
X127550000Y-104090000D01*
X120561000Y-107899000D02*
X121010000Y-107450000D01*
X121970000Y-112450000D02*
X120900000Y-112450000D01*
X120900000Y-112450000D02*
X120561000Y-112111000D01*
%TO.N,Net-(D24-DOUT)*%
X127230000Y-102520000D02*
X127510000Y-102240000D01*
X120580000Y-102840000D02*
X120900000Y-102520000D01*
X127510000Y-99110000D02*
X127530000Y-99090000D01*
X120580000Y-105650000D02*
X120580000Y-102840000D01*
X120810000Y-105880000D02*
X120580000Y-105650000D01*
X120900000Y-102520000D02*
X127230000Y-102520000D01*
X121400000Y-105880000D02*
X120810000Y-105880000D01*
X127510000Y-102240000D02*
X127510000Y-99110000D01*
%TO.N,Net-(D25-DOUT)*%
X127540000Y-97090000D02*
X127540000Y-94140000D01*
X120680000Y-99980000D02*
X120680000Y-97810000D01*
X127540000Y-94140000D02*
X127550000Y-94130000D01*
X121070000Y-97420000D02*
X127210000Y-97420000D01*
X121100000Y-100400000D02*
X120680000Y-99980000D01*
X120680000Y-97810000D02*
X121070000Y-97420000D01*
X127210000Y-97420000D02*
X127540000Y-97090000D01*
%TO.N,Net-(D26-DOUT)*%
X126640000Y-94940000D02*
X126999000Y-94581000D01*
X127321768Y-93579000D02*
X127778232Y-93579000D01*
X121520000Y-94940000D02*
X126640000Y-94940000D01*
X128101000Y-94631000D02*
X128410000Y-94940000D01*
X126999000Y-93901768D02*
X127321768Y-93579000D01*
X126999000Y-94581000D02*
X126999000Y-93901768D01*
X130860000Y-94940000D02*
X131720000Y-94080000D01*
X121270000Y-95190000D02*
X121520000Y-94940000D01*
X127778232Y-93579000D02*
X128101000Y-93901768D01*
X128101000Y-93901768D02*
X128101000Y-94631000D01*
X128410000Y-94940000D02*
X130860000Y-94940000D01*
%TO.N,Net-(D27-DOUT)*%
X138820000Y-94510000D02*
X138290000Y-95040000D01*
X138820000Y-94100000D02*
X138820000Y-94510000D01*
X131410000Y-95040000D02*
X131010000Y-95440000D01*
X131010000Y-95440000D02*
X131010000Y-95910000D01*
X138290000Y-95040000D02*
X131410000Y-95040000D01*
%TO.N,Net-(D28-DOUT)*%
X137460000Y-96810000D02*
X136760000Y-96810000D01*
X138820000Y-99130000D02*
X138820000Y-98170000D01*
X138820000Y-98170000D02*
X137460000Y-96810000D01*
%TO.N,Net-(D29-DOUT)*%
X137370000Y-102520000D02*
X137960000Y-101930000D01*
X137960000Y-101930000D02*
X137960000Y-100920000D01*
X134870000Y-102520000D02*
X137370000Y-102520000D01*
X134490000Y-102900000D02*
X134870000Y-102520000D01*
X134490000Y-104130000D02*
X134490000Y-102900000D01*
%TO.N,Net-(D30-DOUT)*%
X138670000Y-104640000D02*
X138420000Y-104890000D01*
X138420000Y-104890000D02*
X131230000Y-104890000D01*
X131230000Y-104890000D02*
X130970000Y-105150000D01*
X138670000Y-104140000D02*
X138670000Y-104640000D01*
X130970000Y-105150000D02*
X130970000Y-105890000D01*
%TO.N,Net-(D31-DOUT)*%
X137980000Y-107100000D02*
X137980000Y-105900000D01*
X138820000Y-109100000D02*
X138820000Y-107940000D01*
X138820000Y-107940000D02*
X137980000Y-107100000D01*
%TO.N,Net-(D32-DOUT)*%
X132360000Y-112380000D02*
X131780000Y-112960000D01*
X135230000Y-111390000D02*
X135230000Y-111960000D01*
X131780000Y-112960000D02*
X131780000Y-114100000D01*
X134810000Y-112380000D02*
X132360000Y-112380000D01*
X135220000Y-111380000D02*
X135230000Y-111390000D01*
X135230000Y-111960000D02*
X134810000Y-112380000D01*
%TO.N,Net-(D33-DOUT)*%
X138820000Y-114550000D02*
X138810000Y-114550000D01*
X138810000Y-114550000D02*
X138370000Y-114990000D01*
X130970000Y-115300000D02*
X130970000Y-115910000D01*
X131280000Y-114990000D02*
X130970000Y-115300000D01*
X138820000Y-114110000D02*
X138820000Y-114550000D01*
X138370000Y-114990000D02*
X131280000Y-114990000D01*
%TO.N,Net-(D35-DOUT)*%
X147060000Y-115250000D02*
X147060000Y-109100000D01*
X146440000Y-115870000D02*
X147060000Y-115250000D01*
%TO.N,Net-(D36-DOUT)*%
X147080000Y-104110000D02*
X147070000Y-104120000D01*
X147070000Y-104120000D02*
X147070000Y-106760000D01*
X147070000Y-106760000D02*
X146430000Y-107400000D01*
X146430000Y-107400000D02*
X146430000Y-109979000D01*
%TO.N,Net-(D37-DOUT)*%
X146250000Y-102850000D02*
X146250000Y-105890000D01*
X147130000Y-99100000D02*
X147130000Y-101970000D01*
X147130000Y-101970000D02*
X146250000Y-102850000D01*
%TO.N,Net-(D38-DOUT)*%
X146270000Y-100870000D02*
X146250000Y-100890000D01*
X146270000Y-98070000D02*
X146270000Y-100870000D01*
X149550000Y-94780000D02*
X149460000Y-94870000D01*
X149550000Y-94110000D02*
X149550000Y-94780000D01*
X146980000Y-95540000D02*
X146980000Y-97360000D01*
X146980000Y-97360000D02*
X146270000Y-98070000D01*
X147650000Y-94870000D02*
X146980000Y-95540000D01*
X149460000Y-94870000D02*
X147650000Y-94870000D01*
%TO.N,Net-(D39-DOUT)*%
X144420000Y-97480000D02*
X145270000Y-97480000D01*
X146310000Y-96440000D02*
X146310000Y-94700000D01*
X146310000Y-94700000D02*
X147830000Y-93180000D01*
X152460000Y-93180000D02*
X153380000Y-94100000D01*
X145270000Y-97480000D02*
X146310000Y-96440000D01*
X147830000Y-93180000D02*
X152460000Y-93180000D01*
X153380000Y-94100000D02*
X154130000Y-94100000D01*
%TO.N,Net-(D40-DOUT)*%
X153720000Y-95250000D02*
X153720000Y-95910000D01*
X160180000Y-94940000D02*
X154030000Y-94940000D01*
X160510000Y-94100000D02*
X160510000Y-94610000D01*
X160510000Y-94610000D02*
X160180000Y-94940000D01*
X154030000Y-94940000D02*
X153720000Y-95250000D01*
%TO.N,Net-(D41-DOUT)*%
X161120000Y-98030000D02*
X160280000Y-97190000D01*
X161120000Y-99130000D02*
X161120000Y-98030000D01*
X160280000Y-97190000D02*
X160280000Y-95890000D01*
%TO.N,Net-(D42-DOUT)*%
X159580000Y-102490000D02*
X160260000Y-101810000D01*
X160260000Y-101810000D02*
X160260000Y-100900000D01*
X156120415Y-102490000D02*
X159580000Y-102490000D01*
%TO.N,Net-(D43-DOUT)*%
X161040000Y-104600000D02*
X160690000Y-104950000D01*
X153800000Y-104950000D02*
X153490000Y-105260000D01*
X161040000Y-104140000D02*
X161040000Y-104600000D01*
X160690000Y-104950000D02*
X153800000Y-104950000D01*
%TO.N,Net-(D44-DOUT)*%
X160710000Y-105640000D02*
X160760000Y-105590000D01*
X160710000Y-107370000D02*
X160710000Y-105640000D01*
X161000000Y-109060000D02*
X161000000Y-107660000D01*
X161000000Y-107660000D02*
X160710000Y-107370000D01*
%TO.N,/INT*%
X142276769Y-138511999D02*
X157088415Y-138511999D01*
X150200415Y-88849999D02*
X149820415Y-88469999D01*
X149550415Y-92499999D02*
X150200415Y-91849999D01*
X140158805Y-96841609D02*
X140158805Y-136394035D01*
X148840415Y-92499999D02*
X149550415Y-92499999D01*
X148530415Y-88469999D02*
X140158805Y-96841609D01*
X150200415Y-91849999D02*
X150200415Y-88849999D01*
X157088415Y-138511999D02*
X157880415Y-137719999D01*
X140158805Y-136394035D02*
X142276769Y-138511999D01*
X149820415Y-88469999D02*
X148530415Y-88469999D01*
%TO.N,/SCL*%
X140960805Y-98810435D02*
X140960805Y-136061835D01*
X142458969Y-137559999D02*
X152790415Y-137559999D01*
X148970415Y-90800825D02*
X140960805Y-98810435D01*
X140960805Y-136061835D02*
X142458969Y-137559999D01*
%TO.N,/SDA*%
X154859415Y-138110999D02*
X155310415Y-137659999D01*
X140559805Y-97910609D02*
X140559805Y-136227935D01*
X142442869Y-138110999D02*
X154859415Y-138110999D01*
X148870415Y-89599999D02*
X140559805Y-97910609D01*
X140559805Y-136227935D02*
X142442869Y-138110999D01*
D12*
%TO.N,/BTN*%
X148302183Y-87918999D02*
X157849415Y-87918999D01*
X158887415Y-139062999D02*
X142048537Y-139062999D01*
X139607805Y-136622267D02*
X139607805Y-96613377D01*
X160410415Y-137539999D02*
X158887415Y-139062999D01*
X142048537Y-139062999D02*
X139607805Y-136622267D01*
X157849415Y-87918999D02*
X164160415Y-94229999D01*
X139607805Y-96613377D02*
X148302183Y-87918999D01*
D11*
%TO.N,Net-(D45-DOUT)*%
X160270000Y-111780000D02*
X160270000Y-110860000D01*
X155370000Y-112320000D02*
X159730000Y-112320000D01*
X159730000Y-112320000D02*
X160270000Y-111780000D01*
%TO.N,Net-(D46-DOUT)*%
X160670000Y-114610000D02*
X160670000Y-113460000D01*
X161210000Y-112920000D02*
X161730000Y-112920000D01*
X160670000Y-113460000D02*
X161210000Y-112920000D01*
X152060000Y-117204076D02*
X152050000Y-117194076D01*
X152490000Y-114910000D02*
X160370000Y-114910000D01*
X160370000Y-114910000D02*
X160670000Y-114610000D01*
X152050000Y-117194076D02*
X152050000Y-115350000D01*
X152050000Y-115350000D02*
X152490000Y-114910000D01*
%TD*%
%TA.AperFunction,Conductor*%
%TO.N,GND*%
G36*
X122703550Y-92637516D02*
G01*
X122749336Y-92690293D01*
X122760572Y-92741814D01*
X122761250Y-94215443D01*
X122741596Y-94282491D01*
X122688813Y-94328271D01*
X122637250Y-94339500D01*
X121440940Y-94339500D01*
X121400019Y-94350464D01*
X121400019Y-94350465D01*
X121288216Y-94380423D01*
X121198260Y-94432357D01*
X121160455Y-94446585D01*
X121051091Y-94468340D01*
X121051084Y-94468342D01*
X120914511Y-94524912D01*
X120914498Y-94524919D01*
X120791584Y-94607048D01*
X120691614Y-94707018D01*
X120630291Y-94740502D01*
X120560599Y-94735518D01*
X120516252Y-94707017D01*
X120217590Y-94408355D01*
X120217588Y-94408352D01*
X120098717Y-94289481D01*
X120098716Y-94289480D01*
X120011904Y-94239360D01*
X120011904Y-94239359D01*
X120011900Y-94239358D01*
X119961785Y-94210423D01*
X119809057Y-94169499D01*
X119650943Y-94169499D01*
X119643347Y-94169499D01*
X119643331Y-94169500D01*
X116209057Y-94169500D01*
X116050942Y-94169500D01*
X115898215Y-94210423D01*
X115898214Y-94210423D01*
X115898212Y-94210424D01*
X115898209Y-94210425D01*
X115848096Y-94239359D01*
X115848095Y-94239360D01*
X115804689Y-94264420D01*
X115761285Y-94289479D01*
X115761282Y-94289481D01*
X115189481Y-94861282D01*
X115189479Y-94861285D01*
X115139361Y-94948094D01*
X115139359Y-94948096D01*
X115110425Y-94998209D01*
X115110424Y-94998210D01*
X115110423Y-94998215D01*
X115069499Y-95150943D01*
X115069499Y-95150945D01*
X115069499Y-95319046D01*
X115069500Y-95319059D01*
X115069500Y-97410232D01*
X115049815Y-97477271D01*
X115048603Y-97479122D01*
X115004914Y-97544508D01*
X114948343Y-97681082D01*
X114948340Y-97681092D01*
X114919500Y-97826079D01*
X114919500Y-97826082D01*
X114919500Y-97973918D01*
X114919500Y-97973920D01*
X114919499Y-97973920D01*
X114948340Y-98118907D01*
X114948343Y-98118917D01*
X115004912Y-98255488D01*
X115004919Y-98255501D01*
X115087048Y-98378415D01*
X115087051Y-98378419D01*
X115191580Y-98482948D01*
X115191584Y-98482951D01*
X115314498Y-98565080D01*
X115314511Y-98565087D01*
X115450899Y-98621580D01*
X115451087Y-98621658D01*
X115451091Y-98621658D01*
X115451092Y-98621659D01*
X115596079Y-98650500D01*
X115725500Y-98650500D01*
X115792539Y-98670185D01*
X115838294Y-98722989D01*
X115849500Y-98774500D01*
X115849500Y-101819902D01*
X115829815Y-101886941D01*
X115813181Y-101907583D01*
X115239481Y-102481282D01*
X115239479Y-102481285D01*
X115214420Y-102524689D01*
X115203319Y-102543918D01*
X115189361Y-102568094D01*
X115189359Y-102568096D01*
X115160425Y-102618209D01*
X115160424Y-102618210D01*
X115160423Y-102618215D01*
X115119499Y-102770943D01*
X115119499Y-102770945D01*
X115119499Y-102939046D01*
X115119500Y-102939059D01*
X115119500Y-107380232D01*
X115099815Y-107447271D01*
X115098603Y-107449122D01*
X115054914Y-107514508D01*
X114998343Y-107651082D01*
X114998340Y-107651092D01*
X114969500Y-107796079D01*
X114969500Y-107796082D01*
X114969500Y-107943918D01*
X114969500Y-107943920D01*
X114969499Y-107943920D01*
X114998340Y-108088907D01*
X114998343Y-108088917D01*
X115054912Y-108225488D01*
X115054919Y-108225501D01*
X115137048Y-108348415D01*
X115137051Y-108348419D01*
X115241580Y-108452948D01*
X115241584Y-108452951D01*
X115364498Y-108535080D01*
X115364511Y-108535087D01*
X115475631Y-108581114D01*
X115501087Y-108591658D01*
X115501091Y-108591658D01*
X115501092Y-108591659D01*
X115646079Y-108620500D01*
X115735500Y-108620500D01*
X115802539Y-108640185D01*
X115848294Y-108692989D01*
X115859500Y-108744500D01*
X115859500Y-114265500D01*
X115839815Y-114332539D01*
X115787011Y-114378294D01*
X115735500Y-114389500D01*
X109080702Y-114389500D01*
X109013663Y-114369815D01*
X108967908Y-114317011D01*
X108957964Y-114247853D01*
X108959085Y-114241309D01*
X108970499Y-114183922D01*
X108970500Y-114183920D01*
X108970500Y-114036079D01*
X108941659Y-113891092D01*
X108941658Y-113891091D01*
X108941658Y-113891087D01*
X108903396Y-113798713D01*
X108885086Y-113754508D01*
X108841398Y-113689124D01*
X108820521Y-113622447D01*
X108820501Y-113620234D01*
X108820501Y-113520944D01*
X108817105Y-113508271D01*
X108779577Y-113368216D01*
X108779573Y-113368209D01*
X108700524Y-113231290D01*
X108700518Y-113231282D01*
X108527961Y-113058726D01*
X108527959Y-113058723D01*
X108398717Y-112929481D01*
X108398709Y-112929475D01*
X108289572Y-112866465D01*
X108289572Y-112866466D01*
X108261783Y-112850422D01*
X108205881Y-112835443D01*
X108109057Y-112809499D01*
X107950943Y-112809499D01*
X107943347Y-112809499D01*
X107943331Y-112809500D01*
X103526670Y-112809500D01*
X103526654Y-112809499D01*
X103519058Y-112809499D01*
X103360943Y-112809499D01*
X103290334Y-112828419D01*
X103208214Y-112850423D01*
X103208209Y-112850426D01*
X103071290Y-112929475D01*
X103071282Y-112929481D01*
X102095525Y-113905238D01*
X102034202Y-113938723D01*
X101964510Y-113933739D01*
X101908577Y-113891867D01*
X101893283Y-113865010D01*
X101855797Y-113774511D01*
X101835084Y-113724505D01*
X101791396Y-113659121D01*
X101770520Y-113592444D01*
X101770500Y-113590232D01*
X101770500Y-111740097D01*
X101779144Y-111710656D01*
X101785668Y-111680670D01*
X101789422Y-111675654D01*
X101790185Y-111673058D01*
X101806819Y-111652416D01*
X101892416Y-111566819D01*
X101953739Y-111533334D01*
X101980097Y-111530500D01*
X103870233Y-111530500D01*
X103937272Y-111550185D01*
X103939124Y-111551398D01*
X104004498Y-111595080D01*
X104004511Y-111595087D01*
X104114149Y-111640500D01*
X104141087Y-111651658D01*
X104141091Y-111651658D01*
X104141092Y-111651659D01*
X104286079Y-111680500D01*
X104286082Y-111680500D01*
X104433920Y-111680500D01*
X104531462Y-111661096D01*
X104578913Y-111651658D01*
X104715495Y-111595084D01*
X104838416Y-111512951D01*
X104942951Y-111408416D01*
X105025084Y-111285495D01*
X105081658Y-111148913D01*
X105110500Y-111003918D01*
X105110500Y-110856082D01*
X105110500Y-110856079D01*
X105090178Y-110753920D01*
X113749499Y-110753920D01*
X113778340Y-110898907D01*
X113778343Y-110898917D01*
X113834912Y-111035488D01*
X113834919Y-111035501D01*
X113917048Y-111158415D01*
X113917051Y-111158419D01*
X114021580Y-111262948D01*
X114021584Y-111262951D01*
X114144498Y-111345080D01*
X114144511Y-111345087D01*
X114281082Y-111401656D01*
X114281087Y-111401658D01*
X114281091Y-111401658D01*
X114281092Y-111401659D01*
X114426079Y-111430500D01*
X114426082Y-111430500D01*
X114573920Y-111430500D01*
X114684944Y-111408415D01*
X114718913Y-111401658D01*
X114855495Y-111345084D01*
X114978416Y-111262951D01*
X115082951Y-111158416D01*
X115165084Y-111035495D01*
X115221658Y-110898913D01*
X115250500Y-110753918D01*
X115250500Y-110606082D01*
X115250500Y-110606079D01*
X115221659Y-110461092D01*
X115221658Y-110461091D01*
X115221658Y-110461087D01*
X115196451Y-110400232D01*
X115165087Y-110324511D01*
X115165080Y-110324498D01*
X115082951Y-110201584D01*
X115082948Y-110201580D01*
X114978419Y-110097051D01*
X114978415Y-110097048D01*
X114855501Y-110014919D01*
X114855488Y-110014912D01*
X114718917Y-109958343D01*
X114718907Y-109958340D01*
X114573920Y-109929500D01*
X114573918Y-109929500D01*
X114426082Y-109929500D01*
X114426080Y-109929500D01*
X114281092Y-109958340D01*
X114281082Y-109958343D01*
X114144511Y-110014912D01*
X114144498Y-110014919D01*
X114021584Y-110097048D01*
X114021580Y-110097051D01*
X113917051Y-110201580D01*
X113917048Y-110201584D01*
X113834919Y-110324498D01*
X113834912Y-110324511D01*
X113778343Y-110461082D01*
X113778340Y-110461092D01*
X113749500Y-110606079D01*
X113749500Y-110606082D01*
X113749500Y-110753918D01*
X113749500Y-110753920D01*
X113749499Y-110753920D01*
X105090178Y-110753920D01*
X105081659Y-110711092D01*
X105081658Y-110711091D01*
X105081658Y-110711087D01*
X105065092Y-110671092D01*
X105055296Y-110647442D01*
X105025085Y-110574507D01*
X105025080Y-110574498D01*
X104942951Y-110451584D01*
X104942948Y-110451580D01*
X104838419Y-110347051D01*
X104838415Y-110347048D01*
X104715501Y-110264919D01*
X104715488Y-110264912D01*
X104578917Y-110208343D01*
X104578907Y-110208340D01*
X104433920Y-110179500D01*
X104433918Y-110179500D01*
X104286082Y-110179500D01*
X104286080Y-110179500D01*
X104141092Y-110208340D01*
X104141082Y-110208343D01*
X104004511Y-110264912D01*
X104004498Y-110264919D01*
X103939124Y-110308602D01*
X103872447Y-110329480D01*
X103870233Y-110329500D01*
X101766669Y-110329500D01*
X101766653Y-110329499D01*
X101759057Y-110329499D01*
X101600943Y-110329499D01*
X101493587Y-110358265D01*
X101448210Y-110370424D01*
X101448209Y-110370425D01*
X101398096Y-110399359D01*
X101398095Y-110399360D01*
X101396585Y-110400232D01*
X101311285Y-110449479D01*
X101311282Y-110449481D01*
X100689479Y-111071284D01*
X100669814Y-111105346D01*
X100661502Y-111119744D01*
X100610423Y-111208215D01*
X100569499Y-111360943D01*
X100569499Y-111360945D01*
X100569499Y-111529046D01*
X100569500Y-111529059D01*
X100569500Y-113590232D01*
X100549815Y-113657271D01*
X100548603Y-113659122D01*
X100504914Y-113724508D01*
X100448343Y-113861082D01*
X100448340Y-113861092D01*
X100419500Y-114006079D01*
X100419500Y-114006082D01*
X100419500Y-114153918D01*
X100419500Y-114153920D01*
X100419499Y-114153920D01*
X100448340Y-114298907D01*
X100448343Y-114298917D01*
X100504912Y-114435488D01*
X100504919Y-114435501D01*
X100587048Y-114558415D01*
X100587051Y-114558419D01*
X100691580Y-114662948D01*
X100691584Y-114662951D01*
X100814498Y-114745080D01*
X100814507Y-114745085D01*
X100955010Y-114803283D01*
X100980557Y-114823870D01*
X101006824Y-114843534D01*
X101007625Y-114845683D01*
X101009413Y-114847124D01*
X101019775Y-114878258D01*
X101031241Y-114908998D01*
X101030753Y-114911240D01*
X101031478Y-114913418D01*
X101023362Y-114945213D01*
X101016389Y-114977271D01*
X101014555Y-114979720D01*
X101014199Y-114981117D01*
X100995238Y-115005525D01*
X100819686Y-115181076D01*
X100758363Y-115214561D01*
X100688671Y-115209577D01*
X100684553Y-115207957D01*
X100663443Y-115199213D01*
X100588913Y-115168342D01*
X100588908Y-115168341D01*
X100588907Y-115168340D01*
X100443920Y-115139500D01*
X100443918Y-115139500D01*
X100296082Y-115139500D01*
X100296080Y-115139500D01*
X100151092Y-115168340D01*
X100151082Y-115168343D01*
X100014511Y-115224912D01*
X100014498Y-115224919D01*
X99891584Y-115307048D01*
X99891580Y-115307051D01*
X99787051Y-115411580D01*
X99787048Y-115411584D01*
X99704919Y-115534498D01*
X99704912Y-115534511D01*
X99648343Y-115671082D01*
X99648340Y-115671092D01*
X99619500Y-115816079D01*
X99619500Y-115816082D01*
X99619500Y-115963918D01*
X99619500Y-115963920D01*
X99619499Y-115963920D01*
X99648340Y-116108907D01*
X99648343Y-116108917D01*
X99704912Y-116245488D01*
X99704919Y-116245501D01*
X99787048Y-116368415D01*
X99787051Y-116368419D01*
X99891580Y-116472948D01*
X99891584Y-116472951D01*
X100014498Y-116555080D01*
X100014511Y-116555087D01*
X100147977Y-116610370D01*
X100151087Y-116611658D01*
X100151091Y-116611658D01*
X100151092Y-116611659D01*
X100296079Y-116640500D01*
X100296082Y-116640500D01*
X100443920Y-116640500D01*
X100556477Y-116618110D01*
X100588913Y-116611658D01*
X100725495Y-116555084D01*
X100790876Y-116511398D01*
X100808922Y-116505747D01*
X100824832Y-116495523D01*
X100855791Y-116491071D01*
X100857553Y-116490520D01*
X100859767Y-116490500D01*
X100873331Y-116490500D01*
X100873347Y-116490501D01*
X100880943Y-116490501D01*
X101039054Y-116490501D01*
X101039057Y-116490501D01*
X101191785Y-116449577D01*
X101241904Y-116420639D01*
X101328716Y-116370520D01*
X101440520Y-116258716D01*
X101440520Y-116258714D01*
X101450728Y-116248507D01*
X101450729Y-116248504D01*
X103652417Y-114046819D01*
X103713740Y-114013334D01*
X103740098Y-114010500D01*
X107345500Y-114010500D01*
X107412539Y-114030185D01*
X107458294Y-114082989D01*
X107469500Y-114134500D01*
X107469500Y-114183918D01*
X107469500Y-114183920D01*
X107469499Y-114183920D01*
X107498340Y-114328907D01*
X107498343Y-114328917D01*
X107554912Y-114465488D01*
X107554919Y-114465501D01*
X107637048Y-114588415D01*
X107637051Y-114588419D01*
X107667017Y-114618385D01*
X107700502Y-114679708D01*
X107695518Y-114749400D01*
X107667017Y-114793747D01*
X107341699Y-115119064D01*
X107280376Y-115152549D01*
X107278210Y-115153000D01*
X107201092Y-115168340D01*
X107201084Y-115168342D01*
X107064511Y-115224912D01*
X107064498Y-115224919D01*
X106941584Y-115307048D01*
X106941580Y-115307051D01*
X106837051Y-115411580D01*
X106837048Y-115411584D01*
X106754919Y-115534498D01*
X106754912Y-115534511D01*
X106698343Y-115671082D01*
X106698340Y-115671092D01*
X106669500Y-115816079D01*
X106669500Y-115816082D01*
X106669500Y-115963918D01*
X106669500Y-115963920D01*
X106669499Y-115963920D01*
X106698340Y-116108907D01*
X106698343Y-116108917D01*
X106754912Y-116245488D01*
X106754919Y-116245501D01*
X106837048Y-116368415D01*
X106837051Y-116368419D01*
X106941580Y-116472948D01*
X106941584Y-116472951D01*
X107064498Y-116555080D01*
X107064511Y-116555087D01*
X107197977Y-116610370D01*
X107201087Y-116611658D01*
X107201091Y-116611658D01*
X107201092Y-116611659D01*
X107346079Y-116640500D01*
X107346082Y-116640500D01*
X107493920Y-116640500D01*
X107606477Y-116618110D01*
X107638913Y-116611658D01*
X107775495Y-116555084D01*
X107898416Y-116472951D01*
X108002951Y-116368416D01*
X108085084Y-116245495D01*
X108085621Y-116244200D01*
X108141656Y-116108917D01*
X108141658Y-116108913D01*
X108156999Y-116031786D01*
X108189381Y-115969879D01*
X108190872Y-115968361D01*
X108532416Y-115626819D01*
X108593739Y-115593334D01*
X108620097Y-115590500D01*
X116003331Y-115590500D01*
X116003347Y-115590501D01*
X116010943Y-115590501D01*
X116169054Y-115590501D01*
X116169057Y-115590501D01*
X116321785Y-115549577D01*
X116371904Y-115520639D01*
X116458716Y-115470520D01*
X116570520Y-115358716D01*
X116570520Y-115358714D01*
X116580728Y-115348507D01*
X116580730Y-115348504D01*
X116818506Y-115110728D01*
X116818511Y-115110724D01*
X116828714Y-115100520D01*
X116828716Y-115100520D01*
X116940520Y-114988716D01*
X116983993Y-114913418D01*
X117014543Y-114860504D01*
X117015442Y-114858945D01*
X117019577Y-114851785D01*
X117060501Y-114699057D01*
X117060501Y-114540943D01*
X117060501Y-114533348D01*
X117060500Y-114533330D01*
X117060500Y-112838135D01*
X117080185Y-112771096D01*
X117132989Y-112725341D01*
X117202147Y-112715397D01*
X117265703Y-112744422D01*
X117282913Y-112763930D01*
X117283185Y-112763708D01*
X117287051Y-112768419D01*
X117391580Y-112872948D01*
X117391584Y-112872951D01*
X117514498Y-112955080D01*
X117514511Y-112955087D01*
X117651082Y-113011656D01*
X117651087Y-113011658D01*
X117651091Y-113011658D01*
X117651092Y-113011659D01*
X117796079Y-113040500D01*
X117796082Y-113040500D01*
X117943920Y-113040500D01*
X118062354Y-113016941D01*
X118088913Y-113011658D01*
X118209508Y-112961706D01*
X118225488Y-112955087D01*
X118225488Y-112955086D01*
X118225495Y-112955084D01*
X118348416Y-112872951D01*
X118452951Y-112768416D01*
X118535084Y-112645495D01*
X118591658Y-112508913D01*
X118608565Y-112423918D01*
X118620500Y-112363920D01*
X118620500Y-112216079D01*
X118591659Y-112071092D01*
X118591658Y-112071091D01*
X118591658Y-112071087D01*
X118566934Y-112011398D01*
X118535087Y-111934511D01*
X118535080Y-111934498D01*
X118452951Y-111811584D01*
X118452948Y-111811580D01*
X118348419Y-111707051D01*
X118348415Y-111707048D01*
X118225501Y-111624919D01*
X118225488Y-111624912D01*
X118088917Y-111568343D01*
X118088907Y-111568340D01*
X117943920Y-111539500D01*
X117943918Y-111539500D01*
X117796082Y-111539500D01*
X117796080Y-111539500D01*
X117651092Y-111568340D01*
X117651082Y-111568343D01*
X117514511Y-111624912D01*
X117514498Y-111624919D01*
X117391584Y-111707048D01*
X117391580Y-111707051D01*
X117287051Y-111811580D01*
X117283185Y-111816292D01*
X117282073Y-111815379D01*
X117233979Y-111855565D01*
X117164653Y-111864265D01*
X117101629Y-111834105D01*
X117064915Y-111774658D01*
X117060500Y-111741864D01*
X117060500Y-106599767D01*
X117080185Y-106532728D01*
X117081398Y-106530876D01*
X117125080Y-106465501D01*
X117125080Y-106465500D01*
X117125084Y-106465495D01*
X117181658Y-106328913D01*
X117196262Y-106255495D01*
X117210500Y-106183920D01*
X117210500Y-106036079D01*
X117181659Y-105891092D01*
X117181658Y-105891091D01*
X117181658Y-105891087D01*
X117146447Y-105806079D01*
X117125087Y-105754511D01*
X117125080Y-105754498D01*
X117042951Y-105631584D01*
X117042948Y-105631580D01*
X116938419Y-105527051D01*
X116938415Y-105527048D01*
X116815501Y-105444919D01*
X116815488Y-105444912D01*
X116678917Y-105388343D01*
X116678907Y-105388340D01*
X116533920Y-105359500D01*
X116533918Y-105359500D01*
X116444500Y-105359500D01*
X116377461Y-105339815D01*
X116331706Y-105287011D01*
X116320500Y-105235500D01*
X116320500Y-103150096D01*
X116340185Y-103083057D01*
X116356815Y-103062419D01*
X116808506Y-102610727D01*
X116808511Y-102610724D01*
X116818714Y-102600520D01*
X116818716Y-102600520D01*
X116930520Y-102488716D01*
X116966682Y-102426082D01*
X116986969Y-102390944D01*
X116986970Y-102390942D01*
X117009574Y-102351790D01*
X117009575Y-102351789D01*
X117009575Y-102351787D01*
X117009577Y-102351785D01*
X117050501Y-102199057D01*
X117050501Y-102040943D01*
X117050501Y-102033348D01*
X117050500Y-102033330D01*
X117050500Y-96604733D01*
X117070185Y-96537694D01*
X117071398Y-96535842D01*
X117125080Y-96455501D01*
X117125080Y-96455500D01*
X117125084Y-96455495D01*
X117181658Y-96318913D01*
X117210500Y-96173918D01*
X117210500Y-96026082D01*
X117210500Y-96026079D01*
X117181659Y-95881092D01*
X117181658Y-95881091D01*
X117181658Y-95881087D01*
X117173881Y-95862311D01*
X117125087Y-95744511D01*
X117125080Y-95744498D01*
X117042951Y-95621584D01*
X117042948Y-95621580D01*
X117003549Y-95582181D01*
X116970064Y-95520858D01*
X116975048Y-95451166D01*
X117016920Y-95395233D01*
X117082384Y-95370816D01*
X117091230Y-95370500D01*
X119429903Y-95370500D01*
X119459343Y-95379144D01*
X119489330Y-95385668D01*
X119494345Y-95389422D01*
X119496942Y-95390185D01*
X119517584Y-95406819D01*
X119523181Y-95412416D01*
X119556666Y-95473739D01*
X119559500Y-95500097D01*
X119559500Y-113443330D01*
X119559499Y-113443348D01*
X119559499Y-113609054D01*
X119559498Y-113609054D01*
X119600424Y-113761789D01*
X119600425Y-113761790D01*
X119621743Y-113798713D01*
X119621744Y-113798714D01*
X119679477Y-113898712D01*
X119679481Y-113898717D01*
X119798349Y-114017585D01*
X119798355Y-114017590D01*
X120265139Y-114484374D01*
X120265149Y-114484385D01*
X120269479Y-114488715D01*
X120269480Y-114488716D01*
X120381284Y-114600520D01*
X120414622Y-114619767D01*
X120468095Y-114650639D01*
X120468097Y-114650641D01*
X120506151Y-114672611D01*
X120518215Y-114679577D01*
X120670943Y-114720501D01*
X120670946Y-114720501D01*
X120836653Y-114720501D01*
X120836669Y-114720500D01*
X122646743Y-114720500D01*
X122713782Y-114740185D01*
X122759537Y-114792989D01*
X122770742Y-114844442D01*
X122770773Y-114908998D01*
X122771547Y-116592667D01*
X122751893Y-116659715D01*
X122699110Y-116705495D01*
X122671740Y-116714341D01*
X122551091Y-116738340D01*
X122551082Y-116738343D01*
X122414511Y-116794912D01*
X122414498Y-116794919D01*
X122291584Y-116877048D01*
X122291580Y-116877051D01*
X122187051Y-116981580D01*
X122187048Y-116981584D01*
X122104919Y-117104498D01*
X122104912Y-117104511D01*
X122048343Y-117241082D01*
X122048340Y-117241092D01*
X122019500Y-117386079D01*
X122019500Y-117386082D01*
X122019500Y-117533918D01*
X122019500Y-117533920D01*
X122019499Y-117533920D01*
X122048340Y-117678907D01*
X122048343Y-117678917D01*
X122104912Y-117815488D01*
X122104919Y-117815501D01*
X122187048Y-117938415D01*
X122187051Y-117938419D01*
X122291580Y-118042948D01*
X122291584Y-118042951D01*
X122414498Y-118125080D01*
X122414511Y-118125087D01*
X122551082Y-118181656D01*
X122551087Y-118181658D01*
X122551091Y-118181658D01*
X122551092Y-118181659D01*
X122672537Y-118205817D01*
X122734448Y-118238202D01*
X122769022Y-118298918D01*
X122772345Y-118327377D01*
X122775715Y-125651514D01*
X122756061Y-125718562D01*
X122703278Y-125764342D01*
X122651780Y-125775571D01*
X85084480Y-125795239D01*
X85017430Y-125775590D01*
X84971648Y-125722810D01*
X84960415Y-125671239D01*
X84960415Y-118513920D01*
X113729499Y-118513920D01*
X113758340Y-118658907D01*
X113758343Y-118658917D01*
X113814912Y-118795488D01*
X113814919Y-118795501D01*
X113897048Y-118918415D01*
X113897051Y-118918419D01*
X114001580Y-119022948D01*
X114001584Y-119022951D01*
X114124498Y-119105080D01*
X114124511Y-119105087D01*
X114261082Y-119161656D01*
X114261087Y-119161658D01*
X114261091Y-119161658D01*
X114261092Y-119161659D01*
X114406079Y-119190500D01*
X114406082Y-119190500D01*
X114553920Y-119190500D01*
X114651462Y-119171096D01*
X114698913Y-119161658D01*
X114835495Y-119105084D01*
X114958416Y-119022951D01*
X115062951Y-118918416D01*
X115145084Y-118795495D01*
X115201658Y-118658913D01*
X115230500Y-118513918D01*
X115230500Y-118366082D01*
X115230500Y-118366079D01*
X115201659Y-118221092D01*
X115201658Y-118221091D01*
X115201658Y-118221087D01*
X115195333Y-118205817D01*
X115145087Y-118084511D01*
X115145080Y-118084498D01*
X115062951Y-117961584D01*
X115062948Y-117961580D01*
X114958419Y-117857051D01*
X114958415Y-117857048D01*
X114835501Y-117774919D01*
X114835488Y-117774912D01*
X114698917Y-117718343D01*
X114698907Y-117718340D01*
X114553920Y-117689500D01*
X114553918Y-117689500D01*
X114406082Y-117689500D01*
X114406080Y-117689500D01*
X114261092Y-117718340D01*
X114261082Y-117718343D01*
X114124511Y-117774912D01*
X114124498Y-117774919D01*
X114001584Y-117857048D01*
X114001580Y-117857051D01*
X113897051Y-117961580D01*
X113897048Y-117961584D01*
X113814919Y-118084498D01*
X113814912Y-118084511D01*
X113758343Y-118221082D01*
X113758340Y-118221092D01*
X113729500Y-118366079D01*
X113729500Y-118366082D01*
X113729500Y-118513918D01*
X113729500Y-118513920D01*
X113729499Y-118513920D01*
X84960415Y-118513920D01*
X84960415Y-118455605D01*
X84963929Y-118443637D01*
X84962838Y-118431211D01*
X84973588Y-118410742D01*
X84980100Y-118388566D01*
X84990309Y-118378904D01*
X84995326Y-118369354D01*
X85013361Y-118357090D01*
X85023234Y-118347749D01*
X85029885Y-118343976D01*
X85075495Y-118325084D01*
X85144645Y-118278879D01*
X85148586Y-118276644D01*
X85178367Y-118269658D01*
X85207554Y-118260520D01*
X85209767Y-118260500D01*
X93673331Y-118260500D01*
X93673347Y-118260501D01*
X93680943Y-118260501D01*
X93839054Y-118260501D01*
X93839057Y-118260501D01*
X93991785Y-118219577D01*
X94057462Y-118181658D01*
X94128716Y-118140520D01*
X94240520Y-118028716D01*
X94240520Y-118028714D01*
X94250724Y-118018511D01*
X94250728Y-118018506D01*
X94548506Y-117720728D01*
X94548511Y-117720724D01*
X94558714Y-117710520D01*
X94558716Y-117710520D01*
X94670520Y-117598716D01*
X94744686Y-117470256D01*
X94749577Y-117461785D01*
X94790501Y-117309057D01*
X94790501Y-117150943D01*
X94790501Y-117143348D01*
X94790500Y-117143330D01*
X94790500Y-114619767D01*
X94810185Y-114552728D01*
X94811398Y-114550876D01*
X94855080Y-114485501D01*
X94855080Y-114485500D01*
X94855084Y-114485495D01*
X94911658Y-114348913D01*
X94931761Y-114247853D01*
X94940500Y-114203920D01*
X94940500Y-114056079D01*
X94911659Y-113911092D01*
X94911658Y-113911091D01*
X94911658Y-113911087D01*
X94902185Y-113888216D01*
X94855087Y-113774511D01*
X94855080Y-113774498D01*
X94772951Y-113651584D01*
X94772948Y-113651580D01*
X94763261Y-113641893D01*
X94729776Y-113580570D01*
X94734760Y-113510878D01*
X94743550Y-113492222D01*
X94749577Y-113481785D01*
X94790500Y-113329058D01*
X94790500Y-113170943D01*
X94790500Y-109589767D01*
X94810185Y-109522728D01*
X94811398Y-109520876D01*
X94855080Y-109455501D01*
X94855080Y-109455500D01*
X94855084Y-109455495D01*
X94911658Y-109318913D01*
X94921096Y-109271462D01*
X94940500Y-109173920D01*
X94940500Y-109026079D01*
X94911659Y-108881092D01*
X94911658Y-108881091D01*
X94911658Y-108881087D01*
X94911656Y-108881082D01*
X94855087Y-108744511D01*
X94855080Y-108744498D01*
X94772949Y-108621581D01*
X94771007Y-108619214D01*
X94770378Y-108617732D01*
X94769567Y-108616519D01*
X94769797Y-108616365D01*
X94762424Y-108599002D01*
X94749686Y-108581114D01*
X94749036Y-108567470D01*
X94743699Y-108554902D01*
X94747406Y-108533259D01*
X94746361Y-108511323D01*
X94754755Y-108490354D01*
X94755495Y-108486035D01*
X94759465Y-108478580D01*
X94784675Y-108434916D01*
X94809577Y-108391785D01*
X94850501Y-108239057D01*
X94850501Y-108080943D01*
X94850501Y-108073348D01*
X94850500Y-108073330D01*
X94850500Y-105963920D01*
X99679499Y-105963920D01*
X99708340Y-106108907D01*
X99708343Y-106108917D01*
X99764912Y-106245488D01*
X99764919Y-106245501D01*
X99847048Y-106368415D01*
X99847051Y-106368419D01*
X99951580Y-106472948D01*
X99951584Y-106472951D01*
X100074498Y-106555080D01*
X100074511Y-106555087D01*
X100186947Y-106601659D01*
X100211087Y-106611658D01*
X100211091Y-106611658D01*
X100211092Y-106611659D01*
X100356079Y-106640500D01*
X100356082Y-106640500D01*
X100503920Y-106640500D01*
X100601462Y-106621096D01*
X100648913Y-106611658D01*
X100761353Y-106565084D01*
X100785488Y-106555087D01*
X100785488Y-106555086D01*
X100785495Y-106555084D01*
X100850876Y-106511398D01*
X100868922Y-106505747D01*
X100884832Y-106495523D01*
X100915791Y-106491071D01*
X100917553Y-106490520D01*
X100919767Y-106490500D01*
X101033331Y-106490500D01*
X101033347Y-106490501D01*
X101040943Y-106490501D01*
X101199054Y-106490501D01*
X101199057Y-106490501D01*
X101351785Y-106449577D01*
X101428516Y-106405276D01*
X101488716Y-106370520D01*
X101600520Y-106258716D01*
X101600520Y-106258714D01*
X101610724Y-106248511D01*
X101610727Y-106248506D01*
X101905313Y-105953920D01*
X106609499Y-105953920D01*
X106638340Y-106098907D01*
X106638343Y-106098917D01*
X106694912Y-106235488D01*
X106694919Y-106235501D01*
X106738602Y-106300876D01*
X106759480Y-106367553D01*
X106759500Y-106369767D01*
X106759500Y-107133330D01*
X106759499Y-107133348D01*
X106759499Y-107299054D01*
X106759498Y-107299054D01*
X106800423Y-107451785D01*
X106829358Y-107501900D01*
X106829359Y-107501904D01*
X106829360Y-107501904D01*
X106879479Y-107588714D01*
X106879481Y-107588717D01*
X106998349Y-107707585D01*
X106998355Y-107707590D01*
X107583181Y-108292416D01*
X107616666Y-108353739D01*
X107619500Y-108380097D01*
X107619500Y-108630232D01*
X107599815Y-108697271D01*
X107598603Y-108699122D01*
X107554914Y-108764508D01*
X107498343Y-108901082D01*
X107498340Y-108901092D01*
X107469500Y-109046079D01*
X107469500Y-109046082D01*
X107469500Y-109193918D01*
X107469500Y-109193920D01*
X107469499Y-109193920D01*
X107498340Y-109338907D01*
X107498343Y-109338917D01*
X107554912Y-109475488D01*
X107554919Y-109475501D01*
X107637048Y-109598415D01*
X107637051Y-109598419D01*
X107741580Y-109702948D01*
X107741584Y-109702951D01*
X107864498Y-109785080D01*
X107864511Y-109785087D01*
X108001082Y-109841656D01*
X108001087Y-109841658D01*
X108001091Y-109841658D01*
X108001092Y-109841659D01*
X108146079Y-109870500D01*
X108146082Y-109870500D01*
X108293920Y-109870500D01*
X108391462Y-109851096D01*
X108438913Y-109841658D01*
X108575495Y-109785084D01*
X108698416Y-109702951D01*
X108802951Y-109598416D01*
X108885084Y-109475495D01*
X108941658Y-109338913D01*
X108970500Y-109193918D01*
X108970500Y-109046082D01*
X108970500Y-109046079D01*
X108941659Y-108901092D01*
X108941658Y-108901091D01*
X108941658Y-108901087D01*
X108885084Y-108764505D01*
X108841396Y-108699121D01*
X108820520Y-108632444D01*
X108820500Y-108630232D01*
X108820500Y-108169060D01*
X108820501Y-108169047D01*
X108820501Y-108000944D01*
X108803747Y-107938419D01*
X108779577Y-107848216D01*
X108749476Y-107796079D01*
X108700524Y-107711290D01*
X108700518Y-107711282D01*
X107996819Y-107007583D01*
X107963334Y-106946260D01*
X107960500Y-106919902D01*
X107960500Y-106369767D01*
X107980185Y-106302728D01*
X107981398Y-106300876D01*
X108025080Y-106235501D01*
X108025080Y-106235500D01*
X108025084Y-106235495D01*
X108081658Y-106098913D01*
X108094157Y-106036079D01*
X108110500Y-105953920D01*
X108110500Y-105806079D01*
X108081659Y-105661092D01*
X108081658Y-105661091D01*
X108081658Y-105661087D01*
X108081656Y-105661082D01*
X108025087Y-105524511D01*
X108025080Y-105524498D01*
X107942951Y-105401584D01*
X107942948Y-105401580D01*
X107838419Y-105297051D01*
X107838415Y-105297048D01*
X107715501Y-105214919D01*
X107715488Y-105214912D01*
X107578917Y-105158343D01*
X107578907Y-105158340D01*
X107433920Y-105129500D01*
X107433918Y-105129500D01*
X107286082Y-105129500D01*
X107286080Y-105129500D01*
X107141092Y-105158340D01*
X107141082Y-105158343D01*
X107004511Y-105214912D01*
X107004498Y-105214919D01*
X106881584Y-105297048D01*
X106881580Y-105297051D01*
X106777051Y-105401580D01*
X106777048Y-105401584D01*
X106694919Y-105524498D01*
X106694912Y-105524511D01*
X106638343Y-105661082D01*
X106638340Y-105661092D01*
X106609500Y-105806079D01*
X106609500Y-105806082D01*
X106609500Y-105953918D01*
X106609500Y-105953920D01*
X106609499Y-105953920D01*
X101905313Y-105953920D01*
X103802416Y-104056819D01*
X103863739Y-104023334D01*
X103890097Y-104020500D01*
X107345500Y-104020500D01*
X107412539Y-104040185D01*
X107458294Y-104092989D01*
X107469500Y-104144500D01*
X107469500Y-104193918D01*
X107469500Y-104193920D01*
X107469499Y-104193920D01*
X107498340Y-104338907D01*
X107498343Y-104338917D01*
X107554912Y-104475488D01*
X107554919Y-104475501D01*
X107637048Y-104598415D01*
X107637051Y-104598419D01*
X107741580Y-104702948D01*
X107741584Y-104702951D01*
X107864498Y-104785080D01*
X107864511Y-104785087D01*
X107974149Y-104830500D01*
X108001087Y-104841658D01*
X108001091Y-104841658D01*
X108001092Y-104841659D01*
X108146079Y-104870500D01*
X108146082Y-104870500D01*
X108293920Y-104870500D01*
X108391462Y-104851096D01*
X108438913Y-104841658D01*
X108575495Y-104785084D01*
X108698416Y-104702951D01*
X108802951Y-104598416D01*
X108885084Y-104475495D01*
X108941658Y-104338913D01*
X108951096Y-104291462D01*
X108970500Y-104193920D01*
X108970500Y-104046079D01*
X108941659Y-103901092D01*
X108941658Y-103901091D01*
X108941658Y-103901087D01*
X108885084Y-103764505D01*
X108841396Y-103699121D01*
X108836594Y-103685820D01*
X108829788Y-103677318D01*
X108825286Y-103654498D01*
X108821169Y-103643093D01*
X108820500Y-103636677D01*
X108820500Y-103590943D01*
X108815232Y-103571284D01*
X108797079Y-103503535D01*
X108779577Y-103438216D01*
X108756556Y-103398342D01*
X108700524Y-103301290D01*
X108700521Y-103301286D01*
X108700520Y-103301284D01*
X108588716Y-103189480D01*
X108588715Y-103189479D01*
X108584385Y-103185149D01*
X108584374Y-103185139D01*
X108457590Y-103058355D01*
X108457588Y-103058352D01*
X108338717Y-102939481D01*
X108338709Y-102939475D01*
X108243781Y-102884669D01*
X108243779Y-102884668D01*
X108201790Y-102860425D01*
X108201789Y-102860424D01*
X108183394Y-102855495D01*
X108049057Y-102819499D01*
X107890943Y-102819499D01*
X107883347Y-102819499D01*
X107883331Y-102819500D01*
X103510941Y-102819500D01*
X103488568Y-102825494D01*
X103488569Y-102825495D01*
X103358214Y-102860423D01*
X103358209Y-102860426D01*
X103221290Y-102939475D01*
X103221282Y-102939481D01*
X103109478Y-103051286D01*
X102173438Y-103987325D01*
X102112115Y-104020810D01*
X102042423Y-104015826D01*
X101986490Y-103973954D01*
X101964140Y-103923835D01*
X101951659Y-103861094D01*
X101951659Y-103861092D01*
X101951658Y-103861087D01*
X101895084Y-103724505D01*
X101851396Y-103659121D01*
X101830520Y-103592444D01*
X101830500Y-103590232D01*
X101830500Y-101810097D01*
X101850185Y-101743058D01*
X101866819Y-101722416D01*
X102052416Y-101536819D01*
X102113739Y-101503334D01*
X102140097Y-101500500D01*
X104050233Y-101500500D01*
X104117272Y-101520185D01*
X104119124Y-101521398D01*
X104184498Y-101565080D01*
X104184511Y-101565087D01*
X104296947Y-101611659D01*
X104321087Y-101621658D01*
X104321091Y-101621658D01*
X104321092Y-101621659D01*
X104466079Y-101650500D01*
X104466082Y-101650500D01*
X104613920Y-101650500D01*
X104711462Y-101631096D01*
X104758913Y-101621658D01*
X104895495Y-101565084D01*
X105018416Y-101482951D01*
X105122951Y-101378416D01*
X105205084Y-101255495D01*
X105261658Y-101118913D01*
X105279448Y-101029478D01*
X105290500Y-100973920D01*
X105290500Y-100826079D01*
X105261659Y-100681092D01*
X105261658Y-100681091D01*
X105261658Y-100681087D01*
X105257514Y-100671082D01*
X105205087Y-100544511D01*
X105205080Y-100544498D01*
X105122951Y-100421584D01*
X105122948Y-100421580D01*
X105018419Y-100317051D01*
X105018415Y-100317048D01*
X104895501Y-100234919D01*
X104895488Y-100234912D01*
X104758917Y-100178343D01*
X104758907Y-100178340D01*
X104613920Y-100149500D01*
X104613918Y-100149500D01*
X104466082Y-100149500D01*
X104466080Y-100149500D01*
X104321092Y-100178340D01*
X104321082Y-100178343D01*
X104184511Y-100234912D01*
X104184498Y-100234919D01*
X104119124Y-100278602D01*
X104052447Y-100299480D01*
X104050233Y-100299500D01*
X101919057Y-100299500D01*
X101760942Y-100299500D01*
X101608215Y-100340423D01*
X101608214Y-100340423D01*
X101608212Y-100340424D01*
X101608209Y-100340425D01*
X101558096Y-100369359D01*
X101558095Y-100369360D01*
X101514689Y-100394420D01*
X101471285Y-100419479D01*
X101471282Y-100419481D01*
X100749481Y-101141282D01*
X100749480Y-101141284D01*
X100716662Y-101198127D01*
X100670423Y-101278215D01*
X100629499Y-101430943D01*
X100629499Y-101430945D01*
X100629499Y-101599046D01*
X100629500Y-101599059D01*
X100629500Y-103590232D01*
X100609815Y-103657271D01*
X100608604Y-103659120D01*
X100564916Y-103724505D01*
X100564914Y-103724508D01*
X100508343Y-103861082D01*
X100508340Y-103861092D01*
X100479500Y-104006079D01*
X100479500Y-104006082D01*
X100479500Y-104153918D01*
X100479500Y-104153920D01*
X100479499Y-104153920D01*
X100508340Y-104298907D01*
X100508343Y-104298917D01*
X100564912Y-104435488D01*
X100564919Y-104435501D01*
X100647048Y-104558415D01*
X100647051Y-104558419D01*
X100751580Y-104662948D01*
X100751584Y-104662951D01*
X100874498Y-104745080D01*
X100874511Y-104745087D01*
X101011082Y-104801656D01*
X101011087Y-104801658D01*
X101044559Y-104808316D01*
X101073835Y-104814140D01*
X101135746Y-104846525D01*
X101170321Y-104907241D01*
X101166581Y-104977010D01*
X101137325Y-105023438D01*
X100947583Y-105213180D01*
X100886260Y-105246665D01*
X100816568Y-105241681D01*
X100791011Y-105228601D01*
X100785501Y-105224919D01*
X100785488Y-105224912D01*
X100648917Y-105168343D01*
X100648907Y-105168340D01*
X100503920Y-105139500D01*
X100503918Y-105139500D01*
X100356082Y-105139500D01*
X100356080Y-105139500D01*
X100211092Y-105168340D01*
X100211082Y-105168343D01*
X100074511Y-105224912D01*
X100074498Y-105224919D01*
X99951584Y-105307048D01*
X99951580Y-105307051D01*
X99847051Y-105411580D01*
X99847048Y-105411584D01*
X99764919Y-105534498D01*
X99764912Y-105534511D01*
X99708343Y-105671082D01*
X99708340Y-105671092D01*
X99679500Y-105816079D01*
X99679500Y-105816082D01*
X99679500Y-105963918D01*
X99679500Y-105963920D01*
X99679499Y-105963920D01*
X94850500Y-105963920D01*
X94850500Y-104589834D01*
X94870185Y-104522795D01*
X94871398Y-104520943D01*
X94895084Y-104485495D01*
X94951658Y-104348913D01*
X94980500Y-104203918D01*
X94980500Y-104056082D01*
X94980500Y-104056079D01*
X94951659Y-103911092D01*
X94951658Y-103911091D01*
X94951658Y-103911087D01*
X94930950Y-103861094D01*
X94895087Y-103774511D01*
X94895080Y-103774498D01*
X94812951Y-103651584D01*
X94812948Y-103651580D01*
X94730319Y-103568951D01*
X94716973Y-103544510D01*
X94700820Y-103521826D01*
X94700460Y-103514268D01*
X94696834Y-103507628D01*
X94698820Y-103479848D01*
X94697496Y-103452035D01*
X94701530Y-103441957D01*
X94701818Y-103437936D01*
X94710604Y-103419286D01*
X94722697Y-103398342D01*
X94749577Y-103351785D01*
X94790500Y-103199057D01*
X94790500Y-103040943D01*
X94790500Y-99589767D01*
X94810185Y-99522728D01*
X94811398Y-99520876D01*
X94855080Y-99455501D01*
X94855080Y-99455500D01*
X94855084Y-99455495D01*
X94911658Y-99318913D01*
X94921096Y-99271462D01*
X94940500Y-99173920D01*
X94940500Y-99026079D01*
X94911659Y-98881092D01*
X94911658Y-98881091D01*
X94911658Y-98881087D01*
X94899172Y-98850943D01*
X94855087Y-98744511D01*
X94855080Y-98744498D01*
X94772951Y-98621584D01*
X94772948Y-98621580D01*
X94738358Y-98586990D01*
X94725013Y-98562551D01*
X94708859Y-98539866D01*
X94708498Y-98532307D01*
X94704873Y-98525667D01*
X94706859Y-98497892D01*
X94705534Y-98470076D01*
X94709569Y-98459995D01*
X94709857Y-98455975D01*
X94718646Y-98437320D01*
X94757269Y-98370423D01*
X94779577Y-98331785D01*
X94820500Y-98179058D01*
X94820500Y-98020943D01*
X94820500Y-94599767D01*
X94840185Y-94532728D01*
X94841398Y-94530876D01*
X94885080Y-94465501D01*
X94885080Y-94465500D01*
X94885084Y-94465495D01*
X94887576Y-94459480D01*
X94932731Y-94350464D01*
X94941658Y-94328913D01*
X94953014Y-94271825D01*
X94970500Y-94183920D01*
X94970500Y-94134500D01*
X94990185Y-94067461D01*
X95042989Y-94021706D01*
X95094500Y-94010500D01*
X100345500Y-94010500D01*
X100412539Y-94030185D01*
X100458294Y-94082989D01*
X100469500Y-94134500D01*
X100469500Y-94183918D01*
X100469500Y-94183920D01*
X100469499Y-94183920D01*
X100498340Y-94328907D01*
X100498343Y-94328917D01*
X100554912Y-94465488D01*
X100554919Y-94465501D01*
X100637048Y-94588415D01*
X100637051Y-94588419D01*
X100741580Y-94692948D01*
X100741584Y-94692951D01*
X100865464Y-94775726D01*
X100910269Y-94829338D01*
X100918976Y-94898663D01*
X100888821Y-94961691D01*
X100884254Y-94966509D01*
X100700691Y-95150072D01*
X100639368Y-95183557D01*
X100575088Y-95178960D01*
X100574740Y-95180110D01*
X100568907Y-95178340D01*
X100423920Y-95149500D01*
X100423918Y-95149500D01*
X100276082Y-95149500D01*
X100276080Y-95149500D01*
X100131092Y-95178340D01*
X100131082Y-95178343D01*
X99994511Y-95234912D01*
X99994498Y-95234919D01*
X99871584Y-95317048D01*
X99871580Y-95317051D01*
X99767051Y-95421580D01*
X99767048Y-95421584D01*
X99684919Y-95544498D01*
X99684912Y-95544511D01*
X99628343Y-95681082D01*
X99628340Y-95681092D01*
X99599500Y-95826079D01*
X99599500Y-95826082D01*
X99599500Y-95973918D01*
X99599500Y-95973920D01*
X99599499Y-95973920D01*
X99628340Y-96118907D01*
X99628343Y-96118917D01*
X99684912Y-96255488D01*
X99684919Y-96255501D01*
X99767048Y-96378415D01*
X99767051Y-96378419D01*
X99871580Y-96482948D01*
X99871584Y-96482951D01*
X99994498Y-96565080D01*
X99994511Y-96565087D01*
X100090226Y-96604733D01*
X100131087Y-96621658D01*
X100131091Y-96621658D01*
X100131092Y-96621659D01*
X100276079Y-96650500D01*
X100276082Y-96650500D01*
X100423920Y-96650500D01*
X100521462Y-96631096D01*
X100568913Y-96621658D01*
X100705495Y-96565084D01*
X100770875Y-96521398D01*
X100837552Y-96500521D01*
X100839765Y-96500501D01*
X100879054Y-96500501D01*
X100879057Y-96500501D01*
X101031785Y-96459577D01*
X101081904Y-96430639D01*
X101168716Y-96380520D01*
X101280520Y-96268716D01*
X101280520Y-96268714D01*
X101290728Y-96258507D01*
X101290729Y-96258504D01*
X101595313Y-95953920D01*
X106649499Y-95953920D01*
X106678340Y-96098907D01*
X106678343Y-96098917D01*
X106734912Y-96235488D01*
X106734919Y-96235501D01*
X106778602Y-96300876D01*
X106799480Y-96367553D01*
X106799500Y-96369767D01*
X106799500Y-96883330D01*
X106799499Y-96883348D01*
X106799499Y-97049054D01*
X106799498Y-97049054D01*
X106840423Y-97201785D01*
X106867970Y-97249496D01*
X106867971Y-97249500D01*
X106867972Y-97249500D01*
X106919479Y-97338714D01*
X106919481Y-97338717D01*
X107038349Y-97457585D01*
X107038355Y-97457590D01*
X107543181Y-97962416D01*
X107576666Y-98023739D01*
X107579500Y-98050097D01*
X107579500Y-98650165D01*
X107559815Y-98717204D01*
X107558603Y-98719055D01*
X107534913Y-98754508D01*
X107478343Y-98891082D01*
X107478340Y-98891092D01*
X107449500Y-99036079D01*
X107449500Y-99036082D01*
X107449500Y-99183918D01*
X107449500Y-99183920D01*
X107449499Y-99183920D01*
X107478340Y-99328907D01*
X107478343Y-99328917D01*
X107534912Y-99465488D01*
X107534919Y-99465501D01*
X107617048Y-99588415D01*
X107617051Y-99588419D01*
X107721580Y-99692948D01*
X107721584Y-99692951D01*
X107844498Y-99775080D01*
X107844511Y-99775087D01*
X107981082Y-99831656D01*
X107981087Y-99831658D01*
X107981091Y-99831658D01*
X107981092Y-99831659D01*
X108126079Y-99860500D01*
X108126082Y-99860500D01*
X108273920Y-99860500D01*
X108371462Y-99841096D01*
X108418913Y-99831658D01*
X108555495Y-99775084D01*
X108678416Y-99692951D01*
X108782951Y-99588416D01*
X108865084Y-99465495D01*
X108921658Y-99328913D01*
X108950500Y-99183918D01*
X108950500Y-99036082D01*
X108950500Y-99036079D01*
X108921659Y-98891092D01*
X108921658Y-98891091D01*
X108921658Y-98891087D01*
X108905030Y-98850943D01*
X108865087Y-98754511D01*
X108865080Y-98754498D01*
X108801398Y-98659191D01*
X108780520Y-98592513D01*
X108780500Y-98590300D01*
X108780500Y-97839060D01*
X108780501Y-97839047D01*
X108780501Y-97670944D01*
X108741105Y-97523920D01*
X108739577Y-97518216D01*
X108677233Y-97410232D01*
X108660524Y-97381290D01*
X108660518Y-97381282D01*
X108036819Y-96757583D01*
X108003334Y-96696260D01*
X108000500Y-96669902D01*
X108000500Y-96369767D01*
X108020185Y-96302728D01*
X108021398Y-96300876D01*
X108065080Y-96235501D01*
X108065080Y-96235500D01*
X108065084Y-96235495D01*
X108121658Y-96098913D01*
X108145934Y-95976872D01*
X108150500Y-95953920D01*
X108150500Y-95806079D01*
X108121659Y-95661092D01*
X108121658Y-95661091D01*
X108121658Y-95661087D01*
X108121656Y-95661082D01*
X108065087Y-95524511D01*
X108065080Y-95524498D01*
X107982951Y-95401584D01*
X107982948Y-95401580D01*
X107878419Y-95297051D01*
X107878415Y-95297048D01*
X107755501Y-95214919D01*
X107755488Y-95214912D01*
X107618917Y-95158343D01*
X107618907Y-95158340D01*
X107473920Y-95129500D01*
X107473918Y-95129500D01*
X107326082Y-95129500D01*
X107326080Y-95129500D01*
X107181092Y-95158340D01*
X107181082Y-95158343D01*
X107044511Y-95214912D01*
X107044498Y-95214919D01*
X106921584Y-95297048D01*
X106921580Y-95297051D01*
X106817051Y-95401580D01*
X106817048Y-95401584D01*
X106734919Y-95524498D01*
X106734912Y-95524511D01*
X106678343Y-95661082D01*
X106678340Y-95661092D01*
X106649500Y-95806079D01*
X106649500Y-95806082D01*
X106649500Y-95953918D01*
X106649500Y-95953920D01*
X106649499Y-95953920D01*
X101595313Y-95953920D01*
X103482416Y-94066819D01*
X103543739Y-94033334D01*
X103570097Y-94030500D01*
X107325500Y-94030500D01*
X107392539Y-94050185D01*
X107438294Y-94102989D01*
X107449500Y-94154500D01*
X107449500Y-94183918D01*
X107449500Y-94183920D01*
X107449499Y-94183920D01*
X107478340Y-94328907D01*
X107478343Y-94328917D01*
X107534912Y-94465488D01*
X107534919Y-94465501D01*
X107617048Y-94588415D01*
X107617051Y-94588419D01*
X107721580Y-94692948D01*
X107721584Y-94692951D01*
X107844498Y-94775080D01*
X107844511Y-94775087D01*
X107975486Y-94829338D01*
X107981087Y-94831658D01*
X107981091Y-94831658D01*
X107981092Y-94831659D01*
X108126079Y-94860500D01*
X108126082Y-94860500D01*
X108273920Y-94860500D01*
X108371462Y-94841096D01*
X108418913Y-94831658D01*
X108531353Y-94785084D01*
X108555488Y-94775087D01*
X108555488Y-94775086D01*
X108555495Y-94775084D01*
X108678416Y-94692951D01*
X108782951Y-94588416D01*
X108865084Y-94465495D01*
X108867576Y-94459480D01*
X108912731Y-94350464D01*
X108921658Y-94328913D01*
X108933014Y-94271825D01*
X108950500Y-94183920D01*
X108950500Y-94036079D01*
X108921659Y-93891092D01*
X108921658Y-93891091D01*
X108921658Y-93891087D01*
X108916326Y-93878215D01*
X108865086Y-93754508D01*
X108821398Y-93689124D01*
X108800521Y-93622447D01*
X108800501Y-93620234D01*
X108800501Y-93610944D01*
X108784424Y-93550945D01*
X108759577Y-93458216D01*
X108759573Y-93458209D01*
X108680524Y-93321290D01*
X108680518Y-93321282D01*
X108437961Y-93078726D01*
X108437959Y-93078723D01*
X108308717Y-92949481D01*
X108308716Y-92949480D01*
X108274076Y-92929481D01*
X108224574Y-92900901D01*
X108224566Y-92900897D01*
X108221904Y-92899360D01*
X108171785Y-92870423D01*
X108157914Y-92866706D01*
X108146163Y-92860678D01*
X108130014Y-92845342D01*
X108111000Y-92833751D01*
X108105172Y-92821750D01*
X108095499Y-92812565D01*
X108090205Y-92790933D01*
X108080476Y-92770901D01*
X108082060Y-92757654D01*
X108078890Y-92744698D01*
X108086131Y-92723638D01*
X108088777Y-92701526D01*
X108097271Y-92691239D01*
X108101609Y-92678625D01*
X108119084Y-92664824D01*
X108133266Y-92647652D01*
X108145974Y-92643590D01*
X108156443Y-92635324D01*
X108178605Y-92633162D01*
X108199820Y-92626383D01*
X108202618Y-92626348D01*
X122636501Y-92617871D01*
X122703550Y-92637516D01*
G37*
%TD.AperFunction*%
%TA.AperFunction,Conductor*%
G36*
X93888665Y-92654439D02*
G01*
X93934451Y-92707216D01*
X93944435Y-92776369D01*
X93915448Y-92839942D01*
X93883700Y-92866174D01*
X93876353Y-92870417D01*
X93876340Y-92870424D01*
X93774055Y-92929477D01*
X93774050Y-92929481D01*
X92879479Y-93824052D01*
X92857499Y-93862123D01*
X92848209Y-93878216D01*
X92800423Y-93960983D01*
X92759499Y-94113711D01*
X92759499Y-94113713D01*
X92759499Y-94281814D01*
X92759500Y-94281827D01*
X92759500Y-95410232D01*
X92739815Y-95477271D01*
X92738603Y-95479122D01*
X92694914Y-95544508D01*
X92638343Y-95681082D01*
X92638340Y-95681092D01*
X92609500Y-95826079D01*
X92609500Y-95826082D01*
X92609500Y-95973918D01*
X92609500Y-95973920D01*
X92609499Y-95973920D01*
X92638340Y-96118907D01*
X92638343Y-96118917D01*
X92694912Y-96255488D01*
X92694919Y-96255501D01*
X92777048Y-96378415D01*
X92777051Y-96378419D01*
X92881580Y-96482948D01*
X92881584Y-96482951D01*
X93004498Y-96565080D01*
X93004511Y-96565087D01*
X93100226Y-96604733D01*
X93141087Y-96621658D01*
X93141091Y-96621658D01*
X93141092Y-96621659D01*
X93286079Y-96650500D01*
X93286082Y-96650500D01*
X93433918Y-96650500D01*
X93471309Y-96643062D01*
X93540897Y-96649288D01*
X93596076Y-96692150D01*
X93619322Y-96758039D01*
X93619500Y-96764679D01*
X93619500Y-97799902D01*
X93599815Y-97866941D01*
X93583181Y-97887583D01*
X92909481Y-98561282D01*
X92909475Y-98561290D01*
X92868893Y-98631582D01*
X92868893Y-98631584D01*
X92830423Y-98698214D01*
X92830423Y-98698215D01*
X92789499Y-98850943D01*
X92789499Y-98850945D01*
X92789499Y-99019046D01*
X92789500Y-99019059D01*
X92789500Y-100370300D01*
X92769815Y-100437339D01*
X92768602Y-100439191D01*
X92704919Y-100534498D01*
X92704912Y-100534511D01*
X92648343Y-100671082D01*
X92648340Y-100671092D01*
X92619500Y-100816079D01*
X92619500Y-100816082D01*
X92619500Y-100963918D01*
X92619500Y-100963920D01*
X92619499Y-100963920D01*
X92648340Y-101108907D01*
X92648343Y-101108917D01*
X92704912Y-101245488D01*
X92704919Y-101245501D01*
X92787048Y-101368415D01*
X92787051Y-101368419D01*
X92891580Y-101472948D01*
X92891584Y-101472951D01*
X93014498Y-101555080D01*
X93014511Y-101555087D01*
X93120670Y-101599059D01*
X93151087Y-101611658D01*
X93151091Y-101611658D01*
X93151092Y-101611659D01*
X93296079Y-101640500D01*
X93296082Y-101640500D01*
X93443920Y-101640500D01*
X93449983Y-101639903D01*
X93450171Y-101641816D01*
X93510879Y-101647238D01*
X93566064Y-101690090D01*
X93589321Y-101755976D01*
X93589500Y-101762636D01*
X93589500Y-102819902D01*
X93569815Y-102886941D01*
X93553181Y-102907583D01*
X92889483Y-103571281D01*
X92889479Y-103571284D01*
X92867793Y-103608846D01*
X92858627Y-103624724D01*
X92810423Y-103708215D01*
X92769499Y-103860943D01*
X92769499Y-103860945D01*
X92769499Y-104029046D01*
X92769500Y-104029059D01*
X92769500Y-105410232D01*
X92749815Y-105477271D01*
X92748603Y-105479122D01*
X92704914Y-105544508D01*
X92648343Y-105681082D01*
X92648340Y-105681092D01*
X92619500Y-105826079D01*
X92619500Y-105826082D01*
X92619500Y-105973918D01*
X92619500Y-105973920D01*
X92619499Y-105973920D01*
X92648340Y-106118907D01*
X92648343Y-106118917D01*
X92704912Y-106255488D01*
X92704919Y-106255501D01*
X92787048Y-106378415D01*
X92787051Y-106378419D01*
X92891580Y-106482948D01*
X92891584Y-106482951D01*
X93014498Y-106565080D01*
X93014511Y-106565087D01*
X93149945Y-106621185D01*
X93151087Y-106621658D01*
X93151091Y-106621658D01*
X93151092Y-106621659D01*
X93296079Y-106650500D01*
X93296082Y-106650500D01*
X93443919Y-106650500D01*
X93470004Y-106645311D01*
X93501308Y-106639084D01*
X93570899Y-106645311D01*
X93626077Y-106688173D01*
X93649322Y-106754062D01*
X93649500Y-106760701D01*
X93649500Y-107859902D01*
X93629815Y-107926941D01*
X93613181Y-107947583D01*
X92889481Y-108671282D01*
X92889475Y-108671290D01*
X92847206Y-108744504D01*
X92847206Y-108744505D01*
X92810423Y-108808215D01*
X92769499Y-108960943D01*
X92769499Y-108960945D01*
X92769499Y-109129046D01*
X92769500Y-109129059D01*
X92769500Y-110400232D01*
X92749815Y-110467271D01*
X92748603Y-110469122D01*
X92704914Y-110534508D01*
X92648343Y-110671082D01*
X92648340Y-110671092D01*
X92619500Y-110816079D01*
X92619500Y-110816082D01*
X92619500Y-110963918D01*
X92619500Y-110963920D01*
X92619499Y-110963920D01*
X92648340Y-111108907D01*
X92648343Y-111108917D01*
X92704912Y-111245488D01*
X92704919Y-111245501D01*
X92787048Y-111368415D01*
X92787051Y-111368419D01*
X92891580Y-111472948D01*
X92891584Y-111472951D01*
X93014498Y-111555080D01*
X93014511Y-111555087D01*
X93121735Y-111599500D01*
X93151087Y-111611658D01*
X93151091Y-111611658D01*
X93151092Y-111611659D01*
X93296079Y-111640500D01*
X93296082Y-111640500D01*
X93443920Y-111640500D01*
X93449983Y-111639903D01*
X93450171Y-111641816D01*
X93510879Y-111647238D01*
X93566064Y-111690090D01*
X93589321Y-111755976D01*
X93589500Y-111762636D01*
X93589500Y-112949902D01*
X93569815Y-113016941D01*
X93553181Y-113037583D01*
X92928982Y-113661781D01*
X92928980Y-113661783D01*
X92913196Y-113689124D01*
X92892769Y-113724505D01*
X92849924Y-113798714D01*
X92809000Y-113951442D01*
X92809000Y-113951444D01*
X92809000Y-114119545D01*
X92809001Y-114119558D01*
X92809001Y-115398944D01*
X92789316Y-115465983D01*
X92788104Y-115467834D01*
X92744415Y-115533220D01*
X92687844Y-115669794D01*
X92687841Y-115669804D01*
X92659001Y-115814791D01*
X92659001Y-115814794D01*
X92659001Y-115962630D01*
X92659001Y-115962632D01*
X92659000Y-115962632D01*
X92687841Y-116107619D01*
X92687844Y-116107629D01*
X92744413Y-116244200D01*
X92744420Y-116244213D01*
X92826549Y-116367127D01*
X92826552Y-116367131D01*
X92931081Y-116471660D01*
X92931085Y-116471663D01*
X93053999Y-116553792D01*
X93054012Y-116553799D01*
X93147849Y-116592667D01*
X93190588Y-116610370D01*
X93190592Y-116610370D01*
X93190593Y-116610371D01*
X93335580Y-116639212D01*
X93465500Y-116639212D01*
X93474185Y-116641762D01*
X93483147Y-116640474D01*
X93507187Y-116651452D01*
X93532539Y-116658897D01*
X93538466Y-116665737D01*
X93546703Y-116669499D01*
X93560992Y-116691733D01*
X93578294Y-116711701D01*
X93580581Y-116722215D01*
X93584477Y-116728277D01*
X93589500Y-116763212D01*
X93589500Y-116929903D01*
X93569815Y-116996942D01*
X93553181Y-117017584D01*
X93547584Y-117023181D01*
X93525816Y-117035067D01*
X93517011Y-117042697D01*
X93509996Y-117043705D01*
X93486261Y-117056666D01*
X93459903Y-117059500D01*
X85209767Y-117059500D01*
X85142728Y-117039815D01*
X85140876Y-117038602D01*
X85075501Y-116994919D01*
X85075489Y-116994913D01*
X85036960Y-116978953D01*
X84982558Y-116935111D01*
X84960494Y-116868817D01*
X84960415Y-116864393D01*
X84960415Y-113074500D01*
X84980100Y-113007461D01*
X85032904Y-112961706D01*
X85084415Y-112950500D01*
X86200233Y-112950500D01*
X86267272Y-112970185D01*
X86269124Y-112971398D01*
X86334498Y-113015080D01*
X86334511Y-113015087D01*
X86467531Y-113070185D01*
X86471087Y-113071658D01*
X86471091Y-113071658D01*
X86471092Y-113071659D01*
X86616079Y-113100500D01*
X86616082Y-113100500D01*
X86763920Y-113100500D01*
X86861462Y-113081096D01*
X86908913Y-113071658D01*
X87045495Y-113015084D01*
X87168416Y-112932951D01*
X87272951Y-112828416D01*
X87355084Y-112705495D01*
X87411658Y-112568913D01*
X87440500Y-112423918D01*
X87440500Y-112276082D01*
X87440500Y-112276079D01*
X87411659Y-112131092D01*
X87411658Y-112131091D01*
X87411658Y-112131087D01*
X87411656Y-112131082D01*
X87355087Y-111994511D01*
X87355080Y-111994498D01*
X87272951Y-111871584D01*
X87272948Y-111871580D01*
X87168419Y-111767051D01*
X87168415Y-111767048D01*
X87045501Y-111684919D01*
X87045488Y-111684912D01*
X86908917Y-111628343D01*
X86908907Y-111628340D01*
X86763920Y-111599500D01*
X86763918Y-111599500D01*
X86616082Y-111599500D01*
X86616080Y-111599500D01*
X86471092Y-111628340D01*
X86471082Y-111628343D01*
X86334511Y-111684912D01*
X86334498Y-111684919D01*
X86269124Y-111728602D01*
X86202447Y-111749480D01*
X86200233Y-111749500D01*
X85084415Y-111749500D01*
X85017376Y-111729815D01*
X84971621Y-111677011D01*
X84960415Y-111625500D01*
X84960415Y-108184500D01*
X84980100Y-108117461D01*
X85032904Y-108071706D01*
X85084415Y-108060500D01*
X86090233Y-108060500D01*
X86157272Y-108080185D01*
X86159124Y-108081398D01*
X86224498Y-108125080D01*
X86224511Y-108125087D01*
X86361082Y-108181656D01*
X86361087Y-108181658D01*
X86361091Y-108181658D01*
X86361092Y-108181659D01*
X86506079Y-108210500D01*
X86506082Y-108210500D01*
X86653920Y-108210500D01*
X86751462Y-108191096D01*
X86798913Y-108181658D01*
X86935495Y-108125084D01*
X87058416Y-108042951D01*
X87162951Y-107938416D01*
X87245084Y-107815495D01*
X87301658Y-107678913D01*
X87330500Y-107533918D01*
X87330500Y-107386082D01*
X87330500Y-107386079D01*
X87301659Y-107241092D01*
X87301658Y-107241091D01*
X87301658Y-107241087D01*
X87260177Y-107140943D01*
X87245087Y-107104511D01*
X87245080Y-107104498D01*
X87162951Y-106981584D01*
X87162948Y-106981580D01*
X87058419Y-106877051D01*
X87058415Y-106877048D01*
X86935501Y-106794919D01*
X86935488Y-106794912D01*
X86798917Y-106738343D01*
X86798907Y-106738340D01*
X86653920Y-106709500D01*
X86653918Y-106709500D01*
X86506082Y-106709500D01*
X86506080Y-106709500D01*
X86361092Y-106738340D01*
X86361082Y-106738343D01*
X86224511Y-106794912D01*
X86224498Y-106794919D01*
X86159124Y-106838602D01*
X86092447Y-106859480D01*
X86090233Y-106859500D01*
X85084415Y-106859500D01*
X85017376Y-106839815D01*
X84971621Y-106787011D01*
X84960415Y-106735500D01*
X84960415Y-103194500D01*
X84980100Y-103127461D01*
X85032904Y-103081706D01*
X85084415Y-103070500D01*
X86155334Y-103070500D01*
X86222373Y-103090185D01*
X86224225Y-103091398D01*
X86334498Y-103165080D01*
X86334511Y-103165087D01*
X86416523Y-103199057D01*
X86471087Y-103221658D01*
X86471091Y-103221658D01*
X86471092Y-103221659D01*
X86616079Y-103250500D01*
X86616082Y-103250500D01*
X86763920Y-103250500D01*
X86861462Y-103231096D01*
X86908913Y-103221658D01*
X87045495Y-103165084D01*
X87168416Y-103082951D01*
X87272951Y-102978416D01*
X87355084Y-102855495D01*
X87411658Y-102718913D01*
X87435208Y-102600521D01*
X87440500Y-102573920D01*
X87440500Y-102426079D01*
X87411659Y-102281092D01*
X87411658Y-102281091D01*
X87411658Y-102281087D01*
X87357892Y-102151284D01*
X87355087Y-102144511D01*
X87355080Y-102144498D01*
X87272951Y-102021584D01*
X87272948Y-102021580D01*
X87168419Y-101917051D01*
X87168415Y-101917048D01*
X87045501Y-101834919D01*
X87045488Y-101834912D01*
X86908917Y-101778343D01*
X86908907Y-101778340D01*
X86763920Y-101749500D01*
X86763918Y-101749500D01*
X86616082Y-101749500D01*
X86616080Y-101749500D01*
X86471092Y-101778340D01*
X86471082Y-101778343D01*
X86334510Y-101834913D01*
X86334506Y-101834915D01*
X86334505Y-101834916D01*
X86314020Y-101848603D01*
X86247347Y-101869480D01*
X86245132Y-101869500D01*
X85084415Y-101869500D01*
X85017376Y-101849815D01*
X84971621Y-101797011D01*
X84960415Y-101745500D01*
X84960415Y-98174500D01*
X84980100Y-98107461D01*
X85032904Y-98061706D01*
X85084415Y-98050500D01*
X86100233Y-98050500D01*
X86167272Y-98070185D01*
X86169124Y-98071398D01*
X86234498Y-98115080D01*
X86234511Y-98115087D01*
X86371082Y-98171656D01*
X86371087Y-98171658D01*
X86371091Y-98171658D01*
X86371092Y-98171659D01*
X86516079Y-98200500D01*
X86516082Y-98200500D01*
X86663920Y-98200500D01*
X86761462Y-98181096D01*
X86808913Y-98171658D01*
X86936251Y-98118913D01*
X86945488Y-98115087D01*
X86945488Y-98115086D01*
X86945495Y-98115084D01*
X87068416Y-98032951D01*
X87172951Y-97928416D01*
X87255084Y-97805495D01*
X87311658Y-97668913D01*
X87321096Y-97621462D01*
X87340500Y-97523920D01*
X87340500Y-97376079D01*
X87311659Y-97231092D01*
X87311658Y-97231091D01*
X87311658Y-97231087D01*
X87293900Y-97188216D01*
X87255087Y-97094511D01*
X87255080Y-97094498D01*
X87172951Y-96971584D01*
X87172948Y-96971580D01*
X87068419Y-96867051D01*
X87068415Y-96867048D01*
X86945501Y-96784919D01*
X86945488Y-96784912D01*
X86808917Y-96728343D01*
X86808907Y-96728340D01*
X86663920Y-96699500D01*
X86663918Y-96699500D01*
X86516082Y-96699500D01*
X86516080Y-96699500D01*
X86371092Y-96728340D01*
X86371082Y-96728343D01*
X86234511Y-96784912D01*
X86234498Y-96784919D01*
X86169124Y-96828602D01*
X86102447Y-96849480D01*
X86100233Y-96849500D01*
X85084415Y-96849500D01*
X85017376Y-96829815D01*
X84971621Y-96777011D01*
X84960415Y-96725500D01*
X84960415Y-94193920D01*
X88739499Y-94193920D01*
X88768340Y-94338907D01*
X88768343Y-94338917D01*
X88824912Y-94475488D01*
X88824919Y-94475501D01*
X88907048Y-94598415D01*
X88907051Y-94598419D01*
X89011580Y-94702948D01*
X89011584Y-94702951D01*
X89134498Y-94785080D01*
X89134511Y-94785087D01*
X89246947Y-94831659D01*
X89271087Y-94841658D01*
X89271091Y-94841658D01*
X89271092Y-94841659D01*
X89416079Y-94870500D01*
X89416082Y-94870500D01*
X89563920Y-94870500D01*
X89661462Y-94851096D01*
X89708913Y-94841658D01*
X89845495Y-94785084D01*
X89968416Y-94702951D01*
X90072951Y-94598416D01*
X90155084Y-94475495D01*
X90211658Y-94338913D01*
X90231461Y-94239358D01*
X90240500Y-94193920D01*
X90240500Y-94046079D01*
X90211659Y-93901092D01*
X90211658Y-93901091D01*
X90211658Y-93901087D01*
X90173766Y-93809607D01*
X90155087Y-93764511D01*
X90155080Y-93764498D01*
X90072951Y-93641584D01*
X90072948Y-93641580D01*
X89968419Y-93537051D01*
X89968415Y-93537048D01*
X89845501Y-93454919D01*
X89845488Y-93454912D01*
X89708917Y-93398343D01*
X89708907Y-93398340D01*
X89563920Y-93369500D01*
X89563918Y-93369500D01*
X89416082Y-93369500D01*
X89416080Y-93369500D01*
X89271092Y-93398340D01*
X89271082Y-93398343D01*
X89134511Y-93454912D01*
X89134498Y-93454919D01*
X89011584Y-93537048D01*
X89011580Y-93537051D01*
X88907051Y-93641580D01*
X88907048Y-93641584D01*
X88824919Y-93764498D01*
X88824912Y-93764511D01*
X88768343Y-93901082D01*
X88768340Y-93901092D01*
X88739500Y-94046079D01*
X88739500Y-94046082D01*
X88739500Y-94193918D01*
X88739500Y-94193920D01*
X88739499Y-94193920D01*
X84960415Y-94193920D01*
X84960415Y-92763926D01*
X84980100Y-92696887D01*
X85032904Y-92651132D01*
X85084340Y-92639926D01*
X93821616Y-92634794D01*
X93888665Y-92654439D01*
G37*
%TD.AperFunction*%
%TD*%
%TA.AperFunction,Conductor*%
%TO.N,GND*%
G36*
X147548414Y-87540184D02*
G01*
X147594169Y-87592988D01*
X147604113Y-87662146D01*
X147575088Y-87725702D01*
X147569056Y-87732180D01*
X139102530Y-96198705D01*
X139102524Y-96198713D01*
X139067973Y-96250422D01*
X139067974Y-96250423D01*
X139031339Y-96305251D01*
X138982304Y-96423632D01*
X138982302Y-96423638D01*
X138957305Y-96549305D01*
X138957305Y-97158708D01*
X138937620Y-97225747D01*
X138884816Y-97271502D01*
X138815658Y-97281446D01*
X138752102Y-97252421D01*
X138745624Y-97246389D01*
X137947590Y-96448355D01*
X137947588Y-96448352D01*
X137828717Y-96329481D01*
X137828709Y-96329475D01*
X137717891Y-96265495D01*
X137717890Y-96265494D01*
X137699541Y-96254901D01*
X137691785Y-96250423D01*
X137539057Y-96209499D01*
X137380943Y-96209499D01*
X137373347Y-96209499D01*
X137373331Y-96209500D01*
X137249767Y-96209500D01*
X137182728Y-96189815D01*
X137180876Y-96188602D01*
X137115501Y-96144919D01*
X137115488Y-96144912D01*
X136978917Y-96088343D01*
X136978907Y-96088340D01*
X136833920Y-96059500D01*
X136833918Y-96059500D01*
X136686082Y-96059500D01*
X136686080Y-96059500D01*
X136541092Y-96088340D01*
X136541082Y-96088343D01*
X136404511Y-96144912D01*
X136404498Y-96144919D01*
X136281584Y-96227048D01*
X136281580Y-96227051D01*
X136177051Y-96331580D01*
X136177048Y-96331584D01*
X136094919Y-96454498D01*
X136094912Y-96454511D01*
X136038343Y-96591082D01*
X136038340Y-96591092D01*
X136009500Y-96736079D01*
X136009500Y-96736082D01*
X136009500Y-96883918D01*
X136009500Y-96883920D01*
X136009499Y-96883920D01*
X136038340Y-97028907D01*
X136038343Y-97028917D01*
X136094912Y-97165488D01*
X136094919Y-97165501D01*
X136177048Y-97288415D01*
X136177051Y-97288419D01*
X136281580Y-97392948D01*
X136281584Y-97392951D01*
X136404498Y-97475080D01*
X136404511Y-97475087D01*
X136541082Y-97531656D01*
X136541087Y-97531658D01*
X136541091Y-97531658D01*
X136541092Y-97531659D01*
X136686079Y-97560500D01*
X136686082Y-97560500D01*
X136833920Y-97560500D01*
X136931462Y-97541096D01*
X136978913Y-97531658D01*
X137115495Y-97475084D01*
X137127003Y-97467394D01*
X137193677Y-97446514D01*
X137261058Y-97464995D01*
X137283578Y-97482813D01*
X138183181Y-98382416D01*
X138197884Y-98409343D01*
X138214477Y-98435162D01*
X138215368Y-98441362D01*
X138216666Y-98443739D01*
X138219500Y-98470097D01*
X138219500Y-98640232D01*
X138199815Y-98707271D01*
X138198603Y-98709122D01*
X138154914Y-98774508D01*
X138098343Y-98911082D01*
X138098340Y-98911092D01*
X138069500Y-99056079D01*
X138069500Y-99056082D01*
X138069500Y-99203918D01*
X138069500Y-99203920D01*
X138069499Y-99203920D01*
X138098340Y-99348907D01*
X138098343Y-99348917D01*
X138154912Y-99485488D01*
X138154919Y-99485501D01*
X138237048Y-99608415D01*
X138237051Y-99608419D01*
X138341580Y-99712948D01*
X138341584Y-99712951D01*
X138464498Y-99795080D01*
X138464511Y-99795087D01*
X138574149Y-99840500D01*
X138601087Y-99851658D01*
X138601091Y-99851658D01*
X138601092Y-99851659D01*
X138746079Y-99880500D01*
X138833305Y-99880500D01*
X138900344Y-99900185D01*
X138946099Y-99952989D01*
X138957305Y-100004500D01*
X138957305Y-103280851D01*
X138937620Y-103347890D01*
X138884816Y-103393645D01*
X138815658Y-103403589D01*
X138809113Y-103402468D01*
X138743920Y-103389500D01*
X138743918Y-103389500D01*
X138596082Y-103389500D01*
X138596080Y-103389500D01*
X138451092Y-103418340D01*
X138451082Y-103418343D01*
X138314511Y-103474912D01*
X138314498Y-103474919D01*
X138191584Y-103557048D01*
X138191580Y-103557051D01*
X138087051Y-103661580D01*
X138087048Y-103661584D01*
X138004919Y-103784498D01*
X138004912Y-103784511D01*
X137948343Y-103921082D01*
X137948340Y-103921092D01*
X137919500Y-104066079D01*
X137919500Y-104165500D01*
X137899815Y-104232539D01*
X137847011Y-104278294D01*
X137795500Y-104289500D01*
X135364500Y-104289500D01*
X135297461Y-104269815D01*
X135251706Y-104217011D01*
X135240500Y-104165500D01*
X135240500Y-104056079D01*
X135211659Y-103911092D01*
X135211658Y-103911091D01*
X135211658Y-103911087D01*
X135155084Y-103774505D01*
X135111396Y-103709121D01*
X135090520Y-103642444D01*
X135090500Y-103640232D01*
X135090500Y-103244500D01*
X135110185Y-103177461D01*
X135162989Y-103131706D01*
X135214500Y-103120500D01*
X137283331Y-103120500D01*
X137283347Y-103120501D01*
X137290943Y-103120501D01*
X137449054Y-103120501D01*
X137449057Y-103120501D01*
X137601785Y-103079577D01*
X137601787Y-103079575D01*
X137601789Y-103079575D01*
X137601790Y-103079574D01*
X137653745Y-103049578D01*
X137653746Y-103049577D01*
X137738716Y-103000520D01*
X137850520Y-102888716D01*
X137850520Y-102888714D01*
X137860724Y-102878511D01*
X137860728Y-102878506D01*
X138318506Y-102420728D01*
X138318511Y-102420724D01*
X138328714Y-102410520D01*
X138328716Y-102410520D01*
X138440520Y-102298716D01*
X138507979Y-102181873D01*
X138519577Y-102161785D01*
X138560501Y-102009057D01*
X138560501Y-101850943D01*
X138560501Y-101843348D01*
X138560500Y-101843330D01*
X138560500Y-101409767D01*
X138580185Y-101342728D01*
X138581398Y-101340876D01*
X138625080Y-101275501D01*
X138625080Y-101275500D01*
X138625084Y-101275495D01*
X138681658Y-101138913D01*
X138710500Y-100993918D01*
X138710500Y-100846082D01*
X138709305Y-100840074D01*
X138709305Y-100840071D01*
X138681659Y-100701092D01*
X138681658Y-100701091D01*
X138681658Y-100701087D01*
X138669230Y-100671082D01*
X138625087Y-100564511D01*
X138625080Y-100564498D01*
X138542951Y-100441584D01*
X138542948Y-100441580D01*
X138438419Y-100337051D01*
X138438415Y-100337048D01*
X138315501Y-100254919D01*
X138315488Y-100254912D01*
X138178917Y-100198343D01*
X138178907Y-100198340D01*
X138033920Y-100169500D01*
X138033918Y-100169500D01*
X137886082Y-100169500D01*
X137886080Y-100169500D01*
X137741092Y-100198340D01*
X137741082Y-100198343D01*
X137604511Y-100254912D01*
X137604498Y-100254919D01*
X137481584Y-100337048D01*
X137481580Y-100337051D01*
X137377051Y-100441580D01*
X137377048Y-100441584D01*
X137294919Y-100564498D01*
X137294912Y-100564511D01*
X137238343Y-100701082D01*
X137238340Y-100701092D01*
X137209500Y-100846079D01*
X137209500Y-100846082D01*
X137209500Y-100993918D01*
X137209500Y-100993920D01*
X137209499Y-100993920D01*
X137238340Y-101138907D01*
X137238343Y-101138917D01*
X137294912Y-101275488D01*
X137294919Y-101275501D01*
X137338602Y-101340876D01*
X137344252Y-101358922D01*
X137354477Y-101374832D01*
X137358928Y-101405791D01*
X137359480Y-101407553D01*
X137359500Y-101409767D01*
X137359500Y-101629903D01*
X137339815Y-101696942D01*
X137323181Y-101717584D01*
X137157584Y-101883181D01*
X137096261Y-101916666D01*
X137069903Y-101919500D01*
X134790943Y-101919500D01*
X134638213Y-101960423D01*
X134596125Y-101984724D01*
X134596124Y-101984724D01*
X134501287Y-102039477D01*
X134501282Y-102039481D01*
X134009481Y-102531282D01*
X134009481Y-102531283D01*
X134009480Y-102531284D01*
X133986839Y-102570500D01*
X133930423Y-102668215D01*
X133889499Y-102820943D01*
X133889499Y-102820945D01*
X133889499Y-102989046D01*
X133889500Y-102989059D01*
X133889500Y-103640232D01*
X133869815Y-103707271D01*
X133868603Y-103709122D01*
X133824914Y-103774508D01*
X133768343Y-103911082D01*
X133768340Y-103911092D01*
X133739500Y-104056079D01*
X133739500Y-104165500D01*
X133719815Y-104232539D01*
X133667011Y-104278294D01*
X133615500Y-104289500D01*
X131316670Y-104289500D01*
X131316654Y-104289499D01*
X131309058Y-104289499D01*
X131150943Y-104289499D01*
X131078513Y-104308907D01*
X130998214Y-104330423D01*
X130998209Y-104330426D01*
X130861290Y-104409475D01*
X130861282Y-104409481D01*
X130489481Y-104781282D01*
X130489479Y-104781285D01*
X130471944Y-104811658D01*
X130460324Y-104831785D01*
X130439361Y-104868094D01*
X130439359Y-104868096D01*
X130410425Y-104918209D01*
X130410424Y-104918210D01*
X130410423Y-104918215D01*
X130369499Y-105070943D01*
X130369499Y-105070945D01*
X130369499Y-105239046D01*
X130369500Y-105239059D01*
X130369500Y-105400232D01*
X130349815Y-105467271D01*
X130348603Y-105469122D01*
X130304914Y-105534508D01*
X130248343Y-105671082D01*
X130248340Y-105671092D01*
X130219500Y-105816079D01*
X130219500Y-105816082D01*
X130219500Y-105963918D01*
X130219500Y-105963920D01*
X130219499Y-105963920D01*
X130248340Y-106108907D01*
X130248343Y-106108917D01*
X130304912Y-106245488D01*
X130304919Y-106245501D01*
X130387048Y-106368415D01*
X130387051Y-106368419D01*
X130491580Y-106472948D01*
X130491584Y-106472951D01*
X130614498Y-106555080D01*
X130614511Y-106555087D01*
X130751082Y-106611656D01*
X130751087Y-106611658D01*
X130751091Y-106611658D01*
X130751092Y-106611659D01*
X130896079Y-106640500D01*
X130896082Y-106640500D01*
X131043920Y-106640500D01*
X131141462Y-106621096D01*
X131188913Y-106611658D01*
X131325495Y-106555084D01*
X131448416Y-106472951D01*
X131552951Y-106368416D01*
X131635084Y-106245495D01*
X131691658Y-106108913D01*
X131716971Y-105981659D01*
X131720500Y-105963920D01*
X131720500Y-105816079D01*
X131691659Y-105671092D01*
X131691658Y-105671091D01*
X131691658Y-105671087D01*
X131687874Y-105661953D01*
X131680405Y-105592486D01*
X131711678Y-105530006D01*
X131771766Y-105494352D01*
X131802435Y-105490500D01*
X137151707Y-105490500D01*
X137218746Y-105510185D01*
X137264501Y-105562989D01*
X137274445Y-105632147D01*
X137266269Y-105661947D01*
X137258342Y-105681087D01*
X137258341Y-105681090D01*
X137258340Y-105681092D01*
X137229500Y-105826079D01*
X137229500Y-105826082D01*
X137229500Y-105973918D01*
X137229500Y-105973920D01*
X137229499Y-105973920D01*
X137258340Y-106118907D01*
X137258343Y-106118917D01*
X137314912Y-106255488D01*
X137314919Y-106255501D01*
X137358602Y-106320876D01*
X137379480Y-106387553D01*
X137379500Y-106389767D01*
X137379500Y-107013330D01*
X137379499Y-107013348D01*
X137379499Y-107179054D01*
X137379498Y-107179054D01*
X137417517Y-107320943D01*
X137420423Y-107331785D01*
X137437002Y-107360500D01*
X137476097Y-107428215D01*
X137499479Y-107468714D01*
X137499481Y-107468717D01*
X137618349Y-107587585D01*
X137618355Y-107587590D01*
X138183181Y-108152416D01*
X138216666Y-108213739D01*
X138219500Y-108240097D01*
X138219500Y-108610232D01*
X138199815Y-108677271D01*
X138198603Y-108679122D01*
X138154914Y-108744508D01*
X138098343Y-108881082D01*
X138098340Y-108881092D01*
X138069500Y-109026079D01*
X138069500Y-109026082D01*
X138069500Y-109173918D01*
X138069500Y-109173920D01*
X138069499Y-109173920D01*
X138098340Y-109318907D01*
X138098343Y-109318917D01*
X138154912Y-109455488D01*
X138154919Y-109455501D01*
X138237048Y-109578415D01*
X138237051Y-109578419D01*
X138341580Y-109682948D01*
X138341584Y-109682951D01*
X138464498Y-109765080D01*
X138464511Y-109765087D01*
X138574149Y-109810500D01*
X138601087Y-109821658D01*
X138601091Y-109821658D01*
X138601092Y-109821659D01*
X138746079Y-109850500D01*
X138833305Y-109850500D01*
X138900344Y-109870185D01*
X138946099Y-109922989D01*
X138957305Y-109974500D01*
X138957305Y-113235500D01*
X138937620Y-113302539D01*
X138884816Y-113348294D01*
X138833305Y-113359500D01*
X138746080Y-113359500D01*
X138601092Y-113388340D01*
X138601082Y-113388343D01*
X138464511Y-113444912D01*
X138464498Y-113444919D01*
X138341584Y-113527048D01*
X138341580Y-113527051D01*
X138237051Y-113631580D01*
X138237048Y-113631584D01*
X138154919Y-113754498D01*
X138154912Y-113754511D01*
X138098343Y-113891082D01*
X138098340Y-113891092D01*
X138069500Y-114036079D01*
X138069500Y-114183922D01*
X138080915Y-114241309D01*
X138074688Y-114310901D01*
X138031825Y-114366078D01*
X137965935Y-114389322D01*
X137959298Y-114389500D01*
X132638712Y-114389500D01*
X132571673Y-114369815D01*
X132525918Y-114317011D01*
X132515974Y-114247853D01*
X132517095Y-114241308D01*
X132530500Y-114173920D01*
X132530500Y-114026079D01*
X132501659Y-113881092D01*
X132501658Y-113881091D01*
X132501658Y-113881087D01*
X132445084Y-113744505D01*
X132401396Y-113679121D01*
X132380520Y-113612444D01*
X132380500Y-113610232D01*
X132380500Y-113260097D01*
X132389144Y-113230656D01*
X132395668Y-113200670D01*
X132399422Y-113195654D01*
X132400185Y-113193058D01*
X132416819Y-113172416D01*
X132572416Y-113016819D01*
X132633739Y-112983334D01*
X132660097Y-112980500D01*
X134723331Y-112980500D01*
X134723347Y-112980501D01*
X134730943Y-112980501D01*
X134889054Y-112980501D01*
X134889057Y-112980501D01*
X135041785Y-112939577D01*
X135091904Y-112910639D01*
X135178716Y-112860520D01*
X135290520Y-112748716D01*
X135290521Y-112748714D01*
X135710520Y-112328716D01*
X135789577Y-112191784D01*
X135830501Y-112039057D01*
X135830501Y-111880942D01*
X135830501Y-111873347D01*
X135830500Y-111873329D01*
X135830500Y-111854800D01*
X135850185Y-111787761D01*
X135851398Y-111785909D01*
X135885084Y-111735495D01*
X135941658Y-111598913D01*
X135970500Y-111453918D01*
X135970500Y-111306082D01*
X135970500Y-111306079D01*
X135941659Y-111161092D01*
X135941658Y-111161091D01*
X135941658Y-111161087D01*
X135907622Y-111078917D01*
X135885087Y-111024511D01*
X135885080Y-111024498D01*
X135802951Y-110901584D01*
X135802948Y-110901580D01*
X135698419Y-110797051D01*
X135698415Y-110797048D01*
X135575501Y-110714919D01*
X135575488Y-110714912D01*
X135438917Y-110658343D01*
X135438907Y-110658340D01*
X135293920Y-110629500D01*
X135293918Y-110629500D01*
X135146082Y-110629500D01*
X135146080Y-110629500D01*
X135001092Y-110658340D01*
X135001082Y-110658343D01*
X134864511Y-110714912D01*
X134864498Y-110714919D01*
X134741584Y-110797048D01*
X134741580Y-110797051D01*
X134637051Y-110901580D01*
X134637048Y-110901584D01*
X134554919Y-111024498D01*
X134554912Y-111024511D01*
X134498343Y-111161082D01*
X134498340Y-111161092D01*
X134469500Y-111306079D01*
X134469500Y-111306082D01*
X134469500Y-111453918D01*
X134469500Y-111453920D01*
X134469499Y-111453920D01*
X134498340Y-111598907D01*
X134498342Y-111598913D01*
X134502125Y-111608045D01*
X134509595Y-111677514D01*
X134478322Y-111739994D01*
X134418234Y-111775648D01*
X134387565Y-111779500D01*
X132446669Y-111779500D01*
X132446653Y-111779499D01*
X132439057Y-111779499D01*
X132280943Y-111779499D01*
X132173587Y-111808265D01*
X132128210Y-111820424D01*
X132128209Y-111820425D01*
X132078096Y-111849359D01*
X132078095Y-111849360D01*
X132036579Y-111873329D01*
X131991285Y-111899479D01*
X131991282Y-111899481D01*
X131299479Y-112591284D01*
X131284528Y-112617180D01*
X131278209Y-112628127D01*
X131220423Y-112728215D01*
X131179499Y-112880943D01*
X131179499Y-112880945D01*
X131179499Y-113049046D01*
X131179500Y-113049059D01*
X131179500Y-113610232D01*
X131159815Y-113677271D01*
X131158603Y-113679122D01*
X131114914Y-113744508D01*
X131058343Y-113881082D01*
X131058340Y-113881092D01*
X131029500Y-114026079D01*
X131029500Y-114026082D01*
X131029500Y-114173918D01*
X131029500Y-114173920D01*
X131029499Y-114173920D01*
X131059530Y-114324887D01*
X131057144Y-114325361D01*
X131057315Y-114344444D01*
X131060152Y-114374093D01*
X131057624Y-114378997D01*
X131057674Y-114384516D01*
X131041792Y-114409721D01*
X131028148Y-114436201D01*
X131022121Y-114440942D01*
X131020428Y-114443630D01*
X131000408Y-114458024D01*
X130998095Y-114459360D01*
X130987469Y-114465495D01*
X130911285Y-114509479D01*
X130911282Y-114509481D01*
X130489479Y-114931284D01*
X130469189Y-114966428D01*
X130460613Y-114981284D01*
X130410423Y-115068215D01*
X130369499Y-115220943D01*
X130369499Y-115220945D01*
X130369499Y-115389046D01*
X130369500Y-115389059D01*
X130369500Y-115420232D01*
X130349815Y-115487271D01*
X130348604Y-115489120D01*
X130331643Y-115514505D01*
X130304914Y-115554508D01*
X130248343Y-115691082D01*
X130248340Y-115691092D01*
X130219500Y-115836079D01*
X130219500Y-115836082D01*
X130219500Y-115983918D01*
X130219500Y-115983920D01*
X130219499Y-115983920D01*
X130248340Y-116128907D01*
X130248343Y-116128917D01*
X130304912Y-116265488D01*
X130304919Y-116265501D01*
X130387048Y-116388415D01*
X130387051Y-116388419D01*
X130491580Y-116492948D01*
X130491584Y-116492951D01*
X130614498Y-116575080D01*
X130614511Y-116575087D01*
X130724149Y-116620500D01*
X130751087Y-116631658D01*
X130751091Y-116631658D01*
X130751092Y-116631659D01*
X130896079Y-116660500D01*
X130896082Y-116660500D01*
X131043920Y-116660500D01*
X131144462Y-116640500D01*
X131188913Y-116631658D01*
X131325495Y-116575084D01*
X131448416Y-116492951D01*
X131552951Y-116388416D01*
X131635084Y-116265495D01*
X131691658Y-116128913D01*
X131710854Y-116032411D01*
X131720500Y-115983920D01*
X131720500Y-115836079D01*
X131701128Y-115738692D01*
X131707355Y-115669100D01*
X131750218Y-115613923D01*
X131816108Y-115590678D01*
X131822745Y-115590500D01*
X137113277Y-115590500D01*
X137180316Y-115610185D01*
X137226071Y-115662989D01*
X137236015Y-115732147D01*
X137234894Y-115738692D01*
X137219500Y-115816079D01*
X137219500Y-115816082D01*
X137219500Y-115963918D01*
X137219500Y-115963920D01*
X137219499Y-115963920D01*
X137248340Y-116108907D01*
X137248343Y-116108917D01*
X137304912Y-116245488D01*
X137304919Y-116245501D01*
X137387048Y-116368415D01*
X137387051Y-116368419D01*
X137491580Y-116472948D01*
X137491584Y-116472951D01*
X137614498Y-116555080D01*
X137614511Y-116555087D01*
X137722792Y-116599938D01*
X137751087Y-116611658D01*
X137751091Y-116611658D01*
X137751092Y-116611659D01*
X137896079Y-116640500D01*
X137896082Y-116640500D01*
X138043920Y-116640500D01*
X138144462Y-116620500D01*
X138188913Y-116611658D01*
X138325495Y-116555084D01*
X138448416Y-116472951D01*
X138552951Y-116368416D01*
X138635084Y-116245495D01*
X138691658Y-116108913D01*
X138711688Y-116008219D01*
X138744073Y-115946308D01*
X138804789Y-115911734D01*
X138874558Y-115915474D01*
X138931230Y-115956341D01*
X138956812Y-116021359D01*
X138957305Y-116032411D01*
X138957305Y-136686336D01*
X138977431Y-136787512D01*
X138982304Y-136812011D01*
X139031340Y-136930394D01*
X139074451Y-136994915D01*
X139102531Y-137036940D01*
X141633861Y-139568270D01*
X141633868Y-139568276D01*
X141740408Y-139639463D01*
X141740407Y-139639463D01*
X141767553Y-139650707D01*
X141858793Y-139688500D01*
X141858797Y-139688500D01*
X141858798Y-139688501D01*
X141984465Y-139713499D01*
X141984468Y-139713499D01*
X158951486Y-139713499D01*
X159036030Y-139696681D01*
X159077159Y-139688500D01*
X159195542Y-139639464D01*
X159302084Y-139568276D01*
X160577759Y-138292599D01*
X160624057Y-138264851D01*
X160623700Y-138263988D01*
X160765903Y-138205086D01*
X160765903Y-138205085D01*
X160765910Y-138205083D01*
X160888831Y-138122950D01*
X160993366Y-138018415D01*
X161075499Y-137895494D01*
X161082368Y-137878912D01*
X161098895Y-137839010D01*
X161132073Y-137758912D01*
X161155703Y-137640120D01*
X161160915Y-137613919D01*
X161160915Y-137466078D01*
X161132074Y-137321091D01*
X161132073Y-137321090D01*
X161132073Y-137321086D01*
X161099142Y-137241583D01*
X161075502Y-137184510D01*
X161075495Y-137184497D01*
X160993366Y-137061583D01*
X160993363Y-137061579D01*
X160888834Y-136957050D01*
X160888830Y-136957047D01*
X160765916Y-136874918D01*
X160765903Y-136874911D01*
X160629332Y-136818342D01*
X160629322Y-136818339D01*
X160484335Y-136789499D01*
X160484333Y-136789499D01*
X160336497Y-136789499D01*
X160336495Y-136789499D01*
X160191507Y-136818339D01*
X160191497Y-136818342D01*
X160054926Y-136874911D01*
X160054913Y-136874918D01*
X159931999Y-136957047D01*
X159931995Y-136957050D01*
X159827466Y-137061579D01*
X159827463Y-137061583D01*
X159745334Y-137184497D01*
X159745329Y-137184506D01*
X159686426Y-137326713D01*
X159685564Y-137326356D01*
X159657813Y-137372653D01*
X158654288Y-138376180D01*
X158627360Y-138390883D01*
X158601542Y-138407476D01*
X158595341Y-138408367D01*
X158592965Y-138409665D01*
X158566607Y-138412499D01*
X158548645Y-138412499D01*
X158481606Y-138392814D01*
X158435851Y-138340010D01*
X158425907Y-138270852D01*
X158454932Y-138207296D01*
X158460964Y-138200818D01*
X158463363Y-138198418D01*
X158463366Y-138198415D01*
X158545499Y-138075494D01*
X158602073Y-137938912D01*
X158630915Y-137793917D01*
X158630915Y-137646081D01*
X158630915Y-137646078D01*
X158602074Y-137501091D01*
X158602073Y-137501090D01*
X158602073Y-137501086D01*
X158595858Y-137486081D01*
X158545502Y-137364510D01*
X158545495Y-137364497D01*
X158463366Y-137241583D01*
X158463363Y-137241579D01*
X158358834Y-137137050D01*
X158358830Y-137137047D01*
X158235916Y-137054918D01*
X158235903Y-137054911D01*
X158099332Y-136998342D01*
X158099322Y-136998339D01*
X157954335Y-136969499D01*
X157954333Y-136969499D01*
X157806497Y-136969499D01*
X157806495Y-136969499D01*
X157661507Y-136998339D01*
X157661497Y-136998342D01*
X157524926Y-137054911D01*
X157524913Y-137054918D01*
X157401999Y-137137047D01*
X157401995Y-137137050D01*
X157297466Y-137241579D01*
X157297463Y-137241583D01*
X157215334Y-137364497D01*
X157215327Y-137364510D01*
X157158757Y-137501083D01*
X157158755Y-137501091D01*
X157143415Y-137578209D01*
X157111030Y-137640120D01*
X157109480Y-137641698D01*
X156875997Y-137875181D01*
X156814677Y-137908665D01*
X156788318Y-137911499D01*
X156176686Y-137911499D01*
X156109647Y-137891814D01*
X156063892Y-137839010D01*
X156053948Y-137769852D01*
X156055069Y-137763306D01*
X156060915Y-137733918D01*
X156060915Y-137586078D01*
X156032074Y-137441091D01*
X156032073Y-137441090D01*
X156032073Y-137441086D01*
X156003727Y-137372653D01*
X155975502Y-137304510D01*
X155975495Y-137304497D01*
X155893366Y-137181583D01*
X155893363Y-137181579D01*
X155788834Y-137077050D01*
X155788830Y-137077047D01*
X155665916Y-136994918D01*
X155665903Y-136994911D01*
X155529332Y-136938342D01*
X155529322Y-136938339D01*
X155384335Y-136909499D01*
X155384333Y-136909499D01*
X155236497Y-136909499D01*
X155236495Y-136909499D01*
X155091507Y-136938339D01*
X155091497Y-136938342D01*
X154954926Y-136994911D01*
X154954913Y-136994918D01*
X154831999Y-137077047D01*
X154831995Y-137077050D01*
X154727466Y-137181579D01*
X154727463Y-137181583D01*
X154645334Y-137304497D01*
X154645329Y-137304506D01*
X154591712Y-137433952D01*
X154547871Y-137488355D01*
X154481577Y-137510420D01*
X154477151Y-137510499D01*
X153647536Y-137510499D01*
X153580497Y-137490814D01*
X153534742Y-137438010D01*
X153525919Y-137410691D01*
X153512074Y-137341091D01*
X153512073Y-137341090D01*
X153512073Y-137341086D01*
X153496920Y-137304504D01*
X153455502Y-137204510D01*
X153455495Y-137204497D01*
X153373366Y-137081583D01*
X153373363Y-137081579D01*
X153268834Y-136977050D01*
X153268830Y-136977047D01*
X153145916Y-136894918D01*
X153145903Y-136894911D01*
X153009332Y-136838342D01*
X153009322Y-136838339D01*
X152864335Y-136809499D01*
X152864333Y-136809499D01*
X152716497Y-136809499D01*
X152716495Y-136809499D01*
X152571507Y-136838339D01*
X152571497Y-136838342D01*
X152434926Y-136894911D01*
X152434913Y-136894918D01*
X152369539Y-136938601D01*
X152302862Y-136959479D01*
X152300648Y-136959499D01*
X142759066Y-136959499D01*
X142692027Y-136939814D01*
X142671385Y-136923180D01*
X141597624Y-135849419D01*
X141564139Y-135788096D01*
X141561305Y-135761738D01*
X141561305Y-135379855D01*
X141580990Y-135312816D01*
X141633794Y-135267061D01*
X141685305Y-135255855D01*
X144055477Y-135255855D01*
X144055477Y-130618076D01*
X144075162Y-130551037D01*
X144127966Y-130505282D01*
X144179477Y-130494076D01*
X165335915Y-130494076D01*
X165402954Y-130513761D01*
X165448709Y-130566565D01*
X165459915Y-130618076D01*
X165459915Y-139015571D01*
X165459599Y-139024417D01*
X165445284Y-139224557D01*
X165442766Y-139242069D01*
X165401060Y-139433790D01*
X165396076Y-139450765D01*
X165327504Y-139634614D01*
X165320155Y-139650706D01*
X165226123Y-139822914D01*
X165216561Y-139837794D01*
X165098978Y-139994866D01*
X165087393Y-140008236D01*
X164948648Y-140146983D01*
X164935277Y-140158569D01*
X164778205Y-140276152D01*
X164763322Y-140285717D01*
X164591113Y-140379752D01*
X164575019Y-140387102D01*
X164391177Y-140455672D01*
X164374202Y-140460656D01*
X164182479Y-140502365D01*
X164164967Y-140504883D01*
X163965053Y-140519183D01*
X163956206Y-140519499D01*
X133754079Y-140519499D01*
X133687040Y-140499814D01*
X133641285Y-140447010D01*
X133631341Y-140377852D01*
X133650978Y-140326607D01*
X133665079Y-140305503D01*
X133665080Y-140305500D01*
X133665084Y-140305495D01*
X133721658Y-140168913D01*
X133750500Y-140023918D01*
X133750500Y-139876082D01*
X133750500Y-139876079D01*
X133721659Y-139731092D01*
X133721658Y-139731091D01*
X133721658Y-139731087D01*
X133714373Y-139713499D01*
X133665087Y-139594511D01*
X133665080Y-139594498D01*
X133582951Y-139471584D01*
X133582948Y-139471580D01*
X133478419Y-139367051D01*
X133478415Y-139367048D01*
X133355501Y-139284919D01*
X133355488Y-139284912D01*
X133218917Y-139228343D01*
X133218907Y-139228340D01*
X133073920Y-139199500D01*
X133073918Y-139199500D01*
X132926082Y-139199500D01*
X132926080Y-139199500D01*
X132781092Y-139228340D01*
X132781082Y-139228343D01*
X132644511Y-139284912D01*
X132644498Y-139284919D01*
X132521584Y-139367048D01*
X132521580Y-139367051D01*
X132417051Y-139471580D01*
X132417048Y-139471584D01*
X132334919Y-139594498D01*
X132334912Y-139594511D01*
X132278343Y-139731082D01*
X132278340Y-139731092D01*
X132249500Y-139876079D01*
X132249500Y-139876082D01*
X132249500Y-140023918D01*
X132249500Y-140023920D01*
X132249499Y-140023920D01*
X132278340Y-140168907D01*
X132278343Y-140168917D01*
X132334912Y-140305488D01*
X132334920Y-140305503D01*
X132349022Y-140326607D01*
X132369901Y-140393284D01*
X132351417Y-140460665D01*
X132299439Y-140507355D01*
X132245921Y-140519499D01*
X128334000Y-140519499D01*
X128266961Y-140499814D01*
X128221206Y-140447010D01*
X128210000Y-140395499D01*
X128210000Y-117440597D01*
X128229685Y-117373558D01*
X128246316Y-117352919D01*
X128551520Y-117047716D01*
X128630577Y-116910785D01*
X128671501Y-116758057D01*
X128671501Y-116599942D01*
X128671501Y-116592347D01*
X128671500Y-116592329D01*
X128671500Y-109541946D01*
X128671500Y-109541943D01*
X128648337Y-109455495D01*
X128630577Y-109389215D01*
X128601639Y-109339095D01*
X128551520Y-109252284D01*
X128439716Y-109140480D01*
X128439715Y-109140479D01*
X128435385Y-109136149D01*
X128435374Y-109136139D01*
X128320934Y-109021699D01*
X128287449Y-108960376D01*
X128287025Y-108958346D01*
X128271658Y-108881087D01*
X128219438Y-108755018D01*
X128210000Y-108707566D01*
X128210000Y-104482433D01*
X128219439Y-104434980D01*
X128230001Y-104409481D01*
X128271658Y-104308913D01*
X128286850Y-104232539D01*
X128300500Y-104163920D01*
X128300500Y-104016079D01*
X128271659Y-103871092D01*
X128271658Y-103871091D01*
X128271658Y-103871087D01*
X128219438Y-103745018D01*
X128210000Y-103697566D01*
X128210000Y-99434149D01*
X128219439Y-99386696D01*
X128225134Y-99372947D01*
X128251658Y-99308913D01*
X128272543Y-99203920D01*
X128280500Y-99163920D01*
X128280500Y-99016079D01*
X128251659Y-98871092D01*
X128251658Y-98871091D01*
X128251658Y-98871087D01*
X128248688Y-98863917D01*
X128219439Y-98793302D01*
X128210000Y-98745850D01*
X128210000Y-95664501D01*
X128212550Y-95655815D01*
X128211262Y-95646855D01*
X128222240Y-95622816D01*
X128229685Y-95597462D01*
X128236526Y-95591534D01*
X128240287Y-95583299D01*
X128262520Y-95569010D01*
X128282489Y-95551707D01*
X128293002Y-95549419D01*
X128299064Y-95545524D01*
X128333997Y-95540501D01*
X128333999Y-95540501D01*
X128489057Y-95540501D01*
X128489060Y-95540500D01*
X128496668Y-95540500D01*
X130167201Y-95540500D01*
X130234240Y-95560185D01*
X130279995Y-95612989D01*
X130289939Y-95682147D01*
X130288818Y-95688692D01*
X130259500Y-95836079D01*
X130259500Y-95836082D01*
X130259500Y-95983918D01*
X130259500Y-95983920D01*
X130259499Y-95983920D01*
X130288340Y-96128907D01*
X130288343Y-96128917D01*
X130344912Y-96265488D01*
X130344919Y-96265501D01*
X130427048Y-96388415D01*
X130427051Y-96388419D01*
X130531580Y-96492948D01*
X130531584Y-96492951D01*
X130654498Y-96575080D01*
X130654511Y-96575087D01*
X130791082Y-96631656D01*
X130791087Y-96631658D01*
X130791091Y-96631658D01*
X130791092Y-96631659D01*
X130936079Y-96660500D01*
X130936082Y-96660500D01*
X131083920Y-96660500D01*
X131181462Y-96641096D01*
X131228913Y-96631658D01*
X131365495Y-96575084D01*
X131488416Y-96492951D01*
X131592951Y-96388416D01*
X131675084Y-96265495D01*
X131731658Y-96128913D01*
X131741096Y-96081462D01*
X131760500Y-95983920D01*
X131760500Y-95836079D01*
X131760499Y-95836077D01*
X131751074Y-95788691D01*
X131757301Y-95719100D01*
X131800164Y-95663922D01*
X131866054Y-95640678D01*
X131872691Y-95640500D01*
X138203331Y-95640500D01*
X138203347Y-95640501D01*
X138210943Y-95640501D01*
X138369054Y-95640501D01*
X138369057Y-95640501D01*
X138521785Y-95599577D01*
X138571904Y-95570639D01*
X138658716Y-95520520D01*
X138770520Y-95408716D01*
X138770520Y-95408714D01*
X138780728Y-95398507D01*
X138780730Y-95398504D01*
X139178506Y-95000728D01*
X139178511Y-95000724D01*
X139188714Y-94990520D01*
X139188716Y-94990520D01*
X139300520Y-94878716D01*
X139358058Y-94779057D01*
X139379577Y-94741785D01*
X139420500Y-94589057D01*
X139420500Y-94589048D01*
X139421561Y-94580997D01*
X139423018Y-94581188D01*
X139440185Y-94522728D01*
X139441398Y-94520876D01*
X139485080Y-94455501D01*
X139485080Y-94455500D01*
X139485084Y-94455495D01*
X139541658Y-94318913D01*
X139554074Y-94256496D01*
X139570500Y-94173920D01*
X139570500Y-94026079D01*
X139541659Y-93881092D01*
X139541658Y-93881091D01*
X139541658Y-93881087D01*
X139538928Y-93874497D01*
X139485087Y-93744511D01*
X139485080Y-93744498D01*
X139402951Y-93621584D01*
X139402948Y-93621580D01*
X139298419Y-93517051D01*
X139298415Y-93517048D01*
X139175501Y-93434919D01*
X139175488Y-93434912D01*
X139038917Y-93378343D01*
X139038907Y-93378340D01*
X138893920Y-93349500D01*
X138893918Y-93349500D01*
X138746082Y-93349500D01*
X138746080Y-93349500D01*
X138601092Y-93378340D01*
X138601082Y-93378343D01*
X138464511Y-93434912D01*
X138464498Y-93434919D01*
X138341584Y-93517048D01*
X138341580Y-93517051D01*
X138237051Y-93621580D01*
X138237048Y-93621584D01*
X138154919Y-93744498D01*
X138154912Y-93744511D01*
X138098343Y-93881082D01*
X138098340Y-93881092D01*
X138069500Y-94026079D01*
X138069500Y-94173920D01*
X138092851Y-94291308D01*
X138086624Y-94360899D01*
X138043762Y-94416077D01*
X137977872Y-94439322D01*
X137971234Y-94439500D01*
X132564788Y-94439500D01*
X132497749Y-94419815D01*
X132451994Y-94367011D01*
X132442050Y-94297853D01*
X132443171Y-94291308D01*
X132470500Y-94153920D01*
X132470500Y-94006079D01*
X132441659Y-93861092D01*
X132441658Y-93861091D01*
X132441658Y-93861087D01*
X132414732Y-93796082D01*
X132385087Y-93724511D01*
X132385080Y-93724498D01*
X132302951Y-93601584D01*
X132302948Y-93601580D01*
X132198419Y-93497051D01*
X132198415Y-93497048D01*
X132075501Y-93414919D01*
X132075488Y-93414912D01*
X131938917Y-93358343D01*
X131938907Y-93358340D01*
X131793920Y-93329500D01*
X131793918Y-93329500D01*
X131646082Y-93329500D01*
X131646080Y-93329500D01*
X131501092Y-93358340D01*
X131501082Y-93358343D01*
X131364511Y-93414912D01*
X131364498Y-93414919D01*
X131241584Y-93497048D01*
X131241580Y-93497051D01*
X131137051Y-93601580D01*
X131137048Y-93601584D01*
X131054919Y-93724498D01*
X131054912Y-93724511D01*
X130998342Y-93861084D01*
X130998340Y-93861090D01*
X130983000Y-93938210D01*
X130950614Y-94000120D01*
X130949065Y-94001698D01*
X130647582Y-94303182D01*
X130586262Y-94336666D01*
X130559903Y-94339500D01*
X128825500Y-94339500D01*
X128816814Y-94336949D01*
X128807853Y-94338238D01*
X128783812Y-94327259D01*
X128758461Y-94319815D01*
X128752533Y-94312974D01*
X128744297Y-94309213D01*
X128730007Y-94286978D01*
X128712706Y-94267011D01*
X128710418Y-94256496D01*
X128706523Y-94250435D01*
X128701500Y-94215500D01*
X128701500Y-93990827D01*
X128701501Y-93990814D01*
X128701501Y-93822713D01*
X128701501Y-93822711D01*
X128660577Y-93669983D01*
X128622769Y-93604498D01*
X128581520Y-93533052D01*
X128469716Y-93421248D01*
X128469715Y-93421247D01*
X128465385Y-93416917D01*
X128465374Y-93416907D01*
X128265820Y-93217353D01*
X128258752Y-93210285D01*
X128258752Y-93210284D01*
X128246317Y-93197849D01*
X128226653Y-93161836D01*
X128212834Y-93136528D01*
X128212833Y-93136526D01*
X128212833Y-93136521D01*
X128210000Y-93110170D01*
X128210000Y-87644499D01*
X128229685Y-87577460D01*
X128282489Y-87531705D01*
X128334000Y-87520499D01*
X147481375Y-87520499D01*
X147548414Y-87540184D01*
G37*
%TD.AperFunction*%
%TA.AperFunction,Conductor*%
G36*
X163964828Y-87520814D02*
G01*
X164164968Y-87535130D01*
X164182473Y-87537647D01*
X164374198Y-87579356D01*
X164391172Y-87584339D01*
X164575022Y-87652913D01*
X164591097Y-87660254D01*
X164763315Y-87754294D01*
X164778194Y-87763856D01*
X164935268Y-87881441D01*
X164948639Y-87893027D01*
X165087382Y-88031771D01*
X165098967Y-88045142D01*
X165216546Y-88202210D01*
X165226111Y-88217093D01*
X165320144Y-88389302D01*
X165327494Y-88405396D01*
X165396062Y-88589235D01*
X165401046Y-88606210D01*
X165442752Y-88797932D01*
X165445270Y-88815443D01*
X165449083Y-88868747D01*
X165455184Y-88954054D01*
X165459599Y-89015771D01*
X165459915Y-89024618D01*
X165459915Y-117370076D01*
X165440230Y-117437115D01*
X165387426Y-117482870D01*
X165335915Y-117494076D01*
X152918613Y-117494076D01*
X152851574Y-117474391D01*
X152805819Y-117421587D01*
X152795875Y-117352429D01*
X152796996Y-117345884D01*
X152810500Y-117277996D01*
X152810500Y-117130155D01*
X152781659Y-116985168D01*
X152781658Y-116985167D01*
X152781658Y-116985163D01*
X152750850Y-116910785D01*
X152725086Y-116848584D01*
X152671397Y-116768232D01*
X152650520Y-116701554D01*
X152650500Y-116699342D01*
X152650500Y-115650097D01*
X152659144Y-115620656D01*
X152665668Y-115590670D01*
X152669422Y-115585654D01*
X152670185Y-115583058D01*
X152686819Y-115562416D01*
X152702416Y-115546819D01*
X152763739Y-115513334D01*
X152790097Y-115510500D01*
X160283331Y-115510500D01*
X160283347Y-115510501D01*
X160290943Y-115510501D01*
X160449054Y-115510501D01*
X160449057Y-115510501D01*
X160601785Y-115469577D01*
X160671967Y-115429057D01*
X160738716Y-115390520D01*
X160850520Y-115278716D01*
X160850520Y-115278714D01*
X160860723Y-115268512D01*
X160860727Y-115268506D01*
X161028506Y-115100728D01*
X161028511Y-115100724D01*
X161038714Y-115090520D01*
X161038716Y-115090520D01*
X161150520Y-114978716D01*
X161213587Y-114869480D01*
X161229577Y-114841785D01*
X161270500Y-114689057D01*
X161270500Y-114530943D01*
X161270500Y-113760097D01*
X161279144Y-113730656D01*
X161285668Y-113700670D01*
X161289422Y-113695654D01*
X161290185Y-113693058D01*
X161306819Y-113672416D01*
X161329810Y-113649425D01*
X161391133Y-113615940D01*
X161460825Y-113620924D01*
X161464943Y-113622545D01*
X161486756Y-113631580D01*
X161511087Y-113641658D01*
X161511091Y-113641658D01*
X161511092Y-113641659D01*
X161656079Y-113670500D01*
X161656082Y-113670500D01*
X161803920Y-113670500D01*
X161901462Y-113651096D01*
X161948913Y-113641658D01*
X162085495Y-113585084D01*
X162208416Y-113502951D01*
X162312951Y-113398416D01*
X162395084Y-113275495D01*
X162451658Y-113138913D01*
X162469534Y-113049046D01*
X162480500Y-112993920D01*
X162480500Y-112846079D01*
X162451659Y-112701092D01*
X162451658Y-112701091D01*
X162451658Y-112701087D01*
X162441060Y-112675501D01*
X162395087Y-112564511D01*
X162395080Y-112564498D01*
X162312951Y-112441584D01*
X162312948Y-112441580D01*
X162208419Y-112337051D01*
X162208415Y-112337048D01*
X162085501Y-112254919D01*
X162085488Y-112254912D01*
X161948917Y-112198343D01*
X161948907Y-112198340D01*
X161803920Y-112169500D01*
X161803918Y-112169500D01*
X161656082Y-112169500D01*
X161656080Y-112169500D01*
X161511092Y-112198340D01*
X161511082Y-112198343D01*
X161374511Y-112254912D01*
X161374498Y-112254919D01*
X161309124Y-112298602D01*
X161242447Y-112319480D01*
X161240233Y-112319500D01*
X161130942Y-112319500D01*
X160978215Y-112360423D01*
X160978214Y-112360423D01*
X160978212Y-112360424D01*
X160978209Y-112360425D01*
X160928099Y-112389357D01*
X160928095Y-112389359D01*
X160928095Y-112389360D01*
X160920197Y-112393920D01*
X160841285Y-112439479D01*
X160841282Y-112439481D01*
X160189479Y-113091284D01*
X160170151Y-113124762D01*
X160161982Y-113138913D01*
X160110423Y-113228215D01*
X160069499Y-113380943D01*
X160069499Y-113380945D01*
X160069499Y-113549046D01*
X160069500Y-113549059D01*
X160069500Y-114185500D01*
X160049815Y-114252539D01*
X159997011Y-114298294D01*
X159945500Y-114309500D01*
X152576669Y-114309500D01*
X152576653Y-114309499D01*
X152569057Y-114309499D01*
X152410943Y-114309499D01*
X152258215Y-114350423D01*
X152210078Y-114378215D01*
X152210077Y-114378215D01*
X152121290Y-114429475D01*
X152121282Y-114429481D01*
X151569481Y-114981282D01*
X151569481Y-114981283D01*
X151569480Y-114981284D01*
X151541054Y-115030520D01*
X151490423Y-115118215D01*
X151449499Y-115270943D01*
X151449499Y-115270945D01*
X151449499Y-115439046D01*
X151449500Y-115439059D01*
X151449500Y-116729275D01*
X151429815Y-116796314D01*
X151428602Y-116798165D01*
X151394916Y-116848579D01*
X151394914Y-116848582D01*
X151338343Y-116985158D01*
X151338340Y-116985168D01*
X151309500Y-117130155D01*
X151309500Y-117130158D01*
X151309500Y-117277994D01*
X151309500Y-117277996D01*
X151309499Y-117277996D01*
X151323004Y-117345884D01*
X151316777Y-117415476D01*
X151273914Y-117470653D01*
X151208025Y-117493898D01*
X151201387Y-117494076D01*
X144179477Y-117494076D01*
X144112438Y-117474391D01*
X144066683Y-117421587D01*
X144055477Y-117370076D01*
X144055477Y-112735855D01*
X141685305Y-112735855D01*
X141618266Y-112716170D01*
X141572511Y-112663366D01*
X141561305Y-112611855D01*
X141561305Y-99110532D01*
X141580990Y-99043493D01*
X141597624Y-99022851D01*
X142539975Y-98080500D01*
X143497218Y-97123256D01*
X143558539Y-97089773D01*
X143628231Y-97094757D01*
X143684164Y-97136629D01*
X143708581Y-97202093D01*
X143699973Y-97255218D01*
X143700110Y-97255260D01*
X143699801Y-97256275D01*
X143699460Y-97258386D01*
X143698344Y-97261078D01*
X143698340Y-97261092D01*
X143669500Y-97406079D01*
X143669500Y-97406082D01*
X143669500Y-97553918D01*
X143669500Y-97553920D01*
X143669499Y-97553920D01*
X143698340Y-97698907D01*
X143698343Y-97698917D01*
X143754912Y-97835488D01*
X143754919Y-97835501D01*
X143837048Y-97958415D01*
X143837051Y-97958419D01*
X143941580Y-98062948D01*
X143941584Y-98062951D01*
X144064498Y-98145080D01*
X144064511Y-98145087D01*
X144201082Y-98201656D01*
X144201087Y-98201658D01*
X144201091Y-98201658D01*
X144201092Y-98201659D01*
X144346079Y-98230500D01*
X144346082Y-98230500D01*
X144493920Y-98230500D01*
X144611821Y-98207047D01*
X144638913Y-98201658D01*
X144775495Y-98145084D01*
X144840876Y-98101398D01*
X144907553Y-98080520D01*
X144909767Y-98080500D01*
X145183331Y-98080500D01*
X145183347Y-98080501D01*
X145190943Y-98080501D01*
X145349054Y-98080501D01*
X145349057Y-98080501D01*
X145501785Y-98039577D01*
X145501786Y-98039575D01*
X145509635Y-98037473D01*
X145510262Y-98039813D01*
X145530657Y-98037618D01*
X145563110Y-98032943D01*
X145565209Y-98033900D01*
X145567504Y-98033654D01*
X145596835Y-98048332D01*
X145626674Y-98061949D01*
X145627922Y-98063890D01*
X145629986Y-98064923D01*
X145646719Y-98093119D01*
X145664466Y-98120716D01*
X145664904Y-98123762D01*
X145665644Y-98125009D01*
X145667371Y-98138741D01*
X145667812Y-98138668D01*
X145667813Y-98138674D01*
X145668677Y-98149118D01*
X145669499Y-98155649D01*
X145669500Y-98159022D01*
X145669499Y-98159025D01*
X145669499Y-98159046D01*
X145669500Y-98159059D01*
X145669500Y-100370300D01*
X145649815Y-100437339D01*
X145648602Y-100439191D01*
X145584919Y-100534498D01*
X145584912Y-100534511D01*
X145528343Y-100671082D01*
X145528340Y-100671092D01*
X145499500Y-100816079D01*
X145499500Y-100816082D01*
X145499500Y-100963918D01*
X145499500Y-100963920D01*
X145499499Y-100963920D01*
X145528340Y-101108907D01*
X145528343Y-101108917D01*
X145584912Y-101245488D01*
X145584919Y-101245501D01*
X145667048Y-101368415D01*
X145667051Y-101368419D01*
X145771580Y-101472948D01*
X145771584Y-101472951D01*
X145894498Y-101555080D01*
X145894511Y-101555087D01*
X145997109Y-101597584D01*
X146031087Y-101611658D01*
X146031091Y-101611658D01*
X146031092Y-101611659D01*
X146176079Y-101640500D01*
X146310903Y-101640500D01*
X146377942Y-101660185D01*
X146423697Y-101712989D01*
X146433641Y-101782147D01*
X146404616Y-101845703D01*
X146398586Y-101852178D01*
X146116266Y-102134498D01*
X145881286Y-102369478D01*
X145769481Y-102481282D01*
X145769479Y-102481284D01*
X145749189Y-102516428D01*
X145740613Y-102531284D01*
X145690423Y-102618215D01*
X145649499Y-102770943D01*
X145649499Y-102770945D01*
X145649499Y-102939046D01*
X145649500Y-102939059D01*
X145649500Y-105400232D01*
X145629815Y-105467271D01*
X145628603Y-105469122D01*
X145584914Y-105534508D01*
X145528343Y-105671082D01*
X145528340Y-105671092D01*
X145499500Y-105816079D01*
X145499500Y-105816082D01*
X145499500Y-105963918D01*
X145499500Y-105963920D01*
X145499499Y-105963920D01*
X145528340Y-106108907D01*
X145528343Y-106108917D01*
X145584912Y-106245488D01*
X145584919Y-106245501D01*
X145667048Y-106368415D01*
X145667051Y-106368419D01*
X145771580Y-106472948D01*
X145771584Y-106472951D01*
X145894498Y-106555080D01*
X145894511Y-106555087D01*
X146031082Y-106611656D01*
X146031087Y-106611658D01*
X146031091Y-106611658D01*
X146031092Y-106611659D01*
X146085495Y-106622481D01*
X146094499Y-106627191D01*
X146104636Y-106627916D01*
X146124936Y-106643112D01*
X146147406Y-106654866D01*
X146152434Y-106663697D01*
X146160570Y-106669787D01*
X146169431Y-106693545D01*
X146181980Y-106715582D01*
X146181435Y-106725730D01*
X146184987Y-106735251D01*
X146179597Y-106760027D01*
X146178240Y-106785351D01*
X146171900Y-106795411D01*
X146170136Y-106803524D01*
X146148985Y-106831779D01*
X146061286Y-106919478D01*
X146061285Y-106919478D01*
X146061284Y-106919479D01*
X145949480Y-107031283D01*
X145945868Y-107037540D01*
X145933190Y-107059500D01*
X145870423Y-107168215D01*
X145829499Y-107320943D01*
X145829499Y-107320945D01*
X145829499Y-107489046D01*
X145829500Y-107489059D01*
X145829500Y-109489232D01*
X145809815Y-109556271D01*
X145808603Y-109558122D01*
X145764914Y-109623508D01*
X145708343Y-109760082D01*
X145708340Y-109760092D01*
X145679500Y-109905079D01*
X145679500Y-109905082D01*
X145679500Y-110052918D01*
X145679500Y-110052920D01*
X145679499Y-110052920D01*
X145708340Y-110197907D01*
X145708343Y-110197917D01*
X145764912Y-110334488D01*
X145764919Y-110334501D01*
X145847048Y-110457415D01*
X145847051Y-110457419D01*
X145951580Y-110561948D01*
X145951584Y-110561951D01*
X146074498Y-110644080D01*
X146074511Y-110644087D01*
X146211082Y-110700656D01*
X146211087Y-110700658D01*
X146356082Y-110729500D01*
X146359691Y-110730218D01*
X146421602Y-110762603D01*
X146456177Y-110823319D01*
X146459500Y-110851835D01*
X146459500Y-113213131D01*
X146439815Y-113280170D01*
X146387011Y-113325925D01*
X146359693Y-113334748D01*
X146241091Y-113358340D01*
X146241082Y-113358343D01*
X146104511Y-113414912D01*
X146104498Y-113414919D01*
X145981584Y-113497048D01*
X145981580Y-113497051D01*
X145877051Y-113601580D01*
X145877048Y-113601584D01*
X145794919Y-113724498D01*
X145794912Y-113724511D01*
X145738343Y-113861082D01*
X145738340Y-113861092D01*
X145709500Y-114006079D01*
X145709500Y-114006082D01*
X145709500Y-114153918D01*
X145709500Y-114153920D01*
X145709499Y-114153920D01*
X145738340Y-114298907D01*
X145738343Y-114298917D01*
X145794912Y-114435488D01*
X145794919Y-114435501D01*
X145877048Y-114558415D01*
X145877051Y-114558419D01*
X145981580Y-114662948D01*
X145981584Y-114662951D01*
X146104498Y-114745080D01*
X146104511Y-114745087D01*
X146241082Y-114801656D01*
X146241087Y-114801658D01*
X146241091Y-114801658D01*
X146241092Y-114801659D01*
X146359692Y-114825251D01*
X146387822Y-114839965D01*
X146416703Y-114853155D01*
X146418559Y-114856044D01*
X146421603Y-114857636D01*
X146437315Y-114885228D01*
X146454477Y-114911933D01*
X146455137Y-114916526D01*
X146456177Y-114918352D01*
X146459500Y-114946868D01*
X146459500Y-114949901D01*
X146439815Y-115016940D01*
X146423181Y-115037583D01*
X146361698Y-115099065D01*
X146300374Y-115132549D01*
X146298210Y-115133000D01*
X146221090Y-115148340D01*
X146221084Y-115148342D01*
X146084511Y-115204912D01*
X146084498Y-115204919D01*
X145961584Y-115287048D01*
X145961580Y-115287051D01*
X145857051Y-115391580D01*
X145857048Y-115391584D01*
X145774919Y-115514498D01*
X145774912Y-115514511D01*
X145718343Y-115651082D01*
X145718340Y-115651092D01*
X145689500Y-115796079D01*
X145689500Y-115796082D01*
X145689500Y-115943918D01*
X145689500Y-115943920D01*
X145689499Y-115943920D01*
X145718340Y-116088907D01*
X145718343Y-116088917D01*
X145774912Y-116225488D01*
X145774919Y-116225501D01*
X145857048Y-116348415D01*
X145857051Y-116348419D01*
X145961580Y-116452948D01*
X145961584Y-116452951D01*
X146084498Y-116535080D01*
X146084511Y-116535087D01*
X146221082Y-116591656D01*
X146221087Y-116591658D01*
X146221091Y-116591658D01*
X146221092Y-116591659D01*
X146366079Y-116620500D01*
X146366082Y-116620500D01*
X146513920Y-116620500D01*
X146611462Y-116601096D01*
X146658913Y-116591658D01*
X146795495Y-116535084D01*
X146918416Y-116452951D01*
X147022951Y-116348416D01*
X147105084Y-116225495D01*
X147161658Y-116088913D01*
X147176999Y-116011786D01*
X147209381Y-115949879D01*
X147210876Y-115948357D01*
X147418506Y-115740728D01*
X147418511Y-115740724D01*
X147428714Y-115730520D01*
X147428716Y-115730520D01*
X147540520Y-115618716D01*
X147619577Y-115481784D01*
X147660500Y-115329057D01*
X147660500Y-112393920D01*
X154619499Y-112393920D01*
X154648340Y-112538907D01*
X154648343Y-112538917D01*
X154704912Y-112675488D01*
X154704919Y-112675501D01*
X154787048Y-112798415D01*
X154787051Y-112798419D01*
X154891580Y-112902948D01*
X154891584Y-112902951D01*
X155014498Y-112985080D01*
X155014511Y-112985087D01*
X155144815Y-113039060D01*
X155151087Y-113041658D01*
X155151091Y-113041658D01*
X155151092Y-113041659D01*
X155296079Y-113070500D01*
X155296082Y-113070500D01*
X155443920Y-113070500D01*
X155541462Y-113051096D01*
X155588913Y-113041658D01*
X155725495Y-112985084D01*
X155790876Y-112941398D01*
X155857553Y-112920520D01*
X155859767Y-112920500D01*
X159643331Y-112920500D01*
X159643347Y-112920501D01*
X159650943Y-112920501D01*
X159809054Y-112920501D01*
X159809057Y-112920501D01*
X159961785Y-112879577D01*
X160011904Y-112850639D01*
X160098716Y-112800520D01*
X160210520Y-112688716D01*
X160210520Y-112688714D01*
X160220728Y-112678507D01*
X160220730Y-112678504D01*
X160638713Y-112260521D01*
X160638716Y-112260520D01*
X160750520Y-112148716D01*
X160800639Y-112061904D01*
X160829577Y-112011785D01*
X160870500Y-111859058D01*
X160870500Y-111700943D01*
X160870500Y-111349767D01*
X160890185Y-111282728D01*
X160891398Y-111280876D01*
X160935080Y-111215501D01*
X160935080Y-111215500D01*
X160935084Y-111215495D01*
X160991658Y-111078913D01*
X161001096Y-111031462D01*
X161020500Y-110933920D01*
X161020500Y-110786079D01*
X160991659Y-110641092D01*
X160991658Y-110641091D01*
X160991658Y-110641087D01*
X160986859Y-110629500D01*
X160935087Y-110504511D01*
X160935080Y-110504498D01*
X160852951Y-110381584D01*
X160852948Y-110381580D01*
X160748419Y-110277051D01*
X160748415Y-110277048D01*
X160625501Y-110194919D01*
X160625488Y-110194912D01*
X160488917Y-110138343D01*
X160488907Y-110138340D01*
X160343920Y-110109500D01*
X160343918Y-110109500D01*
X160196082Y-110109500D01*
X160196080Y-110109500D01*
X160051092Y-110138340D01*
X160051082Y-110138343D01*
X159914511Y-110194912D01*
X159914498Y-110194919D01*
X159791584Y-110277048D01*
X159791580Y-110277051D01*
X159687051Y-110381580D01*
X159687048Y-110381584D01*
X159604919Y-110504498D01*
X159604912Y-110504511D01*
X159548343Y-110641082D01*
X159548340Y-110641092D01*
X159519500Y-110786079D01*
X159519500Y-110786082D01*
X159519500Y-110933918D01*
X159519500Y-110933920D01*
X159519499Y-110933920D01*
X159548340Y-111078907D01*
X159548343Y-111078917D01*
X159604912Y-111215488D01*
X159604919Y-111215501D01*
X159648602Y-111280876D01*
X159654252Y-111298922D01*
X159664477Y-111314832D01*
X159668928Y-111345791D01*
X159669480Y-111347553D01*
X159669500Y-111349767D01*
X159669500Y-111479903D01*
X159649815Y-111546942D01*
X159633181Y-111567584D01*
X159517584Y-111683181D01*
X159456261Y-111716666D01*
X159429903Y-111719500D01*
X155859767Y-111719500D01*
X155792728Y-111699815D01*
X155790876Y-111698602D01*
X155725501Y-111654919D01*
X155725488Y-111654912D01*
X155588917Y-111598343D01*
X155588907Y-111598340D01*
X155443920Y-111569500D01*
X155443918Y-111569500D01*
X155296082Y-111569500D01*
X155296080Y-111569500D01*
X155151092Y-111598340D01*
X155151082Y-111598343D01*
X155014511Y-111654912D01*
X155014498Y-111654919D01*
X154891584Y-111737048D01*
X154891580Y-111737051D01*
X154787051Y-111841580D01*
X154787048Y-111841584D01*
X154704919Y-111964498D01*
X154704912Y-111964511D01*
X154648343Y-112101082D01*
X154648340Y-112101092D01*
X154619500Y-112246079D01*
X154619500Y-112246082D01*
X154619500Y-112393918D01*
X154619500Y-112393920D01*
X154619499Y-112393920D01*
X147660500Y-112393920D01*
X147660500Y-109933920D01*
X153879499Y-109933920D01*
X153908340Y-110078907D01*
X153908343Y-110078917D01*
X153964912Y-110215488D01*
X153964919Y-110215501D01*
X154047048Y-110338415D01*
X154047051Y-110338419D01*
X154151580Y-110442948D01*
X154151584Y-110442951D01*
X154274498Y-110525080D01*
X154274511Y-110525087D01*
X154411082Y-110581656D01*
X154411087Y-110581658D01*
X154411091Y-110581658D01*
X154411092Y-110581659D01*
X154556079Y-110610500D01*
X154556082Y-110610500D01*
X154703920Y-110610500D01*
X154801462Y-110591096D01*
X154848913Y-110581658D01*
X154985495Y-110525084D01*
X155108416Y-110442951D01*
X155212951Y-110338416D01*
X155295084Y-110215495D01*
X155351658Y-110078913D01*
X155380500Y-109933918D01*
X155380500Y-109786082D01*
X155380500Y-109786079D01*
X155351659Y-109641092D01*
X155351658Y-109641091D01*
X155351658Y-109641087D01*
X155325699Y-109578416D01*
X155295087Y-109504511D01*
X155295080Y-109504498D01*
X155212951Y-109381584D01*
X155212948Y-109381580D01*
X155108419Y-109277051D01*
X155108415Y-109277048D01*
X154985501Y-109194919D01*
X154985488Y-109194912D01*
X154848917Y-109138343D01*
X154848907Y-109138340D01*
X154703920Y-109109500D01*
X154703918Y-109109500D01*
X154556082Y-109109500D01*
X154556080Y-109109500D01*
X154411092Y-109138340D01*
X154411082Y-109138343D01*
X154274511Y-109194912D01*
X154274498Y-109194919D01*
X154151584Y-109277048D01*
X154151580Y-109277051D01*
X154047051Y-109381580D01*
X154047048Y-109381584D01*
X153964919Y-109504498D01*
X153964912Y-109504511D01*
X153908343Y-109641082D01*
X153908340Y-109641092D01*
X153879500Y-109786079D01*
X153879500Y-109786082D01*
X153879500Y-109933918D01*
X153879500Y-109933920D01*
X153879499Y-109933920D01*
X147660500Y-109933920D01*
X147660500Y-109589767D01*
X147680185Y-109522728D01*
X147681398Y-109520876D01*
X147725080Y-109455501D01*
X147725083Y-109455496D01*
X147725084Y-109455495D01*
X147781658Y-109318913D01*
X147791096Y-109271462D01*
X147810500Y-109173920D01*
X147810500Y-109026079D01*
X147781659Y-108881092D01*
X147781658Y-108881091D01*
X147781658Y-108881087D01*
X147765092Y-108841092D01*
X147725087Y-108744511D01*
X147725080Y-108744498D01*
X147642951Y-108621584D01*
X147642948Y-108621580D01*
X147538419Y-108517051D01*
X147538415Y-108517048D01*
X147415501Y-108434919D01*
X147415488Y-108434912D01*
X147278917Y-108378343D01*
X147278907Y-108378340D01*
X147130308Y-108348781D01*
X147068397Y-108316396D01*
X147033823Y-108255680D01*
X147030500Y-108227164D01*
X147030500Y-107700097D01*
X147050185Y-107633058D01*
X147066819Y-107612416D01*
X147251021Y-107428214D01*
X147550520Y-107128716D01*
X147629577Y-106991784D01*
X147670501Y-106839057D01*
X147670501Y-106680942D01*
X147670501Y-106673347D01*
X147670500Y-106673329D01*
X147670500Y-105333920D01*
X152739499Y-105333920D01*
X152768340Y-105478907D01*
X152768343Y-105478917D01*
X152824912Y-105615488D01*
X152824919Y-105615501D01*
X152907048Y-105738415D01*
X152907051Y-105738419D01*
X153011580Y-105842948D01*
X153011584Y-105842951D01*
X153134498Y-105925080D01*
X153134511Y-105925087D01*
X153256814Y-105975746D01*
X153271087Y-105981658D01*
X153271091Y-105981658D01*
X153271092Y-105981659D01*
X153416079Y-106010500D01*
X153416082Y-106010500D01*
X153563920Y-106010500D01*
X153661462Y-105991096D01*
X153708913Y-105981658D01*
X153845495Y-105925084D01*
X153968416Y-105842951D01*
X154072951Y-105738416D01*
X154123779Y-105662346D01*
X154158469Y-105610430D01*
X154159578Y-105611171D01*
X154203754Y-105566201D01*
X154264148Y-105550500D01*
X159885942Y-105550500D01*
X159952981Y-105570185D01*
X159998736Y-105622989D01*
X160008165Y-105657971D01*
X160008311Y-105657943D01*
X160008741Y-105660106D01*
X160009345Y-105662346D01*
X160009500Y-105663920D01*
X160038340Y-105808907D01*
X160038343Y-105808917D01*
X160097247Y-105951124D01*
X160096383Y-105951481D01*
X160109500Y-106003840D01*
X160109500Y-107283330D01*
X160109499Y-107283348D01*
X160109499Y-107449054D01*
X160109498Y-107449054D01*
X160144838Y-107580945D01*
X160150423Y-107601785D01*
X160167743Y-107631784D01*
X160167744Y-107631786D01*
X160167745Y-107631786D01*
X160229479Y-107738714D01*
X160229481Y-107738717D01*
X160348349Y-107857585D01*
X160348355Y-107857590D01*
X160363181Y-107872416D01*
X160396666Y-107933739D01*
X160399500Y-107960097D01*
X160399500Y-108570232D01*
X160379815Y-108637271D01*
X160378603Y-108639122D01*
X160334914Y-108704508D01*
X160278343Y-108841082D01*
X160278340Y-108841092D01*
X160249500Y-108986079D01*
X160249500Y-108986082D01*
X160249500Y-109133918D01*
X160249500Y-109133920D01*
X160249499Y-109133920D01*
X160278340Y-109278907D01*
X160278343Y-109278917D01*
X160334912Y-109415488D01*
X160334919Y-109415501D01*
X160417048Y-109538415D01*
X160417051Y-109538419D01*
X160521580Y-109642948D01*
X160521584Y-109642951D01*
X160644498Y-109725080D01*
X160644511Y-109725087D01*
X160781082Y-109781656D01*
X160781087Y-109781658D01*
X160781091Y-109781658D01*
X160781092Y-109781659D01*
X160926079Y-109810500D01*
X160926082Y-109810500D01*
X161073920Y-109810500D01*
X161171462Y-109791096D01*
X161218913Y-109781658D01*
X161355495Y-109725084D01*
X161478416Y-109642951D01*
X161582951Y-109538416D01*
X161665084Y-109415495D01*
X161721658Y-109278913D01*
X161738366Y-109194919D01*
X161750500Y-109133920D01*
X161750500Y-108986079D01*
X161721659Y-108841092D01*
X161721658Y-108841091D01*
X161721658Y-108841087D01*
X161665084Y-108704505D01*
X161621396Y-108639121D01*
X161600520Y-108572444D01*
X161600500Y-108570232D01*
X161600500Y-107749059D01*
X161600501Y-107749046D01*
X161600501Y-107580945D01*
X161600501Y-107580943D01*
X161559577Y-107428215D01*
X161530639Y-107378095D01*
X161480520Y-107291284D01*
X161368716Y-107179480D01*
X161368715Y-107179479D01*
X161364385Y-107175149D01*
X161364374Y-107175139D01*
X161346819Y-107157584D01*
X161313334Y-107096261D01*
X161310500Y-107069903D01*
X161310500Y-106152229D01*
X161330185Y-106085190D01*
X161339586Y-106073536D01*
X161339086Y-106073126D01*
X161342946Y-106068420D01*
X161342951Y-106068416D01*
X161425084Y-105945495D01*
X161433539Y-105925084D01*
X161474546Y-105826082D01*
X161481658Y-105808913D01*
X161491096Y-105761462D01*
X161510500Y-105663920D01*
X161510500Y-105516079D01*
X161481659Y-105371092D01*
X161481658Y-105371091D01*
X161481658Y-105371087D01*
X161435113Y-105258716D01*
X161425086Y-105234508D01*
X161413386Y-105216998D01*
X161392509Y-105150321D01*
X161410994Y-105082941D01*
X161428802Y-105060432D01*
X161520520Y-104968716D01*
X161599577Y-104831784D01*
X161640501Y-104679057D01*
X161640501Y-104629765D01*
X161660186Y-104562726D01*
X161661365Y-104560923D01*
X161705084Y-104495495D01*
X161710495Y-104482433D01*
X161740712Y-104409481D01*
X161761658Y-104358913D01*
X161771605Y-104308907D01*
X161790500Y-104213920D01*
X161790500Y-104066079D01*
X161761659Y-103921092D01*
X161761658Y-103921091D01*
X161761658Y-103921087D01*
X161749230Y-103891082D01*
X161705087Y-103784511D01*
X161705080Y-103784498D01*
X161622951Y-103661584D01*
X161622948Y-103661580D01*
X161518419Y-103557051D01*
X161518415Y-103557048D01*
X161395501Y-103474919D01*
X161395488Y-103474912D01*
X161258917Y-103418343D01*
X161258907Y-103418340D01*
X161113920Y-103389500D01*
X161113918Y-103389500D01*
X160966082Y-103389500D01*
X160966080Y-103389500D01*
X160821092Y-103418340D01*
X160821082Y-103418343D01*
X160684511Y-103474912D01*
X160684498Y-103474919D01*
X160561584Y-103557048D01*
X160561580Y-103557051D01*
X160457051Y-103661580D01*
X160457048Y-103661584D01*
X160374919Y-103784498D01*
X160374912Y-103784511D01*
X160318343Y-103921082D01*
X160318340Y-103921092D01*
X160289500Y-104066079D01*
X160289500Y-104220010D01*
X160288178Y-104220010D01*
X160276428Y-104281986D01*
X160228366Y-104332699D01*
X160166041Y-104349500D01*
X153720942Y-104349500D01*
X153568213Y-104390423D01*
X153540758Y-104406275D01*
X153540752Y-104406278D01*
X153537397Y-104408216D01*
X153431284Y-104469480D01*
X153402943Y-104497819D01*
X153392628Y-104504672D01*
X153370609Y-104511500D01*
X153350374Y-104522550D01*
X153348210Y-104523000D01*
X153271092Y-104538340D01*
X153271084Y-104538342D01*
X153134511Y-104594912D01*
X153134498Y-104594919D01*
X153011584Y-104677048D01*
X153011580Y-104677051D01*
X152907051Y-104781580D01*
X152907048Y-104781584D01*
X152824919Y-104904498D01*
X152824912Y-104904511D01*
X152768343Y-105041082D01*
X152768340Y-105041092D01*
X152739500Y-105186079D01*
X152739500Y-105186082D01*
X152739500Y-105333918D01*
X152739500Y-105333920D01*
X152739499Y-105333920D01*
X147670500Y-105333920D01*
X147670500Y-104614733D01*
X147690185Y-104547694D01*
X147691398Y-104545842D01*
X147745080Y-104465501D01*
X147745080Y-104465500D01*
X147745084Y-104465495D01*
X147801658Y-104328913D01*
X147813414Y-104269815D01*
X147830500Y-104183920D01*
X147830500Y-104036079D01*
X147801659Y-103891092D01*
X147801658Y-103891091D01*
X147801658Y-103891087D01*
X147757513Y-103784511D01*
X147745087Y-103754511D01*
X147745080Y-103754498D01*
X147662951Y-103631584D01*
X147662948Y-103631580D01*
X147558419Y-103527051D01*
X147558415Y-103527048D01*
X147435501Y-103444919D01*
X147435488Y-103444912D01*
X147298917Y-103388343D01*
X147298907Y-103388340D01*
X147153920Y-103359500D01*
X147153918Y-103359500D01*
X147006082Y-103359500D01*
X147006077Y-103359500D01*
X146998687Y-103360970D01*
X146977705Y-103359091D01*
X146956853Y-103362090D01*
X146943602Y-103356038D01*
X146929096Y-103354740D01*
X146912461Y-103341817D01*
X146893297Y-103333065D01*
X146885421Y-103320810D01*
X146873920Y-103311875D01*
X146866912Y-103292010D01*
X146855523Y-103274287D01*
X146851987Y-103249697D01*
X146850678Y-103245985D01*
X146850500Y-103239352D01*
X146850500Y-103150096D01*
X146870185Y-103083057D01*
X146886815Y-103062419D01*
X147385313Y-102563920D01*
X155369914Y-102563920D01*
X155398755Y-102708907D01*
X155398758Y-102708917D01*
X155455327Y-102845488D01*
X155455334Y-102845501D01*
X155537463Y-102968415D01*
X155537466Y-102968419D01*
X155641995Y-103072948D01*
X155641999Y-103072951D01*
X155764913Y-103155080D01*
X155764926Y-103155087D01*
X155901497Y-103211656D01*
X155901502Y-103211658D01*
X155901506Y-103211658D01*
X155901507Y-103211659D01*
X156046494Y-103240500D01*
X156046497Y-103240500D01*
X156194335Y-103240500D01*
X156291877Y-103221096D01*
X156339328Y-103211658D01*
X156475910Y-103155084D01*
X156541291Y-103111398D01*
X156607968Y-103090520D01*
X156610182Y-103090500D01*
X159493331Y-103090500D01*
X159493347Y-103090501D01*
X159500943Y-103090501D01*
X159659054Y-103090501D01*
X159659057Y-103090501D01*
X159811785Y-103049577D01*
X159861904Y-103020639D01*
X159948716Y-102970520D01*
X160060520Y-102858716D01*
X160060520Y-102858714D01*
X160070728Y-102848507D01*
X160070730Y-102848504D01*
X160618506Y-102300728D01*
X160618511Y-102300724D01*
X160628714Y-102290520D01*
X160628716Y-102290520D01*
X160740520Y-102178716D01*
X160815375Y-102049063D01*
X160815378Y-102049058D01*
X160819575Y-102041788D01*
X160819577Y-102041785D01*
X160860500Y-101889058D01*
X160860500Y-101730943D01*
X160860500Y-101389767D01*
X160880185Y-101322728D01*
X160881398Y-101320876D01*
X160925080Y-101255501D01*
X160925080Y-101255500D01*
X160925084Y-101255495D01*
X160981658Y-101118913D01*
X160991096Y-101071462D01*
X161010500Y-100973920D01*
X161010500Y-100826079D01*
X160981659Y-100681092D01*
X160981658Y-100681091D01*
X160981658Y-100681087D01*
X160933371Y-100564511D01*
X160925087Y-100544511D01*
X160925080Y-100544498D01*
X160842951Y-100421584D01*
X160842948Y-100421580D01*
X160738419Y-100317051D01*
X160738415Y-100317048D01*
X160615501Y-100234919D01*
X160615488Y-100234912D01*
X160478917Y-100178343D01*
X160478907Y-100178340D01*
X160333920Y-100149500D01*
X160333918Y-100149500D01*
X160186082Y-100149500D01*
X160186080Y-100149500D01*
X160041092Y-100178340D01*
X160041082Y-100178343D01*
X159904511Y-100234912D01*
X159904498Y-100234919D01*
X159781584Y-100317048D01*
X159781580Y-100317051D01*
X159677051Y-100421580D01*
X159677048Y-100421584D01*
X159594919Y-100544498D01*
X159594912Y-100544511D01*
X159538343Y-100681082D01*
X159538340Y-100681092D01*
X159509500Y-100826079D01*
X159509500Y-100826082D01*
X159509500Y-100973918D01*
X159509500Y-100973920D01*
X159509499Y-100973920D01*
X159538340Y-101118907D01*
X159538343Y-101118917D01*
X159594912Y-101255488D01*
X159594919Y-101255501D01*
X159638602Y-101320876D01*
X159644252Y-101338922D01*
X159654477Y-101354832D01*
X159658928Y-101385791D01*
X159659480Y-101387553D01*
X159659500Y-101389767D01*
X159659500Y-101509903D01*
X159639815Y-101576942D01*
X159623181Y-101597584D01*
X159367584Y-101853181D01*
X159306261Y-101886666D01*
X159279903Y-101889500D01*
X156610182Y-101889500D01*
X156543143Y-101869815D01*
X156541291Y-101868602D01*
X156475916Y-101824919D01*
X156475903Y-101824912D01*
X156339332Y-101768343D01*
X156339322Y-101768340D01*
X156194335Y-101739500D01*
X156194333Y-101739500D01*
X156046497Y-101739500D01*
X156046495Y-101739500D01*
X155901507Y-101768340D01*
X155901497Y-101768343D01*
X155764926Y-101824912D01*
X155764913Y-101824919D01*
X155641999Y-101907048D01*
X155641995Y-101907051D01*
X155537466Y-102011580D01*
X155537463Y-102011584D01*
X155455334Y-102134498D01*
X155455327Y-102134511D01*
X155398758Y-102271082D01*
X155398755Y-102271092D01*
X155369915Y-102416079D01*
X155369915Y-102416082D01*
X155369915Y-102563918D01*
X155369915Y-102563920D01*
X155369914Y-102563920D01*
X147385313Y-102563920D01*
X147488506Y-102460727D01*
X147488511Y-102460724D01*
X147498714Y-102450520D01*
X147498716Y-102450520D01*
X147610520Y-102338716D01*
X147662028Y-102249500D01*
X147689577Y-102201785D01*
X147730501Y-102049057D01*
X147730501Y-101890943D01*
X147730501Y-101883348D01*
X147730500Y-101883330D01*
X147730500Y-99589767D01*
X147750185Y-99522728D01*
X147751398Y-99520876D01*
X147795080Y-99455501D01*
X147795080Y-99455500D01*
X147795084Y-99455495D01*
X147795254Y-99455086D01*
X147839230Y-99348917D01*
X147851658Y-99318913D01*
X147874532Y-99203920D01*
X147880500Y-99173920D01*
X147880500Y-99026079D01*
X147851659Y-98881092D01*
X147851658Y-98881091D01*
X147851658Y-98881087D01*
X147844547Y-98863919D01*
X153919914Y-98863919D01*
X153948755Y-99008906D01*
X153948758Y-99008916D01*
X154005327Y-99145487D01*
X154005334Y-99145500D01*
X154087463Y-99268414D01*
X154087466Y-99268418D01*
X154191995Y-99372947D01*
X154191999Y-99372950D01*
X154314913Y-99455079D01*
X154314926Y-99455086D01*
X154451497Y-99511655D01*
X154451502Y-99511657D01*
X154451506Y-99511657D01*
X154451507Y-99511658D01*
X154596494Y-99540499D01*
X154596497Y-99540499D01*
X154744335Y-99540499D01*
X154842982Y-99520876D01*
X154889328Y-99511657D01*
X155024901Y-99455501D01*
X155025903Y-99455086D01*
X155025903Y-99455085D01*
X155025910Y-99455083D01*
X155148831Y-99372950D01*
X155253366Y-99268415D01*
X155335499Y-99145494D01*
X155392073Y-99008912D01*
X155420915Y-98863917D01*
X155420915Y-98716081D01*
X155420915Y-98716078D01*
X155392074Y-98571091D01*
X155392073Y-98571090D01*
X155392073Y-98571086D01*
X155350242Y-98470097D01*
X155335502Y-98434510D01*
X155335495Y-98434497D01*
X155253366Y-98311583D01*
X155253363Y-98311579D01*
X155148834Y-98207050D01*
X155148830Y-98207047D01*
X155025916Y-98124918D01*
X155025903Y-98124911D01*
X154889332Y-98068342D01*
X154889322Y-98068339D01*
X154744335Y-98039499D01*
X154744333Y-98039499D01*
X154596497Y-98039499D01*
X154596495Y-98039499D01*
X154451507Y-98068339D01*
X154451497Y-98068342D01*
X154314926Y-98124911D01*
X154314913Y-98124918D01*
X154191999Y-98207047D01*
X154191995Y-98207050D01*
X154087466Y-98311579D01*
X154087463Y-98311583D01*
X154005334Y-98434497D01*
X154005327Y-98434510D01*
X153948758Y-98571081D01*
X153948755Y-98571091D01*
X153919915Y-98716078D01*
X153919915Y-98716081D01*
X153919915Y-98863917D01*
X153919915Y-98863919D01*
X153919914Y-98863919D01*
X147844547Y-98863919D01*
X147844546Y-98863917D01*
X147800443Y-98757441D01*
X147795085Y-98744508D01*
X147795084Y-98744505D01*
X147795082Y-98744502D01*
X147795080Y-98744498D01*
X147712951Y-98621584D01*
X147712948Y-98621580D01*
X147608419Y-98517051D01*
X147608415Y-98517048D01*
X147485501Y-98434919D01*
X147485488Y-98434912D01*
X147348917Y-98378343D01*
X147348907Y-98378340D01*
X147203920Y-98349500D01*
X147203918Y-98349500D01*
X147139097Y-98349500D01*
X147072058Y-98329815D01*
X147026303Y-98277011D01*
X147016359Y-98207853D01*
X147045384Y-98144297D01*
X147051416Y-98137819D01*
X147156292Y-98032943D01*
X147460520Y-97728716D01*
X147539577Y-97591784D01*
X147580501Y-97439057D01*
X147580501Y-97280942D01*
X147580501Y-97273347D01*
X147580500Y-97273329D01*
X147580500Y-95840097D01*
X147600185Y-95773058D01*
X147616819Y-95752416D01*
X147862416Y-95506819D01*
X147923739Y-95473334D01*
X147950097Y-95470500D01*
X149373331Y-95470500D01*
X149373347Y-95470501D01*
X149380943Y-95470501D01*
X149539054Y-95470501D01*
X149539057Y-95470501D01*
X149691785Y-95429577D01*
X149769472Y-95384724D01*
X149828716Y-95350520D01*
X149940520Y-95238716D01*
X150030520Y-95148716D01*
X150082040Y-95059480D01*
X150109577Y-95011785D01*
X150150500Y-94859058D01*
X150150500Y-94700943D01*
X150150500Y-94599767D01*
X150170185Y-94532728D01*
X150171398Y-94530876D01*
X150215080Y-94465501D01*
X150215080Y-94465500D01*
X150215084Y-94465495D01*
X150271658Y-94328913D01*
X150297896Y-94197011D01*
X150300500Y-94183920D01*
X150300500Y-94036079D01*
X150279139Y-93928692D01*
X150285366Y-93859100D01*
X150328229Y-93803923D01*
X150394119Y-93780678D01*
X150400756Y-93780500D01*
X152159903Y-93780500D01*
X152226942Y-93800185D01*
X152247584Y-93816819D01*
X152895139Y-94464374D01*
X152895149Y-94464385D01*
X152899479Y-94468715D01*
X152899480Y-94468716D01*
X153011284Y-94580520D01*
X153011286Y-94580521D01*
X153011290Y-94580524D01*
X153148209Y-94659573D01*
X153148216Y-94659577D01*
X153187594Y-94670128D01*
X153247252Y-94706491D01*
X153277782Y-94769338D01*
X153269488Y-94838714D01*
X153259767Y-94857015D01*
X153252573Y-94868190D01*
X153239480Y-94881284D01*
X153200352Y-94949057D01*
X153198869Y-94951624D01*
X153198859Y-94951641D01*
X153160423Y-95018214D01*
X153160423Y-95018215D01*
X153119499Y-95170943D01*
X153119499Y-95170945D01*
X153119499Y-95339046D01*
X153119500Y-95339059D01*
X153119500Y-95420232D01*
X153099815Y-95487271D01*
X153098603Y-95489122D01*
X153054914Y-95554508D01*
X152998343Y-95691082D01*
X152998340Y-95691092D01*
X152969500Y-95836079D01*
X152969500Y-95836082D01*
X152969500Y-95983918D01*
X152969500Y-95983920D01*
X152969499Y-95983920D01*
X152998340Y-96128907D01*
X152998343Y-96128917D01*
X153054912Y-96265488D01*
X153054919Y-96265501D01*
X153137048Y-96388415D01*
X153137051Y-96388419D01*
X153241580Y-96492948D01*
X153241584Y-96492951D01*
X153364498Y-96575080D01*
X153364511Y-96575087D01*
X153501082Y-96631656D01*
X153501087Y-96631658D01*
X153501091Y-96631658D01*
X153501092Y-96631659D01*
X153646079Y-96660500D01*
X153646082Y-96660500D01*
X153793920Y-96660500D01*
X153891462Y-96641096D01*
X153938913Y-96631658D01*
X154075495Y-96575084D01*
X154198416Y-96492951D01*
X154302951Y-96388416D01*
X154385084Y-96265495D01*
X154441658Y-96128913D01*
X154451096Y-96081462D01*
X154470500Y-95983920D01*
X154470500Y-95836079D01*
X154441182Y-95688692D01*
X154447409Y-95619100D01*
X154490272Y-95563923D01*
X154556161Y-95540678D01*
X154562799Y-95540500D01*
X159433223Y-95540500D01*
X159500262Y-95560185D01*
X159546017Y-95612989D01*
X159555961Y-95682147D01*
X159554840Y-95688692D01*
X159529500Y-95816079D01*
X159529500Y-95816082D01*
X159529500Y-95963918D01*
X159529500Y-95963920D01*
X159529499Y-95963920D01*
X159558340Y-96108907D01*
X159558343Y-96108917D01*
X159614912Y-96245488D01*
X159614919Y-96245501D01*
X159658602Y-96310876D01*
X159679480Y-96377553D01*
X159679500Y-96379767D01*
X159679500Y-97103330D01*
X159679499Y-97103348D01*
X159679499Y-97269054D01*
X159679498Y-97269054D01*
X159684686Y-97288415D01*
X159720423Y-97421785D01*
X159728342Y-97435501D01*
X159799477Y-97558712D01*
X159799481Y-97558717D01*
X159918349Y-97677585D01*
X159918355Y-97677590D01*
X160483181Y-98242416D01*
X160516666Y-98303739D01*
X160519500Y-98330097D01*
X160519500Y-98640232D01*
X160499815Y-98707271D01*
X160498603Y-98709122D01*
X160454914Y-98774508D01*
X160398343Y-98911082D01*
X160398340Y-98911092D01*
X160369500Y-99056079D01*
X160369500Y-99056082D01*
X160369500Y-99203918D01*
X160369500Y-99203920D01*
X160369499Y-99203920D01*
X160398340Y-99348907D01*
X160398343Y-99348917D01*
X160454912Y-99485488D01*
X160454919Y-99485501D01*
X160537048Y-99608415D01*
X160537051Y-99608419D01*
X160641580Y-99712948D01*
X160641584Y-99712951D01*
X160764498Y-99795080D01*
X160764511Y-99795087D01*
X160874149Y-99840500D01*
X160901087Y-99851658D01*
X160901091Y-99851658D01*
X160901092Y-99851659D01*
X161046079Y-99880500D01*
X161046082Y-99880500D01*
X161193920Y-99880500D01*
X161291462Y-99861096D01*
X161338913Y-99851658D01*
X161475495Y-99795084D01*
X161598416Y-99712951D01*
X161702951Y-99608416D01*
X161785084Y-99485495D01*
X161841658Y-99348913D01*
X161857670Y-99268418D01*
X161870500Y-99203920D01*
X161870500Y-99056079D01*
X161841659Y-98911092D01*
X161841658Y-98911091D01*
X161841658Y-98911087D01*
X161785084Y-98774505D01*
X161741396Y-98709121D01*
X161720520Y-98642444D01*
X161720500Y-98640232D01*
X161720500Y-97950945D01*
X161720500Y-97950943D01*
X161679577Y-97798216D01*
X161639452Y-97728716D01*
X161600524Y-97661290D01*
X161600521Y-97661286D01*
X161600520Y-97661284D01*
X161488716Y-97549480D01*
X161488715Y-97549479D01*
X161484385Y-97545149D01*
X161484374Y-97545139D01*
X160916819Y-96977584D01*
X160883334Y-96916261D01*
X160880500Y-96889903D01*
X160880500Y-96379767D01*
X160900185Y-96312728D01*
X160901398Y-96310876D01*
X160945080Y-96245501D01*
X160945080Y-96245500D01*
X160945084Y-96245495D01*
X161001658Y-96108913D01*
X161011487Y-96059500D01*
X161030500Y-95963920D01*
X161030500Y-95816079D01*
X161001659Y-95671092D01*
X161001658Y-95671091D01*
X161001658Y-95671087D01*
X160988989Y-95640501D01*
X160945087Y-95534511D01*
X160945080Y-95534498D01*
X160862951Y-95411584D01*
X160862948Y-95411580D01*
X160797982Y-95346614D01*
X160793644Y-95338669D01*
X160786396Y-95333244D01*
X160777159Y-95308481D01*
X160764497Y-95285291D01*
X160765142Y-95276262D01*
X160761979Y-95267780D01*
X160767595Y-95241957D01*
X160769481Y-95215599D01*
X160775298Y-95206546D01*
X160776830Y-95199507D01*
X160797978Y-95171255D01*
X160868509Y-95100724D01*
X160868514Y-95100721D01*
X160878714Y-95090520D01*
X160878716Y-95090520D01*
X160990520Y-94978716D01*
X161069577Y-94841784D01*
X161105313Y-94708415D01*
X161110500Y-94689058D01*
X161110500Y-94585897D01*
X161110741Y-94582039D01*
X161121388Y-94552686D01*
X161130185Y-94522728D01*
X161131398Y-94520876D01*
X161175080Y-94455501D01*
X161175080Y-94455500D01*
X161175084Y-94455495D01*
X161231658Y-94318913D01*
X161244074Y-94256496D01*
X161260500Y-94173920D01*
X161260500Y-94026079D01*
X161231659Y-93881092D01*
X161231658Y-93881091D01*
X161231658Y-93881087D01*
X161228928Y-93874497D01*
X161175087Y-93744511D01*
X161175080Y-93744498D01*
X161092951Y-93621584D01*
X161092948Y-93621580D01*
X160988419Y-93517051D01*
X160988415Y-93517048D01*
X160865501Y-93434919D01*
X160865488Y-93434912D01*
X160728917Y-93378343D01*
X160728907Y-93378340D01*
X160583920Y-93349500D01*
X160583918Y-93349500D01*
X160436082Y-93349500D01*
X160436080Y-93349500D01*
X160291092Y-93378340D01*
X160291082Y-93378343D01*
X160154511Y-93434912D01*
X160154498Y-93434919D01*
X160031584Y-93517048D01*
X160031580Y-93517051D01*
X159927051Y-93621580D01*
X159927048Y-93621584D01*
X159844919Y-93744498D01*
X159844912Y-93744511D01*
X159788343Y-93881082D01*
X159788340Y-93881092D01*
X159759500Y-94026079D01*
X159759500Y-94173918D01*
X159762959Y-94191307D01*
X159756733Y-94260898D01*
X159713870Y-94316076D01*
X159647981Y-94339322D01*
X159641342Y-94339500D01*
X154998658Y-94339500D01*
X154931619Y-94319815D01*
X154885864Y-94267011D01*
X154875920Y-94197853D01*
X154877041Y-94191307D01*
X154880500Y-94173918D01*
X154880500Y-94026079D01*
X154851659Y-93881092D01*
X154851658Y-93881091D01*
X154851658Y-93881087D01*
X154848928Y-93874497D01*
X154795087Y-93744511D01*
X154795080Y-93744498D01*
X154712951Y-93621584D01*
X154712948Y-93621580D01*
X154608419Y-93517051D01*
X154608415Y-93517048D01*
X154485501Y-93434919D01*
X154485488Y-93434912D01*
X154348917Y-93378343D01*
X154348907Y-93378340D01*
X154203920Y-93349500D01*
X154203918Y-93349500D01*
X154056082Y-93349500D01*
X154056080Y-93349500D01*
X153911092Y-93378340D01*
X153911082Y-93378343D01*
X153774511Y-93434912D01*
X153774500Y-93434918D01*
X153733019Y-93462635D01*
X153666341Y-93483512D01*
X153598961Y-93465027D01*
X153576448Y-93447213D01*
X152947590Y-92818355D01*
X152947588Y-92818352D01*
X152828717Y-92699481D01*
X152828716Y-92699480D01*
X152741904Y-92649360D01*
X152741904Y-92649359D01*
X152741900Y-92649358D01*
X152691785Y-92620423D01*
X152539057Y-92579499D01*
X152380943Y-92579499D01*
X152373347Y-92579499D01*
X152373331Y-92579500D01*
X150619510Y-92579500D01*
X150598267Y-92573262D01*
X150576179Y-92571683D01*
X150565393Y-92563609D01*
X150552471Y-92559815D01*
X150537972Y-92543083D01*
X150520244Y-92529812D01*
X150515535Y-92517189D01*
X150506716Y-92507011D01*
X150503564Y-92485095D01*
X150495826Y-92464348D01*
X150498689Y-92451185D01*
X150496772Y-92437853D01*
X150505970Y-92417710D01*
X150510677Y-92396075D01*
X150523947Y-92378345D01*
X150525797Y-92374297D01*
X150531811Y-92367836D01*
X150558923Y-92340724D01*
X150558928Y-92340721D01*
X150569129Y-92330519D01*
X150569131Y-92330519D01*
X150680935Y-92218715D01*
X150731413Y-92131283D01*
X150759992Y-92081784D01*
X150800916Y-91929056D01*
X150800916Y-91770942D01*
X150800916Y-91763347D01*
X150800915Y-91763329D01*
X150800915Y-88770944D01*
X150800915Y-88770942D01*
X150788763Y-88725590D01*
X150790426Y-88655743D01*
X150829588Y-88597880D01*
X150893817Y-88570376D01*
X150908538Y-88569499D01*
X157528607Y-88569499D01*
X157595646Y-88589184D01*
X157616288Y-88605818D01*
X163407813Y-94397343D01*
X163435564Y-94443642D01*
X163436426Y-94443285D01*
X163495327Y-94585487D01*
X163495334Y-94585500D01*
X163577463Y-94708414D01*
X163577466Y-94708418D01*
X163681995Y-94812947D01*
X163681999Y-94812950D01*
X163804913Y-94895079D01*
X163804926Y-94895086D01*
X163935225Y-94949057D01*
X163941502Y-94951657D01*
X163941506Y-94951657D01*
X163941507Y-94951658D01*
X164086494Y-94980499D01*
X164086497Y-94980499D01*
X164234335Y-94980499D01*
X164331877Y-94961095D01*
X164379328Y-94951657D01*
X164515910Y-94895083D01*
X164638831Y-94812950D01*
X164743366Y-94708415D01*
X164825499Y-94585494D01*
X164882073Y-94448912D01*
X164903837Y-94339500D01*
X164910915Y-94303919D01*
X164910915Y-94156078D01*
X164882074Y-94011091D01*
X164882073Y-94011090D01*
X164882073Y-94011086D01*
X164877531Y-94000120D01*
X164825502Y-93874510D01*
X164825495Y-93874497D01*
X164743366Y-93751583D01*
X164743363Y-93751579D01*
X164638834Y-93647050D01*
X164638830Y-93647047D01*
X164515916Y-93564918D01*
X164515903Y-93564911D01*
X164373701Y-93506010D01*
X164374058Y-93505148D01*
X164327759Y-93477397D01*
X158582542Y-87732180D01*
X158549057Y-87670857D01*
X158554041Y-87601165D01*
X158595913Y-87545232D01*
X158661377Y-87520815D01*
X158670223Y-87520499D01*
X163894519Y-87520499D01*
X163955982Y-87520499D01*
X163964828Y-87520814D01*
G37*
%TD.AperFunction*%
%TD*%
M02*
