%TF.GenerationSoftware,KiCad,Pcbnew,9.0.5*%
%TF.CreationDate,2025-11-23T18:29:56+02:00*%
%TF.ProjectId,Business_Card,42757369-6e65-4737-935f-436172642e6b,rev?*%
%TF.SameCoordinates,Original*%
%TF.FileFunction,Copper,L4,Bot*%
%TF.FilePolarity,Positive*%
%FSLAX46Y46*%
G04 Gerber Fmt 4.6, Leading zero omitted, Abs format (unit mm)*
G04 Created by KiCad (PCBNEW 9.0.5) date 2025-11-23 18:29:56*
%MOMM*%
%LPD*%
G01*
G04 APERTURE LIST*
G04 Aperture macros list*
%AMRoundRect*
0 Rectangle with rounded corners*
0 $1 Rounding radius*
0 $2 $3 $4 $5 $6 $7 $8 $9 X,Y pos of 4 corners*
0 Add a 4 corners polygon primitive as box body*
4,1,4,$2,$3,$4,$5,$6,$7,$8,$9,$2,$3,0*
0 Add four circle primitives for the rounded corners*
1,1,$1+$1,$2,$3*
1,1,$1+$1,$4,$5*
1,1,$1+$1,$6,$7*
1,1,$1+$1,$8,$9*
0 Add four rect primitives between the rounded corners*
20,1,$1+$1,$2,$3,$4,$5,0*
20,1,$1+$1,$4,$5,$6,$7,0*
20,1,$1+$1,$6,$7,$8,$9,0*
20,1,$1+$1,$8,$9,$2,$3,0*%
G04 Aperture macros list end*
%TA.AperFunction,Conductor*%
%ADD10C,0.400000*%
%TD*%
%TA.AperFunction,SMDPad,CuDef*%
%ADD11R,1.400000X1.600000*%
%TD*%
%TA.AperFunction,SMDPad,CuDef*%
%ADD12RoundRect,0.250000X0.650000X-1.500000X0.650000X1.500000X-0.650000X1.500000X-0.650000X-1.500000X0*%
%TD*%
%TA.AperFunction,SMDPad,CuDef*%
%ADD13O,1.350000X4.000000*%
%TD*%
%TA.AperFunction,SMDPad,CuDef*%
%ADD14RoundRect,0.155000X-0.155000X0.212500X-0.155000X-0.212500X0.155000X-0.212500X0.155000X0.212500X0*%
%TD*%
%TA.AperFunction,SMDPad,CuDef*%
%ADD15RoundRect,0.250000X0.475000X-0.337500X0.475000X0.337500X-0.475000X0.337500X-0.475000X-0.337500X0*%
%TD*%
%TA.AperFunction,SMDPad,CuDef*%
%ADD16C,1.000000*%
%TD*%
%TA.AperFunction,SMDPad,CuDef*%
%ADD17RoundRect,0.160000X0.197500X0.160000X-0.197500X0.160000X-0.197500X-0.160000X0.197500X-0.160000X0*%
%TD*%
%TA.AperFunction,SMDPad,CuDef*%
%ADD18RoundRect,0.250000X-0.350000X-0.450000X0.350000X-0.450000X0.350000X0.450000X-0.350000X0.450000X0*%
%TD*%
%TA.AperFunction,SMDPad,CuDef*%
%ADD19RoundRect,0.250000X0.337500X0.475000X-0.337500X0.475000X-0.337500X-0.475000X0.337500X-0.475000X0*%
%TD*%
%TA.AperFunction,SMDPad,CuDef*%
%ADD20RoundRect,0.250000X-0.450000X0.350000X-0.450000X-0.350000X0.450000X-0.350000X0.450000X0.350000X0*%
%TD*%
%TA.AperFunction,SMDPad,CuDef*%
%ADD21RoundRect,0.250000X-0.650000X1.500000X-0.650000X-1.500000X0.650000X-1.500000X0.650000X1.500000X0*%
%TD*%
%TA.AperFunction,SMDPad,CuDef*%
%ADD22RoundRect,0.250000X0.350000X0.450000X-0.350000X0.450000X-0.350000X-0.450000X0.350000X-0.450000X0*%
%TD*%
%TA.AperFunction,SMDPad,CuDef*%
%ADD23RoundRect,0.250000X-0.475000X0.337500X-0.475000X-0.337500X0.475000X-0.337500X0.475000X0.337500X0*%
%TD*%
%TA.AperFunction,SMDPad,CuDef*%
%ADD24R,1.475000X0.450000*%
%TD*%
%TA.AperFunction,ViaPad*%
%ADD25C,0.500000*%
%TD*%
%TA.AperFunction,Conductor*%
%ADD26C,0.300000*%
%TD*%
%TA.AperFunction,Conductor*%
%ADD27C,0.200000*%
%TD*%
G04 APERTURE END LIST*
D10*
%TO.N,/ANTENNA*%
X126380212Y-137040000D02*
G75*
G02*
X124370212Y-139030012I-2000012J10000D01*
G01*
X121970393Y-91440000D02*
X85770417Y-91440002D01*
X126288360Y-90482212D02*
X126206549Y-90307913D01*
X127369213Y-91158727D02*
X128820415Y-91158727D01*
X84190415Y-89840000D02*
X123590415Y-89840000D01*
X85750418Y-136649796D02*
G75*
G02*
X83760404Y-134639796I9982J1999996D01*
G01*
X123980205Y-134640000D02*
X123980212Y-94379999D01*
X123570399Y-89840000D02*
G75*
G02*
X124959052Y-90419285I-9899J-1977800D01*
G01*
X121970393Y-91440000D02*
G75*
G02*
X123359049Y-92019282I-9893J-1977800D01*
G01*
X124780209Y-135440000D02*
G75*
G02*
X122770209Y-137430009I-2000009J10000D01*
G01*
X126380212Y-93189999D02*
X126380212Y-137040000D01*
X127335190Y-91158727D02*
G75*
G02*
X126288335Y-90482191I17010J1174527D01*
G01*
X82160417Y-91829999D02*
X82160420Y-136239796D01*
X124159056Y-91219298D02*
G75*
G02*
X124606532Y-91907917I-1398556J-1398502D01*
G01*
X83760417Y-93430002D02*
G75*
G02*
X85770417Y-91440017I1999983J-9998D01*
G01*
X126090415Y-92289999D02*
X129120415Y-92289999D01*
X122770393Y-90640001D02*
X84970417Y-90640002D01*
X82160417Y-91829999D02*
G75*
G02*
X84170417Y-89840017I1999983J-10001D01*
G01*
X123980205Y-134640000D02*
G75*
G02*
X121970205Y-136630005I-2000005J10000D01*
G01*
X83760417Y-93449796D02*
X83760418Y-134639796D01*
X124959062Y-90419298D02*
G75*
G02*
X125406536Y-91107917I-1398562J-1398502D01*
G01*
X125580209Y-136240000D02*
G75*
G02*
X123570209Y-138230009I-2000009J10000D01*
G01*
X124780208Y-135440000D02*
X124780415Y-94379999D01*
X123980212Y-94379999D02*
G75*
G02*
X126073112Y-92287112I2092888J-1D01*
G01*
X125759078Y-89619298D02*
G75*
G02*
X126206549Y-90307918I-1398578J-1398502D01*
G01*
X83370415Y-89040000D02*
X124370415Y-89040000D01*
X81360415Y-91029999D02*
G75*
G02*
X83370415Y-89040015I1999985J-10001D01*
G01*
X124370212Y-139029999D02*
X83370212Y-139029999D01*
X124370415Y-89040000D02*
G75*
G02*
X125759060Y-89619293I-9915J-1977800D01*
G01*
X122770393Y-90640000D02*
G75*
G02*
X124159049Y-91219282I-9893J-1977800D01*
G01*
X84150415Y-138249796D02*
G75*
G02*
X82160404Y-136239796I9985J1999996D01*
G01*
X81360415Y-137029999D02*
X81360415Y-91029999D01*
X84950418Y-137449796D02*
G75*
G02*
X82960404Y-135439796I9982J1999996D01*
G01*
X82960417Y-92649796D02*
X82960418Y-135440002D01*
X84950618Y-137449796D02*
X122770209Y-137430000D01*
X123359056Y-92019298D02*
G75*
G02*
X123806532Y-92707917I-1398556J-1398502D01*
G01*
X82960417Y-92630002D02*
G75*
G02*
X84970417Y-90640017I1999983J-9998D01*
G01*
X85750418Y-136649796D02*
X121970205Y-136630000D01*
X125580209Y-136219999D02*
X125580209Y-93210000D01*
X130130415Y-91158727D02*
X128820415Y-91158727D01*
X84150415Y-138249796D02*
X123570209Y-138230000D01*
X83350415Y-139029999D02*
G75*
G02*
X81360401Y-137019999I9985J1999999D01*
G01*
%TD*%
D11*
%TO.P,S1,1*%
%TO.N,GND*%
X159660415Y-97942499D03*
%TO.P,S1,2*%
X159660415Y-90742499D03*
%TO.P,S1,3*%
%TO.N,/BTN*%
X162660415Y-97942499D03*
%TO.P,S1,4*%
X162660415Y-90742499D03*
%TD*%
D12*
%TO.P,DZ1,1,A1*%
%TO.N,+5V*%
X163040415Y-107549999D03*
%TO.P,DZ1,2,A2*%
%TO.N,GND*%
X163040415Y-102549999D03*
%TD*%
D13*
%TO.P,U1,0,GPIO0*%
%TO.N,unconnected-(U1-GPIO0-Pad0)*%
X145175477Y-114994076D03*
%TO.P,U1,1,GPIO1*%
%TO.N,unconnected-(U1-GPIO1-Pad1)*%
X147715477Y-114994076D03*
%TO.P,U1,2,GPIO2*%
%TO.N,unconnected-(U1-GPIO2-Pad2)*%
X150255477Y-114994076D03*
%TO.P,U1,3,GPIO3*%
%TO.N,unconnected-(U1-GPIO3-Pad3)*%
X152795477Y-114994076D03*
%TO.P,U1,3.3,3V3*%
%TO.N,+3V3*%
X157875477Y-114994076D03*
%TO.P,U1,4,GPIO4*%
%TO.N,unconnected-(U1-GPIO4-Pad4)*%
X155335477Y-114994076D03*
%TO.P,U1,5,GPIO5*%
%TO.N,unconnected-(U1-GPIO5-Pad5)*%
X162955477Y-132994076D03*
%TO.P,U1,5V,5V*%
%TO.N,+5V*%
X162955477Y-114994076D03*
%TO.P,U1,6,GPIO6*%
%TO.N,/BTN*%
X160415477Y-132994076D03*
%TO.P,U1,7,GPIO7*%
%TO.N,/INT*%
X157875477Y-132994076D03*
%TO.P,U1,8,GPIO8*%
%TO.N,/SDA*%
X155335477Y-132994076D03*
%TO.P,U1,9,GPIO9*%
%TO.N,/SCL*%
X152795477Y-132994076D03*
%TO.P,U1,10,GPIO10*%
%TO.N,/LED*%
X150255477Y-132994076D03*
%TO.P,U1,20,GPIO20*%
%TO.N,unconnected-(U1-GPIO20-Pad20)*%
X147715477Y-132994076D03*
%TO.P,U1,21,GPIO21*%
%TO.N,unconnected-(U1-GPIO21-Pad21)*%
X145175477Y-132994076D03*
%TO.P,U1,G,GND*%
%TO.N,GND*%
X160415477Y-114994076D03*
%TD*%
D14*
%TO.P,C5,1*%
%TO.N,/ANTENNA*%
X132660415Y-91152499D03*
%TO.P,C5,2*%
X132660415Y-92287499D03*
%TD*%
D15*
%TO.P,C1,1*%
%TO.N,+5V*%
X158580415Y-105977499D03*
%TO.P,C1,2*%
%TO.N,GND*%
X158580415Y-103902499D03*
%TD*%
D16*
%TO.P,TP1,1,1*%
%TO.N,/EVH*%
X140960415Y-95419999D03*
%TD*%
D17*
%TO.P,R5,1*%
%TO.N,Net-(IC1-AC1)*%
X136557915Y-91019999D03*
%TO.P,R5,2*%
%TO.N,/ANTENNA*%
X135362915Y-91019999D03*
%TD*%
D18*
%TO.P,R7,1*%
%TO.N,+3V3*%
X156807024Y-88738178D03*
%TO.P,R7,2*%
%TO.N,GND*%
X158807024Y-88738178D03*
%TD*%
D19*
%TO.P,C3,1*%
%TO.N,/EVH*%
X137997915Y-95419999D03*
%TO.P,C3,2*%
%TO.N,GND*%
X135922915Y-95419999D03*
%TD*%
D20*
%TO.P,R4,1*%
%TO.N,/INT*%
X150998987Y-94939082D03*
%TO.P,R4,2*%
%TO.N,GND*%
X150998987Y-96939082D03*
%TD*%
D21*
%TO.P,D50,1,K*%
%TO.N,/LED1_PWR*%
X154670415Y-102372499D03*
%TO.P,D50,2,A*%
%TO.N,+5V*%
X154670415Y-107372499D03*
%TD*%
D17*
%TO.P,R6,1*%
%TO.N,Net-(IC1-AC0)*%
X136557915Y-92519999D03*
%TO.P,R6,2*%
%TO.N,/ANTENNA*%
X135362915Y-92519999D03*
%TD*%
D22*
%TO.P,R3,1*%
%TO.N,+3V3*%
X152984064Y-92800825D03*
%TO.P,R3,2*%
%TO.N,/INT*%
X150984064Y-92800825D03*
%TD*%
D23*
%TO.P,C2,1*%
%TO.N,+3V3*%
X146360415Y-94882499D03*
%TO.P,C2,2*%
%TO.N,GND*%
X146360415Y-96957499D03*
%TD*%
D22*
%TO.P,R1,1*%
%TO.N,+3V3*%
X152984064Y-88800825D03*
%TO.P,R1,2*%
%TO.N,/SDA*%
X150984064Y-88800825D03*
%TD*%
D14*
%TO.P,C4,1*%
%TO.N,/ANTENNA*%
X130160415Y-91152499D03*
%TO.P,C4,2*%
X130160415Y-92287499D03*
%TD*%
D24*
%TO.P,IC1,1,V_EH*%
%TO.N,/EVH*%
X140500415Y-92789999D03*
%TO.P,IC1,2,AC0*%
%TO.N,Net-(IC1-AC0)*%
X140500415Y-92139999D03*
%TO.P,IC1,3,AC1*%
%TO.N,Net-(IC1-AC1)*%
X140500415Y-91489999D03*
%TO.P,IC1,4,VSS*%
%TO.N,GND*%
X140500415Y-90839999D03*
%TO.P,IC1,5,SDA*%
%TO.N,/SDA*%
X146376415Y-90839999D03*
%TO.P,IC1,6,SCL*%
%TO.N,/SCL*%
X146376415Y-91489999D03*
%TO.P,IC1,7,GPO_(OPEN_DRAIN)*%
%TO.N,/INT*%
X146376415Y-92139999D03*
%TO.P,IC1,8,VCC*%
%TO.N,+3V3*%
X146376415Y-92789999D03*
%TD*%
D22*
%TO.P,R2,1*%
%TO.N,+3V3*%
X152984064Y-90800825D03*
%TO.P,R2,2*%
%TO.N,/SCL*%
X150984064Y-90800825D03*
%TD*%
D25*
%TO.N,+5V*%
X154630000Y-109860000D03*
%TO.N,GND*%
X87540000Y-123470000D03*
X130270000Y-128380000D03*
X146400000Y-117154076D03*
X138390000Y-138620000D03*
X144090000Y-88770000D03*
X155250000Y-97550000D03*
X112810000Y-124010000D03*
X144730000Y-107540000D03*
X149400000Y-107350000D03*
X95460000Y-107450000D03*
X102420000Y-97430000D03*
X130100000Y-122320000D03*
X137190000Y-97940000D03*
X158910000Y-107514076D03*
X134160000Y-100180000D03*
X151810000Y-102370000D03*
X156670000Y-117104076D03*
X120810000Y-119480000D03*
X149800000Y-111430000D03*
X111410000Y-106720000D03*
X104290000Y-116650000D03*
X95700000Y-123720000D03*
X135560000Y-125230000D03*
X149360000Y-96930000D03*
X88720000Y-112450000D03*
X114320000Y-101720000D03*
X104980000Y-123720000D03*
X149170000Y-117154076D03*
X153860000Y-117144076D03*
X164880000Y-100110000D03*
X109060000Y-121330000D03*
X137600000Y-88590000D03*
X119940000Y-114970000D03*
X141980000Y-108720000D03*
X92030000Y-120420000D03*
X135190000Y-118830000D03*
X95520000Y-97500000D03*
X164470000Y-135990000D03*
X88790000Y-96940000D03*
X98860000Y-100480000D03*
X102460000Y-107470000D03*
X141990000Y-102500000D03*
X129810000Y-100090000D03*
X118870000Y-109570000D03*
X135560000Y-133580000D03*
X99130000Y-110550000D03*
X95460000Y-102510000D03*
X88750000Y-107340000D03*
X100320000Y-120750000D03*
X165050000Y-107600000D03*
X164140000Y-105044076D03*
X118410000Y-103860000D03*
X130640000Y-88590000D03*
X129990000Y-137750000D03*
X144940000Y-102520000D03*
X111080000Y-102150000D03*
X111820000Y-112410000D03*
X133980000Y-108160000D03*
X127500000Y-111379000D03*
X133010000Y-118150000D03*
X152100000Y-108840000D03*
X95440000Y-112330000D03*
X164340000Y-112150000D03*
X111080000Y-96660000D03*
X162950000Y-139290000D03*
X164260000Y-88560000D03*
X164960000Y-116924076D03*
X146330000Y-136340000D03*
X118870000Y-99590000D03*
X150040000Y-99990000D03*
X138562422Y-96561470D03*
X114750000Y-121740000D03*
X97270000Y-115940000D03*
X160910000Y-102550000D03*
X121350000Y-122690000D03*
X88770000Y-102300000D03*
%TO.N,/LED*%
X133000000Y-139950000D03*
X117870000Y-112290000D03*
%TO.N,Net-(D1-DOUT)*%
X114480000Y-118440000D03*
X89490000Y-94120000D03*
%TO.N,Net-(D2-DOUT)*%
X86590000Y-97450000D03*
X84510000Y-97450000D03*
%TO.N,Net-(D3-DOUT)*%
X84410418Y-102470000D03*
X86690000Y-102500000D03*
%TO.N,Net-(D4-DOUT)*%
X84500000Y-107460000D03*
X86580000Y-107460000D03*
%TO.N,Net-(D5-DOUT)*%
X84410418Y-112350000D03*
X86690000Y-112350000D03*
%TO.N,Net-(D6-DOUT)*%
X94190000Y-114130000D03*
X84720000Y-117660000D03*
%TO.N,Net-(D7-DOUT)*%
X93409501Y-115888712D03*
X94190000Y-109100000D03*
%TO.N,Net-(D8-DOUT)*%
X94230000Y-104130000D03*
X93370000Y-110890000D03*
%TO.N,Net-(D10-DIN)*%
X93370000Y-105900000D03*
X94190000Y-99100000D03*
%TO.N,Net-(D10-DOUT)*%
X93370000Y-100890000D03*
X94220000Y-94110000D03*
%TO.N,Net-(D11-DOUT)*%
X101220000Y-94110000D03*
X93360000Y-95900000D03*
%TO.N,Net-(D12-DOUT)*%
X100350000Y-95900000D03*
X108200000Y-94110000D03*
%TO.N,Net-(D13-DOUT)*%
X108200000Y-99110000D03*
X107400000Y-95880000D03*
%TO.N,Net-(D14-DOUT)*%
X104540000Y-100900000D03*
X101230000Y-104080000D03*
%TO.N,Net-(D15-DOUT)*%
X108220000Y-104120000D03*
X100430000Y-105890000D03*
%TO.N,Net-(D16-DOUT)*%
X107360000Y-105880000D03*
X108220000Y-109120000D03*
%TO.N,Net-(D17-DOUT)*%
X101170000Y-114080000D03*
X104360000Y-110930000D03*
%TO.N,Net-(D18-DOUT)*%
X100370000Y-115890000D03*
X108220000Y-114110000D03*
%TO.N,Net-(D19-DOUT)*%
X107420000Y-115890000D03*
X116460000Y-106110000D03*
%TO.N,Net-(D20-DOUT)*%
X116460000Y-96100000D03*
X115720000Y-107870000D03*
%TO.N,Net-(D21-DOUT)*%
X127520000Y-114110000D03*
X115670000Y-97900000D03*
%TO.N,Net-(D22-DOUT)*%
X122770000Y-117460000D03*
X127550000Y-109100000D03*
%TO.N,Net-(D23-DOUT)*%
X121980000Y-112460000D03*
X127550000Y-104090000D03*
%TO.N,Net-(D24-DOUT)*%
X127530000Y-99090000D03*
X121400000Y-105880000D03*
%TO.N,Net-(D25-DOUT)*%
X121100000Y-100400000D03*
X127550000Y-94130000D03*
%TO.N,Net-(D26-DOUT)*%
X131720000Y-94080000D03*
X121270000Y-95190000D03*
%TO.N,Net-(D27-DOUT)*%
X131010000Y-95910000D03*
X138820000Y-94100000D03*
%TO.N,Net-(D28-DOUT)*%
X136760000Y-96810000D03*
X138820000Y-99130000D03*
%TO.N,Net-(D29-DOUT)*%
X137960000Y-100920000D03*
X134490000Y-104130000D03*
%TO.N,Net-(D30-DOUT)*%
X138670000Y-104140000D03*
X130970000Y-105890000D03*
%TO.N,Net-(D31-DOUT)*%
X138820000Y-109100000D03*
X137980000Y-105900000D03*
%TO.N,Net-(D32-DOUT)*%
X131780000Y-114100000D03*
X135220000Y-111380000D03*
%TO.N,Net-(D33-DOUT)*%
X138820000Y-114110000D03*
X130970000Y-115910000D03*
%TO.N,Net-(D34-DOUT)*%
X146460000Y-114080000D03*
X137970000Y-115890000D03*
%TO.N,Net-(D35-DOUT)*%
X146440000Y-115870000D03*
X147060000Y-109100000D03*
%TO.N,Net-(D36-DOUT)*%
X146430000Y-109979000D03*
X147080000Y-104110000D03*
%TO.N,Net-(D37-DOUT)*%
X146250000Y-105890000D03*
X147130000Y-99100000D03*
%TO.N,Net-(D38-DOUT)*%
X146250000Y-100890000D03*
X149550000Y-94110000D03*
%TO.N,Net-(D39-DOUT)*%
X144420000Y-97480000D03*
X154130000Y-94100000D03*
%TO.N,Net-(D40-DOUT)*%
X160510000Y-94100000D03*
X153720000Y-95910000D03*
%TO.N,Net-(D41-DOUT)*%
X160280000Y-95890000D03*
X161120000Y-99130000D03*
%TO.N,Net-(D42-DOUT)*%
X156120415Y-102490000D03*
X160260000Y-100900000D03*
%TO.N,Net-(D43-DOUT)*%
X153490000Y-105260000D03*
X161040000Y-104140000D03*
%TO.N,Net-(D44-DOUT)*%
X161000000Y-109060000D03*
X160760000Y-105590000D03*
%TO.N,/INT*%
X157880415Y-137719999D03*
X148840415Y-92499999D03*
%TO.N,/SCL*%
X152790415Y-137559999D03*
X148970415Y-90800825D03*
%TO.N,/SDA*%
X155310415Y-137659999D03*
X148870415Y-89599999D03*
%TO.N,/ANTENNA*%
X126381875Y-93192973D03*
X124606541Y-91907913D03*
X123806541Y-92707913D03*
X125406547Y-91107913D03*
X125580209Y-93210000D03*
X124780415Y-94379999D03*
%TO.N,/LED1_PWR*%
X154670415Y-98789999D03*
X114500000Y-110680000D03*
%TO.N,/BTN*%
X160410415Y-137539999D03*
X164160415Y-94229999D03*
%TO.N,Net-(D45-DOUT)*%
X160270000Y-110860000D03*
X155370000Y-112320000D03*
%TO.N,Net-(D46-DOUT)*%
X161730000Y-112920000D03*
X152060000Y-117204076D03*
%TD*%
D26*
%TO.N,+5V*%
X162961805Y-107628609D02*
X163040415Y-107549999D01*
X162961805Y-115019999D02*
X162961805Y-107628609D01*
X154670415Y-107372499D02*
X154670415Y-109819585D01*
X158580415Y-105977499D02*
X157312915Y-105977499D01*
X155917915Y-107372499D02*
X154670415Y-107372499D01*
X157312915Y-105977499D02*
X155917915Y-107372499D01*
X159917915Y-105977499D02*
X158580415Y-105977499D01*
X163040415Y-107549999D02*
X161490415Y-107549999D01*
X161490415Y-107549999D02*
X159917915Y-105977499D01*
X154670415Y-109819585D02*
X154630000Y-109860000D01*
D27*
%TO.N,GND*%
X160580415Y-88839999D02*
X161160415Y-89419999D01*
X159660415Y-97942499D02*
X161360000Y-97942499D01*
X158810415Y-88839999D02*
X160580415Y-88839999D01*
X161360000Y-97942499D02*
X161360000Y-90942084D01*
X159660415Y-90742499D02*
X161160415Y-90742499D01*
X161360000Y-90942084D02*
X161160415Y-90742499D01*
X161160415Y-89419999D02*
X161160415Y-90742499D01*
%TO.N,/LED*%
X150261805Y-139658195D02*
X149840000Y-140080000D01*
X133130000Y-140080000D02*
X133000000Y-139950000D01*
X149840000Y-140080000D02*
X133130000Y-140080000D01*
X150261805Y-133019999D02*
X150261805Y-139658195D01*
%TO.N,Net-(IC1-AC0)*%
X138070415Y-92519999D02*
X136557915Y-92519999D01*
X140500415Y-92139999D02*
X138450415Y-92139999D01*
X138450415Y-92139999D02*
X138070415Y-92519999D01*
%TO.N,/INT*%
X150984064Y-94924159D02*
X150998987Y-94939082D01*
X148840415Y-92499999D02*
X149141241Y-92800825D01*
X148480415Y-92139999D02*
X148840415Y-92499999D01*
X157881805Y-137718609D02*
X157880415Y-137719999D01*
X149141241Y-92800825D02*
X150984064Y-92800825D01*
X150998987Y-92815748D02*
X150984064Y-92800825D01*
X146376415Y-92139999D02*
X148480415Y-92139999D01*
X157881805Y-133019999D02*
X157881805Y-137718609D01*
X150998987Y-94939082D02*
X150998987Y-92815748D01*
%TO.N,/SCL*%
X152801805Y-133019999D02*
X152801805Y-137548609D01*
X147730415Y-91489999D02*
X148419589Y-90800825D01*
X146376415Y-91489999D02*
X147730415Y-91489999D01*
X148970415Y-90800825D02*
X150984064Y-90800825D01*
X152801805Y-137548609D02*
X152790415Y-137559999D01*
X148419589Y-90800825D02*
X148970415Y-90800825D01*
%TO.N,/SDA*%
X149669589Y-88800825D02*
X150984064Y-88800825D01*
X147630415Y-90839999D02*
X148870415Y-89599999D01*
X155341805Y-137628609D02*
X155310415Y-137659999D01*
X155341805Y-133019999D02*
X155341805Y-137628609D01*
X146376415Y-90839999D02*
X147630415Y-90839999D01*
X148870415Y-89599999D02*
X149669589Y-88800825D01*
D26*
%TO.N,+3V3*%
X156810415Y-88839999D02*
X153023238Y-88839999D01*
X147660415Y-92789999D02*
X146376415Y-92789999D01*
X152984064Y-88800825D02*
X152984064Y-90800825D01*
X157880415Y-112189999D02*
X156820415Y-111129999D01*
X156820415Y-111129999D02*
X151460415Y-111129999D01*
X148260415Y-93389999D02*
X147660415Y-92789999D01*
X152984064Y-92800825D02*
X152984064Y-98116350D01*
X152984064Y-98116350D02*
X152300415Y-98799999D01*
X148260415Y-107929999D02*
X148260415Y-98799999D01*
X157881805Y-115019999D02*
X157880415Y-115018609D01*
X151460415Y-111129999D02*
X148260415Y-107929999D01*
X157880415Y-115018609D02*
X157880415Y-112189999D01*
X152984064Y-90800825D02*
X152984064Y-92800825D01*
X146360415Y-94882499D02*
X146360415Y-92805999D01*
X146360415Y-92805999D02*
X146376415Y-92789999D01*
X153023238Y-88839999D02*
X152984064Y-88800825D01*
X152300415Y-98799999D02*
X148260415Y-98799999D01*
X148260415Y-98799999D02*
X148260415Y-93389999D01*
D27*
%TO.N,Net-(IC1-AC1)*%
X140500415Y-91489999D02*
X138390415Y-91489999D01*
X138390415Y-91489999D02*
X137920415Y-91019999D01*
X137920415Y-91019999D02*
X136557915Y-91019999D01*
D26*
%TO.N,/EVH*%
X140500415Y-92789999D02*
X138850415Y-92789999D01*
X137997915Y-93642499D02*
X137997915Y-95419999D01*
X137997915Y-95419999D02*
X140960415Y-95419999D01*
X138850415Y-92789999D02*
X137997915Y-93642499D01*
D27*
%TO.N,/ANTENNA*%
X135362915Y-91019999D02*
X133810415Y-91019999D01*
D10*
X129102915Y-92287499D02*
X130160415Y-92287499D01*
D27*
X129000415Y-92389999D02*
X129102915Y-92287499D01*
X133677915Y-91152499D02*
X132660415Y-91152499D01*
X133950415Y-92519999D02*
X133717915Y-92287499D01*
X132660415Y-92287499D02*
X130160415Y-92287499D01*
X132660415Y-91152499D02*
X130160415Y-91152499D01*
X133717915Y-92287499D02*
X132660415Y-92287499D01*
X133810415Y-91019999D02*
X133677915Y-91152499D01*
X135362915Y-92519999D02*
X133950415Y-92519999D01*
D26*
%TO.N,/LED1_PWR*%
X154670415Y-102372499D02*
X154670415Y-98789999D01*
%TO.N,/BTN*%
X160421805Y-137528609D02*
X160410415Y-137539999D01*
D27*
X164160415Y-97942499D02*
X162660415Y-97942499D01*
X164160415Y-90742499D02*
X162660415Y-90742499D01*
D26*
X160421805Y-133019999D02*
X160421805Y-137528609D01*
D27*
X164160415Y-90742499D02*
X164160415Y-94229999D01*
X164160415Y-94229999D02*
X164160415Y-97942499D01*
%TD*%
%TA.AperFunction,Conductor*%
%TO.N,GND*%
G36*
X150180443Y-87540184D02*
G01*
X150226198Y-87592988D01*
X150236142Y-87662146D01*
X150207117Y-87725702D01*
X150178499Y-87750038D01*
X150165412Y-87758109D01*
X150165407Y-87758113D01*
X150041353Y-87882167D01*
X149949251Y-88031488D01*
X149949249Y-88031493D01*
X149921469Y-88115329D01*
X149907598Y-88135361D01*
X149897476Y-88157528D01*
X149888063Y-88163576D01*
X149881696Y-88172774D01*
X149859197Y-88182127D01*
X149838698Y-88195302D01*
X149821596Y-88197760D01*
X149817180Y-88199597D01*
X149803763Y-88200325D01*
X149756259Y-88200325D01*
X149756243Y-88200324D01*
X149748647Y-88200324D01*
X149590532Y-88200324D01*
X149527951Y-88217093D01*
X149437803Y-88241248D01*
X149437798Y-88241251D01*
X149300879Y-88320300D01*
X149300871Y-88320306D01*
X148792114Y-88829063D01*
X148730791Y-88862548D01*
X148728625Y-88862999D01*
X148651507Y-88878339D01*
X148651499Y-88878341D01*
X148514926Y-88934911D01*
X148514913Y-88934918D01*
X148391999Y-89017047D01*
X148391995Y-89017050D01*
X148287466Y-89121579D01*
X148287463Y-89121583D01*
X148205334Y-89244497D01*
X148205327Y-89244510D01*
X148148757Y-89381083D01*
X148148755Y-89381091D01*
X148133415Y-89458209D01*
X148101030Y-89520120D01*
X148099479Y-89521698D01*
X147480862Y-90140315D01*
X147419539Y-90173800D01*
X147349848Y-90168816D01*
X147221397Y-90120907D01*
X147221398Y-90120907D01*
X147161798Y-90114500D01*
X147161796Y-90114499D01*
X147161788Y-90114499D01*
X147161779Y-90114499D01*
X145591044Y-90114499D01*
X145591038Y-90114500D01*
X145531431Y-90120907D01*
X145396586Y-90171201D01*
X145396579Y-90171205D01*
X145281370Y-90257451D01*
X145281367Y-90257454D01*
X145195121Y-90372663D01*
X145195117Y-90372670D01*
X145144825Y-90507512D01*
X145144824Y-90507516D01*
X145138415Y-90567126D01*
X145138415Y-90567133D01*
X145138415Y-90567134D01*
X145138415Y-91112868D01*
X145138416Y-91112877D01*
X145142594Y-91151744D01*
X145142594Y-91178249D01*
X145138415Y-91217121D01*
X145138415Y-91762868D01*
X145138416Y-91762877D01*
X145142594Y-91801744D01*
X145142594Y-91828249D01*
X145138415Y-91867121D01*
X145138415Y-92412868D01*
X145138416Y-92412877D01*
X145142594Y-92451744D01*
X145142594Y-92478249D01*
X145138415Y-92517121D01*
X145138415Y-93062869D01*
X145138416Y-93062875D01*
X145144823Y-93122482D01*
X145195117Y-93257327D01*
X145195121Y-93257334D01*
X145281367Y-93372543D01*
X145281370Y-93372546D01*
X145396579Y-93458792D01*
X145396586Y-93458796D01*
X145531431Y-93509090D01*
X145591031Y-93515498D01*
X145591034Y-93515498D01*
X145591042Y-93515499D01*
X145591049Y-93515498D01*
X145592535Y-93515579D01*
X145592866Y-93515695D01*
X145594346Y-93515855D01*
X145594308Y-93516204D01*
X145597914Y-93517475D01*
X145603562Y-93516664D01*
X145630499Y-93528965D01*
X145658428Y-93538814D01*
X145661928Y-93543319D01*
X145667118Y-93545689D01*
X145683128Y-93570601D01*
X145701298Y-93593985D01*
X145702614Y-93600922D01*
X145704892Y-93604467D01*
X145709915Y-93639402D01*
X145709915Y-93722982D01*
X145690230Y-93790021D01*
X145637426Y-93835776D01*
X145624925Y-93840685D01*
X145579803Y-93855638D01*
X145566081Y-93860185D01*
X145566078Y-93860186D01*
X145416757Y-93952288D01*
X145292704Y-94076341D01*
X145200602Y-94225662D01*
X145200600Y-94225667D01*
X145191175Y-94254110D01*
X145145416Y-94392202D01*
X145145416Y-94392203D01*
X145145415Y-94392203D01*
X145134915Y-94494982D01*
X145134915Y-95270000D01*
X145134916Y-95270018D01*
X145145415Y-95372795D01*
X145145416Y-95372798D01*
X145198999Y-95534498D01*
X145200601Y-95539333D01*
X145292703Y-95688655D01*
X145416759Y-95812711D01*
X145420043Y-95814736D01*
X145420068Y-95814752D01*
X145421860Y-95816745D01*
X145422426Y-95817192D01*
X145422349Y-95817288D01*
X145466794Y-95866698D01*
X145478018Y-95935660D01*
X145450176Y-95999743D01*
X145420080Y-96025825D01*
X145417075Y-96027678D01*
X145417070Y-96027682D01*
X145293099Y-96151653D01*
X145201058Y-96300874D01*
X145201056Y-96300879D01*
X145145909Y-96467301D01*
X145145908Y-96467308D01*
X145135415Y-96570012D01*
X145135415Y-96707499D01*
X146236415Y-96707499D01*
X146303454Y-96727184D01*
X146349209Y-96779988D01*
X146360415Y-96831499D01*
X146360415Y-96957499D01*
X146486415Y-96957499D01*
X146553454Y-96977184D01*
X146599209Y-97029988D01*
X146610415Y-97081499D01*
X146610415Y-98044998D01*
X146885387Y-98044998D01*
X146885401Y-98044997D01*
X146988112Y-98034504D01*
X147154534Y-97979357D01*
X147154539Y-97979355D01*
X147303760Y-97887314D01*
X147398234Y-97792841D01*
X147459557Y-97759356D01*
X147529249Y-97764340D01*
X147585182Y-97806212D01*
X147609599Y-97871676D01*
X147609915Y-97880522D01*
X147609915Y-98300873D01*
X147590230Y-98367912D01*
X147537426Y-98413667D01*
X147468268Y-98423611D01*
X147438463Y-98415434D01*
X147348917Y-98378343D01*
X147348907Y-98378340D01*
X147203920Y-98349500D01*
X147203918Y-98349500D01*
X147056082Y-98349500D01*
X147056080Y-98349500D01*
X146911092Y-98378340D01*
X146911082Y-98378343D01*
X146774511Y-98434912D01*
X146774498Y-98434919D01*
X146651584Y-98517048D01*
X146651580Y-98517051D01*
X146547051Y-98621580D01*
X146547048Y-98621584D01*
X146464919Y-98744498D01*
X146464912Y-98744511D01*
X146408343Y-98881082D01*
X146408340Y-98881092D01*
X146379500Y-99026079D01*
X146379500Y-99026082D01*
X146379500Y-99173918D01*
X146379500Y-99173920D01*
X146379499Y-99173920D01*
X146408340Y-99318907D01*
X146408343Y-99318917D01*
X146464912Y-99455488D01*
X146464919Y-99455501D01*
X146547048Y-99578415D01*
X146547051Y-99578419D01*
X146651580Y-99682948D01*
X146651584Y-99682951D01*
X146774498Y-99765080D01*
X146774511Y-99765087D01*
X146911082Y-99821656D01*
X146911087Y-99821658D01*
X146911091Y-99821658D01*
X146911092Y-99821659D01*
X147056079Y-99850500D01*
X147056082Y-99850500D01*
X147203920Y-99850500D01*
X147301462Y-99831096D01*
X147348913Y-99821658D01*
X147438464Y-99784564D01*
X147507931Y-99777096D01*
X147570411Y-99808371D01*
X147606063Y-99868460D01*
X147609915Y-99899126D01*
X147609915Y-103331583D01*
X147590230Y-103398622D01*
X147537426Y-103444377D01*
X147468268Y-103454321D01*
X147438463Y-103446144D01*
X147298917Y-103388343D01*
X147298907Y-103388340D01*
X147153920Y-103359500D01*
X147153918Y-103359500D01*
X147006082Y-103359500D01*
X147006080Y-103359500D01*
X146861092Y-103388340D01*
X146861082Y-103388343D01*
X146724511Y-103444912D01*
X146724498Y-103444919D01*
X146601584Y-103527048D01*
X146601580Y-103527051D01*
X146497051Y-103631580D01*
X146497048Y-103631584D01*
X146414919Y-103754498D01*
X146414912Y-103754511D01*
X146358343Y-103891082D01*
X146358340Y-103891092D01*
X146329500Y-104036079D01*
X146329500Y-104036082D01*
X146329500Y-104183918D01*
X146329500Y-104183920D01*
X146329499Y-104183920D01*
X146358340Y-104328907D01*
X146358343Y-104328917D01*
X146414912Y-104465488D01*
X146414919Y-104465501D01*
X146497048Y-104588415D01*
X146497051Y-104588419D01*
X146601580Y-104692948D01*
X146601584Y-104692951D01*
X146724498Y-104775080D01*
X146724511Y-104775087D01*
X146861082Y-104831656D01*
X146861087Y-104831658D01*
X146861091Y-104831658D01*
X146861092Y-104831659D01*
X147006079Y-104860500D01*
X147006082Y-104860500D01*
X147153920Y-104860500D01*
X147254462Y-104840500D01*
X147298913Y-104831658D01*
X147435495Y-104775084D01*
X147435495Y-104775083D01*
X147438462Y-104773855D01*
X147507932Y-104766386D01*
X147570411Y-104797661D01*
X147606063Y-104857750D01*
X147609915Y-104888416D01*
X147609915Y-107994068D01*
X147609915Y-107994070D01*
X147609914Y-107994070D01*
X147634912Y-108119737D01*
X147634914Y-108119743D01*
X147683949Y-108238124D01*
X147755141Y-108344672D01*
X151045742Y-111635273D01*
X151134379Y-111694498D01*
X151134380Y-111694498D01*
X151134381Y-111694499D01*
X151152288Y-111706464D01*
X151270671Y-111755500D01*
X151270675Y-111755500D01*
X151270676Y-111755501D01*
X151396343Y-111780499D01*
X151396346Y-111780499D01*
X154596387Y-111780499D01*
X154663426Y-111800184D01*
X154709181Y-111852988D01*
X154719125Y-111922146D01*
X154707102Y-111958815D01*
X154707247Y-111958876D01*
X154706457Y-111960782D01*
X154705748Y-111962946D01*
X154704917Y-111964499D01*
X154648343Y-112101082D01*
X154648340Y-112101092D01*
X154619500Y-112246079D01*
X154619500Y-112246082D01*
X154619500Y-112393918D01*
X154619500Y-112393920D01*
X154619499Y-112393920D01*
X154648340Y-112538907D01*
X154648343Y-112538917D01*
X154667097Y-112584193D01*
X154674566Y-112653662D01*
X154643290Y-112716141D01*
X154625423Y-112731962D01*
X154569690Y-112772454D01*
X154438858Y-112903286D01*
X154438858Y-112903287D01*
X154438856Y-112903289D01*
X154408794Y-112944666D01*
X154330099Y-113052979D01*
X154246097Y-113217840D01*
X154246096Y-113217843D01*
X154188922Y-113393810D01*
X154187950Y-113399948D01*
X154158021Y-113463083D01*
X154098709Y-113500014D01*
X154028847Y-113499016D01*
X153970614Y-113460406D01*
X153943004Y-113399948D01*
X153942761Y-113398416D01*
X153942032Y-113393812D01*
X153909132Y-113292556D01*
X153884857Y-113217843D01*
X153884856Y-113217840D01*
X153800854Y-113052979D01*
X153692098Y-112903289D01*
X153561264Y-112772455D01*
X153411573Y-112663698D01*
X153246712Y-112579696D01*
X153246709Y-112579695D01*
X153070742Y-112522521D01*
X152979366Y-112508048D01*
X152887991Y-112493576D01*
X152702963Y-112493576D01*
X152642046Y-112503224D01*
X152520211Y-112522521D01*
X152344244Y-112579695D01*
X152344241Y-112579696D01*
X152179380Y-112663698D01*
X152117857Y-112708398D01*
X152029690Y-112772455D01*
X152029688Y-112772457D01*
X152029687Y-112772457D01*
X151898858Y-112903286D01*
X151898858Y-112903287D01*
X151898856Y-112903289D01*
X151868794Y-112944666D01*
X151790099Y-113052979D01*
X151706097Y-113217840D01*
X151706096Y-113217843D01*
X151648922Y-113393810D01*
X151647950Y-113399948D01*
X151618021Y-113463083D01*
X151558709Y-113500014D01*
X151488847Y-113499016D01*
X151430614Y-113460406D01*
X151403004Y-113399948D01*
X151402761Y-113398416D01*
X151402032Y-113393812D01*
X151369132Y-113292556D01*
X151344857Y-113217843D01*
X151344856Y-113217840D01*
X151260854Y-113052979D01*
X151152098Y-112903289D01*
X151021264Y-112772455D01*
X150871573Y-112663698D01*
X150706712Y-112579696D01*
X150706709Y-112579695D01*
X150530742Y-112522521D01*
X150439366Y-112508048D01*
X150347991Y-112493576D01*
X150162963Y-112493576D01*
X150102046Y-112503224D01*
X149980211Y-112522521D01*
X149804244Y-112579695D01*
X149804241Y-112579696D01*
X149639380Y-112663698D01*
X149577857Y-112708398D01*
X149489690Y-112772455D01*
X149489688Y-112772457D01*
X149489687Y-112772457D01*
X149358858Y-112903286D01*
X149358858Y-112903287D01*
X149358856Y-112903289D01*
X149328794Y-112944666D01*
X149250099Y-113052979D01*
X149166097Y-113217840D01*
X149166096Y-113217843D01*
X149108922Y-113393810D01*
X149107950Y-113399948D01*
X149078021Y-113463083D01*
X149018709Y-113500014D01*
X148948847Y-113499016D01*
X148890614Y-113460406D01*
X148863004Y-113399948D01*
X148862761Y-113398416D01*
X148862032Y-113393812D01*
X148829132Y-113292556D01*
X148804857Y-113217843D01*
X148804856Y-113217840D01*
X148720854Y-113052979D01*
X148612098Y-112903289D01*
X148481264Y-112772455D01*
X148331573Y-112663698D01*
X148166712Y-112579696D01*
X148166709Y-112579695D01*
X147990742Y-112522521D01*
X147899366Y-112508048D01*
X147807991Y-112493576D01*
X147622963Y-112493576D01*
X147562046Y-112503224D01*
X147440211Y-112522521D01*
X147264244Y-112579695D01*
X147264241Y-112579696D01*
X147099380Y-112663698D01*
X147037857Y-112708398D01*
X146949690Y-112772455D01*
X146949688Y-112772457D01*
X146949687Y-112772457D01*
X146818858Y-112903286D01*
X146818858Y-112903287D01*
X146818856Y-112903289D01*
X146788794Y-112944666D01*
X146710099Y-113052979D01*
X146626099Y-113217838D01*
X146626098Y-113217840D01*
X146626098Y-113217841D01*
X146617657Y-113243819D01*
X146603707Y-113264219D01*
X146593440Y-113286703D01*
X146584331Y-113292556D01*
X146578221Y-113301493D01*
X146555455Y-113311114D01*
X146534662Y-113324477D01*
X146518252Y-113326836D01*
X146513862Y-113328692D01*
X146499727Y-113329500D01*
X146391227Y-113329500D01*
X146324188Y-113309815D01*
X146278433Y-113257011D01*
X146273295Y-113243815D01*
X146264856Y-113217841D01*
X146264856Y-113217840D01*
X146180854Y-113052979D01*
X146072098Y-112903289D01*
X145941264Y-112772455D01*
X145791573Y-112663698D01*
X145626712Y-112579696D01*
X145626709Y-112579695D01*
X145450742Y-112522521D01*
X145359366Y-112508048D01*
X145267991Y-112493576D01*
X145082963Y-112493576D01*
X145022046Y-112503224D01*
X144900211Y-112522521D01*
X144724244Y-112579695D01*
X144724241Y-112579696D01*
X144559380Y-112663698D01*
X144497857Y-112708398D01*
X144409690Y-112772455D01*
X144409688Y-112772457D01*
X144409687Y-112772457D01*
X144278858Y-112903286D01*
X144275692Y-112906994D01*
X144274565Y-112906032D01*
X144224454Y-112944666D01*
X144154840Y-112950639D01*
X144093048Y-112918027D01*
X144058697Y-112857185D01*
X144055477Y-112829111D01*
X144055477Y-112745855D01*
X141055477Y-112745855D01*
X141055477Y-135245855D01*
X144055477Y-135245855D01*
X144055477Y-135159040D01*
X144075162Y-135092001D01*
X144127966Y-135046246D01*
X144197124Y-135036302D01*
X144260680Y-135065327D01*
X144275420Y-135081389D01*
X144275692Y-135081158D01*
X144278854Y-135084860D01*
X144278856Y-135084863D01*
X144409690Y-135215697D01*
X144559381Y-135324454D01*
X144625299Y-135358041D01*
X144724241Y-135408455D01*
X144724244Y-135408456D01*
X144812227Y-135437043D01*
X144900213Y-135465631D01*
X145082963Y-135494576D01*
X145082964Y-135494576D01*
X145267990Y-135494576D01*
X145267991Y-135494576D01*
X145450741Y-135465631D01*
X145626712Y-135408455D01*
X145791573Y-135324454D01*
X145941264Y-135215697D01*
X146072098Y-135084863D01*
X146180855Y-134935172D01*
X146264856Y-134770311D01*
X146322032Y-134594340D01*
X146323004Y-134588202D01*
X146352932Y-134525070D01*
X146412243Y-134488138D01*
X146482106Y-134489134D01*
X146540339Y-134527743D01*
X146567949Y-134588202D01*
X146568922Y-134594340D01*
X146568923Y-134594345D01*
X146626096Y-134770308D01*
X146626097Y-134770311D01*
X146710099Y-134935172D01*
X146818856Y-135084863D01*
X146949690Y-135215697D01*
X147099381Y-135324454D01*
X147165299Y-135358041D01*
X147264241Y-135408455D01*
X147264244Y-135408456D01*
X147352227Y-135437043D01*
X147440213Y-135465631D01*
X147622963Y-135494576D01*
X147622964Y-135494576D01*
X147807990Y-135494576D01*
X147807991Y-135494576D01*
X147990741Y-135465631D01*
X148166712Y-135408455D01*
X148331573Y-135324454D01*
X148481264Y-135215697D01*
X148612098Y-135084863D01*
X148720855Y-134935172D01*
X148804856Y-134770311D01*
X148862032Y-134594340D01*
X148863004Y-134588202D01*
X148892932Y-134525070D01*
X148952243Y-134488138D01*
X149022106Y-134489134D01*
X149080339Y-134527743D01*
X149107949Y-134588202D01*
X149108922Y-134594340D01*
X149108923Y-134594345D01*
X149166096Y-134770308D01*
X149166097Y-134770311D01*
X149250099Y-134935172D01*
X149358856Y-135084863D01*
X149489690Y-135215697D01*
X149610190Y-135303246D01*
X149652856Y-135358575D01*
X149661305Y-135403563D01*
X149661305Y-139355500D01*
X149641620Y-139422539D01*
X149588816Y-139468294D01*
X149537305Y-139479500D01*
X133642229Y-139479500D01*
X133575190Y-139459815D01*
X133554552Y-139443185D01*
X133478416Y-139367049D01*
X133478415Y-139367048D01*
X133478414Y-139367047D01*
X133355501Y-139284919D01*
X133355488Y-139284912D01*
X133218917Y-139228343D01*
X133218907Y-139228340D01*
X133073920Y-139199500D01*
X133073918Y-139199500D01*
X132926082Y-139199500D01*
X132926080Y-139199500D01*
X132781092Y-139228340D01*
X132781082Y-139228343D01*
X132644511Y-139284912D01*
X132644498Y-139284919D01*
X132521584Y-139367048D01*
X132521580Y-139367051D01*
X132417051Y-139471580D01*
X132417048Y-139471584D01*
X132334919Y-139594498D01*
X132334912Y-139594511D01*
X132278343Y-139731082D01*
X132278340Y-139731092D01*
X132249500Y-139876079D01*
X132249500Y-139876082D01*
X132249500Y-140023918D01*
X132249500Y-140023920D01*
X132249499Y-140023920D01*
X132278340Y-140168907D01*
X132278343Y-140168917D01*
X132334912Y-140305488D01*
X132334920Y-140305503D01*
X132349022Y-140326607D01*
X132369901Y-140393284D01*
X132351417Y-140460665D01*
X132299439Y-140507355D01*
X132245921Y-140519499D01*
X128334000Y-140519499D01*
X128266961Y-140499814D01*
X128221206Y-140447010D01*
X128210000Y-140395499D01*
X128210000Y-115983920D01*
X130219499Y-115983920D01*
X130248340Y-116128907D01*
X130248343Y-116128917D01*
X130304912Y-116265488D01*
X130304919Y-116265501D01*
X130387048Y-116388415D01*
X130387051Y-116388419D01*
X130491580Y-116492948D01*
X130491584Y-116492951D01*
X130614498Y-116575080D01*
X130614511Y-116575087D01*
X130751082Y-116631656D01*
X130751087Y-116631658D01*
X130751091Y-116631658D01*
X130751092Y-116631659D01*
X130896079Y-116660500D01*
X130896082Y-116660500D01*
X131043920Y-116660500D01*
X131152576Y-116638886D01*
X131188913Y-116631658D01*
X131325495Y-116575084D01*
X131448416Y-116492951D01*
X131552951Y-116388416D01*
X131635084Y-116265495D01*
X131691658Y-116128913D01*
X131720500Y-115983918D01*
X131720500Y-115963920D01*
X137219499Y-115963920D01*
X137248340Y-116108907D01*
X137248343Y-116108917D01*
X137304912Y-116245488D01*
X137304919Y-116245501D01*
X137387048Y-116368415D01*
X137387051Y-116368419D01*
X137491580Y-116472948D01*
X137491584Y-116472951D01*
X137614498Y-116555080D01*
X137614511Y-116555087D01*
X137743786Y-116608634D01*
X137751087Y-116611658D01*
X137751091Y-116611658D01*
X137751092Y-116611659D01*
X137896079Y-116640500D01*
X137896082Y-116640500D01*
X138043920Y-116640500D01*
X138144462Y-116620500D01*
X138188913Y-116611658D01*
X138325495Y-116555084D01*
X138448416Y-116472951D01*
X138552951Y-116368416D01*
X138635084Y-116245495D01*
X138691658Y-116108913D01*
X138701096Y-116061462D01*
X138720500Y-115963920D01*
X138720500Y-115816079D01*
X138691659Y-115671092D01*
X138691658Y-115671091D01*
X138691658Y-115671087D01*
X138643371Y-115554511D01*
X138635087Y-115534511D01*
X138635080Y-115534498D01*
X138552951Y-115411584D01*
X138552948Y-115411580D01*
X138448419Y-115307051D01*
X138448415Y-115307048D01*
X138325501Y-115224919D01*
X138325488Y-115224912D01*
X138188917Y-115168343D01*
X138188907Y-115168340D01*
X138043920Y-115139500D01*
X138043918Y-115139500D01*
X137896082Y-115139500D01*
X137896080Y-115139500D01*
X137751092Y-115168340D01*
X137751082Y-115168343D01*
X137614511Y-115224912D01*
X137614498Y-115224919D01*
X137491584Y-115307048D01*
X137491580Y-115307051D01*
X137387051Y-115411580D01*
X137387048Y-115411584D01*
X137304919Y-115534498D01*
X137304912Y-115534511D01*
X137248343Y-115671082D01*
X137248340Y-115671092D01*
X137219500Y-115816079D01*
X137219500Y-115816082D01*
X137219500Y-115963918D01*
X137219500Y-115963920D01*
X137219499Y-115963920D01*
X131720500Y-115963920D01*
X131720500Y-115836082D01*
X131720499Y-115836079D01*
X131720121Y-115834175D01*
X131720121Y-115834172D01*
X131691659Y-115691092D01*
X131691658Y-115691091D01*
X131691658Y-115691087D01*
X131683372Y-115671082D01*
X131635087Y-115554511D01*
X131635080Y-115554498D01*
X131552951Y-115431584D01*
X131552948Y-115431580D01*
X131448419Y-115327051D01*
X131448415Y-115327048D01*
X131325501Y-115244919D01*
X131325488Y-115244912D01*
X131188917Y-115188343D01*
X131188907Y-115188340D01*
X131043920Y-115159500D01*
X131043918Y-115159500D01*
X130896082Y-115159500D01*
X130896080Y-115159500D01*
X130751092Y-115188340D01*
X130751082Y-115188343D01*
X130614511Y-115244912D01*
X130614498Y-115244919D01*
X130491584Y-115327048D01*
X130491580Y-115327051D01*
X130387051Y-115431580D01*
X130387048Y-115431584D01*
X130304919Y-115554498D01*
X130304912Y-115554511D01*
X130248343Y-115691082D01*
X130248340Y-115691092D01*
X130219500Y-115836079D01*
X130219500Y-115836080D01*
X130219500Y-115836082D01*
X130219500Y-115983918D01*
X130219500Y-115983920D01*
X130219499Y-115983920D01*
X128210000Y-115983920D01*
X128210000Y-114430007D01*
X128219439Y-114382554D01*
X128241658Y-114328913D01*
X128270500Y-114183918D01*
X128270500Y-114173920D01*
X131029499Y-114173920D01*
X131058340Y-114318907D01*
X131058343Y-114318917D01*
X131114912Y-114455488D01*
X131114919Y-114455501D01*
X131197048Y-114578415D01*
X131197051Y-114578419D01*
X131301580Y-114682948D01*
X131301584Y-114682951D01*
X131424498Y-114765080D01*
X131424511Y-114765087D01*
X131561082Y-114821656D01*
X131561087Y-114821658D01*
X131561091Y-114821658D01*
X131561092Y-114821659D01*
X131706079Y-114850500D01*
X131706082Y-114850500D01*
X131853920Y-114850500D01*
X131989567Y-114823517D01*
X131998913Y-114821658D01*
X132111353Y-114775084D01*
X132135488Y-114765087D01*
X132135488Y-114765086D01*
X132135495Y-114765084D01*
X132258416Y-114682951D01*
X132362951Y-114578416D01*
X132445084Y-114455495D01*
X132501658Y-114318913D01*
X132511096Y-114271462D01*
X132528511Y-114183920D01*
X138069499Y-114183920D01*
X138098340Y-114328907D01*
X138098343Y-114328917D01*
X138154912Y-114465488D01*
X138154919Y-114465501D01*
X138237048Y-114588415D01*
X138237051Y-114588419D01*
X138341580Y-114692948D01*
X138341584Y-114692951D01*
X138464498Y-114775080D01*
X138464511Y-114775087D01*
X138576947Y-114821659D01*
X138601087Y-114831658D01*
X138601091Y-114831658D01*
X138601092Y-114831659D01*
X138746079Y-114860500D01*
X138746082Y-114860500D01*
X138893920Y-114860500D01*
X138991462Y-114841096D01*
X139038913Y-114831658D01*
X139175495Y-114775084D01*
X139298416Y-114692951D01*
X139402951Y-114588416D01*
X139485084Y-114465495D01*
X139541658Y-114328913D01*
X139570500Y-114183918D01*
X139570500Y-114036082D01*
X139570500Y-114036079D01*
X139541659Y-113891092D01*
X139541658Y-113891091D01*
X139541658Y-113891087D01*
X139508666Y-113811436D01*
X139485087Y-113754511D01*
X139485080Y-113754498D01*
X139402951Y-113631584D01*
X139402948Y-113631580D01*
X139298419Y-113527051D01*
X139298415Y-113527048D01*
X139175501Y-113444919D01*
X139175488Y-113444912D01*
X139038917Y-113388343D01*
X139038907Y-113388340D01*
X138893920Y-113359500D01*
X138893918Y-113359500D01*
X138746082Y-113359500D01*
X138746080Y-113359500D01*
X138601092Y-113388340D01*
X138601082Y-113388343D01*
X138464511Y-113444912D01*
X138464498Y-113444919D01*
X138341584Y-113527048D01*
X138341580Y-113527051D01*
X138237051Y-113631580D01*
X138237048Y-113631584D01*
X138154919Y-113754498D01*
X138154912Y-113754511D01*
X138098343Y-113891082D01*
X138098340Y-113891092D01*
X138069500Y-114036079D01*
X138069500Y-114036082D01*
X138069500Y-114183918D01*
X138069500Y-114183920D01*
X138069499Y-114183920D01*
X132528511Y-114183920D01*
X132530500Y-114173920D01*
X132530500Y-114026079D01*
X132501659Y-113881092D01*
X132501658Y-113881091D01*
X132501658Y-113881087D01*
X132472808Y-113811436D01*
X132445087Y-113744511D01*
X132445080Y-113744498D01*
X132362951Y-113621584D01*
X132362948Y-113621580D01*
X132258419Y-113517051D01*
X132258415Y-113517048D01*
X132135501Y-113434919D01*
X132135488Y-113434912D01*
X131998917Y-113378343D01*
X131998907Y-113378340D01*
X131853920Y-113349500D01*
X131853918Y-113349500D01*
X131706082Y-113349500D01*
X131706080Y-113349500D01*
X131561092Y-113378340D01*
X131561082Y-113378343D01*
X131424511Y-113434912D01*
X131424498Y-113434919D01*
X131301584Y-113517048D01*
X131301580Y-113517051D01*
X131197051Y-113621580D01*
X131197048Y-113621584D01*
X131114919Y-113744498D01*
X131114912Y-113744511D01*
X131058343Y-113881082D01*
X131058340Y-113881092D01*
X131029500Y-114026079D01*
X131029500Y-114026082D01*
X131029500Y-114173918D01*
X131029500Y-114173920D01*
X131029499Y-114173920D01*
X128270500Y-114173920D01*
X128270500Y-114036082D01*
X128241658Y-113891087D01*
X128216124Y-113829444D01*
X128213954Y-113821055D01*
X128214265Y-113811436D01*
X128210000Y-113789992D01*
X128210000Y-111453920D01*
X134469499Y-111453920D01*
X134498340Y-111598907D01*
X134498343Y-111598917D01*
X134554912Y-111735488D01*
X134554919Y-111735501D01*
X134637048Y-111858415D01*
X134637051Y-111858419D01*
X134741578Y-111962946D01*
X134741584Y-111962951D01*
X134864498Y-112045080D01*
X134864511Y-112045087D01*
X135001082Y-112101656D01*
X135001087Y-112101658D01*
X135001091Y-112101658D01*
X135001092Y-112101659D01*
X135146079Y-112130500D01*
X135146082Y-112130500D01*
X135293920Y-112130500D01*
X135391462Y-112111096D01*
X135438913Y-112101658D01*
X135575495Y-112045084D01*
X135698416Y-111962951D01*
X135698418Y-111962948D01*
X135698422Y-111962946D01*
X135802948Y-111858419D01*
X135802951Y-111858416D01*
X135885084Y-111735495D01*
X135941658Y-111598913D01*
X135970500Y-111453918D01*
X135970500Y-111306082D01*
X135970500Y-111306079D01*
X135941659Y-111161092D01*
X135941658Y-111161091D01*
X135941658Y-111161087D01*
X135907622Y-111078917D01*
X135885087Y-111024511D01*
X135885080Y-111024498D01*
X135802951Y-110901584D01*
X135802948Y-110901580D01*
X135698419Y-110797051D01*
X135698415Y-110797048D01*
X135575501Y-110714919D01*
X135575488Y-110714912D01*
X135438917Y-110658343D01*
X135438907Y-110658340D01*
X135293920Y-110629500D01*
X135293918Y-110629500D01*
X135146082Y-110629500D01*
X135146080Y-110629500D01*
X135001092Y-110658340D01*
X135001082Y-110658343D01*
X134864511Y-110714912D01*
X134864498Y-110714919D01*
X134741584Y-110797048D01*
X134741580Y-110797051D01*
X134637051Y-110901580D01*
X134637048Y-110901584D01*
X134554919Y-111024498D01*
X134554912Y-111024511D01*
X134498343Y-111161082D01*
X134498340Y-111161092D01*
X134469500Y-111306079D01*
X134469500Y-111306082D01*
X134469500Y-111453918D01*
X134469500Y-111453920D01*
X134469499Y-111453920D01*
X128210000Y-111453920D01*
X128210000Y-110052920D01*
X145679499Y-110052920D01*
X145708340Y-110197907D01*
X145708343Y-110197917D01*
X145764912Y-110334488D01*
X145764919Y-110334501D01*
X145847048Y-110457415D01*
X145847051Y-110457419D01*
X145951580Y-110561948D01*
X145951584Y-110561951D01*
X146074498Y-110644080D01*
X146074511Y-110644087D01*
X146211082Y-110700656D01*
X146211087Y-110700658D01*
X146211091Y-110700658D01*
X146211092Y-110700659D01*
X146356079Y-110729500D01*
X146356082Y-110729500D01*
X146503920Y-110729500D01*
X146601462Y-110710096D01*
X146648913Y-110700658D01*
X146785495Y-110644084D01*
X146908416Y-110561951D01*
X147012951Y-110457416D01*
X147095084Y-110334495D01*
X147151658Y-110197913D01*
X147161096Y-110150462D01*
X147180500Y-110052920D01*
X147180500Y-109942997D01*
X147200185Y-109875958D01*
X147252989Y-109830203D01*
X147273160Y-109823689D01*
X147273081Y-109823427D01*
X147278905Y-109821659D01*
X147278913Y-109821658D01*
X147415495Y-109765084D01*
X147538416Y-109682951D01*
X147642951Y-109578416D01*
X147725084Y-109455495D01*
X147729440Y-109444980D01*
X147741650Y-109415501D01*
X147781658Y-109318913D01*
X147806936Y-109191835D01*
X147810500Y-109173920D01*
X147810500Y-109026079D01*
X147781659Y-108881092D01*
X147781658Y-108881091D01*
X147781658Y-108881087D01*
X147765092Y-108841092D01*
X147725087Y-108744511D01*
X147725080Y-108744498D01*
X147642951Y-108621584D01*
X147642948Y-108621580D01*
X147538419Y-108517051D01*
X147538415Y-108517048D01*
X147415501Y-108434919D01*
X147415488Y-108434912D01*
X147278917Y-108378343D01*
X147278907Y-108378340D01*
X147133920Y-108349500D01*
X147133918Y-108349500D01*
X146986082Y-108349500D01*
X146986080Y-108349500D01*
X146841092Y-108378340D01*
X146841082Y-108378343D01*
X146704511Y-108434912D01*
X146704498Y-108434919D01*
X146581584Y-108517048D01*
X146581580Y-108517051D01*
X146477051Y-108621580D01*
X146477048Y-108621584D01*
X146394919Y-108744498D01*
X146394912Y-108744511D01*
X146338343Y-108881082D01*
X146338340Y-108881092D01*
X146309500Y-109026079D01*
X146309500Y-109136001D01*
X146289815Y-109203040D01*
X146237011Y-109248795D01*
X146216841Y-109255310D01*
X146216921Y-109255572D01*
X146211084Y-109257342D01*
X146074511Y-109313912D01*
X146074498Y-109313919D01*
X145951584Y-109396048D01*
X145951580Y-109396051D01*
X145847051Y-109500580D01*
X145847048Y-109500584D01*
X145764919Y-109623498D01*
X145764912Y-109623511D01*
X145708343Y-109760082D01*
X145708340Y-109760092D01*
X145679500Y-109905079D01*
X145679500Y-109905082D01*
X145679500Y-110052918D01*
X145679500Y-110052920D01*
X145679499Y-110052920D01*
X128210000Y-110052920D01*
X128210000Y-109492433D01*
X128219439Y-109444980D01*
X128271658Y-109318913D01*
X128296936Y-109191835D01*
X128300500Y-109173920D01*
X138069499Y-109173920D01*
X138098340Y-109318907D01*
X138098343Y-109318917D01*
X138154912Y-109455488D01*
X138154919Y-109455501D01*
X138237048Y-109578415D01*
X138237051Y-109578419D01*
X138341580Y-109682948D01*
X138341584Y-109682951D01*
X138464498Y-109765080D01*
X138464511Y-109765087D01*
X138550002Y-109800498D01*
X138601087Y-109821658D01*
X138601091Y-109821658D01*
X138601092Y-109821659D01*
X138746079Y-109850500D01*
X138746082Y-109850500D01*
X138893920Y-109850500D01*
X139016969Y-109826023D01*
X139038913Y-109821658D01*
X139089998Y-109800498D01*
X139128793Y-109784429D01*
X139175488Y-109765087D01*
X139175488Y-109765086D01*
X139175495Y-109765084D01*
X139298416Y-109682951D01*
X139402951Y-109578416D01*
X139485084Y-109455495D01*
X139489440Y-109444980D01*
X139501650Y-109415501D01*
X139541658Y-109318913D01*
X139566936Y-109191835D01*
X139570500Y-109173920D01*
X139570500Y-109026079D01*
X139541659Y-108881092D01*
X139541658Y-108881091D01*
X139541658Y-108881087D01*
X139525092Y-108841092D01*
X139485087Y-108744511D01*
X139485080Y-108744498D01*
X139402951Y-108621584D01*
X139402948Y-108621580D01*
X139298419Y-108517051D01*
X139298415Y-108517048D01*
X139175501Y-108434919D01*
X139175488Y-108434912D01*
X139038917Y-108378343D01*
X139038907Y-108378340D01*
X138893920Y-108349500D01*
X138893918Y-108349500D01*
X138746082Y-108349500D01*
X138746080Y-108349500D01*
X138601092Y-108378340D01*
X138601082Y-108378343D01*
X138464511Y-108434912D01*
X138464498Y-108434919D01*
X138341584Y-108517048D01*
X138341580Y-108517051D01*
X138237051Y-108621580D01*
X138237048Y-108621584D01*
X138154919Y-108744498D01*
X138154912Y-108744511D01*
X138098343Y-108881082D01*
X138098340Y-108881092D01*
X138069500Y-109026079D01*
X138069500Y-109026082D01*
X138069500Y-109173918D01*
X138069500Y-109173920D01*
X138069499Y-109173920D01*
X128300500Y-109173920D01*
X128300500Y-109026079D01*
X128271659Y-108881092D01*
X128271658Y-108881091D01*
X128271658Y-108881087D01*
X128219438Y-108755018D01*
X128210000Y-108707566D01*
X128210000Y-105963920D01*
X130219499Y-105963920D01*
X130248340Y-106108907D01*
X130248343Y-106108917D01*
X130304912Y-106245488D01*
X130304919Y-106245501D01*
X130387048Y-106368415D01*
X130387051Y-106368419D01*
X130491580Y-106472948D01*
X130491584Y-106472951D01*
X130614498Y-106555080D01*
X130614511Y-106555087D01*
X130706006Y-106592985D01*
X130751087Y-106611658D01*
X130751091Y-106611658D01*
X130751092Y-106611659D01*
X130896079Y-106640500D01*
X130896082Y-106640500D01*
X131043920Y-106640500D01*
X131141462Y-106621096D01*
X131188913Y-106611658D01*
X131301353Y-106565084D01*
X131325488Y-106555087D01*
X131325488Y-106555086D01*
X131325495Y-106555084D01*
X131448416Y-106472951D01*
X131552951Y-106368416D01*
X131635084Y-106245495D01*
X131691658Y-106108913D01*
X131713285Y-106000191D01*
X131718511Y-105973920D01*
X137229499Y-105973920D01*
X137258340Y-106118907D01*
X137258343Y-106118917D01*
X137314912Y-106255488D01*
X137314919Y-106255501D01*
X137397048Y-106378415D01*
X137397051Y-106378419D01*
X137501580Y-106482948D01*
X137501584Y-106482951D01*
X137624498Y-106565080D01*
X137624511Y-106565087D01*
X137736947Y-106611659D01*
X137761087Y-106621658D01*
X137761091Y-106621658D01*
X137761092Y-106621659D01*
X137906079Y-106650500D01*
X137906082Y-106650500D01*
X138053920Y-106650500D01*
X138151462Y-106631096D01*
X138198913Y-106621658D01*
X138335495Y-106565084D01*
X138458416Y-106482951D01*
X138562951Y-106378416D01*
X138645084Y-106255495D01*
X138645249Y-106255098D01*
X138679276Y-106172948D01*
X138701658Y-106118913D01*
X138725274Y-106000191D01*
X138730500Y-105973920D01*
X138730500Y-105963920D01*
X145499499Y-105963920D01*
X145528340Y-106108907D01*
X145528343Y-106108917D01*
X145584912Y-106245488D01*
X145584919Y-106245501D01*
X145667048Y-106368415D01*
X145667051Y-106368419D01*
X145771580Y-106472948D01*
X145771584Y-106472951D01*
X145894498Y-106555080D01*
X145894511Y-106555087D01*
X145986006Y-106592985D01*
X146031087Y-106611658D01*
X146031091Y-106611658D01*
X146031092Y-106611659D01*
X146176079Y-106640500D01*
X146176082Y-106640500D01*
X146323920Y-106640500D01*
X146421462Y-106621096D01*
X146468913Y-106611658D01*
X146581353Y-106565084D01*
X146605488Y-106555087D01*
X146605488Y-106555086D01*
X146605495Y-106555084D01*
X146728416Y-106472951D01*
X146832951Y-106368416D01*
X146915084Y-106245495D01*
X146971658Y-106108913D01*
X146993285Y-106000191D01*
X147000500Y-105963920D01*
X147000500Y-105816079D01*
X146971659Y-105671092D01*
X146971658Y-105671091D01*
X146971658Y-105671087D01*
X146968689Y-105663918D01*
X146915087Y-105534511D01*
X146915080Y-105534498D01*
X146832951Y-105411584D01*
X146832948Y-105411580D01*
X146728419Y-105307051D01*
X146728415Y-105307048D01*
X146605501Y-105224919D01*
X146605488Y-105224912D01*
X146468917Y-105168343D01*
X146468907Y-105168340D01*
X146323920Y-105139500D01*
X146323918Y-105139500D01*
X146176082Y-105139500D01*
X146176080Y-105139500D01*
X146031092Y-105168340D01*
X146031082Y-105168343D01*
X145894511Y-105224912D01*
X145894498Y-105224919D01*
X145771584Y-105307048D01*
X145771580Y-105307051D01*
X145667051Y-105411580D01*
X145667048Y-105411584D01*
X145584919Y-105534498D01*
X145584912Y-105534511D01*
X145528343Y-105671082D01*
X145528340Y-105671092D01*
X145499500Y-105816079D01*
X145499500Y-105816082D01*
X145499500Y-105963918D01*
X145499500Y-105963920D01*
X145499499Y-105963920D01*
X138730500Y-105963920D01*
X138730500Y-105826084D01*
X138730499Y-105826075D01*
X138701659Y-105681092D01*
X138701658Y-105681091D01*
X138701658Y-105681087D01*
X138697514Y-105671082D01*
X138645087Y-105544511D01*
X138645080Y-105544498D01*
X138562951Y-105421584D01*
X138562948Y-105421580D01*
X138458419Y-105317051D01*
X138458415Y-105317048D01*
X138335501Y-105234919D01*
X138335488Y-105234912D01*
X138198917Y-105178343D01*
X138198907Y-105178340D01*
X138053920Y-105149500D01*
X138053918Y-105149500D01*
X137906082Y-105149500D01*
X137906080Y-105149500D01*
X137761092Y-105178340D01*
X137761082Y-105178343D01*
X137624511Y-105234912D01*
X137624498Y-105234919D01*
X137501584Y-105317048D01*
X137501580Y-105317051D01*
X137397051Y-105421580D01*
X137397048Y-105421584D01*
X137314919Y-105544498D01*
X137314912Y-105544511D01*
X137258343Y-105681082D01*
X137258340Y-105681092D01*
X137229500Y-105826079D01*
X137229500Y-105826082D01*
X137229500Y-105973918D01*
X137229500Y-105973920D01*
X137229499Y-105973920D01*
X131718511Y-105973920D01*
X131720500Y-105963920D01*
X131720500Y-105816079D01*
X131691659Y-105671092D01*
X131691658Y-105671091D01*
X131691658Y-105671087D01*
X131688689Y-105663918D01*
X131635087Y-105534511D01*
X131635080Y-105534498D01*
X131552951Y-105411584D01*
X131552948Y-105411580D01*
X131448419Y-105307051D01*
X131448415Y-105307048D01*
X131325501Y-105224919D01*
X131325488Y-105224912D01*
X131188917Y-105168343D01*
X131188907Y-105168340D01*
X131043920Y-105139500D01*
X131043918Y-105139500D01*
X130896082Y-105139500D01*
X130896080Y-105139500D01*
X130751092Y-105168340D01*
X130751082Y-105168343D01*
X130614511Y-105224912D01*
X130614498Y-105224919D01*
X130491584Y-105307048D01*
X130491580Y-105307051D01*
X130387051Y-105411580D01*
X130387048Y-105411584D01*
X130304919Y-105534498D01*
X130304912Y-105534511D01*
X130248343Y-105671082D01*
X130248340Y-105671092D01*
X130219500Y-105816079D01*
X130219500Y-105816082D01*
X130219500Y-105963918D01*
X130219500Y-105963920D01*
X130219499Y-105963920D01*
X128210000Y-105963920D01*
X128210000Y-104482433D01*
X128219439Y-104434980D01*
X128232048Y-104404539D01*
X128271658Y-104308913D01*
X128292543Y-104203920D01*
X133739499Y-104203920D01*
X133768340Y-104348907D01*
X133768343Y-104348917D01*
X133824912Y-104485488D01*
X133824919Y-104485501D01*
X133907048Y-104608415D01*
X133907051Y-104608419D01*
X134011580Y-104712948D01*
X134011584Y-104712951D01*
X134134498Y-104795080D01*
X134134511Y-104795087D01*
X134241735Y-104839500D01*
X134271087Y-104851658D01*
X134271091Y-104851658D01*
X134271092Y-104851659D01*
X134416079Y-104880500D01*
X134416082Y-104880500D01*
X134563920Y-104880500D01*
X134678287Y-104857750D01*
X134708913Y-104851658D01*
X134821353Y-104805084D01*
X134845488Y-104795087D01*
X134845488Y-104795086D01*
X134845495Y-104795084D01*
X134968416Y-104712951D01*
X135072951Y-104608416D01*
X135155084Y-104485495D01*
X135211658Y-104348913D01*
X135223382Y-104289972D01*
X135238511Y-104213920D01*
X137919499Y-104213920D01*
X137948340Y-104358907D01*
X137948343Y-104358917D01*
X138004912Y-104495488D01*
X138004919Y-104495501D01*
X138087048Y-104618415D01*
X138087051Y-104618419D01*
X138191580Y-104722948D01*
X138191584Y-104722951D01*
X138314498Y-104805080D01*
X138314511Y-104805087D01*
X138441652Y-104857750D01*
X138451087Y-104861658D01*
X138451091Y-104861658D01*
X138451092Y-104861659D01*
X138596079Y-104890500D01*
X138596082Y-104890500D01*
X138743920Y-104890500D01*
X138855311Y-104868342D01*
X138888913Y-104861658D01*
X139025495Y-104805084D01*
X139148416Y-104722951D01*
X139252951Y-104618416D01*
X139335084Y-104495495D01*
X139340495Y-104482433D01*
X139372759Y-104404539D01*
X139391658Y-104358913D01*
X139420500Y-104213918D01*
X139420500Y-104066082D01*
X139420500Y-104066079D01*
X139391659Y-103921092D01*
X139391658Y-103921091D01*
X139391658Y-103921087D01*
X139379230Y-103891082D01*
X139335087Y-103784511D01*
X139335080Y-103784498D01*
X139252951Y-103661584D01*
X139252948Y-103661580D01*
X139148419Y-103557051D01*
X139148415Y-103557048D01*
X139025501Y-103474919D01*
X139025488Y-103474912D01*
X138888917Y-103418343D01*
X138888907Y-103418340D01*
X138743920Y-103389500D01*
X138743918Y-103389500D01*
X138596082Y-103389500D01*
X138596080Y-103389500D01*
X138451092Y-103418340D01*
X138451082Y-103418343D01*
X138314511Y-103474912D01*
X138314498Y-103474919D01*
X138191584Y-103557048D01*
X138191580Y-103557051D01*
X138087051Y-103661580D01*
X138087048Y-103661584D01*
X138004919Y-103784498D01*
X138004912Y-103784511D01*
X137948343Y-103921082D01*
X137948340Y-103921092D01*
X137919500Y-104066079D01*
X137919500Y-104066082D01*
X137919500Y-104213918D01*
X137919500Y-104213920D01*
X137919499Y-104213920D01*
X135238511Y-104213920D01*
X135240500Y-104203920D01*
X135240500Y-104056079D01*
X135211659Y-103911092D01*
X135211658Y-103911091D01*
X135211658Y-103911087D01*
X135195092Y-103871092D01*
X135155087Y-103774511D01*
X135155080Y-103774498D01*
X135072951Y-103651584D01*
X135072948Y-103651580D01*
X134968419Y-103547051D01*
X134968415Y-103547048D01*
X134845501Y-103464919D01*
X134845488Y-103464912D01*
X134708917Y-103408343D01*
X134708907Y-103408340D01*
X134563920Y-103379500D01*
X134563918Y-103379500D01*
X134416082Y-103379500D01*
X134416080Y-103379500D01*
X134271092Y-103408340D01*
X134271082Y-103408343D01*
X134134511Y-103464912D01*
X134134498Y-103464919D01*
X134011584Y-103547048D01*
X134011580Y-103547051D01*
X133907051Y-103651580D01*
X133907048Y-103651584D01*
X133824919Y-103774498D01*
X133824912Y-103774511D01*
X133768343Y-103911082D01*
X133768340Y-103911092D01*
X133739500Y-104056079D01*
X133739500Y-104056082D01*
X133739500Y-104203918D01*
X133739500Y-104203920D01*
X133739499Y-104203920D01*
X128292543Y-104203920D01*
X128300500Y-104163920D01*
X128300500Y-104016079D01*
X128271659Y-103871092D01*
X128271658Y-103871091D01*
X128271658Y-103871087D01*
X128219438Y-103745018D01*
X128210000Y-103697566D01*
X128210000Y-100993920D01*
X137209499Y-100993920D01*
X137238340Y-101138907D01*
X137238343Y-101138917D01*
X137294912Y-101275488D01*
X137294919Y-101275501D01*
X137377048Y-101398415D01*
X137377051Y-101398419D01*
X137481580Y-101502948D01*
X137481584Y-101502951D01*
X137604498Y-101585080D01*
X137604511Y-101585087D01*
X137738291Y-101640500D01*
X137741087Y-101641658D01*
X137741091Y-101641658D01*
X137741092Y-101641659D01*
X137886079Y-101670500D01*
X137886082Y-101670500D01*
X138033920Y-101670500D01*
X138134462Y-101650500D01*
X138178913Y-101641658D01*
X138315495Y-101585084D01*
X138438416Y-101502951D01*
X138542951Y-101398416D01*
X138625084Y-101275495D01*
X138681658Y-101138913D01*
X138709285Y-101000027D01*
X138710500Y-100993920D01*
X138710500Y-100963920D01*
X145499499Y-100963920D01*
X145528340Y-101108907D01*
X145528343Y-101108917D01*
X145584912Y-101245488D01*
X145584919Y-101245501D01*
X145667048Y-101368415D01*
X145667051Y-101368419D01*
X145771580Y-101472948D01*
X145771584Y-101472951D01*
X145894498Y-101555080D01*
X145894511Y-101555087D01*
X146031082Y-101611656D01*
X146031087Y-101611658D01*
X146031091Y-101611658D01*
X146031092Y-101611659D01*
X146176079Y-101640500D01*
X146176082Y-101640500D01*
X146323920Y-101640500D01*
X146449598Y-101615500D01*
X146468913Y-101611658D01*
X146581353Y-101565084D01*
X146605488Y-101555087D01*
X146605488Y-101555086D01*
X146605495Y-101555084D01*
X146728416Y-101472951D01*
X146832951Y-101368416D01*
X146915084Y-101245495D01*
X146971658Y-101108913D01*
X146981096Y-101061462D01*
X147000500Y-100963920D01*
X147000500Y-100816079D01*
X146971659Y-100671092D01*
X146971658Y-100671091D01*
X146971658Y-100671087D01*
X146971656Y-100671082D01*
X146915087Y-100534511D01*
X146915080Y-100534498D01*
X146832951Y-100411584D01*
X146832948Y-100411580D01*
X146728419Y-100307051D01*
X146728415Y-100307048D01*
X146605501Y-100224919D01*
X146605488Y-100224912D01*
X146468917Y-100168343D01*
X146468907Y-100168340D01*
X146323920Y-100139500D01*
X146323918Y-100139500D01*
X146176082Y-100139500D01*
X146176080Y-100139500D01*
X146031092Y-100168340D01*
X146031082Y-100168343D01*
X145894511Y-100224912D01*
X145894498Y-100224919D01*
X145771584Y-100307048D01*
X145771580Y-100307051D01*
X145667051Y-100411580D01*
X145667048Y-100411584D01*
X145584919Y-100534498D01*
X145584912Y-100534511D01*
X145528343Y-100671082D01*
X145528340Y-100671092D01*
X145499500Y-100816079D01*
X145499500Y-100816082D01*
X145499500Y-100963918D01*
X145499500Y-100963920D01*
X145499499Y-100963920D01*
X138710500Y-100963920D01*
X138710500Y-100846082D01*
X138708133Y-100834184D01*
X138708133Y-100834182D01*
X138681659Y-100701092D01*
X138681658Y-100701091D01*
X138681658Y-100701087D01*
X138632187Y-100581653D01*
X138625087Y-100564511D01*
X138625080Y-100564498D01*
X138542951Y-100441584D01*
X138542948Y-100441580D01*
X138438419Y-100337051D01*
X138438415Y-100337048D01*
X138315501Y-100254919D01*
X138315488Y-100254912D01*
X138178917Y-100198343D01*
X138178907Y-100198340D01*
X138033920Y-100169500D01*
X138033918Y-100169500D01*
X137886082Y-100169500D01*
X137886080Y-100169500D01*
X137741092Y-100198340D01*
X137741082Y-100198343D01*
X137604511Y-100254912D01*
X137604498Y-100254919D01*
X137481584Y-100337048D01*
X137481580Y-100337051D01*
X137377051Y-100441580D01*
X137377048Y-100441584D01*
X137294919Y-100564498D01*
X137294912Y-100564511D01*
X137238343Y-100701082D01*
X137238340Y-100701092D01*
X137209500Y-100846079D01*
X137209500Y-100846082D01*
X137209500Y-100993918D01*
X137209500Y-100993920D01*
X137209499Y-100993920D01*
X128210000Y-100993920D01*
X128210000Y-99434149D01*
X128219439Y-99386696D01*
X128223677Y-99376465D01*
X128251658Y-99308913D01*
X128264108Y-99246324D01*
X128272543Y-99203920D01*
X138069499Y-99203920D01*
X138098340Y-99348907D01*
X138098343Y-99348917D01*
X138154912Y-99485488D01*
X138154919Y-99485501D01*
X138237048Y-99608415D01*
X138237051Y-99608419D01*
X138341580Y-99712948D01*
X138341584Y-99712951D01*
X138464498Y-99795080D01*
X138464511Y-99795087D01*
X138574149Y-99840500D01*
X138601087Y-99851658D01*
X138601091Y-99851658D01*
X138601092Y-99851659D01*
X138746079Y-99880500D01*
X138746082Y-99880500D01*
X138893920Y-99880500D01*
X138991462Y-99861096D01*
X139038913Y-99851658D01*
X139175495Y-99795084D01*
X139298416Y-99712951D01*
X139402951Y-99608416D01*
X139485084Y-99485495D01*
X139541658Y-99348913D01*
X139562726Y-99242999D01*
X139570500Y-99203920D01*
X139570500Y-99056079D01*
X139541659Y-98911092D01*
X139541658Y-98911091D01*
X139541658Y-98911087D01*
X139525092Y-98871092D01*
X139485087Y-98774511D01*
X139485080Y-98774498D01*
X139402951Y-98651584D01*
X139402948Y-98651580D01*
X139298419Y-98547051D01*
X139298415Y-98547048D01*
X139175501Y-98464919D01*
X139175488Y-98464912D01*
X139038917Y-98408343D01*
X139038907Y-98408340D01*
X138893920Y-98379500D01*
X138893918Y-98379500D01*
X138746082Y-98379500D01*
X138746080Y-98379500D01*
X138601092Y-98408340D01*
X138601082Y-98408343D01*
X138464511Y-98464912D01*
X138464498Y-98464919D01*
X138341584Y-98547048D01*
X138341580Y-98547051D01*
X138237051Y-98651580D01*
X138237048Y-98651584D01*
X138154919Y-98774498D01*
X138154912Y-98774511D01*
X138098343Y-98911082D01*
X138098340Y-98911092D01*
X138069500Y-99056079D01*
X138069500Y-99056082D01*
X138069500Y-99203918D01*
X138069500Y-99203920D01*
X138069499Y-99203920D01*
X128272543Y-99203920D01*
X128280500Y-99163920D01*
X128280500Y-99016079D01*
X128251659Y-98871092D01*
X128251658Y-98871091D01*
X128251658Y-98871087D01*
X128242870Y-98849871D01*
X128219439Y-98793302D01*
X128210000Y-98745850D01*
X128210000Y-95983920D01*
X130259499Y-95983920D01*
X130288340Y-96128907D01*
X130288343Y-96128917D01*
X130344912Y-96265488D01*
X130344919Y-96265501D01*
X130427048Y-96388415D01*
X130427051Y-96388419D01*
X130531580Y-96492948D01*
X130531584Y-96492951D01*
X130654498Y-96575080D01*
X130654511Y-96575087D01*
X130784397Y-96628887D01*
X130791087Y-96631658D01*
X130791091Y-96631658D01*
X130791092Y-96631659D01*
X130936079Y-96660500D01*
X130936082Y-96660500D01*
X131083920Y-96660500D01*
X131184462Y-96640500D01*
X131228913Y-96631658D01*
X131365495Y-96575084D01*
X131488416Y-96492951D01*
X131592951Y-96388416D01*
X131675084Y-96265495D01*
X131731658Y-96128913D01*
X131743278Y-96070499D01*
X131760500Y-95983920D01*
X131760500Y-95944985D01*
X134835416Y-95944985D01*
X134845909Y-96047696D01*
X134901056Y-96214118D01*
X134901058Y-96214123D01*
X134993099Y-96363344D01*
X135117069Y-96487314D01*
X135266290Y-96579355D01*
X135266295Y-96579357D01*
X135432717Y-96634504D01*
X135432724Y-96634505D01*
X135535434Y-96644998D01*
X135672914Y-96644998D01*
X135672915Y-96644997D01*
X135672915Y-95669999D01*
X134835416Y-95669999D01*
X134835416Y-95944985D01*
X131760500Y-95944985D01*
X131760500Y-95836079D01*
X131731659Y-95691092D01*
X131731658Y-95691091D01*
X131731658Y-95691087D01*
X131723372Y-95671082D01*
X131721304Y-95666089D01*
X131675085Y-95554507D01*
X131675080Y-95554498D01*
X131592951Y-95431584D01*
X131592948Y-95431580D01*
X131488419Y-95327051D01*
X131488415Y-95327048D01*
X131365501Y-95244919D01*
X131365488Y-95244912D01*
X131228917Y-95188343D01*
X131228907Y-95188340D01*
X131083920Y-95159500D01*
X131083918Y-95159500D01*
X130936082Y-95159500D01*
X130936080Y-95159500D01*
X130791092Y-95188340D01*
X130791082Y-95188343D01*
X130654511Y-95244912D01*
X130654498Y-95244919D01*
X130531584Y-95327048D01*
X130531580Y-95327051D01*
X130427051Y-95431580D01*
X130427048Y-95431584D01*
X130344919Y-95554498D01*
X130344912Y-95554511D01*
X130288343Y-95691082D01*
X130288340Y-95691092D01*
X130259500Y-95836079D01*
X130259500Y-95836080D01*
X130259500Y-95836082D01*
X130259500Y-95983918D01*
X130259500Y-95983920D01*
X130259499Y-95983920D01*
X128210000Y-95983920D01*
X128210000Y-94895012D01*
X134835415Y-94895012D01*
X134835415Y-95169999D01*
X135672915Y-95169999D01*
X135672915Y-94194999D01*
X135535442Y-94194999D01*
X135535427Y-94195000D01*
X135432717Y-94205493D01*
X135266295Y-94260640D01*
X135266290Y-94260642D01*
X135117069Y-94352683D01*
X134993099Y-94476653D01*
X134901058Y-94625874D01*
X134901056Y-94625879D01*
X134845909Y-94792301D01*
X134845908Y-94792308D01*
X134835415Y-94895012D01*
X128210000Y-94895012D01*
X128210000Y-94522433D01*
X128219439Y-94474980D01*
X128271658Y-94348913D01*
X128300500Y-94203918D01*
X128300500Y-94153920D01*
X130969499Y-94153920D01*
X130998340Y-94298907D01*
X130998343Y-94298917D01*
X131054912Y-94435488D01*
X131054919Y-94435501D01*
X131137048Y-94558415D01*
X131137051Y-94558419D01*
X131241580Y-94662948D01*
X131241584Y-94662951D01*
X131364498Y-94745080D01*
X131364511Y-94745087D01*
X131454152Y-94782217D01*
X131501087Y-94801658D01*
X131501091Y-94801658D01*
X131501092Y-94801659D01*
X131646079Y-94830500D01*
X131646082Y-94830500D01*
X131793920Y-94830500D01*
X131907880Y-94807831D01*
X131938913Y-94801658D01*
X132003069Y-94775084D01*
X132062313Y-94750544D01*
X132075495Y-94745084D01*
X132198416Y-94662951D01*
X132302951Y-94558416D01*
X132385084Y-94435495D01*
X132441658Y-94298913D01*
X132462328Y-94195000D01*
X132470500Y-94153920D01*
X132470500Y-94006079D01*
X132441659Y-93861092D01*
X132441658Y-93861091D01*
X132441658Y-93861087D01*
X132434388Y-93843535D01*
X132385087Y-93724511D01*
X132385080Y-93724498D01*
X132302951Y-93601584D01*
X132302948Y-93601580D01*
X132198419Y-93497051D01*
X132198415Y-93497048D01*
X132075501Y-93414919D01*
X132075488Y-93414912D01*
X131938917Y-93358343D01*
X131938907Y-93358340D01*
X131793920Y-93329500D01*
X131793918Y-93329500D01*
X131646082Y-93329500D01*
X131646080Y-93329500D01*
X131501092Y-93358340D01*
X131501082Y-93358343D01*
X131364511Y-93414912D01*
X131364498Y-93414919D01*
X131241584Y-93497048D01*
X131241580Y-93497051D01*
X131137051Y-93601580D01*
X131137048Y-93601584D01*
X131054919Y-93724498D01*
X131054912Y-93724511D01*
X130998343Y-93861082D01*
X130998340Y-93861092D01*
X130969500Y-94006079D01*
X130969500Y-94006082D01*
X130969500Y-94153918D01*
X130969500Y-94153920D01*
X130969499Y-94153920D01*
X128300500Y-94153920D01*
X128300500Y-94056082D01*
X128300500Y-94056079D01*
X128294155Y-94024182D01*
X128271659Y-93911092D01*
X128271658Y-93911091D01*
X128271658Y-93911087D01*
X128219438Y-93785018D01*
X128210000Y-93737566D01*
X128210000Y-93114499D01*
X128229685Y-93047460D01*
X128282489Y-93001705D01*
X128334000Y-92990499D01*
X128921354Y-92990499D01*
X128921358Y-92990500D01*
X129079472Y-92990500D01*
X129079476Y-92990499D01*
X129189408Y-92990499D01*
X129189996Y-92990381D01*
X129214190Y-92987999D01*
X129515035Y-92987999D01*
X129582074Y-93007684D01*
X129594174Y-93017434D01*
X129594295Y-93017279D01*
X129600459Y-93022060D01*
X129600461Y-93022062D01*
X129743015Y-93106369D01*
X129770999Y-93114499D01*
X129902052Y-93152574D01*
X129902055Y-93152574D01*
X129902057Y-93152575D01*
X129939212Y-93155499D01*
X130381617Y-93155498D01*
X130418773Y-93152575D01*
X130577815Y-93106369D01*
X130720369Y-93022062D01*
X130818114Y-92924316D01*
X130879435Y-92890833D01*
X130905794Y-92887999D01*
X131915036Y-92887999D01*
X131982075Y-92907684D01*
X132002712Y-92924313D01*
X132100461Y-93022062D01*
X132243015Y-93106369D01*
X132270999Y-93114499D01*
X132402052Y-93152574D01*
X132402055Y-93152574D01*
X132402057Y-93152575D01*
X132439212Y-93155499D01*
X132881617Y-93155498D01*
X132918773Y-93152575D01*
X133077815Y-93106369D01*
X133220369Y-93022062D01*
X133318114Y-92924316D01*
X133345045Y-92909610D01*
X133370859Y-92893022D01*
X133377058Y-92892130D01*
X133379435Y-92890833D01*
X133405794Y-92887999D01*
X133417817Y-92887999D01*
X133484856Y-92907684D01*
X133505498Y-92924318D01*
X133581699Y-93000519D01*
X133581701Y-93000520D01*
X133581705Y-93000523D01*
X133689704Y-93062875D01*
X133718631Y-93079576D01*
X133871358Y-93120500D01*
X133871360Y-93120500D01*
X134037069Y-93120500D01*
X134037085Y-93120499D01*
X134620465Y-93120499D01*
X134687504Y-93140184D01*
X134708146Y-93156818D01*
X134755080Y-93203752D01*
X134755085Y-93203756D01*
X134892344Y-93286731D01*
X134892348Y-93286733D01*
X134937601Y-93300834D01*
X135045482Y-93334451D01*
X135112034Y-93340499D01*
X135613795Y-93340498D01*
X135613803Y-93340498D01*
X135680341Y-93334452D01*
X135680342Y-93334451D01*
X135680348Y-93334451D01*
X135833484Y-93286732D01*
X135896265Y-93248778D01*
X135963820Y-93230943D01*
X136024564Y-93248778D01*
X136087346Y-93286732D01*
X136087349Y-93286733D01*
X136087348Y-93286733D01*
X136132601Y-93300834D01*
X136240482Y-93334451D01*
X136307034Y-93340499D01*
X136808795Y-93340498D01*
X136808803Y-93340498D01*
X136875341Y-93334452D01*
X136875342Y-93334451D01*
X136875348Y-93334451D01*
X137028484Y-93286732D01*
X137099132Y-93244023D01*
X137165744Y-93203756D01*
X137165745Y-93203754D01*
X137165750Y-93203752D01*
X137212684Y-93156818D01*
X137239611Y-93142114D01*
X137265430Y-93125522D01*
X137271630Y-93124630D01*
X137274007Y-93123333D01*
X137300365Y-93120499D01*
X137332367Y-93120499D01*
X137399406Y-93140184D01*
X137445161Y-93192988D01*
X137455105Y-93262146D01*
X137435469Y-93313390D01*
X137421453Y-93334365D01*
X137421448Y-93334374D01*
X137372414Y-93452754D01*
X137372412Y-93452760D01*
X137347415Y-93578427D01*
X137347415Y-94187071D01*
X137327730Y-94254110D01*
X137288513Y-94292608D01*
X137245877Y-94318907D01*
X137191757Y-94352288D01*
X137067703Y-94476342D01*
X137067698Y-94476348D01*
X137065656Y-94479660D01*
X137063662Y-94481452D01*
X137063222Y-94482010D01*
X137063126Y-94481934D01*
X137013706Y-94526382D01*
X136944743Y-94537601D01*
X136880662Y-94509754D01*
X136854583Y-94479655D01*
X136852734Y-94476658D01*
X136852731Y-94476654D01*
X136728760Y-94352683D01*
X136579539Y-94260642D01*
X136579534Y-94260640D01*
X136413112Y-94205493D01*
X136413105Y-94205492D01*
X136310401Y-94194999D01*
X136172915Y-94194999D01*
X136172915Y-96300155D01*
X136153230Y-96367194D01*
X136152018Y-96369045D01*
X136094914Y-96454508D01*
X136038343Y-96591082D01*
X136038340Y-96591092D01*
X136009500Y-96736079D01*
X136009500Y-96736082D01*
X136009500Y-96883918D01*
X136009500Y-96883920D01*
X136009499Y-96883920D01*
X136038340Y-97028907D01*
X136038343Y-97028917D01*
X136094912Y-97165488D01*
X136094919Y-97165501D01*
X136177048Y-97288415D01*
X136177051Y-97288419D01*
X136281580Y-97392948D01*
X136281584Y-97392951D01*
X136404498Y-97475080D01*
X136404511Y-97475087D01*
X136541082Y-97531656D01*
X136541087Y-97531658D01*
X136541091Y-97531658D01*
X136541092Y-97531659D01*
X136686079Y-97560500D01*
X136686082Y-97560500D01*
X136833920Y-97560500D01*
X136866997Y-97553920D01*
X143669499Y-97553920D01*
X143698340Y-97698907D01*
X143698343Y-97698917D01*
X143754912Y-97835488D01*
X143754919Y-97835501D01*
X143837048Y-97958415D01*
X143837051Y-97958419D01*
X143941580Y-98062948D01*
X143941584Y-98062951D01*
X144064498Y-98145080D01*
X144064511Y-98145087D01*
X144135012Y-98174289D01*
X144201087Y-98201658D01*
X144201091Y-98201658D01*
X144201092Y-98201659D01*
X144346079Y-98230500D01*
X144346082Y-98230500D01*
X144493920Y-98230500D01*
X144611821Y-98207047D01*
X144638913Y-98201658D01*
X144775495Y-98145084D01*
X144898416Y-98062951D01*
X145002951Y-97958416D01*
X145085084Y-97835495D01*
X145096124Y-97808840D01*
X145139961Y-97754439D01*
X145206254Y-97732371D01*
X145273954Y-97749648D01*
X145298366Y-97768611D01*
X145417069Y-97887314D01*
X145566290Y-97979355D01*
X145566295Y-97979357D01*
X145732717Y-98034504D01*
X145732724Y-98034505D01*
X145835434Y-98044998D01*
X146110414Y-98044998D01*
X146110415Y-98044997D01*
X146110415Y-97207499D01*
X145202315Y-97207499D01*
X145135276Y-97187814D01*
X145089521Y-97135010D01*
X145087765Y-97130978D01*
X145085084Y-97124505D01*
X145065138Y-97094654D01*
X145002954Y-97001588D01*
X145002948Y-97001580D01*
X144898419Y-96897051D01*
X144898415Y-96897048D01*
X144775501Y-96814919D01*
X144775488Y-96814912D01*
X144638917Y-96758343D01*
X144638907Y-96758340D01*
X144493920Y-96729500D01*
X144493918Y-96729500D01*
X144346082Y-96729500D01*
X144346080Y-96729500D01*
X144201092Y-96758340D01*
X144201082Y-96758343D01*
X144064511Y-96814912D01*
X144064498Y-96814919D01*
X143941584Y-96897048D01*
X143941580Y-96897051D01*
X143837051Y-97001580D01*
X143837048Y-97001584D01*
X143754919Y-97124498D01*
X143754912Y-97124511D01*
X143698343Y-97261082D01*
X143698340Y-97261092D01*
X143669500Y-97406079D01*
X143669500Y-97406082D01*
X143669500Y-97553918D01*
X143669500Y-97553920D01*
X143669499Y-97553920D01*
X136866997Y-97553920D01*
X136931462Y-97541096D01*
X136978913Y-97531658D01*
X137115495Y-97475084D01*
X137238416Y-97392951D01*
X137238419Y-97392948D01*
X137319059Y-97312309D01*
X137342948Y-97288419D01*
X137342951Y-97288416D01*
X137425084Y-97165495D01*
X137481658Y-97028913D01*
X137491948Y-96977184D01*
X137510500Y-96883920D01*
X137510500Y-96769498D01*
X137530185Y-96702459D01*
X137582989Y-96656704D01*
X137634495Y-96645498D01*
X138385423Y-96645498D01*
X138385431Y-96645497D01*
X138385434Y-96645497D01*
X138441717Y-96639747D01*
X138488212Y-96634998D01*
X138654749Y-96579813D01*
X138804071Y-96487711D01*
X138928127Y-96363655D01*
X139020229Y-96214333D01*
X139039726Y-96155492D01*
X139079499Y-96098050D01*
X139144015Y-96071227D01*
X139157432Y-96070499D01*
X140144632Y-96070499D01*
X140211671Y-96090184D01*
X140232308Y-96106813D01*
X140280989Y-96155494D01*
X140322634Y-96197139D01*
X140486494Y-96306627D01*
X140486507Y-96306634D01*
X140637183Y-96369045D01*
X140668580Y-96382050D01*
X140668584Y-96382050D01*
X140668585Y-96382051D01*
X140861871Y-96420499D01*
X140861874Y-96420499D01*
X141058958Y-96420499D01*
X141220251Y-96388415D01*
X141252250Y-96382050D01*
X141434329Y-96306631D01*
X141598197Y-96197138D01*
X141737554Y-96057781D01*
X141847047Y-95893913D01*
X141922466Y-95711834D01*
X141943038Y-95608413D01*
X141960915Y-95518542D01*
X141960915Y-95321455D01*
X141922467Y-95128169D01*
X141922466Y-95128168D01*
X141922466Y-95128164D01*
X141884084Y-95035500D01*
X141847050Y-94946091D01*
X141847043Y-94946078D01*
X141737554Y-94782217D01*
X141737551Y-94782213D01*
X141598200Y-94642862D01*
X141598196Y-94642859D01*
X141434335Y-94533370D01*
X141434322Y-94533363D01*
X141252254Y-94457949D01*
X141252244Y-94457946D01*
X141058958Y-94419499D01*
X141058956Y-94419499D01*
X140861874Y-94419499D01*
X140861872Y-94419499D01*
X140668585Y-94457946D01*
X140668575Y-94457949D01*
X140486507Y-94533363D01*
X140486494Y-94533370D01*
X140322634Y-94642858D01*
X140299562Y-94665931D01*
X140232311Y-94733181D01*
X140170991Y-94766665D01*
X140144632Y-94769499D01*
X139507261Y-94769499D01*
X139440222Y-94749814D01*
X139394467Y-94697010D01*
X139384523Y-94627852D01*
X139404159Y-94576608D01*
X139416313Y-94558419D01*
X139485084Y-94455495D01*
X139541658Y-94318913D01*
X139553758Y-94258086D01*
X139570500Y-94173920D01*
X139570500Y-94026079D01*
X139541659Y-93881092D01*
X139541658Y-93881091D01*
X139541658Y-93881087D01*
X139541656Y-93881082D01*
X139485087Y-93744511D01*
X139485080Y-93744498D01*
X139432344Y-93665573D01*
X139411466Y-93598895D01*
X139429951Y-93531515D01*
X139481929Y-93484825D01*
X139550899Y-93473649D01*
X139578774Y-93480498D01*
X139655432Y-93509090D01*
X139715042Y-93515499D01*
X141285787Y-93515498D01*
X141345398Y-93509090D01*
X141480246Y-93458795D01*
X141595461Y-93372545D01*
X141681711Y-93257330D01*
X141732006Y-93122482D01*
X141738415Y-93062872D01*
X141738414Y-92517127D01*
X141738414Y-92517126D01*
X141738413Y-92517110D01*
X141734235Y-92478252D01*
X141734235Y-92451744D01*
X141738415Y-92412872D01*
X141738414Y-91867127D01*
X141738414Y-91867126D01*
X141738413Y-91867110D01*
X141734235Y-91828252D01*
X141734235Y-91801744D01*
X141738415Y-91762872D01*
X141738414Y-91217127D01*
X141732006Y-91157516D01*
X141681711Y-91022668D01*
X141595461Y-90907453D01*
X141595459Y-90907452D01*
X141595459Y-90907451D01*
X141503039Y-90838265D01*
X141461168Y-90782331D01*
X141456184Y-90712640D01*
X141489670Y-90651317D01*
X141550993Y-90617833D01*
X141577350Y-90614999D01*
X141737915Y-90614999D01*
X141737915Y-90567171D01*
X141737914Y-90567154D01*
X141731513Y-90507626D01*
X141731511Y-90507619D01*
X141681269Y-90372912D01*
X141681265Y-90372905D01*
X141595105Y-90257811D01*
X141595102Y-90257808D01*
X141480008Y-90171648D01*
X141480001Y-90171644D01*
X141345294Y-90121402D01*
X141345287Y-90121400D01*
X141285759Y-90114999D01*
X140725415Y-90114999D01*
X140725415Y-90640499D01*
X140722864Y-90649184D01*
X140724153Y-90658146D01*
X140713174Y-90682186D01*
X140705730Y-90707538D01*
X140698889Y-90713465D01*
X140695128Y-90721702D01*
X140672893Y-90735991D01*
X140652926Y-90753293D01*
X140642411Y-90755580D01*
X140636350Y-90759476D01*
X140601415Y-90764499D01*
X140399415Y-90764499D01*
X140332376Y-90744814D01*
X140286621Y-90692010D01*
X140275415Y-90640499D01*
X140275415Y-90114999D01*
X139715070Y-90114999D01*
X139655542Y-90121400D01*
X139655535Y-90121402D01*
X139520828Y-90171644D01*
X139520821Y-90171648D01*
X139405727Y-90257808D01*
X139405724Y-90257811D01*
X139319564Y-90372905D01*
X139319560Y-90372912D01*
X139269318Y-90507619D01*
X139269316Y-90507626D01*
X139262915Y-90567154D01*
X139262915Y-90614999D01*
X139423480Y-90614999D01*
X139452920Y-90623643D01*
X139482907Y-90630167D01*
X139486137Y-90633397D01*
X139490519Y-90634684D01*
X139510608Y-90657868D01*
X139532312Y-90679572D01*
X139533283Y-90684036D01*
X139536274Y-90687488D01*
X139540641Y-90717859D01*
X139547164Y-90747845D01*
X139545567Y-90752124D01*
X139546218Y-90756646D01*
X139533470Y-90784560D01*
X139522747Y-90813310D01*
X139518317Y-90817739D01*
X139517193Y-90820202D01*
X139497791Y-90838265D01*
X139497790Y-90838266D01*
X139462390Y-90864766D01*
X139396926Y-90889183D01*
X139388080Y-90889499D01*
X138690512Y-90889499D01*
X138623473Y-90869814D01*
X138602831Y-90853180D01*
X138408005Y-90658354D01*
X138408003Y-90658351D01*
X138289132Y-90539480D01*
X138289131Y-90539479D01*
X138195024Y-90485147D01*
X138195023Y-90485146D01*
X138152198Y-90460421D01*
X138096296Y-90445442D01*
X137999472Y-90419498D01*
X137841358Y-90419498D01*
X137833762Y-90419498D01*
X137833746Y-90419499D01*
X137300365Y-90419499D01*
X137233326Y-90399814D01*
X137212684Y-90383180D01*
X137165749Y-90336245D01*
X137165744Y-90336241D01*
X137028485Y-90253266D01*
X137028481Y-90253264D01*
X136875348Y-90205547D01*
X136875350Y-90205547D01*
X136848727Y-90203127D01*
X136808796Y-90199499D01*
X136808793Y-90199499D01*
X136307026Y-90199499D01*
X136240488Y-90205545D01*
X136240481Y-90205547D01*
X136087348Y-90253264D01*
X136087344Y-90253266D01*
X136024564Y-90291218D01*
X135957009Y-90309054D01*
X135896266Y-90291218D01*
X135833485Y-90253266D01*
X135833481Y-90253264D01*
X135680348Y-90205547D01*
X135680350Y-90205547D01*
X135653727Y-90203127D01*
X135613796Y-90199499D01*
X135613793Y-90199499D01*
X135112026Y-90199499D01*
X135045488Y-90205545D01*
X135045481Y-90205547D01*
X134892348Y-90253264D01*
X134892344Y-90253266D01*
X134755085Y-90336241D01*
X134755080Y-90336245D01*
X134708146Y-90383180D01*
X134646823Y-90416665D01*
X134620465Y-90419499D01*
X133731357Y-90419499D01*
X133578631Y-90460421D01*
X133535804Y-90485148D01*
X133460836Y-90528430D01*
X133392936Y-90544902D01*
X133326909Y-90522049D01*
X133311161Y-90508728D01*
X133220369Y-90417936D01*
X133220368Y-90417935D01*
X133220365Y-90417933D01*
X133082238Y-90336245D01*
X133077815Y-90333629D01*
X133077814Y-90333628D01*
X133077813Y-90333628D01*
X133077810Y-90333627D01*
X132918777Y-90287423D01*
X132918771Y-90287422D01*
X132881618Y-90284499D01*
X132439224Y-90284499D01*
X132439199Y-90284500D01*
X132402060Y-90287422D01*
X132243014Y-90333629D01*
X132100464Y-90417933D01*
X132100459Y-90417937D01*
X132063004Y-90455393D01*
X132002715Y-90515681D01*
X131941395Y-90549165D01*
X131915036Y-90551999D01*
X130905794Y-90551999D01*
X130838755Y-90532314D01*
X130818117Y-90515684D01*
X130720369Y-90417936D01*
X130720368Y-90417935D01*
X130720365Y-90417933D01*
X130582238Y-90336245D01*
X130577815Y-90333629D01*
X130577814Y-90333628D01*
X130577813Y-90333628D01*
X130577810Y-90333627D01*
X130418777Y-90287423D01*
X130418771Y-90287422D01*
X130381618Y-90284499D01*
X129939224Y-90284499D01*
X129939199Y-90284500D01*
X129902060Y-90287422D01*
X129743014Y-90333629D01*
X129600464Y-90417933D01*
X129600455Y-90417940D01*
X129596488Y-90421908D01*
X129535165Y-90455393D01*
X129508807Y-90458227D01*
X128334000Y-90458227D01*
X128266961Y-90438542D01*
X128221206Y-90385738D01*
X128210000Y-90334227D01*
X128210000Y-87644499D01*
X128229685Y-87577460D01*
X128282489Y-87531705D01*
X128334000Y-87520499D01*
X150113404Y-87520499D01*
X150180443Y-87540184D01*
G37*
%TD.AperFunction*%
%TA.AperFunction,Conductor*%
G36*
X165402954Y-130513761D02*
G01*
X165448709Y-130566565D01*
X165459915Y-130618076D01*
X165459915Y-139015571D01*
X165459599Y-139024417D01*
X165445284Y-139224557D01*
X165442766Y-139242069D01*
X165401060Y-139433790D01*
X165396076Y-139450765D01*
X165327504Y-139634614D01*
X165320155Y-139650706D01*
X165226123Y-139822914D01*
X165216561Y-139837794D01*
X165098978Y-139994866D01*
X165087393Y-140008236D01*
X164948648Y-140146983D01*
X164935277Y-140158569D01*
X164778205Y-140276152D01*
X164763322Y-140285717D01*
X164591113Y-140379752D01*
X164575019Y-140387102D01*
X164391177Y-140455672D01*
X164374202Y-140460656D01*
X164182479Y-140502365D01*
X164164967Y-140504883D01*
X163965053Y-140519183D01*
X163956206Y-140519499D01*
X150549097Y-140519499D01*
X150527851Y-140513260D01*
X150505764Y-140511681D01*
X150494980Y-140503608D01*
X150482058Y-140499814D01*
X150467559Y-140483082D01*
X150449830Y-140469810D01*
X150445122Y-140457187D01*
X150436303Y-140447010D01*
X150433151Y-140425093D01*
X150425413Y-140404345D01*
X150428275Y-140391184D01*
X150426359Y-140377852D01*
X150435558Y-140357708D01*
X150440265Y-140336072D01*
X150453534Y-140318344D01*
X150455384Y-140314296D01*
X150461401Y-140307832D01*
X150620314Y-140148919D01*
X150620319Y-140148916D01*
X150630519Y-140138715D01*
X150630521Y-140138715D01*
X150742325Y-140026911D01*
X150821382Y-139889979D01*
X150862305Y-139737252D01*
X150862305Y-135394368D01*
X150881990Y-135327329D01*
X150913420Y-135294050D01*
X151021264Y-135215697D01*
X151152098Y-135084863D01*
X151260855Y-134935172D01*
X151344856Y-134770311D01*
X151402032Y-134594340D01*
X151403004Y-134588202D01*
X151432932Y-134525070D01*
X151492243Y-134488138D01*
X151562106Y-134489134D01*
X151620339Y-134527743D01*
X151647949Y-134588202D01*
X151648922Y-134594340D01*
X151648923Y-134594345D01*
X151706096Y-134770308D01*
X151706097Y-134770311D01*
X151790099Y-134935172D01*
X151898856Y-135084863D01*
X152029690Y-135215697D01*
X152150190Y-135303246D01*
X152192856Y-135358575D01*
X152201305Y-135403563D01*
X152201305Y-137053186D01*
X152181620Y-137120225D01*
X152180429Y-137122041D01*
X152160328Y-137152127D01*
X152125329Y-137204506D01*
X152068758Y-137341081D01*
X152068755Y-137341091D01*
X152039915Y-137486078D01*
X152039915Y-137486081D01*
X152039915Y-137633917D01*
X152039915Y-137633919D01*
X152039914Y-137633919D01*
X152068755Y-137778906D01*
X152068758Y-137778916D01*
X152125327Y-137915487D01*
X152125334Y-137915500D01*
X152207463Y-138038414D01*
X152207466Y-138038418D01*
X152311995Y-138142947D01*
X152311999Y-138142950D01*
X152434913Y-138225079D01*
X152434926Y-138225086D01*
X152571497Y-138281655D01*
X152571502Y-138281657D01*
X152571506Y-138281657D01*
X152571507Y-138281658D01*
X152716494Y-138310499D01*
X152716497Y-138310499D01*
X152864335Y-138310499D01*
X152964877Y-138290499D01*
X153009328Y-138281657D01*
X153145910Y-138225083D01*
X153268831Y-138142950D01*
X153373366Y-138038415D01*
X153455499Y-137915494D01*
X153512073Y-137778912D01*
X153521511Y-137731461D01*
X153540915Y-137633919D01*
X153540915Y-137486078D01*
X153512074Y-137341091D01*
X153512073Y-137341090D01*
X153512073Y-137341086D01*
X153496921Y-137304505D01*
X153455501Y-137204507D01*
X153446003Y-137190292D01*
X153423201Y-137156167D01*
X153402325Y-137089491D01*
X153402305Y-137087278D01*
X153402305Y-135394368D01*
X153421990Y-135327329D01*
X153453420Y-135294050D01*
X153561264Y-135215697D01*
X153692098Y-135084863D01*
X153800855Y-134935172D01*
X153884856Y-134770311D01*
X153942032Y-134594340D01*
X153943004Y-134588202D01*
X153972932Y-134525070D01*
X154032243Y-134488138D01*
X154102106Y-134489134D01*
X154160339Y-134527743D01*
X154187949Y-134588202D01*
X154188922Y-134594340D01*
X154188923Y-134594345D01*
X154246096Y-134770308D01*
X154246097Y-134770311D01*
X154330099Y-134935172D01*
X154438856Y-135084863D01*
X154569690Y-135215697D01*
X154690190Y-135303246D01*
X154732856Y-135358575D01*
X154741305Y-135403563D01*
X154741305Y-137123253D01*
X154721620Y-137190292D01*
X154720407Y-137192144D01*
X154645334Y-137304497D01*
X154645327Y-137304510D01*
X154588758Y-137441081D01*
X154588755Y-137441091D01*
X154559915Y-137586078D01*
X154559915Y-137586081D01*
X154559915Y-137733917D01*
X154559915Y-137733919D01*
X154559914Y-137733919D01*
X154588755Y-137878906D01*
X154588758Y-137878916D01*
X154645327Y-138015487D01*
X154645334Y-138015500D01*
X154727463Y-138138414D01*
X154727466Y-138138418D01*
X154831995Y-138242947D01*
X154831999Y-138242950D01*
X154954913Y-138325079D01*
X154954926Y-138325086D01*
X155091497Y-138381655D01*
X155091502Y-138381657D01*
X155091506Y-138381657D01*
X155091507Y-138381658D01*
X155236494Y-138410499D01*
X155236497Y-138410499D01*
X155384335Y-138410499D01*
X155481877Y-138391095D01*
X155529328Y-138381657D01*
X155665910Y-138325083D01*
X155788831Y-138242950D01*
X155893366Y-138138415D01*
X155975499Y-138015494D01*
X156032073Y-137878912D01*
X156051966Y-137778906D01*
X156060915Y-137733919D01*
X156060915Y-137586078D01*
X156032074Y-137441091D01*
X156032073Y-137441090D01*
X156032073Y-137441086D01*
X156032071Y-137441081D01*
X155975500Y-137304505D01*
X155975499Y-137304503D01*
X155963202Y-137286099D01*
X155942325Y-137219422D01*
X155942305Y-137217210D01*
X155942305Y-135394368D01*
X155961990Y-135327329D01*
X155993420Y-135294050D01*
X156101264Y-135215697D01*
X156232098Y-135084863D01*
X156340855Y-134935172D01*
X156424856Y-134770311D01*
X156482032Y-134594340D01*
X156483004Y-134588202D01*
X156512932Y-134525070D01*
X156572243Y-134488138D01*
X156642106Y-134489134D01*
X156700339Y-134527743D01*
X156727949Y-134588202D01*
X156728922Y-134594340D01*
X156728923Y-134594345D01*
X156786096Y-134770308D01*
X156786097Y-134770311D01*
X156870099Y-134935172D01*
X156978856Y-135084863D01*
X157109690Y-135215697D01*
X157230190Y-135303246D01*
X157272856Y-135358575D01*
X157281305Y-135403563D01*
X157281305Y-137228150D01*
X157261620Y-137295189D01*
X157260408Y-137297039D01*
X157215330Y-137364503D01*
X157215329Y-137364505D01*
X157158758Y-137501081D01*
X157158755Y-137501091D01*
X157129915Y-137646078D01*
X157129915Y-137646081D01*
X157129915Y-137793917D01*
X157129915Y-137793919D01*
X157129914Y-137793919D01*
X157158755Y-137938906D01*
X157158758Y-137938916D01*
X157215327Y-138075487D01*
X157215334Y-138075500D01*
X157297463Y-138198414D01*
X157297466Y-138198418D01*
X157401995Y-138302947D01*
X157401999Y-138302950D01*
X157524913Y-138385079D01*
X157524926Y-138385086D01*
X157661497Y-138441655D01*
X157661502Y-138441657D01*
X157661506Y-138441657D01*
X157661507Y-138441658D01*
X157806494Y-138470499D01*
X157806497Y-138470499D01*
X157954335Y-138470499D01*
X158051877Y-138451095D01*
X158099328Y-138441657D01*
X158235910Y-138385083D01*
X158358831Y-138302950D01*
X158463366Y-138198415D01*
X158545499Y-138075494D01*
X158602073Y-137938912D01*
X158630915Y-137793917D01*
X158630915Y-137646081D01*
X158630915Y-137646078D01*
X158602074Y-137501091D01*
X158602073Y-137501090D01*
X158602073Y-137501086D01*
X158595858Y-137486081D01*
X158545500Y-137364505D01*
X158545498Y-137364501D01*
X158503203Y-137301202D01*
X158482325Y-137234525D01*
X158482305Y-137232312D01*
X158482305Y-135394368D01*
X158501990Y-135327329D01*
X158533420Y-135294050D01*
X158641264Y-135215697D01*
X158772098Y-135084863D01*
X158880855Y-134935172D01*
X158964856Y-134770311D01*
X159022032Y-134594340D01*
X159023004Y-134588202D01*
X159052932Y-134525070D01*
X159112243Y-134488138D01*
X159182106Y-134489134D01*
X159240339Y-134527743D01*
X159267949Y-134588202D01*
X159268922Y-134594340D01*
X159268923Y-134594345D01*
X159326096Y-134770308D01*
X159326097Y-134770311D01*
X159410099Y-134935172D01*
X159518856Y-135084863D01*
X159518858Y-135084865D01*
X159649693Y-135215700D01*
X159720189Y-135266917D01*
X159762856Y-135322247D01*
X159771305Y-135367236D01*
X159771305Y-137108016D01*
X159751620Y-137175055D01*
X159750408Y-137176906D01*
X159745329Y-137184507D01*
X159688758Y-137321081D01*
X159688755Y-137321091D01*
X159659915Y-137466078D01*
X159659915Y-137466081D01*
X159659915Y-137613917D01*
X159659915Y-137613919D01*
X159659914Y-137613919D01*
X159688755Y-137758906D01*
X159688758Y-137758916D01*
X159745327Y-137895487D01*
X159745334Y-137895500D01*
X159827463Y-138018414D01*
X159827466Y-138018418D01*
X159931995Y-138122947D01*
X159931999Y-138122950D01*
X160054913Y-138205079D01*
X160054926Y-138205086D01*
X160146339Y-138242950D01*
X160191502Y-138261657D01*
X160191506Y-138261657D01*
X160191507Y-138261658D01*
X160336494Y-138290499D01*
X160336497Y-138290499D01*
X160484335Y-138290499D01*
X160581877Y-138271095D01*
X160629328Y-138261657D01*
X160765910Y-138205083D01*
X160888831Y-138122950D01*
X160993366Y-138018415D01*
X161075499Y-137895494D01*
X161082368Y-137878912D01*
X161088317Y-137864546D01*
X161132073Y-137758912D01*
X161154518Y-137646078D01*
X161160915Y-137613919D01*
X161160915Y-137466078D01*
X161132074Y-137321091D01*
X161132073Y-137321090D01*
X161132073Y-137321086D01*
X161123837Y-137301202D01*
X161081744Y-137199579D01*
X161072305Y-137152127D01*
X161072305Y-135358041D01*
X161091990Y-135291002D01*
X161123421Y-135257722D01*
X161181260Y-135215700D01*
X161181260Y-135215699D01*
X161181264Y-135215697D01*
X161312098Y-135084863D01*
X161420855Y-134935172D01*
X161504856Y-134770311D01*
X161562032Y-134594340D01*
X161563004Y-134588202D01*
X161592932Y-134525070D01*
X161652243Y-134488138D01*
X161722106Y-134489134D01*
X161780339Y-134527743D01*
X161807949Y-134588202D01*
X161808922Y-134594340D01*
X161808923Y-134594345D01*
X161866096Y-134770308D01*
X161866097Y-134770311D01*
X161950099Y-134935172D01*
X162058856Y-135084863D01*
X162189690Y-135215697D01*
X162339381Y-135324454D01*
X162405299Y-135358041D01*
X162504241Y-135408455D01*
X162504244Y-135408456D01*
X162592227Y-135437043D01*
X162680213Y-135465631D01*
X162862963Y-135494576D01*
X162862964Y-135494576D01*
X163047990Y-135494576D01*
X163047991Y-135494576D01*
X163230741Y-135465631D01*
X163406712Y-135408455D01*
X163571573Y-135324454D01*
X163721264Y-135215697D01*
X163852098Y-135084863D01*
X163960855Y-134935172D01*
X164044856Y-134770311D01*
X164102032Y-134594340D01*
X164130977Y-134411590D01*
X164130977Y-131576562D01*
X164102032Y-131393812D01*
X164044856Y-131217841D01*
X164044856Y-131217840D01*
X163960854Y-131052979D01*
X163852098Y-130903289D01*
X163721264Y-130772455D01*
X163646854Y-130718393D01*
X163604190Y-130663064D01*
X163598211Y-130593450D01*
X163630817Y-130531655D01*
X163691656Y-130497298D01*
X163719741Y-130494076D01*
X165335915Y-130494076D01*
X165402954Y-130513761D01*
G37*
%TD.AperFunction*%
%TA.AperFunction,Conductor*%
G36*
X146554369Y-116640185D02*
G01*
X146600124Y-116692989D01*
X146605261Y-116706181D01*
X146626099Y-116770315D01*
X146709967Y-116934913D01*
X146710099Y-116935172D01*
X146818856Y-117084863D01*
X146949690Y-117215697D01*
X147024099Y-117269758D01*
X147066764Y-117325088D01*
X147072743Y-117394702D01*
X147040137Y-117456497D01*
X146979298Y-117490854D01*
X146951213Y-117494076D01*
X145939741Y-117494076D01*
X145872702Y-117474391D01*
X145826947Y-117421587D01*
X145817003Y-117352429D01*
X145846028Y-117288873D01*
X145866853Y-117269759D01*
X145941264Y-117215697D01*
X146072098Y-117084863D01*
X146180855Y-116935172D01*
X146264856Y-116770311D01*
X146285692Y-116706181D01*
X146299641Y-116685780D01*
X146309910Y-116663297D01*
X146319018Y-116657443D01*
X146325128Y-116648508D01*
X146347894Y-116638886D01*
X146368688Y-116625523D01*
X146385094Y-116623164D01*
X146389486Y-116621308D01*
X146403623Y-116620500D01*
X146487330Y-116620500D01*
X146554369Y-116640185D01*
G37*
%TD.AperFunction*%
%TA.AperFunction,Conductor*%
G36*
X149022106Y-116489134D02*
G01*
X149080339Y-116527743D01*
X149107949Y-116588202D01*
X149108904Y-116594224D01*
X149108923Y-116594345D01*
X149166096Y-116770308D01*
X149166097Y-116770311D01*
X149249967Y-116934913D01*
X149250099Y-116935172D01*
X149358856Y-117084863D01*
X149489690Y-117215697D01*
X149564099Y-117269758D01*
X149606764Y-117325088D01*
X149612743Y-117394702D01*
X149580137Y-117456497D01*
X149519298Y-117490854D01*
X149491213Y-117494076D01*
X148479741Y-117494076D01*
X148412702Y-117474391D01*
X148366947Y-117421587D01*
X148357003Y-117352429D01*
X148386028Y-117288873D01*
X148406853Y-117269759D01*
X148481264Y-117215697D01*
X148612098Y-117084863D01*
X148720855Y-116935172D01*
X148804856Y-116770311D01*
X148862032Y-116594340D01*
X148863004Y-116588202D01*
X148892932Y-116525070D01*
X148952243Y-116488138D01*
X149022106Y-116489134D01*
G37*
%TD.AperFunction*%
%TA.AperFunction,Conductor*%
G36*
X154102106Y-116489134D02*
G01*
X154160339Y-116527743D01*
X154187949Y-116588202D01*
X154188904Y-116594224D01*
X154188923Y-116594345D01*
X154246096Y-116770308D01*
X154246097Y-116770311D01*
X154329967Y-116934913D01*
X154330099Y-116935172D01*
X154438856Y-117084863D01*
X154569690Y-117215697D01*
X154644099Y-117269758D01*
X154686764Y-117325088D01*
X154692743Y-117394702D01*
X154660137Y-117456497D01*
X154599298Y-117490854D01*
X154571213Y-117494076D01*
X153559741Y-117494076D01*
X153492702Y-117474391D01*
X153446947Y-117421587D01*
X153437003Y-117352429D01*
X153466028Y-117288873D01*
X153486853Y-117269759D01*
X153561264Y-117215697D01*
X153692098Y-117084863D01*
X153800855Y-116935172D01*
X153884856Y-116770311D01*
X153942032Y-116594340D01*
X153943004Y-116588202D01*
X153972932Y-116525070D01*
X154032243Y-116488138D01*
X154102106Y-116489134D01*
G37*
%TD.AperFunction*%
%TA.AperFunction,Conductor*%
G36*
X156642106Y-116489134D02*
G01*
X156700339Y-116527743D01*
X156727949Y-116588202D01*
X156728904Y-116594224D01*
X156728923Y-116594345D01*
X156786096Y-116770308D01*
X156786097Y-116770311D01*
X156869967Y-116934913D01*
X156870099Y-116935172D01*
X156978856Y-117084863D01*
X157109690Y-117215697D01*
X157184099Y-117269758D01*
X157226764Y-117325088D01*
X157232743Y-117394702D01*
X157200137Y-117456497D01*
X157139298Y-117490854D01*
X157111213Y-117494076D01*
X156099741Y-117494076D01*
X156032702Y-117474391D01*
X155986947Y-117421587D01*
X155977003Y-117352429D01*
X156006028Y-117288873D01*
X156026853Y-117269759D01*
X156101264Y-117215697D01*
X156232098Y-117084863D01*
X156340855Y-116935172D01*
X156424856Y-116770311D01*
X156482032Y-116594340D01*
X156483004Y-116588202D01*
X156512932Y-116525070D01*
X156572243Y-116488138D01*
X156642106Y-116489134D01*
G37*
%TD.AperFunction*%
%TA.AperFunction,Conductor*%
G36*
X163964828Y-87520814D02*
G01*
X164164968Y-87535130D01*
X164182473Y-87537647D01*
X164374198Y-87579356D01*
X164391172Y-87584339D01*
X164575022Y-87652913D01*
X164591097Y-87660254D01*
X164763315Y-87754294D01*
X164778194Y-87763856D01*
X164935268Y-87881441D01*
X164948639Y-87893027D01*
X165087382Y-88031771D01*
X165098967Y-88045142D01*
X165215134Y-88200325D01*
X165216546Y-88202210D01*
X165226109Y-88217090D01*
X165239302Y-88241251D01*
X165320144Y-88389302D01*
X165327494Y-88405396D01*
X165396062Y-88589235D01*
X165401046Y-88606210D01*
X165442752Y-88797932D01*
X165445270Y-88815443D01*
X165448672Y-88862999D01*
X165455184Y-88954054D01*
X165459599Y-89015771D01*
X165459915Y-89024618D01*
X165459915Y-117370076D01*
X165440230Y-117437115D01*
X165387426Y-117482870D01*
X165335915Y-117494076D01*
X163719741Y-117494076D01*
X163652702Y-117474391D01*
X163606947Y-117421587D01*
X163597003Y-117352429D01*
X163626028Y-117288873D01*
X163646853Y-117269759D01*
X163721264Y-117215697D01*
X163852098Y-117084863D01*
X163960855Y-116935172D01*
X164044856Y-116770311D01*
X164102032Y-116594340D01*
X164130977Y-116411590D01*
X164130977Y-113576562D01*
X164102032Y-113393812D01*
X164069132Y-113292556D01*
X164044857Y-113217843D01*
X164044856Y-113217840D01*
X163960854Y-113052979D01*
X163852098Y-112903289D01*
X163721264Y-112772455D01*
X163684653Y-112745855D01*
X163663419Y-112730427D01*
X163620753Y-112675097D01*
X163612305Y-112630110D01*
X163612305Y-109924498D01*
X163631990Y-109857459D01*
X163684794Y-109811704D01*
X163736305Y-109800498D01*
X163740417Y-109800498D01*
X163740423Y-109800498D01*
X163843212Y-109789998D01*
X164009749Y-109734813D01*
X164159071Y-109642711D01*
X164283127Y-109518655D01*
X164375229Y-109369333D01*
X164430414Y-109202796D01*
X164440915Y-109100008D01*
X164440914Y-105999991D01*
X164433262Y-105925087D01*
X164430414Y-105897202D01*
X164430413Y-105897199D01*
X164412436Y-105842948D01*
X164375229Y-105730665D01*
X164283127Y-105581343D01*
X164159071Y-105457287D01*
X164009749Y-105365185D01*
X163843212Y-105310000D01*
X163843210Y-105309999D01*
X163740425Y-105299499D01*
X162340413Y-105299499D01*
X162340396Y-105299500D01*
X162237618Y-105309999D01*
X162237615Y-105310000D01*
X162071083Y-105365184D01*
X162071078Y-105365186D01*
X161921757Y-105457288D01*
X161797704Y-105581341D01*
X161740039Y-105674832D01*
X161688091Y-105721556D01*
X161619128Y-105732779D01*
X161555046Y-105704935D01*
X161516190Y-105646866D01*
X161510500Y-105609735D01*
X161510500Y-105516079D01*
X161481659Y-105371092D01*
X161481658Y-105371091D01*
X161481658Y-105371087D01*
X161463396Y-105326999D01*
X161425087Y-105234511D01*
X161425080Y-105234498D01*
X161342951Y-105111584D01*
X161342948Y-105111580D01*
X161272837Y-105041469D01*
X161239352Y-104980146D01*
X161244336Y-104910454D01*
X161286208Y-104854521D01*
X161313066Y-104839227D01*
X161325290Y-104834164D01*
X161331344Y-104831656D01*
X161395489Y-104805087D01*
X161395492Y-104805085D01*
X161395495Y-104805084D01*
X161518416Y-104722951D01*
X161622951Y-104618416D01*
X161649244Y-104579064D01*
X161702855Y-104534259D01*
X161772180Y-104525550D01*
X161835208Y-104555704D01*
X161840028Y-104560273D01*
X161922069Y-104642314D01*
X162071290Y-104734355D01*
X162071295Y-104734357D01*
X162237717Y-104789504D01*
X162237724Y-104789505D01*
X162340434Y-104799998D01*
X162790414Y-104799998D01*
X163290415Y-104799998D01*
X163740387Y-104799998D01*
X163740401Y-104799997D01*
X163843112Y-104789504D01*
X164009534Y-104734357D01*
X164009539Y-104734355D01*
X164158760Y-104642314D01*
X164282730Y-104518344D01*
X164374771Y-104369123D01*
X164374773Y-104369118D01*
X164429920Y-104202696D01*
X164429921Y-104202689D01*
X164440414Y-104099985D01*
X164440415Y-104099972D01*
X164440415Y-102799999D01*
X163290415Y-102799999D01*
X163290415Y-104799998D01*
X162790414Y-104799998D01*
X162790415Y-104799997D01*
X162790415Y-102799999D01*
X161640415Y-102799999D01*
X161640415Y-103406578D01*
X161620730Y-103473618D01*
X161567926Y-103519372D01*
X161498768Y-103529316D01*
X161447524Y-103509680D01*
X161395501Y-103474919D01*
X161395488Y-103474912D01*
X161258917Y-103418343D01*
X161258907Y-103418340D01*
X161113920Y-103389500D01*
X161113918Y-103389500D01*
X160966082Y-103389500D01*
X160966080Y-103389500D01*
X160821092Y-103418340D01*
X160821082Y-103418343D01*
X160684511Y-103474912D01*
X160684498Y-103474919D01*
X160561584Y-103557048D01*
X160561580Y-103557051D01*
X160457051Y-103661580D01*
X160457048Y-103661584D01*
X160374919Y-103784498D01*
X160374912Y-103784511D01*
X160318343Y-103921082D01*
X160318340Y-103921092D01*
X160289500Y-104066079D01*
X160289500Y-104066082D01*
X160289500Y-104213918D01*
X160289500Y-104213920D01*
X160289499Y-104213920D01*
X160318340Y-104358907D01*
X160318343Y-104358917D01*
X160374912Y-104495488D01*
X160374919Y-104495501D01*
X160457048Y-104618415D01*
X160457051Y-104618419D01*
X160527162Y-104688530D01*
X160560647Y-104749853D01*
X160555663Y-104819545D01*
X160513791Y-104875478D01*
X160486934Y-104890772D01*
X160404508Y-104924914D01*
X160404498Y-104924919D01*
X160281584Y-105007048D01*
X160281580Y-105007051D01*
X160177051Y-105111580D01*
X160177048Y-105111584D01*
X160094919Y-105234498D01*
X160094911Y-105234513D01*
X160088309Y-105250453D01*
X160075766Y-105266016D01*
X160067462Y-105284202D01*
X160054291Y-105292666D01*
X160044468Y-105304856D01*
X160025500Y-105311168D01*
X160008684Y-105321976D01*
X159981120Y-105325939D01*
X159978173Y-105326920D01*
X159973749Y-105326999D01*
X159813343Y-105326999D01*
X159746304Y-105307314D01*
X159707804Y-105268096D01*
X159696922Y-105250453D01*
X159648127Y-105171343D01*
X159524071Y-105047287D01*
X159520757Y-105045242D01*
X159518961Y-105043247D01*
X159518404Y-105042806D01*
X159518479Y-105042710D01*
X159474033Y-104993296D01*
X159462812Y-104924333D01*
X159490655Y-104860251D01*
X159520763Y-104834164D01*
X159523757Y-104832317D01*
X159647730Y-104708344D01*
X159739771Y-104559123D01*
X159739773Y-104559118D01*
X159794920Y-104392696D01*
X159794921Y-104392689D01*
X159805414Y-104289985D01*
X159805415Y-104289972D01*
X159805415Y-104152499D01*
X157355416Y-104152499D01*
X157355416Y-104289985D01*
X157365909Y-104392696D01*
X157421056Y-104559118D01*
X157421058Y-104559123D01*
X157513099Y-104708344D01*
X157637070Y-104832315D01*
X157637074Y-104832318D01*
X157640071Y-104834167D01*
X157641694Y-104835971D01*
X157642738Y-104836797D01*
X157642596Y-104836975D01*
X157686796Y-104886115D01*
X157698017Y-104955078D01*
X157670174Y-105019160D01*
X157640076Y-105045240D01*
X157636764Y-105047282D01*
X157636758Y-105047287D01*
X157512704Y-105171341D01*
X157453026Y-105268096D01*
X157401078Y-105314820D01*
X157347487Y-105326999D01*
X157248844Y-105326999D01*
X157123176Y-105351996D01*
X157123170Y-105351998D01*
X157004789Y-105401033D01*
X156898241Y-105472225D01*
X156898240Y-105472226D01*
X156282595Y-106087872D01*
X156221272Y-106121357D01*
X156151580Y-106116373D01*
X156095647Y-106074501D01*
X156071230Y-106009037D01*
X156070914Y-106000191D01*
X156070914Y-105822497D01*
X156070913Y-105822480D01*
X156060414Y-105719702D01*
X156060413Y-105719699D01*
X156047618Y-105681087D01*
X156005229Y-105553165D01*
X155913127Y-105403843D01*
X155789071Y-105279787D01*
X155639749Y-105187685D01*
X155473212Y-105132500D01*
X155473210Y-105132499D01*
X155370431Y-105121999D01*
X155370424Y-105121999D01*
X154328027Y-105121999D01*
X154260988Y-105102314D01*
X154215233Y-105049510D01*
X154213466Y-105045452D01*
X154155085Y-104904507D01*
X154155080Y-104904498D01*
X154095873Y-104815889D01*
X154074995Y-104749212D01*
X154093479Y-104681831D01*
X154145458Y-104635141D01*
X154198971Y-104622998D01*
X155370423Y-104622998D01*
X155473212Y-104612498D01*
X155639749Y-104557313D01*
X155789071Y-104465211D01*
X155913127Y-104341155D01*
X156005229Y-104191833D01*
X156060414Y-104025296D01*
X156070915Y-103922508D01*
X156070915Y-103515012D01*
X157355415Y-103515012D01*
X157355415Y-103652499D01*
X158330415Y-103652499D01*
X158830415Y-103652499D01*
X159805414Y-103652499D01*
X159805414Y-103515027D01*
X159805413Y-103515012D01*
X159794920Y-103412301D01*
X159739773Y-103245879D01*
X159739771Y-103245874D01*
X159647730Y-103096653D01*
X159523760Y-102972683D01*
X159374539Y-102880642D01*
X159374534Y-102880640D01*
X159208112Y-102825493D01*
X159208105Y-102825492D01*
X159105401Y-102814999D01*
X158830415Y-102814999D01*
X158830415Y-103652499D01*
X158330415Y-103652499D01*
X158330415Y-102814999D01*
X158055444Y-102814999D01*
X158055427Y-102815000D01*
X157952717Y-102825493D01*
X157786295Y-102880640D01*
X157786290Y-102880642D01*
X157637069Y-102972683D01*
X157513099Y-103096653D01*
X157421058Y-103245874D01*
X157421056Y-103245879D01*
X157365909Y-103412301D01*
X157365908Y-103412308D01*
X157355415Y-103515012D01*
X156070915Y-103515012D01*
X156070915Y-103364500D01*
X156090600Y-103297461D01*
X156143404Y-103251706D01*
X156188354Y-103241927D01*
X156188273Y-103241097D01*
X156194335Y-103240500D01*
X156291877Y-103221096D01*
X156339328Y-103211658D01*
X156475910Y-103155084D01*
X156598831Y-103072951D01*
X156703366Y-102968416D01*
X156785499Y-102845495D01*
X156793785Y-102825492D01*
X156842071Y-102708917D01*
X156842073Y-102708913D01*
X156870915Y-102563918D01*
X156870915Y-102416082D01*
X156870915Y-102416079D01*
X156842074Y-102271092D01*
X156842073Y-102271091D01*
X156842073Y-102271087D01*
X156842071Y-102271082D01*
X156785502Y-102134511D01*
X156785495Y-102134498D01*
X156703366Y-102011584D01*
X156703363Y-102011580D01*
X156598834Y-101907051D01*
X156598830Y-101907048D01*
X156475916Y-101824919D01*
X156475903Y-101824912D01*
X156339332Y-101768343D01*
X156339322Y-101768340D01*
X156194335Y-101739499D01*
X156188273Y-101738903D01*
X156188402Y-101737587D01*
X156127875Y-101719815D01*
X156082120Y-101667011D01*
X156070914Y-101615500D01*
X156070914Y-100973920D01*
X159509499Y-100973920D01*
X159538340Y-101118907D01*
X159538343Y-101118917D01*
X159594912Y-101255488D01*
X159594919Y-101255501D01*
X159677048Y-101378415D01*
X159677051Y-101378419D01*
X159781580Y-101482948D01*
X159781584Y-101482951D01*
X159904498Y-101565080D01*
X159904511Y-101565087D01*
X160016947Y-101611659D01*
X160041087Y-101621658D01*
X160041091Y-101621658D01*
X160041092Y-101621659D01*
X160186079Y-101650500D01*
X160186082Y-101650500D01*
X160333920Y-101650500D01*
X160431462Y-101631096D01*
X160478913Y-101621658D01*
X160615495Y-101565084D01*
X160738416Y-101482951D01*
X160842951Y-101378416D01*
X160925084Y-101255495D01*
X160981658Y-101118913D01*
X160996079Y-101046415D01*
X161005307Y-101000025D01*
X161640415Y-101000025D01*
X161640415Y-102299999D01*
X162790415Y-102299999D01*
X163290415Y-102299999D01*
X164440414Y-102299999D01*
X164440414Y-101000027D01*
X164440413Y-101000010D01*
X164429920Y-100897301D01*
X164374773Y-100730879D01*
X164374771Y-100730874D01*
X164282730Y-100581653D01*
X164158760Y-100457683D01*
X164009539Y-100365642D01*
X164009534Y-100365640D01*
X163843112Y-100310493D01*
X163843105Y-100310492D01*
X163740401Y-100299999D01*
X163290415Y-100299999D01*
X163290415Y-102299999D01*
X162790415Y-102299999D01*
X162790415Y-100299999D01*
X162340443Y-100299999D01*
X162340427Y-100300000D01*
X162237717Y-100310493D01*
X162071295Y-100365640D01*
X162071290Y-100365642D01*
X161922069Y-100457683D01*
X161798099Y-100581653D01*
X161706058Y-100730874D01*
X161706056Y-100730879D01*
X161650909Y-100897301D01*
X161650908Y-100897308D01*
X161640416Y-101000010D01*
X161640415Y-101000025D01*
X161005307Y-101000025D01*
X161010499Y-100973924D01*
X161010500Y-100973920D01*
X161010500Y-100826079D01*
X160981659Y-100681092D01*
X160981658Y-100681091D01*
X160981658Y-100681087D01*
X160977514Y-100671082D01*
X160925087Y-100544511D01*
X160925080Y-100544498D01*
X160842951Y-100421584D01*
X160842948Y-100421580D01*
X160738419Y-100317051D01*
X160738415Y-100317048D01*
X160615501Y-100234919D01*
X160615488Y-100234912D01*
X160478917Y-100178343D01*
X160478907Y-100178340D01*
X160333920Y-100149500D01*
X160333918Y-100149500D01*
X160186082Y-100149500D01*
X160186080Y-100149500D01*
X160041092Y-100178340D01*
X160041082Y-100178343D01*
X159904511Y-100234912D01*
X159904498Y-100234919D01*
X159781584Y-100317048D01*
X159781580Y-100317051D01*
X159677051Y-100421580D01*
X159677048Y-100421584D01*
X159594919Y-100544498D01*
X159594912Y-100544511D01*
X159538343Y-100681082D01*
X159538340Y-100681092D01*
X159509500Y-100826079D01*
X159509500Y-100826082D01*
X159509500Y-100973918D01*
X159509500Y-100973920D01*
X159509499Y-100973920D01*
X156070914Y-100973920D01*
X156070914Y-100822497D01*
X156070913Y-100822480D01*
X156060414Y-100719702D01*
X156060413Y-100719699D01*
X156047618Y-100681087D01*
X156005229Y-100553165D01*
X155913127Y-100403843D01*
X155789071Y-100279787D01*
X155696303Y-100222568D01*
X155639751Y-100187686D01*
X155639746Y-100187684D01*
X155638277Y-100187197D01*
X155473212Y-100132500D01*
X155473210Y-100132499D01*
X155432311Y-100128321D01*
X155367620Y-100101924D01*
X155327469Y-100044743D01*
X155320915Y-100004963D01*
X155320915Y-99203839D01*
X155334031Y-99151480D01*
X155333168Y-99151123D01*
X155392071Y-99008916D01*
X155392073Y-99008912D01*
X155420915Y-98863917D01*
X155420915Y-98790343D01*
X158460415Y-98790343D01*
X158466816Y-98849871D01*
X158466818Y-98849878D01*
X158517060Y-98984585D01*
X158517064Y-98984592D01*
X158603224Y-99099686D01*
X158603227Y-99099689D01*
X158718321Y-99185849D01*
X158718328Y-99185853D01*
X158853035Y-99236095D01*
X158853042Y-99236097D01*
X158912570Y-99242498D01*
X158912587Y-99242499D01*
X159410415Y-99242499D01*
X159410415Y-98192499D01*
X159910415Y-98192499D01*
X159910415Y-99242499D01*
X160275410Y-99242499D01*
X160342449Y-99262184D01*
X160388204Y-99314988D01*
X160397026Y-99342303D01*
X160398339Y-99348903D01*
X160398342Y-99348915D01*
X160454912Y-99485488D01*
X160454919Y-99485501D01*
X160537048Y-99608415D01*
X160537051Y-99608419D01*
X160641580Y-99712948D01*
X160641584Y-99712951D01*
X160764498Y-99795080D01*
X160764511Y-99795087D01*
X160874149Y-99840500D01*
X160901087Y-99851658D01*
X160901091Y-99851658D01*
X160901092Y-99851659D01*
X161046079Y-99880500D01*
X161046082Y-99880500D01*
X161193920Y-99880500D01*
X161291462Y-99861096D01*
X161338913Y-99851658D01*
X161475495Y-99795084D01*
X161598416Y-99712951D01*
X161702951Y-99608416D01*
X161785084Y-99485495D01*
X161841658Y-99348913D01*
X161842870Y-99342815D01*
X161875249Y-99280903D01*
X161935962Y-99246324D01*
X161964480Y-99242998D01*
X163408287Y-99242998D01*
X163467898Y-99236590D01*
X163602746Y-99186295D01*
X163717961Y-99100045D01*
X163804211Y-98984830D01*
X163854506Y-98849982D01*
X163860915Y-98790372D01*
X163860915Y-98666999D01*
X163880600Y-98599960D01*
X163933404Y-98554205D01*
X163984915Y-98542999D01*
X164239470Y-98542999D01*
X164239472Y-98542999D01*
X164392199Y-98502076D01*
X164529131Y-98423019D01*
X164640935Y-98311215D01*
X164719992Y-98174283D01*
X164760915Y-98021556D01*
X164760915Y-94719766D01*
X164780600Y-94652727D01*
X164781813Y-94650875D01*
X164825495Y-94585500D01*
X164825495Y-94585499D01*
X164825499Y-94585494D01*
X164882073Y-94448912D01*
X164901293Y-94352288D01*
X164910915Y-94303919D01*
X164910915Y-94156078D01*
X164882074Y-94011091D01*
X164882073Y-94011090D01*
X164882073Y-94011086D01*
X164825499Y-93874504D01*
X164781811Y-93809120D01*
X164760935Y-93742443D01*
X164760915Y-93740231D01*
X164760915Y-90663444D01*
X164760915Y-90663442D01*
X164719992Y-90510715D01*
X164705231Y-90485148D01*
X164640939Y-90373789D01*
X164640933Y-90373781D01*
X164529132Y-90261980D01*
X164529124Y-90261974D01*
X164392205Y-90182925D01*
X164392201Y-90182923D01*
X164392199Y-90182922D01*
X164239472Y-90141999D01*
X164239471Y-90141999D01*
X163984914Y-90141999D01*
X163917875Y-90122314D01*
X163872120Y-90069510D01*
X163860914Y-90017999D01*
X163860914Y-89894628D01*
X163860913Y-89894622D01*
X163860912Y-89894615D01*
X163854506Y-89835016D01*
X163848499Y-89818911D01*
X163804212Y-89700170D01*
X163804208Y-89700163D01*
X163717962Y-89584954D01*
X163717959Y-89584951D01*
X163602750Y-89498705D01*
X163602743Y-89498701D01*
X163467897Y-89448407D01*
X163467898Y-89448407D01*
X163408298Y-89442000D01*
X163408296Y-89441999D01*
X163408288Y-89441999D01*
X163408279Y-89441999D01*
X161912544Y-89441999D01*
X161912538Y-89442000D01*
X161852931Y-89448407D01*
X161718086Y-89498701D01*
X161718079Y-89498705D01*
X161602870Y-89584951D01*
X161602867Y-89584954D01*
X161516621Y-89700163D01*
X161516617Y-89700170D01*
X161466323Y-89835016D01*
X161461254Y-89882169D01*
X161459916Y-89894622D01*
X161459915Y-89894634D01*
X161459915Y-91590369D01*
X161459916Y-91590375D01*
X161466323Y-91649982D01*
X161516617Y-91784827D01*
X161516621Y-91784834D01*
X161602867Y-91900043D01*
X161602870Y-91900046D01*
X161718079Y-91986292D01*
X161718086Y-91986296D01*
X161852932Y-92036590D01*
X161852931Y-92036590D01*
X161859859Y-92037334D01*
X161912542Y-92042999D01*
X163408287Y-92042998D01*
X163422657Y-92041453D01*
X163491416Y-92053856D01*
X163542555Y-92101465D01*
X163559915Y-92164742D01*
X163559915Y-93740231D01*
X163540230Y-93807270D01*
X163539019Y-93809119D01*
X163495331Y-93874504D01*
X163495329Y-93874507D01*
X163438758Y-94011081D01*
X163438755Y-94011091D01*
X163409915Y-94156078D01*
X163409915Y-94156081D01*
X163409915Y-94303917D01*
X163409915Y-94303919D01*
X163409914Y-94303919D01*
X163438755Y-94448906D01*
X163438758Y-94448916D01*
X163495327Y-94585487D01*
X163495334Y-94585500D01*
X163539017Y-94650875D01*
X163559895Y-94717552D01*
X163559915Y-94719766D01*
X163559915Y-96520255D01*
X163540230Y-96587294D01*
X163487426Y-96633049D01*
X163422662Y-96643544D01*
X163408288Y-96641999D01*
X163408279Y-96641999D01*
X161912544Y-96641999D01*
X161912538Y-96642000D01*
X161852931Y-96648407D01*
X161718086Y-96698701D01*
X161718079Y-96698705D01*
X161602870Y-96784951D01*
X161602867Y-96784954D01*
X161516621Y-96900163D01*
X161516617Y-96900170D01*
X161466323Y-97035016D01*
X161459916Y-97094615D01*
X161459915Y-97094634D01*
X161459915Y-98281316D01*
X161440230Y-98348355D01*
X161387426Y-98394110D01*
X161318268Y-98404054D01*
X161311723Y-98402933D01*
X161193920Y-98379500D01*
X161193918Y-98379500D01*
X161046082Y-98379500D01*
X161046081Y-98379500D01*
X161008604Y-98386954D01*
X160939013Y-98380725D01*
X160883836Y-98337861D01*
X160860593Y-98271971D01*
X160860415Y-98265336D01*
X160860415Y-98192499D01*
X159910415Y-98192499D01*
X159410415Y-98192499D01*
X158460415Y-98192499D01*
X158460415Y-98790343D01*
X155420915Y-98790343D01*
X155420915Y-98716081D01*
X155420915Y-98716078D01*
X155392074Y-98571091D01*
X155392073Y-98571090D01*
X155392073Y-98571086D01*
X155385081Y-98554205D01*
X155335502Y-98434510D01*
X155335495Y-98434497D01*
X155253366Y-98311583D01*
X155253363Y-98311579D01*
X155148834Y-98207050D01*
X155148830Y-98207047D01*
X155025916Y-98124918D01*
X155025903Y-98124911D01*
X154889332Y-98068342D01*
X154889322Y-98068339D01*
X154744335Y-98039499D01*
X154744333Y-98039499D01*
X154596497Y-98039499D01*
X154596495Y-98039499D01*
X154451507Y-98068339D01*
X154451497Y-98068342D01*
X154314926Y-98124911D01*
X154314913Y-98124918D01*
X154191999Y-98207047D01*
X154191995Y-98207050D01*
X154087466Y-98311579D01*
X154087463Y-98311583D01*
X154005334Y-98434497D01*
X154005327Y-98434510D01*
X153948758Y-98571081D01*
X153948755Y-98571091D01*
X153919915Y-98716078D01*
X153919915Y-98716081D01*
X153919915Y-98863917D01*
X153919915Y-98863919D01*
X153919914Y-98863919D01*
X153948755Y-99008906D01*
X153948758Y-99008916D01*
X154007662Y-99151123D01*
X154006798Y-99151480D01*
X154019915Y-99203839D01*
X154019915Y-100004964D01*
X154000230Y-100072003D01*
X153947426Y-100117758D01*
X153908517Y-100128322D01*
X153867617Y-100132500D01*
X153867615Y-100132500D01*
X153701083Y-100187684D01*
X153701078Y-100187686D01*
X153551757Y-100279788D01*
X153427704Y-100403841D01*
X153335602Y-100553162D01*
X153335600Y-100553167D01*
X153331843Y-100564505D01*
X153280416Y-100719702D01*
X153280416Y-100719703D01*
X153280415Y-100719703D01*
X153269915Y-100822482D01*
X153269915Y-103922500D01*
X153269916Y-103922517D01*
X153280415Y-104025295D01*
X153280416Y-104025298D01*
X153332978Y-104183918D01*
X153335601Y-104191833D01*
X153425231Y-104337148D01*
X153443671Y-104404539D01*
X153422748Y-104471202D01*
X153369106Y-104515972D01*
X153343885Y-104523860D01*
X153271091Y-104538340D01*
X153271082Y-104538343D01*
X153134511Y-104594912D01*
X153134498Y-104594919D01*
X153011584Y-104677048D01*
X153011580Y-104677051D01*
X152907051Y-104781580D01*
X152907048Y-104781584D01*
X152824919Y-104904498D01*
X152824912Y-104904511D01*
X152768343Y-105041082D01*
X152768340Y-105041092D01*
X152739500Y-105186079D01*
X152739500Y-105186082D01*
X152739500Y-105333918D01*
X152739500Y-105333920D01*
X152739499Y-105333920D01*
X152768340Y-105478907D01*
X152768343Y-105478917D01*
X152824912Y-105615488D01*
X152824919Y-105615501D01*
X152907048Y-105738415D01*
X152907051Y-105738419D01*
X153011580Y-105842948D01*
X153011588Y-105842954D01*
X153134494Y-105925077D01*
X153134498Y-105925079D01*
X153134505Y-105925084D01*
X153134508Y-105925085D01*
X153134511Y-105925087D01*
X153193367Y-105949465D01*
X153247771Y-105993305D01*
X153269836Y-106059599D01*
X153269915Y-106064026D01*
X153269915Y-108922500D01*
X153269916Y-108922517D01*
X153280415Y-109025295D01*
X153280416Y-109025298D01*
X153329665Y-109173920D01*
X153335601Y-109191833D01*
X153427703Y-109341155D01*
X153551759Y-109465211D01*
X153701081Y-109557313D01*
X153807174Y-109592468D01*
X153864618Y-109632241D01*
X153891441Y-109696756D01*
X153889787Y-109734364D01*
X153883677Y-109765084D01*
X153879500Y-109786082D01*
X153879500Y-109933918D01*
X153879500Y-109933920D01*
X153879499Y-109933920D01*
X153908340Y-110078907D01*
X153908343Y-110078917D01*
X153964912Y-110215488D01*
X153964919Y-110215501D01*
X154012432Y-110286608D01*
X154033310Y-110353285D01*
X154014826Y-110420665D01*
X153962847Y-110467356D01*
X153909330Y-110479499D01*
X151781223Y-110479499D01*
X151714184Y-110459814D01*
X151693542Y-110443180D01*
X148947234Y-107696872D01*
X148913749Y-107635549D01*
X148910915Y-107609191D01*
X148910915Y-99574499D01*
X148930600Y-99507460D01*
X148983404Y-99461705D01*
X149034915Y-99450499D01*
X152364486Y-99450499D01*
X152449030Y-99433681D01*
X152490159Y-99425500D01*
X152608542Y-99376464D01*
X152608547Y-99376460D01*
X152608550Y-99376459D01*
X152623506Y-99366466D01*
X152623508Y-99366465D01*
X152700549Y-99314988D01*
X152715084Y-99305276D01*
X153489341Y-98531019D01*
X153560529Y-98424477D01*
X153583781Y-98368342D01*
X153609565Y-98306094D01*
X153634564Y-98180419D01*
X153634564Y-97094654D01*
X158460415Y-97094654D01*
X158460415Y-97692499D01*
X159410415Y-97692499D01*
X159410415Y-96642499D01*
X158912570Y-96642499D01*
X158853042Y-96648900D01*
X158853035Y-96648902D01*
X158718328Y-96699144D01*
X158718321Y-96699148D01*
X158603227Y-96785308D01*
X158603224Y-96785311D01*
X158517064Y-96900405D01*
X158517060Y-96900412D01*
X158466818Y-97035119D01*
X158466816Y-97035126D01*
X158460415Y-97094654D01*
X153634564Y-97094654D01*
X153634564Y-96784500D01*
X153654249Y-96717461D01*
X153707053Y-96671706D01*
X153758564Y-96660500D01*
X153793920Y-96660500D01*
X153894462Y-96640500D01*
X153938913Y-96631658D01*
X154075495Y-96575084D01*
X154198416Y-96492951D01*
X154302951Y-96388416D01*
X154385084Y-96265495D01*
X154441658Y-96128913D01*
X154453278Y-96070499D01*
X154470500Y-95983920D01*
X154470500Y-95963920D01*
X159529499Y-95963920D01*
X159558340Y-96108907D01*
X159558343Y-96108917D01*
X159614912Y-96245488D01*
X159614919Y-96245501D01*
X159697048Y-96368415D01*
X159697051Y-96368419D01*
X159801580Y-96472948D01*
X159801588Y-96472954D01*
X159855305Y-96508847D01*
X159900111Y-96562459D01*
X159910415Y-96611949D01*
X159910415Y-97692499D01*
X160860415Y-97692499D01*
X160860415Y-97094671D01*
X160860414Y-97094654D01*
X160854013Y-97035126D01*
X160854011Y-97035119D01*
X160803769Y-96900412D01*
X160803765Y-96900405D01*
X160717605Y-96785311D01*
X160656660Y-96739687D01*
X160614790Y-96683753D01*
X160609806Y-96614061D01*
X160643292Y-96552739D01*
X160662074Y-96537324D01*
X160758416Y-96472951D01*
X160862951Y-96368416D01*
X160945084Y-96245495D01*
X160953836Y-96224367D01*
X160981604Y-96157328D01*
X161001658Y-96108913D01*
X161023374Y-95999743D01*
X161030500Y-95963920D01*
X161030500Y-95816079D01*
X161001659Y-95671092D01*
X161001658Y-95671091D01*
X161001658Y-95671087D01*
X160975698Y-95608413D01*
X160945087Y-95534511D01*
X160945080Y-95534498D01*
X160862951Y-95411584D01*
X160862948Y-95411580D01*
X160758419Y-95307051D01*
X160758415Y-95307048D01*
X160635501Y-95224919D01*
X160635488Y-95224912D01*
X160498917Y-95168343D01*
X160498907Y-95168340D01*
X160353920Y-95139500D01*
X160353918Y-95139500D01*
X160206082Y-95139500D01*
X160206080Y-95139500D01*
X160061092Y-95168340D01*
X160061082Y-95168343D01*
X159924511Y-95224912D01*
X159924498Y-95224919D01*
X159801584Y-95307048D01*
X159801580Y-95307051D01*
X159697051Y-95411580D01*
X159697048Y-95411584D01*
X159614919Y-95534498D01*
X159614912Y-95534511D01*
X159558343Y-95671082D01*
X159558340Y-95671092D01*
X159529500Y-95816079D01*
X159529500Y-95816082D01*
X159529500Y-95963918D01*
X159529500Y-95963920D01*
X159529499Y-95963920D01*
X154470500Y-95963920D01*
X154470500Y-95836080D01*
X154470121Y-95834175D01*
X154470121Y-95834172D01*
X154441659Y-95691092D01*
X154441658Y-95691091D01*
X154441658Y-95691087D01*
X154427411Y-95656691D01*
X154385087Y-95554511D01*
X154385080Y-95554498D01*
X154302951Y-95431584D01*
X154302948Y-95431580D01*
X154198419Y-95327051D01*
X154198415Y-95327048D01*
X154075501Y-95244919D01*
X154075488Y-95244912D01*
X153938917Y-95188343D01*
X153938907Y-95188340D01*
X153793920Y-95159500D01*
X153793918Y-95159500D01*
X153758564Y-95159500D01*
X153749878Y-95156949D01*
X153740917Y-95158238D01*
X153716876Y-95147259D01*
X153691525Y-95139815D01*
X153685597Y-95132974D01*
X153677361Y-95129213D01*
X153663071Y-95106978D01*
X153645770Y-95087011D01*
X153643482Y-95076496D01*
X153639587Y-95070435D01*
X153634564Y-95035500D01*
X153634564Y-94892697D01*
X153654249Y-94825658D01*
X153707053Y-94779903D01*
X153776211Y-94769959D01*
X153806012Y-94778134D01*
X153911087Y-94821658D01*
X153911091Y-94821658D01*
X153911092Y-94821659D01*
X154056079Y-94850500D01*
X154056082Y-94850500D01*
X154203920Y-94850500D01*
X154328804Y-94825658D01*
X154348913Y-94821658D01*
X154461353Y-94775084D01*
X154485488Y-94765087D01*
X154485488Y-94765086D01*
X154485495Y-94765084D01*
X154608416Y-94682951D01*
X154712951Y-94578416D01*
X154795084Y-94455495D01*
X154851658Y-94318913D01*
X154863758Y-94258086D01*
X154880500Y-94173920D01*
X159759499Y-94173920D01*
X159788340Y-94318907D01*
X159788343Y-94318917D01*
X159844912Y-94455488D01*
X159844919Y-94455501D01*
X159927048Y-94578415D01*
X159927051Y-94578419D01*
X160031580Y-94682948D01*
X160031584Y-94682951D01*
X160154498Y-94765080D01*
X160154511Y-94765087D01*
X160291082Y-94821656D01*
X160291087Y-94821658D01*
X160291091Y-94821658D01*
X160291092Y-94821659D01*
X160436079Y-94850500D01*
X160436082Y-94850500D01*
X160583920Y-94850500D01*
X160708804Y-94825658D01*
X160728913Y-94821658D01*
X160841353Y-94775084D01*
X160865488Y-94765087D01*
X160865488Y-94765086D01*
X160865495Y-94765084D01*
X160988416Y-94682951D01*
X161092951Y-94578416D01*
X161175084Y-94455495D01*
X161231658Y-94318913D01*
X161243758Y-94258086D01*
X161260500Y-94173920D01*
X161260500Y-94026079D01*
X161231659Y-93881092D01*
X161231658Y-93881091D01*
X161231658Y-93881087D01*
X161231656Y-93881082D01*
X161175087Y-93744511D01*
X161175080Y-93744498D01*
X161092951Y-93621584D01*
X161092948Y-93621580D01*
X160988419Y-93517051D01*
X160988415Y-93517048D01*
X160865501Y-93434919D01*
X160865488Y-93434912D01*
X160728917Y-93378343D01*
X160728907Y-93378340D01*
X160583920Y-93349500D01*
X160583918Y-93349500D01*
X160436082Y-93349500D01*
X160436080Y-93349500D01*
X160291092Y-93378340D01*
X160291082Y-93378343D01*
X160154511Y-93434912D01*
X160154498Y-93434919D01*
X160031584Y-93517048D01*
X160031580Y-93517051D01*
X159927051Y-93621580D01*
X159927048Y-93621584D01*
X159844919Y-93744498D01*
X159844912Y-93744511D01*
X159788343Y-93881082D01*
X159788340Y-93881092D01*
X159759500Y-94026079D01*
X159759500Y-94026082D01*
X159759500Y-94173918D01*
X159759500Y-94173920D01*
X159759499Y-94173920D01*
X154880500Y-94173920D01*
X154880500Y-94026079D01*
X154851659Y-93881092D01*
X154851658Y-93881091D01*
X154851658Y-93881087D01*
X154851656Y-93881082D01*
X154795087Y-93744511D01*
X154795080Y-93744498D01*
X154712951Y-93621584D01*
X154712948Y-93621580D01*
X154608419Y-93517051D01*
X154608415Y-93517048D01*
X154485501Y-93434919D01*
X154485488Y-93434912D01*
X154348917Y-93378343D01*
X154348907Y-93378340D01*
X154203920Y-93349499D01*
X154197858Y-93348903D01*
X154198101Y-93346427D01*
X154141525Y-93329815D01*
X154095770Y-93277011D01*
X154084564Y-93225500D01*
X154084563Y-92300823D01*
X154084562Y-92300805D01*
X154074063Y-92198028D01*
X154074062Y-92198025D01*
X154062647Y-92163576D01*
X154018878Y-92031491D01*
X153926776Y-91882169D01*
X153926771Y-91882164D01*
X153923273Y-91877740D01*
X153897130Y-91812946D01*
X153910167Y-91744303D01*
X153923273Y-91723910D01*
X153926767Y-91719489D01*
X153926776Y-91719481D01*
X154006428Y-91590343D01*
X158460415Y-91590343D01*
X158466816Y-91649871D01*
X158466818Y-91649878D01*
X158517060Y-91784585D01*
X158517064Y-91784592D01*
X158603224Y-91899686D01*
X158603227Y-91899689D01*
X158718321Y-91985849D01*
X158718328Y-91985853D01*
X158853035Y-92036095D01*
X158853042Y-92036097D01*
X158912570Y-92042498D01*
X158912587Y-92042499D01*
X159410415Y-92042499D01*
X159910415Y-92042499D01*
X160408243Y-92042499D01*
X160408259Y-92042498D01*
X160467787Y-92036097D01*
X160467794Y-92036095D01*
X160602501Y-91985853D01*
X160602508Y-91985849D01*
X160717602Y-91899689D01*
X160717605Y-91899686D01*
X160803765Y-91784592D01*
X160803769Y-91784585D01*
X160854011Y-91649878D01*
X160854013Y-91649871D01*
X160860414Y-91590343D01*
X160860415Y-91590326D01*
X160860415Y-90992499D01*
X159910415Y-90992499D01*
X159910415Y-92042499D01*
X159410415Y-92042499D01*
X159410415Y-90992499D01*
X158460415Y-90992499D01*
X158460415Y-91590343D01*
X154006428Y-91590343D01*
X154018878Y-91570159D01*
X154074063Y-91403622D01*
X154084564Y-91300834D01*
X154084563Y-90784560D01*
X154084563Y-90300823D01*
X154084562Y-90300805D01*
X154074063Y-90198028D01*
X154074062Y-90198025D01*
X154065695Y-90172774D01*
X154018878Y-90031491D01*
X153926776Y-89882169D01*
X153926771Y-89882164D01*
X153923273Y-89877740D01*
X153914864Y-89856899D01*
X153902320Y-89838254D01*
X153902043Y-89825124D01*
X153897130Y-89812946D01*
X153901322Y-89790869D01*
X153900850Y-89768400D01*
X153908456Y-89753306D01*
X153910167Y-89744303D01*
X153914834Y-89735994D01*
X153922084Y-89724172D01*
X153926776Y-89719481D01*
X154018878Y-89570159D01*
X154021618Y-89561889D01*
X154029114Y-89549668D01*
X154044833Y-89535457D01*
X154056901Y-89518035D01*
X154070234Y-89512494D01*
X154080944Y-89502813D01*
X154101853Y-89499356D01*
X154121422Y-89491225D01*
X154134816Y-89490499D01*
X155692509Y-89490499D01*
X155759548Y-89510184D01*
X155798047Y-89549401D01*
X155864312Y-89656834D01*
X155988368Y-89780890D01*
X156137690Y-89872992D01*
X156304227Y-89928177D01*
X156407015Y-89938678D01*
X157207032Y-89938677D01*
X157207040Y-89938676D01*
X157207043Y-89938676D01*
X157269958Y-89932249D01*
X157309821Y-89928177D01*
X157476358Y-89872992D01*
X157625680Y-89780890D01*
X157719699Y-89686870D01*
X157781018Y-89653388D01*
X157850710Y-89658372D01*
X157895058Y-89686873D01*
X157988678Y-89780493D01*
X158137899Y-89872534D01*
X158137904Y-89872536D01*
X158304326Y-89927683D01*
X158304334Y-89927684D01*
X158349016Y-89932249D01*
X158413708Y-89958644D01*
X158453860Y-90015824D01*
X158460415Y-90055607D01*
X158460415Y-90492499D01*
X160860415Y-90492499D01*
X160860415Y-89894671D01*
X160860414Y-89894654D01*
X160854013Y-89835126D01*
X160854011Y-89835119D01*
X160803769Y-89700412D01*
X160803765Y-89700405D01*
X160717605Y-89585311D01*
X160717602Y-89585308D01*
X160602508Y-89499148D01*
X160602501Y-89499144D01*
X160467794Y-89448902D01*
X160467787Y-89448900D01*
X160408259Y-89442499D01*
X160023462Y-89442499D01*
X159956423Y-89422814D01*
X159910668Y-89370010D01*
X159900104Y-89305897D01*
X159907023Y-89238166D01*
X159907024Y-89238151D01*
X159907024Y-88988178D01*
X158931024Y-88988178D01*
X158863985Y-88968493D01*
X158818230Y-88915689D01*
X158807024Y-88864178D01*
X158807024Y-88612178D01*
X158826709Y-88545139D01*
X158879513Y-88499384D01*
X158931024Y-88488178D01*
X159907023Y-88488178D01*
X159907023Y-88238206D01*
X159907022Y-88238191D01*
X159896529Y-88135480D01*
X159841382Y-87969058D01*
X159841380Y-87969053D01*
X159749339Y-87819832D01*
X159661687Y-87732180D01*
X159628202Y-87670857D01*
X159633186Y-87601165D01*
X159675058Y-87545232D01*
X159740522Y-87520815D01*
X159749368Y-87520499D01*
X163894519Y-87520499D01*
X163955982Y-87520499D01*
X163964828Y-87520814D01*
G37*
%TD.AperFunction*%
%TA.AperFunction,Conductor*%
G36*
X159769458Y-106764836D02*
G01*
X159813806Y-106793337D01*
X161075741Y-108055272D01*
X161075744Y-108055274D01*
X161075746Y-108055276D01*
X161116338Y-108082398D01*
X161161143Y-108136009D01*
X161169850Y-108205334D01*
X161139696Y-108268362D01*
X161080253Y-108305082D01*
X161047447Y-108309500D01*
X160926080Y-108309500D01*
X160781092Y-108338340D01*
X160781082Y-108338343D01*
X160644511Y-108394912D01*
X160644498Y-108394919D01*
X160521584Y-108477048D01*
X160521580Y-108477051D01*
X160417051Y-108581580D01*
X160417048Y-108581584D01*
X160334919Y-108704498D01*
X160334912Y-108704511D01*
X160278343Y-108841082D01*
X160278340Y-108841092D01*
X160249500Y-108986079D01*
X160249500Y-108986082D01*
X160249500Y-109133918D01*
X160249500Y-109133920D01*
X160249499Y-109133920D01*
X160278340Y-109278907D01*
X160278343Y-109278917D01*
X160334912Y-109415488D01*
X160334919Y-109415501D01*
X160417048Y-109538415D01*
X160417051Y-109538419D01*
X160521580Y-109642948D01*
X160521584Y-109642951D01*
X160644498Y-109725080D01*
X160644511Y-109725087D01*
X160781082Y-109781656D01*
X160781087Y-109781658D01*
X160781091Y-109781658D01*
X160781092Y-109781659D01*
X160926079Y-109810500D01*
X160926082Y-109810500D01*
X161073920Y-109810500D01*
X161195828Y-109786250D01*
X161218913Y-109781658D01*
X161355495Y-109725084D01*
X161478416Y-109642951D01*
X161582951Y-109538416D01*
X161593790Y-109522193D01*
X161647402Y-109477388D01*
X161716727Y-109468681D01*
X161779755Y-109498835D01*
X161794159Y-109514173D01*
X161797703Y-109518655D01*
X161921759Y-109642711D01*
X162071081Y-109734813D01*
X162226310Y-109786251D01*
X162283754Y-109826023D01*
X162310577Y-109890538D01*
X162311305Y-109903956D01*
X162311305Y-112173809D01*
X162291620Y-112240848D01*
X162238816Y-112286603D01*
X162169658Y-112296547D01*
X162118414Y-112276911D01*
X162085501Y-112254919D01*
X162085488Y-112254912D01*
X161948917Y-112198343D01*
X161948907Y-112198340D01*
X161803920Y-112169500D01*
X161803918Y-112169500D01*
X161656082Y-112169500D01*
X161656080Y-112169500D01*
X161511092Y-112198340D01*
X161511082Y-112198343D01*
X161374511Y-112254912D01*
X161374498Y-112254919D01*
X161251584Y-112337048D01*
X161251580Y-112337051D01*
X161147051Y-112441580D01*
X161147048Y-112441584D01*
X161067939Y-112559978D01*
X161014326Y-112604783D01*
X160945001Y-112613490D01*
X160908542Y-112601572D01*
X160866520Y-112580161D01*
X160866514Y-112580158D01*
X160690621Y-112523008D01*
X160665477Y-112519026D01*
X160665477Y-114870076D01*
X160645792Y-114937115D01*
X160592988Y-114982870D01*
X160541477Y-114994076D01*
X160289477Y-114994076D01*
X160222438Y-114974391D01*
X160176683Y-114921587D01*
X160165477Y-114870076D01*
X160165477Y-112519026D01*
X160165476Y-112519026D01*
X160140332Y-112523008D01*
X159964439Y-112580158D01*
X159964433Y-112580160D01*
X159799639Y-112664128D01*
X159650022Y-112772830D01*
X159650017Y-112772834D01*
X159519235Y-112903616D01*
X159519231Y-112903621D01*
X159410529Y-113053238D01*
X159326561Y-113218032D01*
X159326560Y-113218035D01*
X159269410Y-113393926D01*
X159268203Y-113401551D01*
X159238271Y-113464685D01*
X159178958Y-113501614D01*
X159109096Y-113500614D01*
X159050864Y-113462002D01*
X159023256Y-113401546D01*
X159022032Y-113393812D01*
X158989132Y-113292556D01*
X158964857Y-113217843D01*
X158964856Y-113217840D01*
X158880854Y-113052979D01*
X158772098Y-112903289D01*
X158641264Y-112772455D01*
X158604653Y-112745855D01*
X158582029Y-112729417D01*
X158539363Y-112674087D01*
X158530915Y-112629100D01*
X158530915Y-112125927D01*
X158505917Y-112000260D01*
X158505916Y-112000259D01*
X158505916Y-112000255D01*
X158456880Y-111881872D01*
X158456878Y-111881869D01*
X158441207Y-111858415D01*
X158441206Y-111858415D01*
X158385691Y-111775329D01*
X158385689Y-111775327D01*
X158385687Y-111775324D01*
X157544283Y-110933920D01*
X159519499Y-110933920D01*
X159548340Y-111078907D01*
X159548343Y-111078917D01*
X159604912Y-111215488D01*
X159604919Y-111215501D01*
X159687048Y-111338415D01*
X159687051Y-111338419D01*
X159791580Y-111442948D01*
X159791584Y-111442951D01*
X159914498Y-111525080D01*
X159914511Y-111525087D01*
X160051082Y-111581656D01*
X160051087Y-111581658D01*
X160051091Y-111581658D01*
X160051092Y-111581659D01*
X160196079Y-111610500D01*
X160196082Y-111610500D01*
X160343920Y-111610500D01*
X160441462Y-111591096D01*
X160488913Y-111581658D01*
X160625495Y-111525084D01*
X160748416Y-111442951D01*
X160852951Y-111338416D01*
X160935084Y-111215495D01*
X160991658Y-111078913D01*
X161001096Y-111031462D01*
X161020500Y-110933920D01*
X161020500Y-110786079D01*
X160991659Y-110641092D01*
X160991658Y-110641091D01*
X160991658Y-110641087D01*
X160984881Y-110624725D01*
X160935087Y-110504511D01*
X160935080Y-110504498D01*
X160852951Y-110381584D01*
X160852948Y-110381580D01*
X160748419Y-110277051D01*
X160748415Y-110277048D01*
X160625501Y-110194919D01*
X160625488Y-110194912D01*
X160488917Y-110138343D01*
X160488907Y-110138340D01*
X160343920Y-110109500D01*
X160343918Y-110109500D01*
X160196082Y-110109500D01*
X160196080Y-110109500D01*
X160051092Y-110138340D01*
X160051082Y-110138343D01*
X159914511Y-110194912D01*
X159914498Y-110194919D01*
X159791584Y-110277048D01*
X159791580Y-110277051D01*
X159687051Y-110381580D01*
X159687048Y-110381584D01*
X159604919Y-110504498D01*
X159604912Y-110504511D01*
X159548343Y-110641082D01*
X159548340Y-110641092D01*
X159519500Y-110786079D01*
X159519500Y-110786082D01*
X159519500Y-110933918D01*
X159519500Y-110933920D01*
X159519499Y-110933920D01*
X157544283Y-110933920D01*
X157235088Y-110624725D01*
X157141139Y-110561951D01*
X157128542Y-110553534D01*
X157010159Y-110504498D01*
X157010153Y-110504496D01*
X156884486Y-110479499D01*
X156884484Y-110479499D01*
X155350670Y-110479499D01*
X155283631Y-110459814D01*
X155237876Y-110407010D01*
X155227932Y-110337852D01*
X155247568Y-110286608D01*
X155295080Y-110215501D01*
X155295080Y-110215500D01*
X155295084Y-110215495D01*
X155351658Y-110078913D01*
X155380500Y-109933918D01*
X155380500Y-109786082D01*
X155380500Y-109786079D01*
X155375011Y-109758486D01*
X155381238Y-109688895D01*
X155424100Y-109633717D01*
X155466825Y-109614751D01*
X155466785Y-109614628D01*
X155468039Y-109614212D01*
X155470685Y-109613038D01*
X155473198Y-109612499D01*
X155473212Y-109612498D01*
X155639749Y-109557313D01*
X155789071Y-109465211D01*
X155913127Y-109341155D01*
X156005229Y-109191833D01*
X156060414Y-109025296D01*
X156070915Y-108922508D01*
X156070914Y-108096073D01*
X156090598Y-108029035D01*
X156143402Y-107983280D01*
X156147441Y-107981521D01*
X156226042Y-107948964D01*
X156244343Y-107936736D01*
X156332584Y-107877776D01*
X157382024Y-106828334D01*
X157443345Y-106794851D01*
X157513036Y-106799835D01*
X157557384Y-106828336D01*
X157636759Y-106907711D01*
X157786081Y-106999813D01*
X157952618Y-107054998D01*
X158055406Y-107065499D01*
X159105423Y-107065498D01*
X159105431Y-107065497D01*
X159105434Y-107065497D01*
X159161717Y-107059747D01*
X159208212Y-107054998D01*
X159374749Y-106999813D01*
X159524071Y-106907711D01*
X159638447Y-106793334D01*
X159699766Y-106759852D01*
X159769458Y-106764836D01*
G37*
%TD.AperFunction*%
%TA.AperFunction,Conductor*%
G36*
X149063668Y-94699100D02*
G01*
X149071968Y-94699249D01*
X149103806Y-94714481D01*
X149194498Y-94775080D01*
X149194511Y-94775087D01*
X149328291Y-94830500D01*
X149331087Y-94831658D01*
X149331091Y-94831658D01*
X149331092Y-94831659D01*
X149476079Y-94860500D01*
X149476082Y-94860500D01*
X149623918Y-94860500D01*
X149650294Y-94855253D01*
X149719885Y-94861479D01*
X149775063Y-94904341D01*
X149798309Y-94970230D01*
X149798487Y-94976870D01*
X149798487Y-95339083D01*
X149798488Y-95339101D01*
X149808987Y-95441878D01*
X149808988Y-95441881D01*
X149860968Y-95598743D01*
X149864173Y-95608416D01*
X149956273Y-95757735D01*
X149956276Y-95757739D01*
X150050291Y-95851754D01*
X150083776Y-95913077D01*
X150078792Y-95982769D01*
X150050292Y-96027116D01*
X149956669Y-96120739D01*
X149864630Y-96269957D01*
X149864628Y-96269962D01*
X149809481Y-96436384D01*
X149809480Y-96436391D01*
X149798987Y-96539095D01*
X149798987Y-96689082D01*
X150874987Y-96689082D01*
X150942026Y-96708767D01*
X150987781Y-96761571D01*
X150998987Y-96813082D01*
X150998987Y-97065082D01*
X150979302Y-97132121D01*
X150926498Y-97177876D01*
X150874987Y-97189082D01*
X149798988Y-97189082D01*
X149798988Y-97339068D01*
X149809481Y-97441779D01*
X149864628Y-97608201D01*
X149864630Y-97608206D01*
X149956671Y-97757427D01*
X150080641Y-97881397D01*
X150143161Y-97919960D01*
X150189885Y-97971908D01*
X150201108Y-98040871D01*
X150173264Y-98104953D01*
X150115195Y-98143809D01*
X150078064Y-98149499D01*
X149034915Y-98149499D01*
X148967876Y-98129814D01*
X148922121Y-98077010D01*
X148910915Y-98025499D01*
X148910915Y-94817583D01*
X148913778Y-94807831D01*
X148912512Y-94797748D01*
X148923455Y-94774873D01*
X148930600Y-94750544D01*
X148938280Y-94743889D01*
X148942667Y-94734720D01*
X148964243Y-94721392D01*
X148983404Y-94704789D01*
X148993462Y-94703342D01*
X149002110Y-94698001D01*
X149027462Y-94698453D01*
X149052562Y-94694845D01*
X149063668Y-94699100D01*
G37*
%TD.AperFunction*%
%TD*%
M02*
