%TF.GenerationSoftware,KiCad,Pcbnew,9.0.5*%
%TF.CreationDate,2025-11-23T18:29:56+02:00*%
%TF.ProjectId,Business_Card,42757369-6e65-4737-935f-436172642e6b,rev?*%
%TF.SameCoordinates,Original*%
%TF.FileFunction,Soldermask,Top*%
%TF.FilePolarity,Negative*%
%FSLAX46Y46*%
G04 Gerber Fmt 4.6, Leading zero omitted, Abs format (unit mm)*
G04 Created by KiCad (PCBNEW 9.0.5) date 2025-11-23 18:29:56*
%MOMM*%
%LPD*%
G01*
G04 APERTURE LIST*
G04 Aperture macros list*
%AMRoundRect*
0 Rectangle with rounded corners*
0 $1 Rounding radius*
0 $2 $3 $4 $5 $6 $7 $8 $9 X,Y pos of 4 corners*
0 Add a 4 corners polygon primitive as box body*
4,1,4,$2,$3,$4,$5,$6,$7,$8,$9,$2,$3,0*
0 Add four circle primitives for the rounded corners*
1,1,$1+$1,$2,$3*
1,1,$1+$1,$4,$5*
1,1,$1+$1,$6,$7*
1,1,$1+$1,$8,$9*
0 Add four rect primitives between the rounded corners*
20,1,$1+$1,$2,$3,$4,$5,0*
20,1,$1+$1,$4,$5,$6,$7,0*
20,1,$1+$1,$6,$7,$8,$9,0*
20,1,$1+$1,$8,$9,$2,$3,0*%
G04 Aperture macros list end*
%ADD10RoundRect,0.200000X-0.550000X-0.200000X0.550000X-0.200000X0.550000X0.200000X-0.550000X0.200000X0*%
G04 APERTURE END LIST*
D10*
%TO.C,D27*%
X129760000Y-94110000D03*
X129760000Y-95890000D03*
X133040000Y-95890000D03*
X133040000Y-94110000D03*
%TD*%
%TO.C,D13*%
X106160000Y-94110000D03*
X106160000Y-95890000D03*
X109440000Y-95890000D03*
X109440000Y-94110000D03*
%TD*%
%TO.C,D14*%
X106160000Y-99110000D03*
X106160000Y-100890000D03*
X109440000Y-100890000D03*
X109440000Y-99110000D03*
%TD*%
%TO.C,D7*%
X92160000Y-114110000D03*
X92160000Y-115890000D03*
X95440000Y-115890000D03*
X95440000Y-114110000D03*
%TD*%
%TO.C,D20*%
X114460000Y-106110000D03*
X114460000Y-107890000D03*
X117740000Y-107890000D03*
X117740000Y-106110000D03*
%TD*%
%TO.C,D41*%
X159060000Y-94110000D03*
X159060000Y-95890000D03*
X162340000Y-95890000D03*
X162340000Y-94110000D03*
%TD*%
%TO.C,D4*%
X83860000Y-104110000D03*
X83860000Y-105890000D03*
X87140000Y-105890000D03*
X87140000Y-104110000D03*
%TD*%
%TO.C,D39*%
X145060000Y-94110000D03*
X145060000Y-95890000D03*
X148340000Y-95890000D03*
X148340000Y-94110000D03*
%TD*%
%TO.C,D42*%
X159060000Y-99110000D03*
X159060000Y-100890000D03*
X162340000Y-100890000D03*
X162340000Y-99110000D03*
%TD*%
%TO.C,D3*%
X83860000Y-99110000D03*
X83860000Y-100890000D03*
X87140000Y-100890000D03*
X87140000Y-99110000D03*
%TD*%
%TO.C,D40*%
X152060000Y-94110000D03*
X152060000Y-95890000D03*
X155340000Y-95890000D03*
X155340000Y-94110000D03*
%TD*%
%TO.C,D43*%
X152060000Y-104110000D03*
X152060000Y-105890000D03*
X155340000Y-105890000D03*
X155340000Y-104110000D03*
%TD*%
%TO.C,D37*%
X145060000Y-104110000D03*
X145060000Y-105890000D03*
X148340000Y-105890000D03*
X148340000Y-104110000D03*
%TD*%
%TO.C,D10*%
X92160000Y-99110000D03*
X92160000Y-100890000D03*
X95440000Y-100890000D03*
X95440000Y-99110000D03*
%TD*%
%TO.C,D45*%
X159060000Y-109110000D03*
X159060000Y-110890000D03*
X162340000Y-110890000D03*
X162340000Y-109110000D03*
%TD*%
%TO.C,D30*%
X129760000Y-104110000D03*
X129760000Y-105890000D03*
X133040000Y-105890000D03*
X133040000Y-104110000D03*
%TD*%
%TO.C,D34*%
X136760000Y-114110000D03*
X136760000Y-115890000D03*
X140040000Y-115890000D03*
X140040000Y-114110000D03*
%TD*%
%TO.C,D25*%
X122760000Y-99110000D03*
X122760000Y-100890000D03*
X126040000Y-100890000D03*
X126040000Y-99110000D03*
%TD*%
%TO.C,D6*%
X83860000Y-114110000D03*
X83860000Y-115890000D03*
X87140000Y-115890000D03*
X87140000Y-114110000D03*
%TD*%
%TO.C,D8*%
X92160000Y-109110000D03*
X92160000Y-110890000D03*
X95440000Y-110890000D03*
X95440000Y-109110000D03*
%TD*%
%TO.C,D17*%
X106160000Y-109110000D03*
X106160000Y-110890000D03*
X109440000Y-110890000D03*
X109440000Y-109110000D03*
%TD*%
%TO.C,D18*%
X99160000Y-114110000D03*
X99160000Y-115890000D03*
X102440000Y-115890000D03*
X102440000Y-114110000D03*
%TD*%
%TO.C,D47*%
X159060000Y-114110000D03*
X159060000Y-115890000D03*
X162340000Y-115890000D03*
X162340000Y-114110000D03*
%TD*%
%TO.C,D23*%
X122760000Y-109110000D03*
X122760000Y-110890000D03*
X126040000Y-110890000D03*
X126040000Y-109110000D03*
%TD*%
%TO.C,D31*%
X136760000Y-104110000D03*
X136760000Y-105890000D03*
X140040000Y-105890000D03*
X140040000Y-104110000D03*
%TD*%
%TO.C,D29*%
X136760000Y-99110000D03*
X136760000Y-100890000D03*
X140040000Y-100890000D03*
X140040000Y-99110000D03*
%TD*%
%TO.C,D46*%
X152060000Y-114110000D03*
X152060000Y-115890000D03*
X155340000Y-115890000D03*
X155340000Y-114110000D03*
%TD*%
%TO.C,D28*%
X136760000Y-94110000D03*
X136760000Y-95890000D03*
X140040000Y-95890000D03*
X140040000Y-94110000D03*
%TD*%
%TO.C,D16*%
X106160000Y-104110000D03*
X106160000Y-105890000D03*
X109440000Y-105890000D03*
X109440000Y-104110000D03*
%TD*%
%TO.C,D11*%
X92160000Y-94110000D03*
X92160000Y-95890000D03*
X95440000Y-95890000D03*
X95440000Y-94110000D03*
%TD*%
%TO.C,D38*%
X145060000Y-99110000D03*
X145060000Y-100890000D03*
X148340000Y-100890000D03*
X148340000Y-99110000D03*
%TD*%
%TO.C,D44*%
X159060000Y-104110000D03*
X159060000Y-105890000D03*
X162340000Y-105890000D03*
X162340000Y-104110000D03*
%TD*%
%TO.C,D33*%
X129760000Y-114110000D03*
X129760000Y-115890000D03*
X133040000Y-115890000D03*
X133040000Y-114110000D03*
%TD*%
%TO.C,D24*%
X122760000Y-104110000D03*
X122760000Y-105890000D03*
X126040000Y-105890000D03*
X126040000Y-104110000D03*
%TD*%
%TO.C,D1*%
X114460000Y-114110000D03*
X114460000Y-115890000D03*
X117740000Y-115890000D03*
X117740000Y-114110000D03*
%TD*%
%TO.C,D36*%
X145060000Y-109110000D03*
X145060000Y-110890000D03*
X148340000Y-110890000D03*
X148340000Y-109110000D03*
%TD*%
%TO.C,D5*%
X83860000Y-109110000D03*
X83860000Y-110890000D03*
X87140000Y-110890000D03*
X87140000Y-109110000D03*
%TD*%
%TO.C,D22*%
X122760000Y-114110000D03*
X122760000Y-115890000D03*
X126040000Y-115890000D03*
X126040000Y-114110000D03*
%TD*%
%TO.C,D15*%
X99160000Y-104110000D03*
X99160000Y-105890000D03*
X102440000Y-105890000D03*
X102440000Y-104110000D03*
%TD*%
%TO.C,D26*%
X122760000Y-94110000D03*
X122760000Y-95890000D03*
X126040000Y-95890000D03*
X126040000Y-94110000D03*
%TD*%
%TO.C,D9*%
X92160000Y-104110000D03*
X92160000Y-105890000D03*
X95440000Y-105890000D03*
X95440000Y-104110000D03*
%TD*%
%TO.C,D35*%
X145060000Y-114110000D03*
X145060000Y-115890000D03*
X148340000Y-115890000D03*
X148340000Y-114110000D03*
%TD*%
%TO.C,D2*%
X83860000Y-94110000D03*
X83860000Y-95890000D03*
X87140000Y-95890000D03*
X87140000Y-94110000D03*
%TD*%
%TO.C,D32*%
X136760000Y-109110000D03*
X136760000Y-110890000D03*
X140040000Y-110890000D03*
X140040000Y-109110000D03*
%TD*%
%TO.C,D12*%
X99160000Y-94110000D03*
X99160000Y-95890000D03*
X102440000Y-95890000D03*
X102440000Y-94110000D03*
%TD*%
%TO.C,D19*%
X106160000Y-114110000D03*
X106160000Y-115890000D03*
X109440000Y-115890000D03*
X109440000Y-114110000D03*
%TD*%
%TO.C,D21*%
X114460000Y-96110000D03*
X114460000Y-97890000D03*
X117740000Y-97890000D03*
X117740000Y-96110000D03*
%TD*%
M02*
