%TF.GenerationSoftware,KiCad,Pcbnew,9.0.5*%
%TF.CreationDate,2025-11-23T18:29:56+02:00*%
%TF.ProjectId,Business_Card,42757369-6e65-4737-935f-436172642e6b,rev?*%
%TF.SameCoordinates,Original*%
%TF.FileFunction,Paste,Bot*%
%TF.FilePolarity,Positive*%
%FSLAX46Y46*%
G04 Gerber Fmt 4.6, Leading zero omitted, Abs format (unit mm)*
G04 Created by KiCad (PCBNEW 9.0.5) date 2025-11-23 18:29:56*
%MOMM*%
%LPD*%
G01*
G04 APERTURE LIST*
G04 Aperture macros list*
%AMRoundRect*
0 Rectangle with rounded corners*
0 $1 Rounding radius*
0 $2 $3 $4 $5 $6 $7 $8 $9 X,Y pos of 4 corners*
0 Add a 4 corners polygon primitive as box body*
4,1,4,$2,$3,$4,$5,$6,$7,$8,$9,$2,$3,0*
0 Add four circle primitives for the rounded corners*
1,1,$1+$1,$2,$3*
1,1,$1+$1,$4,$5*
1,1,$1+$1,$6,$7*
1,1,$1+$1,$8,$9*
0 Add four rect primitives between the rounded corners*
20,1,$1+$1,$2,$3,$4,$5,0*
20,1,$1+$1,$4,$5,$6,$7,0*
20,1,$1+$1,$6,$7,$8,$9,0*
20,1,$1+$1,$8,$9,$2,$3,0*%
G04 Aperture macros list end*
%ADD10R,1.400000X1.600000*%
%ADD11RoundRect,0.250000X0.650000X-1.500000X0.650000X1.500000X-0.650000X1.500000X-0.650000X-1.500000X0*%
%ADD12O,1.350000X4.000000*%
%ADD13RoundRect,0.155000X-0.155000X0.212500X-0.155000X-0.212500X0.155000X-0.212500X0.155000X0.212500X0*%
%ADD14RoundRect,0.250000X0.475000X-0.337500X0.475000X0.337500X-0.475000X0.337500X-0.475000X-0.337500X0*%
%ADD15RoundRect,0.160000X0.197500X0.160000X-0.197500X0.160000X-0.197500X-0.160000X0.197500X-0.160000X0*%
%ADD16RoundRect,0.250000X-0.350000X-0.450000X0.350000X-0.450000X0.350000X0.450000X-0.350000X0.450000X0*%
%ADD17RoundRect,0.250000X0.337500X0.475000X-0.337500X0.475000X-0.337500X-0.475000X0.337500X-0.475000X0*%
%ADD18RoundRect,0.250000X-0.450000X0.350000X-0.450000X-0.350000X0.450000X-0.350000X0.450000X0.350000X0*%
%ADD19RoundRect,0.250000X-0.650000X1.500000X-0.650000X-1.500000X0.650000X-1.500000X0.650000X1.500000X0*%
%ADD20RoundRect,0.250000X0.350000X0.450000X-0.350000X0.450000X-0.350000X-0.450000X0.350000X-0.450000X0*%
%ADD21RoundRect,0.250000X-0.475000X0.337500X-0.475000X-0.337500X0.475000X-0.337500X0.475000X0.337500X0*%
%ADD22R,1.475000X0.450000*%
G04 APERTURE END LIST*
D10*
%TO.C,S1*%
X159660415Y-97942499D03*
X159660415Y-90742499D03*
X162660415Y-97942499D03*
X162660415Y-90742499D03*
%TD*%
D11*
%TO.C,DZ1*%
X163040415Y-107549999D03*
X163040415Y-102549999D03*
%TD*%
D12*
%TO.C,U1*%
X145175477Y-114994076D03*
X147715477Y-114994076D03*
X150255477Y-114994076D03*
X152795477Y-114994076D03*
X157875477Y-114994076D03*
X155335477Y-114994076D03*
X162955477Y-132994076D03*
X162955477Y-114994076D03*
X160415477Y-132994076D03*
X157875477Y-132994076D03*
X155335477Y-132994076D03*
X152795477Y-132994076D03*
X150255477Y-132994076D03*
X147715477Y-132994076D03*
X145175477Y-132994076D03*
X160415477Y-114994076D03*
%TD*%
D13*
%TO.C,C5*%
X132660415Y-91152499D03*
X132660415Y-92287499D03*
%TD*%
D14*
%TO.C,C1*%
X158580415Y-105977499D03*
X158580415Y-103902499D03*
%TD*%
D15*
%TO.C,R5*%
X136557915Y-91019999D03*
X135362915Y-91019999D03*
%TD*%
D16*
%TO.C,R7*%
X156807024Y-88738178D03*
X158807024Y-88738178D03*
%TD*%
D17*
%TO.C,C3*%
X137997915Y-95419999D03*
X135922915Y-95419999D03*
%TD*%
D18*
%TO.C,R4*%
X150998987Y-94939082D03*
X150998987Y-96939082D03*
%TD*%
D19*
%TO.C,D50*%
X154670415Y-102372499D03*
X154670415Y-107372499D03*
%TD*%
D15*
%TO.C,R6*%
X136557915Y-92519999D03*
X135362915Y-92519999D03*
%TD*%
D20*
%TO.C,R3*%
X152984064Y-92800825D03*
X150984064Y-92800825D03*
%TD*%
D21*
%TO.C,C2*%
X146360415Y-94882499D03*
X146360415Y-96957499D03*
%TD*%
D20*
%TO.C,R1*%
X152984064Y-88800825D03*
X150984064Y-88800825D03*
%TD*%
D13*
%TO.C,C4*%
X130160415Y-91152499D03*
X130160415Y-92287499D03*
%TD*%
D22*
%TO.C,IC1*%
X140500415Y-92789999D03*
X140500415Y-92139999D03*
X140500415Y-91489999D03*
X140500415Y-90839999D03*
X146376415Y-90839999D03*
X146376415Y-91489999D03*
X146376415Y-92139999D03*
X146376415Y-92789999D03*
%TD*%
D20*
%TO.C,R2*%
X152984064Y-90800825D03*
X150984064Y-90800825D03*
%TD*%
M02*
