%TF.GenerationSoftware,KiCad,Pcbnew,9.0.5*%
%TF.CreationDate,2025-11-23T18:29:56+02:00*%
%TF.ProjectId,Business_Card,42757369-6e65-4737-935f-436172642e6b,rev?*%
%TF.SameCoordinates,Original*%
%TF.FileFunction,Legend,Top*%
%TF.FilePolarity,Positive*%
%FSLAX46Y46*%
G04 Gerber Fmt 4.6, Leading zero omitted, Abs format (unit mm)*
G04 Created by KiCad (PCBNEW 9.0.5) date 2025-11-23 18:29:56*
%MOMM*%
%LPD*%
G01*
G04 APERTURE LIST*
%ADD10C,0.150000*%
%ADD11C,0.120000*%
G04 APERTURE END LIST*
D10*
X130189642Y-92666676D02*
X130189642Y-91666676D01*
X130189642Y-91666676D02*
X130427737Y-91666676D01*
X130427737Y-91666676D02*
X130570594Y-91714295D01*
X130570594Y-91714295D02*
X130665832Y-91809533D01*
X130665832Y-91809533D02*
X130713451Y-91904771D01*
X130713451Y-91904771D02*
X130761070Y-92095247D01*
X130761070Y-92095247D02*
X130761070Y-92238104D01*
X130761070Y-92238104D02*
X130713451Y-92428580D01*
X130713451Y-92428580D02*
X130665832Y-92523818D01*
X130665832Y-92523818D02*
X130570594Y-92619057D01*
X130570594Y-92619057D02*
X130427737Y-92666676D01*
X130427737Y-92666676D02*
X130189642Y-92666676D01*
X131142023Y-91761914D02*
X131189642Y-91714295D01*
X131189642Y-91714295D02*
X131284880Y-91666676D01*
X131284880Y-91666676D02*
X131522975Y-91666676D01*
X131522975Y-91666676D02*
X131618213Y-91714295D01*
X131618213Y-91714295D02*
X131665832Y-91761914D01*
X131665832Y-91761914D02*
X131713451Y-91857152D01*
X131713451Y-91857152D02*
X131713451Y-91952390D01*
X131713451Y-91952390D02*
X131665832Y-92095247D01*
X131665832Y-92095247D02*
X131094404Y-92666676D01*
X131094404Y-92666676D02*
X131713451Y-92666676D01*
X132046785Y-91666676D02*
X132713451Y-91666676D01*
X132713451Y-91666676D02*
X132284880Y-92666676D01*
X128528571Y-94512295D02*
X128071428Y-94512295D01*
X128300000Y-94512295D02*
X128300000Y-93712295D01*
X128300000Y-93712295D02*
X128223809Y-93826580D01*
X128223809Y-93826580D02*
X128147619Y-93902771D01*
X128147619Y-93902771D02*
X128071428Y-93940866D01*
X110775714Y-95394819D02*
X110775714Y-94394819D01*
X110775714Y-94394819D02*
X111013809Y-94394819D01*
X111013809Y-94394819D02*
X111156666Y-94442438D01*
X111156666Y-94442438D02*
X111251904Y-94537676D01*
X111251904Y-94537676D02*
X111299523Y-94632914D01*
X111299523Y-94632914D02*
X111347142Y-94823390D01*
X111347142Y-94823390D02*
X111347142Y-94966247D01*
X111347142Y-94966247D02*
X111299523Y-95156723D01*
X111299523Y-95156723D02*
X111251904Y-95251961D01*
X111251904Y-95251961D02*
X111156666Y-95347200D01*
X111156666Y-95347200D02*
X111013809Y-95394819D01*
X111013809Y-95394819D02*
X110775714Y-95394819D01*
X112299523Y-95394819D02*
X111728095Y-95394819D01*
X112013809Y-95394819D02*
X112013809Y-94394819D01*
X112013809Y-94394819D02*
X111918571Y-94537676D01*
X111918571Y-94537676D02*
X111823333Y-94632914D01*
X111823333Y-94632914D02*
X111728095Y-94680533D01*
X112632857Y-94394819D02*
X113251904Y-94394819D01*
X113251904Y-94394819D02*
X112918571Y-94775771D01*
X112918571Y-94775771D02*
X113061428Y-94775771D01*
X113061428Y-94775771D02*
X113156666Y-94823390D01*
X113156666Y-94823390D02*
X113204285Y-94871009D01*
X113204285Y-94871009D02*
X113251904Y-94966247D01*
X113251904Y-94966247D02*
X113251904Y-95204342D01*
X113251904Y-95204342D02*
X113204285Y-95299580D01*
X113204285Y-95299580D02*
X113156666Y-95347200D01*
X113156666Y-95347200D02*
X113061428Y-95394819D01*
X113061428Y-95394819D02*
X112775714Y-95394819D01*
X112775714Y-95394819D02*
X112680476Y-95347200D01*
X112680476Y-95347200D02*
X112632857Y-95299580D01*
X104928571Y-94512295D02*
X104471428Y-94512295D01*
X104700000Y-94512295D02*
X104700000Y-93712295D01*
X104700000Y-93712295D02*
X104623809Y-93826580D01*
X104623809Y-93826580D02*
X104547619Y-93902771D01*
X104547619Y-93902771D02*
X104471428Y-93940866D01*
X110765714Y-100324819D02*
X110765714Y-99324819D01*
X110765714Y-99324819D02*
X111003809Y-99324819D01*
X111003809Y-99324819D02*
X111146666Y-99372438D01*
X111146666Y-99372438D02*
X111241904Y-99467676D01*
X111241904Y-99467676D02*
X111289523Y-99562914D01*
X111289523Y-99562914D02*
X111337142Y-99753390D01*
X111337142Y-99753390D02*
X111337142Y-99896247D01*
X111337142Y-99896247D02*
X111289523Y-100086723D01*
X111289523Y-100086723D02*
X111241904Y-100181961D01*
X111241904Y-100181961D02*
X111146666Y-100277200D01*
X111146666Y-100277200D02*
X111003809Y-100324819D01*
X111003809Y-100324819D02*
X110765714Y-100324819D01*
X112289523Y-100324819D02*
X111718095Y-100324819D01*
X112003809Y-100324819D02*
X112003809Y-99324819D01*
X112003809Y-99324819D02*
X111908571Y-99467676D01*
X111908571Y-99467676D02*
X111813333Y-99562914D01*
X111813333Y-99562914D02*
X111718095Y-99610533D01*
X113146666Y-99658152D02*
X113146666Y-100324819D01*
X112908571Y-99277200D02*
X112670476Y-99991485D01*
X112670476Y-99991485D02*
X113289523Y-99991485D01*
X104928571Y-99512295D02*
X104471428Y-99512295D01*
X104700000Y-99512295D02*
X104700000Y-98712295D01*
X104700000Y-98712295D02*
X104623809Y-98826580D01*
X104623809Y-98826580D02*
X104547619Y-98902771D01*
X104547619Y-98902771D02*
X104471428Y-98940866D01*
X89321905Y-116384819D02*
X89321905Y-115384819D01*
X89321905Y-115384819D02*
X89560000Y-115384819D01*
X89560000Y-115384819D02*
X89702857Y-115432438D01*
X89702857Y-115432438D02*
X89798095Y-115527676D01*
X89798095Y-115527676D02*
X89845714Y-115622914D01*
X89845714Y-115622914D02*
X89893333Y-115813390D01*
X89893333Y-115813390D02*
X89893333Y-115956247D01*
X89893333Y-115956247D02*
X89845714Y-116146723D01*
X89845714Y-116146723D02*
X89798095Y-116241961D01*
X89798095Y-116241961D02*
X89702857Y-116337200D01*
X89702857Y-116337200D02*
X89560000Y-116384819D01*
X89560000Y-116384819D02*
X89321905Y-116384819D01*
X90226667Y-115384819D02*
X90893333Y-115384819D01*
X90893333Y-115384819D02*
X90464762Y-116384819D01*
X90928571Y-114512295D02*
X90471428Y-114512295D01*
X90700000Y-114512295D02*
X90700000Y-113712295D01*
X90700000Y-113712295D02*
X90623809Y-113826580D01*
X90623809Y-113826580D02*
X90547619Y-113902771D01*
X90547619Y-113902771D02*
X90471428Y-113940866D01*
X110665714Y-108754819D02*
X110665714Y-107754819D01*
X110665714Y-107754819D02*
X110903809Y-107754819D01*
X110903809Y-107754819D02*
X111046666Y-107802438D01*
X111046666Y-107802438D02*
X111141904Y-107897676D01*
X111141904Y-107897676D02*
X111189523Y-107992914D01*
X111189523Y-107992914D02*
X111237142Y-108183390D01*
X111237142Y-108183390D02*
X111237142Y-108326247D01*
X111237142Y-108326247D02*
X111189523Y-108516723D01*
X111189523Y-108516723D02*
X111141904Y-108611961D01*
X111141904Y-108611961D02*
X111046666Y-108707200D01*
X111046666Y-108707200D02*
X110903809Y-108754819D01*
X110903809Y-108754819D02*
X110665714Y-108754819D01*
X111618095Y-107850057D02*
X111665714Y-107802438D01*
X111665714Y-107802438D02*
X111760952Y-107754819D01*
X111760952Y-107754819D02*
X111999047Y-107754819D01*
X111999047Y-107754819D02*
X112094285Y-107802438D01*
X112094285Y-107802438D02*
X112141904Y-107850057D01*
X112141904Y-107850057D02*
X112189523Y-107945295D01*
X112189523Y-107945295D02*
X112189523Y-108040533D01*
X112189523Y-108040533D02*
X112141904Y-108183390D01*
X112141904Y-108183390D02*
X111570476Y-108754819D01*
X111570476Y-108754819D02*
X112189523Y-108754819D01*
X112808571Y-107754819D02*
X112903809Y-107754819D01*
X112903809Y-107754819D02*
X112999047Y-107802438D01*
X112999047Y-107802438D02*
X113046666Y-107850057D01*
X113046666Y-107850057D02*
X113094285Y-107945295D01*
X113094285Y-107945295D02*
X113141904Y-108135771D01*
X113141904Y-108135771D02*
X113141904Y-108373866D01*
X113141904Y-108373866D02*
X113094285Y-108564342D01*
X113094285Y-108564342D02*
X113046666Y-108659580D01*
X113046666Y-108659580D02*
X112999047Y-108707200D01*
X112999047Y-108707200D02*
X112903809Y-108754819D01*
X112903809Y-108754819D02*
X112808571Y-108754819D01*
X112808571Y-108754819D02*
X112713333Y-108707200D01*
X112713333Y-108707200D02*
X112665714Y-108659580D01*
X112665714Y-108659580D02*
X112618095Y-108564342D01*
X112618095Y-108564342D02*
X112570476Y-108373866D01*
X112570476Y-108373866D02*
X112570476Y-108135771D01*
X112570476Y-108135771D02*
X112618095Y-107945295D01*
X112618095Y-107945295D02*
X112665714Y-107850057D01*
X112665714Y-107850057D02*
X112713333Y-107802438D01*
X112713333Y-107802438D02*
X112808571Y-107754819D01*
X113138571Y-106682295D02*
X112681428Y-106682295D01*
X112910000Y-106682295D02*
X112910000Y-105882295D01*
X112910000Y-105882295D02*
X112833809Y-105996580D01*
X112833809Y-105996580D02*
X112757619Y-106072771D01*
X112757619Y-106072771D02*
X112681428Y-106110866D01*
X164704819Y-96084285D02*
X163704819Y-96084285D01*
X163704819Y-96084285D02*
X163704819Y-95846190D01*
X163704819Y-95846190D02*
X163752438Y-95703333D01*
X163752438Y-95703333D02*
X163847676Y-95608095D01*
X163847676Y-95608095D02*
X163942914Y-95560476D01*
X163942914Y-95560476D02*
X164133390Y-95512857D01*
X164133390Y-95512857D02*
X164276247Y-95512857D01*
X164276247Y-95512857D02*
X164466723Y-95560476D01*
X164466723Y-95560476D02*
X164561961Y-95608095D01*
X164561961Y-95608095D02*
X164657200Y-95703333D01*
X164657200Y-95703333D02*
X164704819Y-95846190D01*
X164704819Y-95846190D02*
X164704819Y-96084285D01*
X164038152Y-94655714D02*
X164704819Y-94655714D01*
X163657200Y-94893809D02*
X164371485Y-95131904D01*
X164371485Y-95131904D02*
X164371485Y-94512857D01*
X164704819Y-93608095D02*
X164704819Y-94179523D01*
X164704819Y-93893809D02*
X163704819Y-93893809D01*
X163704819Y-93893809D02*
X163847676Y-93989047D01*
X163847676Y-93989047D02*
X163942914Y-94084285D01*
X163942914Y-94084285D02*
X163990533Y-94179523D01*
X157828571Y-94512295D02*
X157371428Y-94512295D01*
X157600000Y-94512295D02*
X157600000Y-93712295D01*
X157600000Y-93712295D02*
X157523809Y-93826580D01*
X157523809Y-93826580D02*
X157447619Y-93902771D01*
X157447619Y-93902771D02*
X157371428Y-93940866D01*
X81081905Y-106284819D02*
X81081905Y-105284819D01*
X81081905Y-105284819D02*
X81320000Y-105284819D01*
X81320000Y-105284819D02*
X81462857Y-105332438D01*
X81462857Y-105332438D02*
X81558095Y-105427676D01*
X81558095Y-105427676D02*
X81605714Y-105522914D01*
X81605714Y-105522914D02*
X81653333Y-105713390D01*
X81653333Y-105713390D02*
X81653333Y-105856247D01*
X81653333Y-105856247D02*
X81605714Y-106046723D01*
X81605714Y-106046723D02*
X81558095Y-106141961D01*
X81558095Y-106141961D02*
X81462857Y-106237200D01*
X81462857Y-106237200D02*
X81320000Y-106284819D01*
X81320000Y-106284819D02*
X81081905Y-106284819D01*
X82510476Y-105618152D02*
X82510476Y-106284819D01*
X82272381Y-105237200D02*
X82034286Y-105951485D01*
X82034286Y-105951485D02*
X82653333Y-105951485D01*
X82628571Y-104512295D02*
X82171428Y-104512295D01*
X82400000Y-104512295D02*
X82400000Y-103712295D01*
X82400000Y-103712295D02*
X82323809Y-103826580D01*
X82323809Y-103826580D02*
X82247619Y-103902771D01*
X82247619Y-103902771D02*
X82171428Y-103940866D01*
X141375714Y-96934819D02*
X141375714Y-95934819D01*
X141375714Y-95934819D02*
X141613809Y-95934819D01*
X141613809Y-95934819D02*
X141756666Y-95982438D01*
X141756666Y-95982438D02*
X141851904Y-96077676D01*
X141851904Y-96077676D02*
X141899523Y-96172914D01*
X141899523Y-96172914D02*
X141947142Y-96363390D01*
X141947142Y-96363390D02*
X141947142Y-96506247D01*
X141947142Y-96506247D02*
X141899523Y-96696723D01*
X141899523Y-96696723D02*
X141851904Y-96791961D01*
X141851904Y-96791961D02*
X141756666Y-96887200D01*
X141756666Y-96887200D02*
X141613809Y-96934819D01*
X141613809Y-96934819D02*
X141375714Y-96934819D01*
X142280476Y-95934819D02*
X142899523Y-95934819D01*
X142899523Y-95934819D02*
X142566190Y-96315771D01*
X142566190Y-96315771D02*
X142709047Y-96315771D01*
X142709047Y-96315771D02*
X142804285Y-96363390D01*
X142804285Y-96363390D02*
X142851904Y-96411009D01*
X142851904Y-96411009D02*
X142899523Y-96506247D01*
X142899523Y-96506247D02*
X142899523Y-96744342D01*
X142899523Y-96744342D02*
X142851904Y-96839580D01*
X142851904Y-96839580D02*
X142804285Y-96887200D01*
X142804285Y-96887200D02*
X142709047Y-96934819D01*
X142709047Y-96934819D02*
X142423333Y-96934819D01*
X142423333Y-96934819D02*
X142328095Y-96887200D01*
X142328095Y-96887200D02*
X142280476Y-96839580D01*
X143375714Y-96934819D02*
X143566190Y-96934819D01*
X143566190Y-96934819D02*
X143661428Y-96887200D01*
X143661428Y-96887200D02*
X143709047Y-96839580D01*
X143709047Y-96839580D02*
X143804285Y-96696723D01*
X143804285Y-96696723D02*
X143851904Y-96506247D01*
X143851904Y-96506247D02*
X143851904Y-96125295D01*
X143851904Y-96125295D02*
X143804285Y-96030057D01*
X143804285Y-96030057D02*
X143756666Y-95982438D01*
X143756666Y-95982438D02*
X143661428Y-95934819D01*
X143661428Y-95934819D02*
X143470952Y-95934819D01*
X143470952Y-95934819D02*
X143375714Y-95982438D01*
X143375714Y-95982438D02*
X143328095Y-96030057D01*
X143328095Y-96030057D02*
X143280476Y-96125295D01*
X143280476Y-96125295D02*
X143280476Y-96363390D01*
X143280476Y-96363390D02*
X143328095Y-96458628D01*
X143328095Y-96458628D02*
X143375714Y-96506247D01*
X143375714Y-96506247D02*
X143470952Y-96553866D01*
X143470952Y-96553866D02*
X143661428Y-96553866D01*
X143661428Y-96553866D02*
X143756666Y-96506247D01*
X143756666Y-96506247D02*
X143804285Y-96458628D01*
X143804285Y-96458628D02*
X143851904Y-96363390D01*
X143808571Y-93942295D02*
X143351428Y-93942295D01*
X143580000Y-93942295D02*
X143580000Y-93142295D01*
X143580000Y-93142295D02*
X143503809Y-93256580D01*
X143503809Y-93256580D02*
X143427619Y-93332771D01*
X143427619Y-93332771D02*
X143351428Y-93370866D01*
X164694819Y-101094285D02*
X163694819Y-101094285D01*
X163694819Y-101094285D02*
X163694819Y-100856190D01*
X163694819Y-100856190D02*
X163742438Y-100713333D01*
X163742438Y-100713333D02*
X163837676Y-100618095D01*
X163837676Y-100618095D02*
X163932914Y-100570476D01*
X163932914Y-100570476D02*
X164123390Y-100522857D01*
X164123390Y-100522857D02*
X164266247Y-100522857D01*
X164266247Y-100522857D02*
X164456723Y-100570476D01*
X164456723Y-100570476D02*
X164551961Y-100618095D01*
X164551961Y-100618095D02*
X164647200Y-100713333D01*
X164647200Y-100713333D02*
X164694819Y-100856190D01*
X164694819Y-100856190D02*
X164694819Y-101094285D01*
X164028152Y-99665714D02*
X164694819Y-99665714D01*
X163647200Y-99903809D02*
X164361485Y-100141904D01*
X164361485Y-100141904D02*
X164361485Y-99522857D01*
X163790057Y-99189523D02*
X163742438Y-99141904D01*
X163742438Y-99141904D02*
X163694819Y-99046666D01*
X163694819Y-99046666D02*
X163694819Y-98808571D01*
X163694819Y-98808571D02*
X163742438Y-98713333D01*
X163742438Y-98713333D02*
X163790057Y-98665714D01*
X163790057Y-98665714D02*
X163885295Y-98618095D01*
X163885295Y-98618095D02*
X163980533Y-98618095D01*
X163980533Y-98618095D02*
X164123390Y-98665714D01*
X164123390Y-98665714D02*
X164694819Y-99237142D01*
X164694819Y-99237142D02*
X164694819Y-98618095D01*
X157828571Y-99512295D02*
X157371428Y-99512295D01*
X157600000Y-99512295D02*
X157600000Y-98712295D01*
X157600000Y-98712295D02*
X157523809Y-98826580D01*
X157523809Y-98826580D02*
X157447619Y-98902771D01*
X157447619Y-98902771D02*
X157371428Y-98940866D01*
X81081905Y-101374819D02*
X81081905Y-100374819D01*
X81081905Y-100374819D02*
X81320000Y-100374819D01*
X81320000Y-100374819D02*
X81462857Y-100422438D01*
X81462857Y-100422438D02*
X81558095Y-100517676D01*
X81558095Y-100517676D02*
X81605714Y-100612914D01*
X81605714Y-100612914D02*
X81653333Y-100803390D01*
X81653333Y-100803390D02*
X81653333Y-100946247D01*
X81653333Y-100946247D02*
X81605714Y-101136723D01*
X81605714Y-101136723D02*
X81558095Y-101231961D01*
X81558095Y-101231961D02*
X81462857Y-101327200D01*
X81462857Y-101327200D02*
X81320000Y-101374819D01*
X81320000Y-101374819D02*
X81081905Y-101374819D01*
X81986667Y-100374819D02*
X82605714Y-100374819D01*
X82605714Y-100374819D02*
X82272381Y-100755771D01*
X82272381Y-100755771D02*
X82415238Y-100755771D01*
X82415238Y-100755771D02*
X82510476Y-100803390D01*
X82510476Y-100803390D02*
X82558095Y-100851009D01*
X82558095Y-100851009D02*
X82605714Y-100946247D01*
X82605714Y-100946247D02*
X82605714Y-101184342D01*
X82605714Y-101184342D02*
X82558095Y-101279580D01*
X82558095Y-101279580D02*
X82510476Y-101327200D01*
X82510476Y-101327200D02*
X82415238Y-101374819D01*
X82415238Y-101374819D02*
X82129524Y-101374819D01*
X82129524Y-101374819D02*
X82034286Y-101327200D01*
X82034286Y-101327200D02*
X81986667Y-101279580D01*
X82628571Y-99512295D02*
X82171428Y-99512295D01*
X82400000Y-99512295D02*
X82400000Y-98712295D01*
X82400000Y-98712295D02*
X82323809Y-98826580D01*
X82323809Y-98826580D02*
X82247619Y-98902771D01*
X82247619Y-98902771D02*
X82171428Y-98940866D01*
X152485714Y-92704819D02*
X152485714Y-91704819D01*
X152485714Y-91704819D02*
X152723809Y-91704819D01*
X152723809Y-91704819D02*
X152866666Y-91752438D01*
X152866666Y-91752438D02*
X152961904Y-91847676D01*
X152961904Y-91847676D02*
X153009523Y-91942914D01*
X153009523Y-91942914D02*
X153057142Y-92133390D01*
X153057142Y-92133390D02*
X153057142Y-92276247D01*
X153057142Y-92276247D02*
X153009523Y-92466723D01*
X153009523Y-92466723D02*
X152961904Y-92561961D01*
X152961904Y-92561961D02*
X152866666Y-92657200D01*
X152866666Y-92657200D02*
X152723809Y-92704819D01*
X152723809Y-92704819D02*
X152485714Y-92704819D01*
X153914285Y-92038152D02*
X153914285Y-92704819D01*
X153676190Y-91657200D02*
X153438095Y-92371485D01*
X153438095Y-92371485D02*
X154057142Y-92371485D01*
X154628571Y-91704819D02*
X154723809Y-91704819D01*
X154723809Y-91704819D02*
X154819047Y-91752438D01*
X154819047Y-91752438D02*
X154866666Y-91800057D01*
X154866666Y-91800057D02*
X154914285Y-91895295D01*
X154914285Y-91895295D02*
X154961904Y-92085771D01*
X154961904Y-92085771D02*
X154961904Y-92323866D01*
X154961904Y-92323866D02*
X154914285Y-92514342D01*
X154914285Y-92514342D02*
X154866666Y-92609580D01*
X154866666Y-92609580D02*
X154819047Y-92657200D01*
X154819047Y-92657200D02*
X154723809Y-92704819D01*
X154723809Y-92704819D02*
X154628571Y-92704819D01*
X154628571Y-92704819D02*
X154533333Y-92657200D01*
X154533333Y-92657200D02*
X154485714Y-92609580D01*
X154485714Y-92609580D02*
X154438095Y-92514342D01*
X154438095Y-92514342D02*
X154390476Y-92323866D01*
X154390476Y-92323866D02*
X154390476Y-92085771D01*
X154390476Y-92085771D02*
X154438095Y-91895295D01*
X154438095Y-91895295D02*
X154485714Y-91800057D01*
X154485714Y-91800057D02*
X154533333Y-91752438D01*
X154533333Y-91752438D02*
X154628571Y-91704819D01*
X150828571Y-94512295D02*
X150371428Y-94512295D01*
X150600000Y-94512295D02*
X150600000Y-93712295D01*
X150600000Y-93712295D02*
X150523809Y-93826580D01*
X150523809Y-93826580D02*
X150447619Y-93902771D01*
X150447619Y-93902771D02*
X150371428Y-93940866D01*
X152515714Y-102764819D02*
X152515714Y-101764819D01*
X152515714Y-101764819D02*
X152753809Y-101764819D01*
X152753809Y-101764819D02*
X152896666Y-101812438D01*
X152896666Y-101812438D02*
X152991904Y-101907676D01*
X152991904Y-101907676D02*
X153039523Y-102002914D01*
X153039523Y-102002914D02*
X153087142Y-102193390D01*
X153087142Y-102193390D02*
X153087142Y-102336247D01*
X153087142Y-102336247D02*
X153039523Y-102526723D01*
X153039523Y-102526723D02*
X152991904Y-102621961D01*
X152991904Y-102621961D02*
X152896666Y-102717200D01*
X152896666Y-102717200D02*
X152753809Y-102764819D01*
X152753809Y-102764819D02*
X152515714Y-102764819D01*
X153944285Y-102098152D02*
X153944285Y-102764819D01*
X153706190Y-101717200D02*
X153468095Y-102431485D01*
X153468095Y-102431485D02*
X154087142Y-102431485D01*
X154372857Y-101764819D02*
X154991904Y-101764819D01*
X154991904Y-101764819D02*
X154658571Y-102145771D01*
X154658571Y-102145771D02*
X154801428Y-102145771D01*
X154801428Y-102145771D02*
X154896666Y-102193390D01*
X154896666Y-102193390D02*
X154944285Y-102241009D01*
X154944285Y-102241009D02*
X154991904Y-102336247D01*
X154991904Y-102336247D02*
X154991904Y-102574342D01*
X154991904Y-102574342D02*
X154944285Y-102669580D01*
X154944285Y-102669580D02*
X154896666Y-102717200D01*
X154896666Y-102717200D02*
X154801428Y-102764819D01*
X154801428Y-102764819D02*
X154515714Y-102764819D01*
X154515714Y-102764819D02*
X154420476Y-102717200D01*
X154420476Y-102717200D02*
X154372857Y-102669580D01*
X150708571Y-103932295D02*
X150251428Y-103932295D01*
X150480000Y-103932295D02*
X150480000Y-103132295D01*
X150480000Y-103132295D02*
X150403809Y-103246580D01*
X150403809Y-103246580D02*
X150327619Y-103322771D01*
X150327619Y-103322771D02*
X150251428Y-103360866D01*
X141325714Y-106824819D02*
X141325714Y-105824819D01*
X141325714Y-105824819D02*
X141563809Y-105824819D01*
X141563809Y-105824819D02*
X141706666Y-105872438D01*
X141706666Y-105872438D02*
X141801904Y-105967676D01*
X141801904Y-105967676D02*
X141849523Y-106062914D01*
X141849523Y-106062914D02*
X141897142Y-106253390D01*
X141897142Y-106253390D02*
X141897142Y-106396247D01*
X141897142Y-106396247D02*
X141849523Y-106586723D01*
X141849523Y-106586723D02*
X141801904Y-106681961D01*
X141801904Y-106681961D02*
X141706666Y-106777200D01*
X141706666Y-106777200D02*
X141563809Y-106824819D01*
X141563809Y-106824819D02*
X141325714Y-106824819D01*
X142230476Y-105824819D02*
X142849523Y-105824819D01*
X142849523Y-105824819D02*
X142516190Y-106205771D01*
X142516190Y-106205771D02*
X142659047Y-106205771D01*
X142659047Y-106205771D02*
X142754285Y-106253390D01*
X142754285Y-106253390D02*
X142801904Y-106301009D01*
X142801904Y-106301009D02*
X142849523Y-106396247D01*
X142849523Y-106396247D02*
X142849523Y-106634342D01*
X142849523Y-106634342D02*
X142801904Y-106729580D01*
X142801904Y-106729580D02*
X142754285Y-106777200D01*
X142754285Y-106777200D02*
X142659047Y-106824819D01*
X142659047Y-106824819D02*
X142373333Y-106824819D01*
X142373333Y-106824819D02*
X142278095Y-106777200D01*
X142278095Y-106777200D02*
X142230476Y-106729580D01*
X143182857Y-105824819D02*
X143849523Y-105824819D01*
X143849523Y-105824819D02*
X143420952Y-106824819D01*
X143798571Y-103992295D02*
X143341428Y-103992295D01*
X143570000Y-103992295D02*
X143570000Y-103192295D01*
X143570000Y-103192295D02*
X143493809Y-103306580D01*
X143493809Y-103306580D02*
X143417619Y-103382771D01*
X143417619Y-103382771D02*
X143341428Y-103420866D01*
X88375714Y-101264819D02*
X88375714Y-100264819D01*
X88375714Y-100264819D02*
X88613809Y-100264819D01*
X88613809Y-100264819D02*
X88756666Y-100312438D01*
X88756666Y-100312438D02*
X88851904Y-100407676D01*
X88851904Y-100407676D02*
X88899523Y-100502914D01*
X88899523Y-100502914D02*
X88947142Y-100693390D01*
X88947142Y-100693390D02*
X88947142Y-100836247D01*
X88947142Y-100836247D02*
X88899523Y-101026723D01*
X88899523Y-101026723D02*
X88851904Y-101121961D01*
X88851904Y-101121961D02*
X88756666Y-101217200D01*
X88756666Y-101217200D02*
X88613809Y-101264819D01*
X88613809Y-101264819D02*
X88375714Y-101264819D01*
X89899523Y-101264819D02*
X89328095Y-101264819D01*
X89613809Y-101264819D02*
X89613809Y-100264819D01*
X89613809Y-100264819D02*
X89518571Y-100407676D01*
X89518571Y-100407676D02*
X89423333Y-100502914D01*
X89423333Y-100502914D02*
X89328095Y-100550533D01*
X90518571Y-100264819D02*
X90613809Y-100264819D01*
X90613809Y-100264819D02*
X90709047Y-100312438D01*
X90709047Y-100312438D02*
X90756666Y-100360057D01*
X90756666Y-100360057D02*
X90804285Y-100455295D01*
X90804285Y-100455295D02*
X90851904Y-100645771D01*
X90851904Y-100645771D02*
X90851904Y-100883866D01*
X90851904Y-100883866D02*
X90804285Y-101074342D01*
X90804285Y-101074342D02*
X90756666Y-101169580D01*
X90756666Y-101169580D02*
X90709047Y-101217200D01*
X90709047Y-101217200D02*
X90613809Y-101264819D01*
X90613809Y-101264819D02*
X90518571Y-101264819D01*
X90518571Y-101264819D02*
X90423333Y-101217200D01*
X90423333Y-101217200D02*
X90375714Y-101169580D01*
X90375714Y-101169580D02*
X90328095Y-101074342D01*
X90328095Y-101074342D02*
X90280476Y-100883866D01*
X90280476Y-100883866D02*
X90280476Y-100645771D01*
X90280476Y-100645771D02*
X90328095Y-100455295D01*
X90328095Y-100455295D02*
X90375714Y-100360057D01*
X90375714Y-100360057D02*
X90423333Y-100312438D01*
X90423333Y-100312438D02*
X90518571Y-100264819D01*
X90928571Y-99512295D02*
X90471428Y-99512295D01*
X90700000Y-99512295D02*
X90700000Y-98712295D01*
X90700000Y-98712295D02*
X90623809Y-98826580D01*
X90623809Y-98826580D02*
X90547619Y-98902771D01*
X90547619Y-98902771D02*
X90471428Y-98940866D01*
X164714819Y-111224285D02*
X163714819Y-111224285D01*
X163714819Y-111224285D02*
X163714819Y-110986190D01*
X163714819Y-110986190D02*
X163762438Y-110843333D01*
X163762438Y-110843333D02*
X163857676Y-110748095D01*
X163857676Y-110748095D02*
X163952914Y-110700476D01*
X163952914Y-110700476D02*
X164143390Y-110652857D01*
X164143390Y-110652857D02*
X164286247Y-110652857D01*
X164286247Y-110652857D02*
X164476723Y-110700476D01*
X164476723Y-110700476D02*
X164571961Y-110748095D01*
X164571961Y-110748095D02*
X164667200Y-110843333D01*
X164667200Y-110843333D02*
X164714819Y-110986190D01*
X164714819Y-110986190D02*
X164714819Y-111224285D01*
X164048152Y-109795714D02*
X164714819Y-109795714D01*
X163667200Y-110033809D02*
X164381485Y-110271904D01*
X164381485Y-110271904D02*
X164381485Y-109652857D01*
X163714819Y-108795714D02*
X163714819Y-109271904D01*
X163714819Y-109271904D02*
X164191009Y-109319523D01*
X164191009Y-109319523D02*
X164143390Y-109271904D01*
X164143390Y-109271904D02*
X164095771Y-109176666D01*
X164095771Y-109176666D02*
X164095771Y-108938571D01*
X164095771Y-108938571D02*
X164143390Y-108843333D01*
X164143390Y-108843333D02*
X164191009Y-108795714D01*
X164191009Y-108795714D02*
X164286247Y-108748095D01*
X164286247Y-108748095D02*
X164524342Y-108748095D01*
X164524342Y-108748095D02*
X164619580Y-108795714D01*
X164619580Y-108795714D02*
X164667200Y-108843333D01*
X164667200Y-108843333D02*
X164714819Y-108938571D01*
X164714819Y-108938571D02*
X164714819Y-109176666D01*
X164714819Y-109176666D02*
X164667200Y-109271904D01*
X164667200Y-109271904D02*
X164619580Y-109319523D01*
X157828571Y-109512295D02*
X157371428Y-109512295D01*
X157600000Y-109512295D02*
X157600000Y-108712295D01*
X157600000Y-108712295D02*
X157523809Y-108826580D01*
X157523809Y-108826580D02*
X157447619Y-108902771D01*
X157447619Y-108902771D02*
X157371428Y-108940866D01*
X130175714Y-102654819D02*
X130175714Y-101654819D01*
X130175714Y-101654819D02*
X130413809Y-101654819D01*
X130413809Y-101654819D02*
X130556666Y-101702438D01*
X130556666Y-101702438D02*
X130651904Y-101797676D01*
X130651904Y-101797676D02*
X130699523Y-101892914D01*
X130699523Y-101892914D02*
X130747142Y-102083390D01*
X130747142Y-102083390D02*
X130747142Y-102226247D01*
X130747142Y-102226247D02*
X130699523Y-102416723D01*
X130699523Y-102416723D02*
X130651904Y-102511961D01*
X130651904Y-102511961D02*
X130556666Y-102607200D01*
X130556666Y-102607200D02*
X130413809Y-102654819D01*
X130413809Y-102654819D02*
X130175714Y-102654819D01*
X131080476Y-101654819D02*
X131699523Y-101654819D01*
X131699523Y-101654819D02*
X131366190Y-102035771D01*
X131366190Y-102035771D02*
X131509047Y-102035771D01*
X131509047Y-102035771D02*
X131604285Y-102083390D01*
X131604285Y-102083390D02*
X131651904Y-102131009D01*
X131651904Y-102131009D02*
X131699523Y-102226247D01*
X131699523Y-102226247D02*
X131699523Y-102464342D01*
X131699523Y-102464342D02*
X131651904Y-102559580D01*
X131651904Y-102559580D02*
X131604285Y-102607200D01*
X131604285Y-102607200D02*
X131509047Y-102654819D01*
X131509047Y-102654819D02*
X131223333Y-102654819D01*
X131223333Y-102654819D02*
X131128095Y-102607200D01*
X131128095Y-102607200D02*
X131080476Y-102559580D01*
X132318571Y-101654819D02*
X132413809Y-101654819D01*
X132413809Y-101654819D02*
X132509047Y-101702438D01*
X132509047Y-101702438D02*
X132556666Y-101750057D01*
X132556666Y-101750057D02*
X132604285Y-101845295D01*
X132604285Y-101845295D02*
X132651904Y-102035771D01*
X132651904Y-102035771D02*
X132651904Y-102273866D01*
X132651904Y-102273866D02*
X132604285Y-102464342D01*
X132604285Y-102464342D02*
X132556666Y-102559580D01*
X132556666Y-102559580D02*
X132509047Y-102607200D01*
X132509047Y-102607200D02*
X132413809Y-102654819D01*
X132413809Y-102654819D02*
X132318571Y-102654819D01*
X132318571Y-102654819D02*
X132223333Y-102607200D01*
X132223333Y-102607200D02*
X132175714Y-102559580D01*
X132175714Y-102559580D02*
X132128095Y-102464342D01*
X132128095Y-102464342D02*
X132080476Y-102273866D01*
X132080476Y-102273866D02*
X132080476Y-102035771D01*
X132080476Y-102035771D02*
X132128095Y-101845295D01*
X132128095Y-101845295D02*
X132175714Y-101750057D01*
X132175714Y-101750057D02*
X132223333Y-101702438D01*
X132223333Y-101702438D02*
X132318571Y-101654819D01*
X128528571Y-104512295D02*
X128071428Y-104512295D01*
X128300000Y-104512295D02*
X128300000Y-103712295D01*
X128300000Y-103712295D02*
X128223809Y-103826580D01*
X128223809Y-103826580D02*
X128147619Y-103902771D01*
X128147619Y-103902771D02*
X128071428Y-103940866D01*
X141315714Y-115514819D02*
X141315714Y-114514819D01*
X141315714Y-114514819D02*
X141553809Y-114514819D01*
X141553809Y-114514819D02*
X141696666Y-114562438D01*
X141696666Y-114562438D02*
X141791904Y-114657676D01*
X141791904Y-114657676D02*
X141839523Y-114752914D01*
X141839523Y-114752914D02*
X141887142Y-114943390D01*
X141887142Y-114943390D02*
X141887142Y-115086247D01*
X141887142Y-115086247D02*
X141839523Y-115276723D01*
X141839523Y-115276723D02*
X141791904Y-115371961D01*
X141791904Y-115371961D02*
X141696666Y-115467200D01*
X141696666Y-115467200D02*
X141553809Y-115514819D01*
X141553809Y-115514819D02*
X141315714Y-115514819D01*
X142220476Y-114514819D02*
X142839523Y-114514819D01*
X142839523Y-114514819D02*
X142506190Y-114895771D01*
X142506190Y-114895771D02*
X142649047Y-114895771D01*
X142649047Y-114895771D02*
X142744285Y-114943390D01*
X142744285Y-114943390D02*
X142791904Y-114991009D01*
X142791904Y-114991009D02*
X142839523Y-115086247D01*
X142839523Y-115086247D02*
X142839523Y-115324342D01*
X142839523Y-115324342D02*
X142791904Y-115419580D01*
X142791904Y-115419580D02*
X142744285Y-115467200D01*
X142744285Y-115467200D02*
X142649047Y-115514819D01*
X142649047Y-115514819D02*
X142363333Y-115514819D01*
X142363333Y-115514819D02*
X142268095Y-115467200D01*
X142268095Y-115467200D02*
X142220476Y-115419580D01*
X143696666Y-114848152D02*
X143696666Y-115514819D01*
X143458571Y-114467200D02*
X143220476Y-115181485D01*
X143220476Y-115181485D02*
X143839523Y-115181485D01*
X135528571Y-114512295D02*
X135071428Y-114512295D01*
X135300000Y-114512295D02*
X135300000Y-113712295D01*
X135300000Y-113712295D02*
X135223809Y-113826580D01*
X135223809Y-113826580D02*
X135147619Y-113902771D01*
X135147619Y-113902771D02*
X135071428Y-113940866D01*
X118995714Y-101804819D02*
X118995714Y-100804819D01*
X118995714Y-100804819D02*
X119233809Y-100804819D01*
X119233809Y-100804819D02*
X119376666Y-100852438D01*
X119376666Y-100852438D02*
X119471904Y-100947676D01*
X119471904Y-100947676D02*
X119519523Y-101042914D01*
X119519523Y-101042914D02*
X119567142Y-101233390D01*
X119567142Y-101233390D02*
X119567142Y-101376247D01*
X119567142Y-101376247D02*
X119519523Y-101566723D01*
X119519523Y-101566723D02*
X119471904Y-101661961D01*
X119471904Y-101661961D02*
X119376666Y-101757200D01*
X119376666Y-101757200D02*
X119233809Y-101804819D01*
X119233809Y-101804819D02*
X118995714Y-101804819D01*
X119948095Y-100900057D02*
X119995714Y-100852438D01*
X119995714Y-100852438D02*
X120090952Y-100804819D01*
X120090952Y-100804819D02*
X120329047Y-100804819D01*
X120329047Y-100804819D02*
X120424285Y-100852438D01*
X120424285Y-100852438D02*
X120471904Y-100900057D01*
X120471904Y-100900057D02*
X120519523Y-100995295D01*
X120519523Y-100995295D02*
X120519523Y-101090533D01*
X120519523Y-101090533D02*
X120471904Y-101233390D01*
X120471904Y-101233390D02*
X119900476Y-101804819D01*
X119900476Y-101804819D02*
X120519523Y-101804819D01*
X121424285Y-100804819D02*
X120948095Y-100804819D01*
X120948095Y-100804819D02*
X120900476Y-101281009D01*
X120900476Y-101281009D02*
X120948095Y-101233390D01*
X120948095Y-101233390D02*
X121043333Y-101185771D01*
X121043333Y-101185771D02*
X121281428Y-101185771D01*
X121281428Y-101185771D02*
X121376666Y-101233390D01*
X121376666Y-101233390D02*
X121424285Y-101281009D01*
X121424285Y-101281009D02*
X121471904Y-101376247D01*
X121471904Y-101376247D02*
X121471904Y-101614342D01*
X121471904Y-101614342D02*
X121424285Y-101709580D01*
X121424285Y-101709580D02*
X121376666Y-101757200D01*
X121376666Y-101757200D02*
X121281428Y-101804819D01*
X121281428Y-101804819D02*
X121043333Y-101804819D01*
X121043333Y-101804819D02*
X120948095Y-101757200D01*
X120948095Y-101757200D02*
X120900476Y-101709580D01*
X121528571Y-99512295D02*
X121071428Y-99512295D01*
X121300000Y-99512295D02*
X121300000Y-98712295D01*
X121300000Y-98712295D02*
X121223809Y-98826580D01*
X121223809Y-98826580D02*
X121147619Y-98902771D01*
X121147619Y-98902771D02*
X121071428Y-98940866D01*
X81141905Y-116374819D02*
X81141905Y-115374819D01*
X81141905Y-115374819D02*
X81380000Y-115374819D01*
X81380000Y-115374819D02*
X81522857Y-115422438D01*
X81522857Y-115422438D02*
X81618095Y-115517676D01*
X81618095Y-115517676D02*
X81665714Y-115612914D01*
X81665714Y-115612914D02*
X81713333Y-115803390D01*
X81713333Y-115803390D02*
X81713333Y-115946247D01*
X81713333Y-115946247D02*
X81665714Y-116136723D01*
X81665714Y-116136723D02*
X81618095Y-116231961D01*
X81618095Y-116231961D02*
X81522857Y-116327200D01*
X81522857Y-116327200D02*
X81380000Y-116374819D01*
X81380000Y-116374819D02*
X81141905Y-116374819D01*
X82570476Y-115374819D02*
X82380000Y-115374819D01*
X82380000Y-115374819D02*
X82284762Y-115422438D01*
X82284762Y-115422438D02*
X82237143Y-115470057D01*
X82237143Y-115470057D02*
X82141905Y-115612914D01*
X82141905Y-115612914D02*
X82094286Y-115803390D01*
X82094286Y-115803390D02*
X82094286Y-116184342D01*
X82094286Y-116184342D02*
X82141905Y-116279580D01*
X82141905Y-116279580D02*
X82189524Y-116327200D01*
X82189524Y-116327200D02*
X82284762Y-116374819D01*
X82284762Y-116374819D02*
X82475238Y-116374819D01*
X82475238Y-116374819D02*
X82570476Y-116327200D01*
X82570476Y-116327200D02*
X82618095Y-116279580D01*
X82618095Y-116279580D02*
X82665714Y-116184342D01*
X82665714Y-116184342D02*
X82665714Y-115946247D01*
X82665714Y-115946247D02*
X82618095Y-115851009D01*
X82618095Y-115851009D02*
X82570476Y-115803390D01*
X82570476Y-115803390D02*
X82475238Y-115755771D01*
X82475238Y-115755771D02*
X82284762Y-115755771D01*
X82284762Y-115755771D02*
X82189524Y-115803390D01*
X82189524Y-115803390D02*
X82141905Y-115851009D01*
X82141905Y-115851009D02*
X82094286Y-115946247D01*
X82628571Y-114512295D02*
X82171428Y-114512295D01*
X82400000Y-114512295D02*
X82400000Y-113712295D01*
X82400000Y-113712295D02*
X82323809Y-113826580D01*
X82323809Y-113826580D02*
X82247619Y-113902771D01*
X82247619Y-113902771D02*
X82171428Y-113940866D01*
X89381905Y-111324819D02*
X89381905Y-110324819D01*
X89381905Y-110324819D02*
X89620000Y-110324819D01*
X89620000Y-110324819D02*
X89762857Y-110372438D01*
X89762857Y-110372438D02*
X89858095Y-110467676D01*
X89858095Y-110467676D02*
X89905714Y-110562914D01*
X89905714Y-110562914D02*
X89953333Y-110753390D01*
X89953333Y-110753390D02*
X89953333Y-110896247D01*
X89953333Y-110896247D02*
X89905714Y-111086723D01*
X89905714Y-111086723D02*
X89858095Y-111181961D01*
X89858095Y-111181961D02*
X89762857Y-111277200D01*
X89762857Y-111277200D02*
X89620000Y-111324819D01*
X89620000Y-111324819D02*
X89381905Y-111324819D01*
X90524762Y-110753390D02*
X90429524Y-110705771D01*
X90429524Y-110705771D02*
X90381905Y-110658152D01*
X90381905Y-110658152D02*
X90334286Y-110562914D01*
X90334286Y-110562914D02*
X90334286Y-110515295D01*
X90334286Y-110515295D02*
X90381905Y-110420057D01*
X90381905Y-110420057D02*
X90429524Y-110372438D01*
X90429524Y-110372438D02*
X90524762Y-110324819D01*
X90524762Y-110324819D02*
X90715238Y-110324819D01*
X90715238Y-110324819D02*
X90810476Y-110372438D01*
X90810476Y-110372438D02*
X90858095Y-110420057D01*
X90858095Y-110420057D02*
X90905714Y-110515295D01*
X90905714Y-110515295D02*
X90905714Y-110562914D01*
X90905714Y-110562914D02*
X90858095Y-110658152D01*
X90858095Y-110658152D02*
X90810476Y-110705771D01*
X90810476Y-110705771D02*
X90715238Y-110753390D01*
X90715238Y-110753390D02*
X90524762Y-110753390D01*
X90524762Y-110753390D02*
X90429524Y-110801009D01*
X90429524Y-110801009D02*
X90381905Y-110848628D01*
X90381905Y-110848628D02*
X90334286Y-110943866D01*
X90334286Y-110943866D02*
X90334286Y-111134342D01*
X90334286Y-111134342D02*
X90381905Y-111229580D01*
X90381905Y-111229580D02*
X90429524Y-111277200D01*
X90429524Y-111277200D02*
X90524762Y-111324819D01*
X90524762Y-111324819D02*
X90715238Y-111324819D01*
X90715238Y-111324819D02*
X90810476Y-111277200D01*
X90810476Y-111277200D02*
X90858095Y-111229580D01*
X90858095Y-111229580D02*
X90905714Y-111134342D01*
X90905714Y-111134342D02*
X90905714Y-110943866D01*
X90905714Y-110943866D02*
X90858095Y-110848628D01*
X90858095Y-110848628D02*
X90810476Y-110801009D01*
X90810476Y-110801009D02*
X90715238Y-110753390D01*
X90928571Y-109512295D02*
X90471428Y-109512295D01*
X90700000Y-109512295D02*
X90700000Y-108712295D01*
X90700000Y-108712295D02*
X90623809Y-108826580D01*
X90623809Y-108826580D02*
X90547619Y-108902771D01*
X90547619Y-108902771D02*
X90471428Y-108940866D01*
X110655714Y-110414819D02*
X110655714Y-109414819D01*
X110655714Y-109414819D02*
X110893809Y-109414819D01*
X110893809Y-109414819D02*
X111036666Y-109462438D01*
X111036666Y-109462438D02*
X111131904Y-109557676D01*
X111131904Y-109557676D02*
X111179523Y-109652914D01*
X111179523Y-109652914D02*
X111227142Y-109843390D01*
X111227142Y-109843390D02*
X111227142Y-109986247D01*
X111227142Y-109986247D02*
X111179523Y-110176723D01*
X111179523Y-110176723D02*
X111131904Y-110271961D01*
X111131904Y-110271961D02*
X111036666Y-110367200D01*
X111036666Y-110367200D02*
X110893809Y-110414819D01*
X110893809Y-110414819D02*
X110655714Y-110414819D01*
X112179523Y-110414819D02*
X111608095Y-110414819D01*
X111893809Y-110414819D02*
X111893809Y-109414819D01*
X111893809Y-109414819D02*
X111798571Y-109557676D01*
X111798571Y-109557676D02*
X111703333Y-109652914D01*
X111703333Y-109652914D02*
X111608095Y-109700533D01*
X112512857Y-109414819D02*
X113179523Y-109414819D01*
X113179523Y-109414819D02*
X112750952Y-110414819D01*
X104928571Y-109512295D02*
X104471428Y-109512295D01*
X104700000Y-109512295D02*
X104700000Y-108712295D01*
X104700000Y-108712295D02*
X104623809Y-108826580D01*
X104623809Y-108826580D02*
X104547619Y-108902771D01*
X104547619Y-108902771D02*
X104471428Y-108940866D01*
X99585714Y-112704819D02*
X99585714Y-111704819D01*
X99585714Y-111704819D02*
X99823809Y-111704819D01*
X99823809Y-111704819D02*
X99966666Y-111752438D01*
X99966666Y-111752438D02*
X100061904Y-111847676D01*
X100061904Y-111847676D02*
X100109523Y-111942914D01*
X100109523Y-111942914D02*
X100157142Y-112133390D01*
X100157142Y-112133390D02*
X100157142Y-112276247D01*
X100157142Y-112276247D02*
X100109523Y-112466723D01*
X100109523Y-112466723D02*
X100061904Y-112561961D01*
X100061904Y-112561961D02*
X99966666Y-112657200D01*
X99966666Y-112657200D02*
X99823809Y-112704819D01*
X99823809Y-112704819D02*
X99585714Y-112704819D01*
X101109523Y-112704819D02*
X100538095Y-112704819D01*
X100823809Y-112704819D02*
X100823809Y-111704819D01*
X100823809Y-111704819D02*
X100728571Y-111847676D01*
X100728571Y-111847676D02*
X100633333Y-111942914D01*
X100633333Y-111942914D02*
X100538095Y-111990533D01*
X101680952Y-112133390D02*
X101585714Y-112085771D01*
X101585714Y-112085771D02*
X101538095Y-112038152D01*
X101538095Y-112038152D02*
X101490476Y-111942914D01*
X101490476Y-111942914D02*
X101490476Y-111895295D01*
X101490476Y-111895295D02*
X101538095Y-111800057D01*
X101538095Y-111800057D02*
X101585714Y-111752438D01*
X101585714Y-111752438D02*
X101680952Y-111704819D01*
X101680952Y-111704819D02*
X101871428Y-111704819D01*
X101871428Y-111704819D02*
X101966666Y-111752438D01*
X101966666Y-111752438D02*
X102014285Y-111800057D01*
X102014285Y-111800057D02*
X102061904Y-111895295D01*
X102061904Y-111895295D02*
X102061904Y-111942914D01*
X102061904Y-111942914D02*
X102014285Y-112038152D01*
X102014285Y-112038152D02*
X101966666Y-112085771D01*
X101966666Y-112085771D02*
X101871428Y-112133390D01*
X101871428Y-112133390D02*
X101680952Y-112133390D01*
X101680952Y-112133390D02*
X101585714Y-112181009D01*
X101585714Y-112181009D02*
X101538095Y-112228628D01*
X101538095Y-112228628D02*
X101490476Y-112323866D01*
X101490476Y-112323866D02*
X101490476Y-112514342D01*
X101490476Y-112514342D02*
X101538095Y-112609580D01*
X101538095Y-112609580D02*
X101585714Y-112657200D01*
X101585714Y-112657200D02*
X101680952Y-112704819D01*
X101680952Y-112704819D02*
X101871428Y-112704819D01*
X101871428Y-112704819D02*
X101966666Y-112657200D01*
X101966666Y-112657200D02*
X102014285Y-112609580D01*
X102014285Y-112609580D02*
X102061904Y-112514342D01*
X102061904Y-112514342D02*
X102061904Y-112323866D01*
X102061904Y-112323866D02*
X102014285Y-112228628D01*
X102014285Y-112228628D02*
X101966666Y-112181009D01*
X101966666Y-112181009D02*
X101871428Y-112133390D01*
X97928571Y-114512295D02*
X97471428Y-114512295D01*
X97700000Y-114512295D02*
X97700000Y-113712295D01*
X97700000Y-113712295D02*
X97623809Y-113826580D01*
X97623809Y-113826580D02*
X97547619Y-113902771D01*
X97547619Y-113902771D02*
X97471428Y-113940866D01*
X164734819Y-116024285D02*
X163734819Y-116024285D01*
X163734819Y-116024285D02*
X163734819Y-115786190D01*
X163734819Y-115786190D02*
X163782438Y-115643333D01*
X163782438Y-115643333D02*
X163877676Y-115548095D01*
X163877676Y-115548095D02*
X163972914Y-115500476D01*
X163972914Y-115500476D02*
X164163390Y-115452857D01*
X164163390Y-115452857D02*
X164306247Y-115452857D01*
X164306247Y-115452857D02*
X164496723Y-115500476D01*
X164496723Y-115500476D02*
X164591961Y-115548095D01*
X164591961Y-115548095D02*
X164687200Y-115643333D01*
X164687200Y-115643333D02*
X164734819Y-115786190D01*
X164734819Y-115786190D02*
X164734819Y-116024285D01*
X164068152Y-114595714D02*
X164734819Y-114595714D01*
X163687200Y-114833809D02*
X164401485Y-115071904D01*
X164401485Y-115071904D02*
X164401485Y-114452857D01*
X163734819Y-114167142D02*
X163734819Y-113500476D01*
X163734819Y-113500476D02*
X164734819Y-113929047D01*
X157828571Y-114512295D02*
X157371428Y-114512295D01*
X157600000Y-114512295D02*
X157600000Y-113712295D01*
X157600000Y-113712295D02*
X157523809Y-113826580D01*
X157523809Y-113826580D02*
X157447619Y-113902771D01*
X157447619Y-113902771D02*
X157371428Y-113940866D01*
X118965714Y-111964819D02*
X118965714Y-110964819D01*
X118965714Y-110964819D02*
X119203809Y-110964819D01*
X119203809Y-110964819D02*
X119346666Y-111012438D01*
X119346666Y-111012438D02*
X119441904Y-111107676D01*
X119441904Y-111107676D02*
X119489523Y-111202914D01*
X119489523Y-111202914D02*
X119537142Y-111393390D01*
X119537142Y-111393390D02*
X119537142Y-111536247D01*
X119537142Y-111536247D02*
X119489523Y-111726723D01*
X119489523Y-111726723D02*
X119441904Y-111821961D01*
X119441904Y-111821961D02*
X119346666Y-111917200D01*
X119346666Y-111917200D02*
X119203809Y-111964819D01*
X119203809Y-111964819D02*
X118965714Y-111964819D01*
X119918095Y-111060057D02*
X119965714Y-111012438D01*
X119965714Y-111012438D02*
X120060952Y-110964819D01*
X120060952Y-110964819D02*
X120299047Y-110964819D01*
X120299047Y-110964819D02*
X120394285Y-111012438D01*
X120394285Y-111012438D02*
X120441904Y-111060057D01*
X120441904Y-111060057D02*
X120489523Y-111155295D01*
X120489523Y-111155295D02*
X120489523Y-111250533D01*
X120489523Y-111250533D02*
X120441904Y-111393390D01*
X120441904Y-111393390D02*
X119870476Y-111964819D01*
X119870476Y-111964819D02*
X120489523Y-111964819D01*
X120822857Y-110964819D02*
X121441904Y-110964819D01*
X121441904Y-110964819D02*
X121108571Y-111345771D01*
X121108571Y-111345771D02*
X121251428Y-111345771D01*
X121251428Y-111345771D02*
X121346666Y-111393390D01*
X121346666Y-111393390D02*
X121394285Y-111441009D01*
X121394285Y-111441009D02*
X121441904Y-111536247D01*
X121441904Y-111536247D02*
X121441904Y-111774342D01*
X121441904Y-111774342D02*
X121394285Y-111869580D01*
X121394285Y-111869580D02*
X121346666Y-111917200D01*
X121346666Y-111917200D02*
X121251428Y-111964819D01*
X121251428Y-111964819D02*
X120965714Y-111964819D01*
X120965714Y-111964819D02*
X120870476Y-111917200D01*
X120870476Y-111917200D02*
X120822857Y-111869580D01*
X121528571Y-109512295D02*
X121071428Y-109512295D01*
X121300000Y-109512295D02*
X121300000Y-108712295D01*
X121300000Y-108712295D02*
X121223809Y-108826580D01*
X121223809Y-108826580D02*
X121147619Y-108902771D01*
X121147619Y-108902771D02*
X121071428Y-108940866D01*
X141355714Y-105444819D02*
X141355714Y-104444819D01*
X141355714Y-104444819D02*
X141593809Y-104444819D01*
X141593809Y-104444819D02*
X141736666Y-104492438D01*
X141736666Y-104492438D02*
X141831904Y-104587676D01*
X141831904Y-104587676D02*
X141879523Y-104682914D01*
X141879523Y-104682914D02*
X141927142Y-104873390D01*
X141927142Y-104873390D02*
X141927142Y-105016247D01*
X141927142Y-105016247D02*
X141879523Y-105206723D01*
X141879523Y-105206723D02*
X141831904Y-105301961D01*
X141831904Y-105301961D02*
X141736666Y-105397200D01*
X141736666Y-105397200D02*
X141593809Y-105444819D01*
X141593809Y-105444819D02*
X141355714Y-105444819D01*
X142260476Y-104444819D02*
X142879523Y-104444819D01*
X142879523Y-104444819D02*
X142546190Y-104825771D01*
X142546190Y-104825771D02*
X142689047Y-104825771D01*
X142689047Y-104825771D02*
X142784285Y-104873390D01*
X142784285Y-104873390D02*
X142831904Y-104921009D01*
X142831904Y-104921009D02*
X142879523Y-105016247D01*
X142879523Y-105016247D02*
X142879523Y-105254342D01*
X142879523Y-105254342D02*
X142831904Y-105349580D01*
X142831904Y-105349580D02*
X142784285Y-105397200D01*
X142784285Y-105397200D02*
X142689047Y-105444819D01*
X142689047Y-105444819D02*
X142403333Y-105444819D01*
X142403333Y-105444819D02*
X142308095Y-105397200D01*
X142308095Y-105397200D02*
X142260476Y-105349580D01*
X143831904Y-105444819D02*
X143260476Y-105444819D01*
X143546190Y-105444819D02*
X143546190Y-104444819D01*
X143546190Y-104444819D02*
X143450952Y-104587676D01*
X143450952Y-104587676D02*
X143355714Y-104682914D01*
X143355714Y-104682914D02*
X143260476Y-104730533D01*
X135528571Y-104512295D02*
X135071428Y-104512295D01*
X135300000Y-104512295D02*
X135300000Y-103712295D01*
X135300000Y-103712295D02*
X135223809Y-103826580D01*
X135223809Y-103826580D02*
X135147619Y-103902771D01*
X135147619Y-103902771D02*
X135071428Y-103940866D01*
X141365714Y-100554819D02*
X141365714Y-99554819D01*
X141365714Y-99554819D02*
X141603809Y-99554819D01*
X141603809Y-99554819D02*
X141746666Y-99602438D01*
X141746666Y-99602438D02*
X141841904Y-99697676D01*
X141841904Y-99697676D02*
X141889523Y-99792914D01*
X141889523Y-99792914D02*
X141937142Y-99983390D01*
X141937142Y-99983390D02*
X141937142Y-100126247D01*
X141937142Y-100126247D02*
X141889523Y-100316723D01*
X141889523Y-100316723D02*
X141841904Y-100411961D01*
X141841904Y-100411961D02*
X141746666Y-100507200D01*
X141746666Y-100507200D02*
X141603809Y-100554819D01*
X141603809Y-100554819D02*
X141365714Y-100554819D01*
X142318095Y-99650057D02*
X142365714Y-99602438D01*
X142365714Y-99602438D02*
X142460952Y-99554819D01*
X142460952Y-99554819D02*
X142699047Y-99554819D01*
X142699047Y-99554819D02*
X142794285Y-99602438D01*
X142794285Y-99602438D02*
X142841904Y-99650057D01*
X142841904Y-99650057D02*
X142889523Y-99745295D01*
X142889523Y-99745295D02*
X142889523Y-99840533D01*
X142889523Y-99840533D02*
X142841904Y-99983390D01*
X142841904Y-99983390D02*
X142270476Y-100554819D01*
X142270476Y-100554819D02*
X142889523Y-100554819D01*
X143365714Y-100554819D02*
X143556190Y-100554819D01*
X143556190Y-100554819D02*
X143651428Y-100507200D01*
X143651428Y-100507200D02*
X143699047Y-100459580D01*
X143699047Y-100459580D02*
X143794285Y-100316723D01*
X143794285Y-100316723D02*
X143841904Y-100126247D01*
X143841904Y-100126247D02*
X143841904Y-99745295D01*
X143841904Y-99745295D02*
X143794285Y-99650057D01*
X143794285Y-99650057D02*
X143746666Y-99602438D01*
X143746666Y-99602438D02*
X143651428Y-99554819D01*
X143651428Y-99554819D02*
X143460952Y-99554819D01*
X143460952Y-99554819D02*
X143365714Y-99602438D01*
X143365714Y-99602438D02*
X143318095Y-99650057D01*
X143318095Y-99650057D02*
X143270476Y-99745295D01*
X143270476Y-99745295D02*
X143270476Y-99983390D01*
X143270476Y-99983390D02*
X143318095Y-100078628D01*
X143318095Y-100078628D02*
X143365714Y-100126247D01*
X143365714Y-100126247D02*
X143460952Y-100173866D01*
X143460952Y-100173866D02*
X143651428Y-100173866D01*
X143651428Y-100173866D02*
X143746666Y-100126247D01*
X143746666Y-100126247D02*
X143794285Y-100078628D01*
X143794285Y-100078628D02*
X143841904Y-99983390D01*
X135528571Y-99512295D02*
X135071428Y-99512295D01*
X135300000Y-99512295D02*
X135300000Y-98712295D01*
X135300000Y-98712295D02*
X135223809Y-98826580D01*
X135223809Y-98826580D02*
X135147619Y-98902771D01*
X135147619Y-98902771D02*
X135071428Y-98940866D01*
X151615714Y-112684819D02*
X151615714Y-111684819D01*
X151615714Y-111684819D02*
X151853809Y-111684819D01*
X151853809Y-111684819D02*
X151996666Y-111732438D01*
X151996666Y-111732438D02*
X152091904Y-111827676D01*
X152091904Y-111827676D02*
X152139523Y-111922914D01*
X152139523Y-111922914D02*
X152187142Y-112113390D01*
X152187142Y-112113390D02*
X152187142Y-112256247D01*
X152187142Y-112256247D02*
X152139523Y-112446723D01*
X152139523Y-112446723D02*
X152091904Y-112541961D01*
X152091904Y-112541961D02*
X151996666Y-112637200D01*
X151996666Y-112637200D02*
X151853809Y-112684819D01*
X151853809Y-112684819D02*
X151615714Y-112684819D01*
X153044285Y-112018152D02*
X153044285Y-112684819D01*
X152806190Y-111637200D02*
X152568095Y-112351485D01*
X152568095Y-112351485D02*
X153187142Y-112351485D01*
X153996666Y-111684819D02*
X153806190Y-111684819D01*
X153806190Y-111684819D02*
X153710952Y-111732438D01*
X153710952Y-111732438D02*
X153663333Y-111780057D01*
X153663333Y-111780057D02*
X153568095Y-111922914D01*
X153568095Y-111922914D02*
X153520476Y-112113390D01*
X153520476Y-112113390D02*
X153520476Y-112494342D01*
X153520476Y-112494342D02*
X153568095Y-112589580D01*
X153568095Y-112589580D02*
X153615714Y-112637200D01*
X153615714Y-112637200D02*
X153710952Y-112684819D01*
X153710952Y-112684819D02*
X153901428Y-112684819D01*
X153901428Y-112684819D02*
X153996666Y-112637200D01*
X153996666Y-112637200D02*
X154044285Y-112589580D01*
X154044285Y-112589580D02*
X154091904Y-112494342D01*
X154091904Y-112494342D02*
X154091904Y-112256247D01*
X154091904Y-112256247D02*
X154044285Y-112161009D01*
X154044285Y-112161009D02*
X153996666Y-112113390D01*
X153996666Y-112113390D02*
X153901428Y-112065771D01*
X153901428Y-112065771D02*
X153710952Y-112065771D01*
X153710952Y-112065771D02*
X153615714Y-112113390D01*
X153615714Y-112113390D02*
X153568095Y-112161009D01*
X153568095Y-112161009D02*
X153520476Y-112256247D01*
X150828571Y-114512295D02*
X150371428Y-114512295D01*
X150600000Y-114512295D02*
X150600000Y-113712295D01*
X150600000Y-113712295D02*
X150523809Y-113826580D01*
X150523809Y-113826580D02*
X150447619Y-113902771D01*
X150447619Y-113902771D02*
X150371428Y-113940866D01*
X141395714Y-95484819D02*
X141395714Y-94484819D01*
X141395714Y-94484819D02*
X141633809Y-94484819D01*
X141633809Y-94484819D02*
X141776666Y-94532438D01*
X141776666Y-94532438D02*
X141871904Y-94627676D01*
X141871904Y-94627676D02*
X141919523Y-94722914D01*
X141919523Y-94722914D02*
X141967142Y-94913390D01*
X141967142Y-94913390D02*
X141967142Y-95056247D01*
X141967142Y-95056247D02*
X141919523Y-95246723D01*
X141919523Y-95246723D02*
X141871904Y-95341961D01*
X141871904Y-95341961D02*
X141776666Y-95437200D01*
X141776666Y-95437200D02*
X141633809Y-95484819D01*
X141633809Y-95484819D02*
X141395714Y-95484819D01*
X142348095Y-94580057D02*
X142395714Y-94532438D01*
X142395714Y-94532438D02*
X142490952Y-94484819D01*
X142490952Y-94484819D02*
X142729047Y-94484819D01*
X142729047Y-94484819D02*
X142824285Y-94532438D01*
X142824285Y-94532438D02*
X142871904Y-94580057D01*
X142871904Y-94580057D02*
X142919523Y-94675295D01*
X142919523Y-94675295D02*
X142919523Y-94770533D01*
X142919523Y-94770533D02*
X142871904Y-94913390D01*
X142871904Y-94913390D02*
X142300476Y-95484819D01*
X142300476Y-95484819D02*
X142919523Y-95484819D01*
X143490952Y-94913390D02*
X143395714Y-94865771D01*
X143395714Y-94865771D02*
X143348095Y-94818152D01*
X143348095Y-94818152D02*
X143300476Y-94722914D01*
X143300476Y-94722914D02*
X143300476Y-94675295D01*
X143300476Y-94675295D02*
X143348095Y-94580057D01*
X143348095Y-94580057D02*
X143395714Y-94532438D01*
X143395714Y-94532438D02*
X143490952Y-94484819D01*
X143490952Y-94484819D02*
X143681428Y-94484819D01*
X143681428Y-94484819D02*
X143776666Y-94532438D01*
X143776666Y-94532438D02*
X143824285Y-94580057D01*
X143824285Y-94580057D02*
X143871904Y-94675295D01*
X143871904Y-94675295D02*
X143871904Y-94722914D01*
X143871904Y-94722914D02*
X143824285Y-94818152D01*
X143824285Y-94818152D02*
X143776666Y-94865771D01*
X143776666Y-94865771D02*
X143681428Y-94913390D01*
X143681428Y-94913390D02*
X143490952Y-94913390D01*
X143490952Y-94913390D02*
X143395714Y-94961009D01*
X143395714Y-94961009D02*
X143348095Y-95008628D01*
X143348095Y-95008628D02*
X143300476Y-95103866D01*
X143300476Y-95103866D02*
X143300476Y-95294342D01*
X143300476Y-95294342D02*
X143348095Y-95389580D01*
X143348095Y-95389580D02*
X143395714Y-95437200D01*
X143395714Y-95437200D02*
X143490952Y-95484819D01*
X143490952Y-95484819D02*
X143681428Y-95484819D01*
X143681428Y-95484819D02*
X143776666Y-95437200D01*
X143776666Y-95437200D02*
X143824285Y-95389580D01*
X143824285Y-95389580D02*
X143871904Y-95294342D01*
X143871904Y-95294342D02*
X143871904Y-95103866D01*
X143871904Y-95103866D02*
X143824285Y-95008628D01*
X143824285Y-95008628D02*
X143776666Y-94961009D01*
X143776666Y-94961009D02*
X143681428Y-94913390D01*
X135528571Y-94512295D02*
X135071428Y-94512295D01*
X135300000Y-94512295D02*
X135300000Y-93712295D01*
X135300000Y-93712295D02*
X135223809Y-93826580D01*
X135223809Y-93826580D02*
X135147619Y-93902771D01*
X135147619Y-93902771D02*
X135071428Y-93940866D01*
X110745714Y-105204819D02*
X110745714Y-104204819D01*
X110745714Y-104204819D02*
X110983809Y-104204819D01*
X110983809Y-104204819D02*
X111126666Y-104252438D01*
X111126666Y-104252438D02*
X111221904Y-104347676D01*
X111221904Y-104347676D02*
X111269523Y-104442914D01*
X111269523Y-104442914D02*
X111317142Y-104633390D01*
X111317142Y-104633390D02*
X111317142Y-104776247D01*
X111317142Y-104776247D02*
X111269523Y-104966723D01*
X111269523Y-104966723D02*
X111221904Y-105061961D01*
X111221904Y-105061961D02*
X111126666Y-105157200D01*
X111126666Y-105157200D02*
X110983809Y-105204819D01*
X110983809Y-105204819D02*
X110745714Y-105204819D01*
X112269523Y-105204819D02*
X111698095Y-105204819D01*
X111983809Y-105204819D02*
X111983809Y-104204819D01*
X111983809Y-104204819D02*
X111888571Y-104347676D01*
X111888571Y-104347676D02*
X111793333Y-104442914D01*
X111793333Y-104442914D02*
X111698095Y-104490533D01*
X113126666Y-104204819D02*
X112936190Y-104204819D01*
X112936190Y-104204819D02*
X112840952Y-104252438D01*
X112840952Y-104252438D02*
X112793333Y-104300057D01*
X112793333Y-104300057D02*
X112698095Y-104442914D01*
X112698095Y-104442914D02*
X112650476Y-104633390D01*
X112650476Y-104633390D02*
X112650476Y-105014342D01*
X112650476Y-105014342D02*
X112698095Y-105109580D01*
X112698095Y-105109580D02*
X112745714Y-105157200D01*
X112745714Y-105157200D02*
X112840952Y-105204819D01*
X112840952Y-105204819D02*
X113031428Y-105204819D01*
X113031428Y-105204819D02*
X113126666Y-105157200D01*
X113126666Y-105157200D02*
X113174285Y-105109580D01*
X113174285Y-105109580D02*
X113221904Y-105014342D01*
X113221904Y-105014342D02*
X113221904Y-104776247D01*
X113221904Y-104776247D02*
X113174285Y-104681009D01*
X113174285Y-104681009D02*
X113126666Y-104633390D01*
X113126666Y-104633390D02*
X113031428Y-104585771D01*
X113031428Y-104585771D02*
X112840952Y-104585771D01*
X112840952Y-104585771D02*
X112745714Y-104633390D01*
X112745714Y-104633390D02*
X112698095Y-104681009D01*
X112698095Y-104681009D02*
X112650476Y-104776247D01*
X104928571Y-104512295D02*
X104471428Y-104512295D01*
X104700000Y-104512295D02*
X104700000Y-103712295D01*
X104700000Y-103712295D02*
X104623809Y-103826580D01*
X104623809Y-103826580D02*
X104547619Y-103902771D01*
X104547619Y-103902771D02*
X104471428Y-103940866D01*
X88485714Y-95834819D02*
X88485714Y-94834819D01*
X88485714Y-94834819D02*
X88723809Y-94834819D01*
X88723809Y-94834819D02*
X88866666Y-94882438D01*
X88866666Y-94882438D02*
X88961904Y-94977676D01*
X88961904Y-94977676D02*
X89009523Y-95072914D01*
X89009523Y-95072914D02*
X89057142Y-95263390D01*
X89057142Y-95263390D02*
X89057142Y-95406247D01*
X89057142Y-95406247D02*
X89009523Y-95596723D01*
X89009523Y-95596723D02*
X88961904Y-95691961D01*
X88961904Y-95691961D02*
X88866666Y-95787200D01*
X88866666Y-95787200D02*
X88723809Y-95834819D01*
X88723809Y-95834819D02*
X88485714Y-95834819D01*
X90009523Y-95834819D02*
X89438095Y-95834819D01*
X89723809Y-95834819D02*
X89723809Y-94834819D01*
X89723809Y-94834819D02*
X89628571Y-94977676D01*
X89628571Y-94977676D02*
X89533333Y-95072914D01*
X89533333Y-95072914D02*
X89438095Y-95120533D01*
X90961904Y-95834819D02*
X90390476Y-95834819D01*
X90676190Y-95834819D02*
X90676190Y-94834819D01*
X90676190Y-94834819D02*
X90580952Y-94977676D01*
X90580952Y-94977676D02*
X90485714Y-95072914D01*
X90485714Y-95072914D02*
X90390476Y-95120533D01*
X90928571Y-94512295D02*
X90471428Y-94512295D01*
X90700000Y-94512295D02*
X90700000Y-93712295D01*
X90700000Y-93712295D02*
X90623809Y-93826580D01*
X90623809Y-93826580D02*
X90547619Y-93902771D01*
X90547619Y-93902771D02*
X90471428Y-93940866D01*
X141385714Y-101964819D02*
X141385714Y-100964819D01*
X141385714Y-100964819D02*
X141623809Y-100964819D01*
X141623809Y-100964819D02*
X141766666Y-101012438D01*
X141766666Y-101012438D02*
X141861904Y-101107676D01*
X141861904Y-101107676D02*
X141909523Y-101202914D01*
X141909523Y-101202914D02*
X141957142Y-101393390D01*
X141957142Y-101393390D02*
X141957142Y-101536247D01*
X141957142Y-101536247D02*
X141909523Y-101726723D01*
X141909523Y-101726723D02*
X141861904Y-101821961D01*
X141861904Y-101821961D02*
X141766666Y-101917200D01*
X141766666Y-101917200D02*
X141623809Y-101964819D01*
X141623809Y-101964819D02*
X141385714Y-101964819D01*
X142290476Y-100964819D02*
X142909523Y-100964819D01*
X142909523Y-100964819D02*
X142576190Y-101345771D01*
X142576190Y-101345771D02*
X142719047Y-101345771D01*
X142719047Y-101345771D02*
X142814285Y-101393390D01*
X142814285Y-101393390D02*
X142861904Y-101441009D01*
X142861904Y-101441009D02*
X142909523Y-101536247D01*
X142909523Y-101536247D02*
X142909523Y-101774342D01*
X142909523Y-101774342D02*
X142861904Y-101869580D01*
X142861904Y-101869580D02*
X142814285Y-101917200D01*
X142814285Y-101917200D02*
X142719047Y-101964819D01*
X142719047Y-101964819D02*
X142433333Y-101964819D01*
X142433333Y-101964819D02*
X142338095Y-101917200D01*
X142338095Y-101917200D02*
X142290476Y-101869580D01*
X143480952Y-101393390D02*
X143385714Y-101345771D01*
X143385714Y-101345771D02*
X143338095Y-101298152D01*
X143338095Y-101298152D02*
X143290476Y-101202914D01*
X143290476Y-101202914D02*
X143290476Y-101155295D01*
X143290476Y-101155295D02*
X143338095Y-101060057D01*
X143338095Y-101060057D02*
X143385714Y-101012438D01*
X143385714Y-101012438D02*
X143480952Y-100964819D01*
X143480952Y-100964819D02*
X143671428Y-100964819D01*
X143671428Y-100964819D02*
X143766666Y-101012438D01*
X143766666Y-101012438D02*
X143814285Y-101060057D01*
X143814285Y-101060057D02*
X143861904Y-101155295D01*
X143861904Y-101155295D02*
X143861904Y-101202914D01*
X143861904Y-101202914D02*
X143814285Y-101298152D01*
X143814285Y-101298152D02*
X143766666Y-101345771D01*
X143766666Y-101345771D02*
X143671428Y-101393390D01*
X143671428Y-101393390D02*
X143480952Y-101393390D01*
X143480952Y-101393390D02*
X143385714Y-101441009D01*
X143385714Y-101441009D02*
X143338095Y-101488628D01*
X143338095Y-101488628D02*
X143290476Y-101583866D01*
X143290476Y-101583866D02*
X143290476Y-101774342D01*
X143290476Y-101774342D02*
X143338095Y-101869580D01*
X143338095Y-101869580D02*
X143385714Y-101917200D01*
X143385714Y-101917200D02*
X143480952Y-101964819D01*
X143480952Y-101964819D02*
X143671428Y-101964819D01*
X143671428Y-101964819D02*
X143766666Y-101917200D01*
X143766666Y-101917200D02*
X143814285Y-101869580D01*
X143814285Y-101869580D02*
X143861904Y-101774342D01*
X143861904Y-101774342D02*
X143861904Y-101583866D01*
X143861904Y-101583866D02*
X143814285Y-101488628D01*
X143814285Y-101488628D02*
X143766666Y-101441009D01*
X143766666Y-101441009D02*
X143671428Y-101393390D01*
X143838571Y-99132295D02*
X143381428Y-99132295D01*
X143610000Y-99132295D02*
X143610000Y-98332295D01*
X143610000Y-98332295D02*
X143533809Y-98446580D01*
X143533809Y-98446580D02*
X143457619Y-98522771D01*
X143457619Y-98522771D02*
X143381428Y-98560866D01*
X164674819Y-106264284D02*
X163674819Y-106264284D01*
X163674819Y-106264284D02*
X163674819Y-106026189D01*
X163674819Y-106026189D02*
X163722438Y-105883332D01*
X163722438Y-105883332D02*
X163817676Y-105788094D01*
X163817676Y-105788094D02*
X163912914Y-105740475D01*
X163912914Y-105740475D02*
X164103390Y-105692856D01*
X164103390Y-105692856D02*
X164246247Y-105692856D01*
X164246247Y-105692856D02*
X164436723Y-105740475D01*
X164436723Y-105740475D02*
X164531961Y-105788094D01*
X164531961Y-105788094D02*
X164627200Y-105883332D01*
X164627200Y-105883332D02*
X164674819Y-106026189D01*
X164674819Y-106026189D02*
X164674819Y-106264284D01*
X164008152Y-104835713D02*
X164674819Y-104835713D01*
X163627200Y-105073808D02*
X164341485Y-105311903D01*
X164341485Y-105311903D02*
X164341485Y-104692856D01*
X164008152Y-103883332D02*
X164674819Y-103883332D01*
X163627200Y-104121427D02*
X164341485Y-104359522D01*
X164341485Y-104359522D02*
X164341485Y-103740475D01*
X157748571Y-103982295D02*
X157291428Y-103982295D01*
X157520000Y-103982295D02*
X157520000Y-103182295D01*
X157520000Y-103182295D02*
X157443809Y-103296580D01*
X157443809Y-103296580D02*
X157367619Y-103372771D01*
X157367619Y-103372771D02*
X157291428Y-103410866D01*
X130185714Y-112694819D02*
X130185714Y-111694819D01*
X130185714Y-111694819D02*
X130423809Y-111694819D01*
X130423809Y-111694819D02*
X130566666Y-111742438D01*
X130566666Y-111742438D02*
X130661904Y-111837676D01*
X130661904Y-111837676D02*
X130709523Y-111932914D01*
X130709523Y-111932914D02*
X130757142Y-112123390D01*
X130757142Y-112123390D02*
X130757142Y-112266247D01*
X130757142Y-112266247D02*
X130709523Y-112456723D01*
X130709523Y-112456723D02*
X130661904Y-112551961D01*
X130661904Y-112551961D02*
X130566666Y-112647200D01*
X130566666Y-112647200D02*
X130423809Y-112694819D01*
X130423809Y-112694819D02*
X130185714Y-112694819D01*
X131090476Y-111694819D02*
X131709523Y-111694819D01*
X131709523Y-111694819D02*
X131376190Y-112075771D01*
X131376190Y-112075771D02*
X131519047Y-112075771D01*
X131519047Y-112075771D02*
X131614285Y-112123390D01*
X131614285Y-112123390D02*
X131661904Y-112171009D01*
X131661904Y-112171009D02*
X131709523Y-112266247D01*
X131709523Y-112266247D02*
X131709523Y-112504342D01*
X131709523Y-112504342D02*
X131661904Y-112599580D01*
X131661904Y-112599580D02*
X131614285Y-112647200D01*
X131614285Y-112647200D02*
X131519047Y-112694819D01*
X131519047Y-112694819D02*
X131233333Y-112694819D01*
X131233333Y-112694819D02*
X131138095Y-112647200D01*
X131138095Y-112647200D02*
X131090476Y-112599580D01*
X132042857Y-111694819D02*
X132661904Y-111694819D01*
X132661904Y-111694819D02*
X132328571Y-112075771D01*
X132328571Y-112075771D02*
X132471428Y-112075771D01*
X132471428Y-112075771D02*
X132566666Y-112123390D01*
X132566666Y-112123390D02*
X132614285Y-112171009D01*
X132614285Y-112171009D02*
X132661904Y-112266247D01*
X132661904Y-112266247D02*
X132661904Y-112504342D01*
X132661904Y-112504342D02*
X132614285Y-112599580D01*
X132614285Y-112599580D02*
X132566666Y-112647200D01*
X132566666Y-112647200D02*
X132471428Y-112694819D01*
X132471428Y-112694819D02*
X132185714Y-112694819D01*
X132185714Y-112694819D02*
X132090476Y-112647200D01*
X132090476Y-112647200D02*
X132042857Y-112599580D01*
X128528571Y-114512295D02*
X128071428Y-114512295D01*
X128300000Y-114512295D02*
X128300000Y-113712295D01*
X128300000Y-113712295D02*
X128223809Y-113826580D01*
X128223809Y-113826580D02*
X128147619Y-113902771D01*
X128147619Y-113902771D02*
X128071428Y-113940866D01*
X118915714Y-106904819D02*
X118915714Y-105904819D01*
X118915714Y-105904819D02*
X119153809Y-105904819D01*
X119153809Y-105904819D02*
X119296666Y-105952438D01*
X119296666Y-105952438D02*
X119391904Y-106047676D01*
X119391904Y-106047676D02*
X119439523Y-106142914D01*
X119439523Y-106142914D02*
X119487142Y-106333390D01*
X119487142Y-106333390D02*
X119487142Y-106476247D01*
X119487142Y-106476247D02*
X119439523Y-106666723D01*
X119439523Y-106666723D02*
X119391904Y-106761961D01*
X119391904Y-106761961D02*
X119296666Y-106857200D01*
X119296666Y-106857200D02*
X119153809Y-106904819D01*
X119153809Y-106904819D02*
X118915714Y-106904819D01*
X119868095Y-106000057D02*
X119915714Y-105952438D01*
X119915714Y-105952438D02*
X120010952Y-105904819D01*
X120010952Y-105904819D02*
X120249047Y-105904819D01*
X120249047Y-105904819D02*
X120344285Y-105952438D01*
X120344285Y-105952438D02*
X120391904Y-106000057D01*
X120391904Y-106000057D02*
X120439523Y-106095295D01*
X120439523Y-106095295D02*
X120439523Y-106190533D01*
X120439523Y-106190533D02*
X120391904Y-106333390D01*
X120391904Y-106333390D02*
X119820476Y-106904819D01*
X119820476Y-106904819D02*
X120439523Y-106904819D01*
X121296666Y-106238152D02*
X121296666Y-106904819D01*
X121058571Y-105857200D02*
X120820476Y-106571485D01*
X120820476Y-106571485D02*
X121439523Y-106571485D01*
X121528571Y-104512295D02*
X121071428Y-104512295D01*
X121300000Y-104512295D02*
X121300000Y-103712295D01*
X121300000Y-103712295D02*
X121223809Y-103826580D01*
X121223809Y-103826580D02*
X121147619Y-103902771D01*
X121147619Y-103902771D02*
X121071428Y-103940866D01*
X115361905Y-112704819D02*
X115361905Y-111704819D01*
X115361905Y-111704819D02*
X115600000Y-111704819D01*
X115600000Y-111704819D02*
X115742857Y-111752438D01*
X115742857Y-111752438D02*
X115838095Y-111847676D01*
X115838095Y-111847676D02*
X115885714Y-111942914D01*
X115885714Y-111942914D02*
X115933333Y-112133390D01*
X115933333Y-112133390D02*
X115933333Y-112276247D01*
X115933333Y-112276247D02*
X115885714Y-112466723D01*
X115885714Y-112466723D02*
X115838095Y-112561961D01*
X115838095Y-112561961D02*
X115742857Y-112657200D01*
X115742857Y-112657200D02*
X115600000Y-112704819D01*
X115600000Y-112704819D02*
X115361905Y-112704819D01*
X116885714Y-112704819D02*
X116314286Y-112704819D01*
X116600000Y-112704819D02*
X116600000Y-111704819D01*
X116600000Y-111704819D02*
X116504762Y-111847676D01*
X116504762Y-111847676D02*
X116409524Y-111942914D01*
X116409524Y-111942914D02*
X116314286Y-111990533D01*
X113268571Y-113942295D02*
X112811428Y-113942295D01*
X113040000Y-113942295D02*
X113040000Y-113142295D01*
X113040000Y-113142295D02*
X112963809Y-113256580D01*
X112963809Y-113256580D02*
X112887619Y-113332771D01*
X112887619Y-113332771D02*
X112811428Y-113370866D01*
X141355714Y-111864819D02*
X141355714Y-110864819D01*
X141355714Y-110864819D02*
X141593809Y-110864819D01*
X141593809Y-110864819D02*
X141736666Y-110912438D01*
X141736666Y-110912438D02*
X141831904Y-111007676D01*
X141831904Y-111007676D02*
X141879523Y-111102914D01*
X141879523Y-111102914D02*
X141927142Y-111293390D01*
X141927142Y-111293390D02*
X141927142Y-111436247D01*
X141927142Y-111436247D02*
X141879523Y-111626723D01*
X141879523Y-111626723D02*
X141831904Y-111721961D01*
X141831904Y-111721961D02*
X141736666Y-111817200D01*
X141736666Y-111817200D02*
X141593809Y-111864819D01*
X141593809Y-111864819D02*
X141355714Y-111864819D01*
X142260476Y-110864819D02*
X142879523Y-110864819D01*
X142879523Y-110864819D02*
X142546190Y-111245771D01*
X142546190Y-111245771D02*
X142689047Y-111245771D01*
X142689047Y-111245771D02*
X142784285Y-111293390D01*
X142784285Y-111293390D02*
X142831904Y-111341009D01*
X142831904Y-111341009D02*
X142879523Y-111436247D01*
X142879523Y-111436247D02*
X142879523Y-111674342D01*
X142879523Y-111674342D02*
X142831904Y-111769580D01*
X142831904Y-111769580D02*
X142784285Y-111817200D01*
X142784285Y-111817200D02*
X142689047Y-111864819D01*
X142689047Y-111864819D02*
X142403333Y-111864819D01*
X142403333Y-111864819D02*
X142308095Y-111817200D01*
X142308095Y-111817200D02*
X142260476Y-111769580D01*
X143736666Y-110864819D02*
X143546190Y-110864819D01*
X143546190Y-110864819D02*
X143450952Y-110912438D01*
X143450952Y-110912438D02*
X143403333Y-110960057D01*
X143403333Y-110960057D02*
X143308095Y-111102914D01*
X143308095Y-111102914D02*
X143260476Y-111293390D01*
X143260476Y-111293390D02*
X143260476Y-111674342D01*
X143260476Y-111674342D02*
X143308095Y-111769580D01*
X143308095Y-111769580D02*
X143355714Y-111817200D01*
X143355714Y-111817200D02*
X143450952Y-111864819D01*
X143450952Y-111864819D02*
X143641428Y-111864819D01*
X143641428Y-111864819D02*
X143736666Y-111817200D01*
X143736666Y-111817200D02*
X143784285Y-111769580D01*
X143784285Y-111769580D02*
X143831904Y-111674342D01*
X143831904Y-111674342D02*
X143831904Y-111436247D01*
X143831904Y-111436247D02*
X143784285Y-111341009D01*
X143784285Y-111341009D02*
X143736666Y-111293390D01*
X143736666Y-111293390D02*
X143641428Y-111245771D01*
X143641428Y-111245771D02*
X143450952Y-111245771D01*
X143450952Y-111245771D02*
X143355714Y-111293390D01*
X143355714Y-111293390D02*
X143308095Y-111341009D01*
X143308095Y-111341009D02*
X143260476Y-111436247D01*
X143768571Y-108962295D02*
X143311428Y-108962295D01*
X143540000Y-108962295D02*
X143540000Y-108162295D01*
X143540000Y-108162295D02*
X143463809Y-108276580D01*
X143463809Y-108276580D02*
X143387619Y-108352771D01*
X143387619Y-108352771D02*
X143311428Y-108390866D01*
X81061905Y-111414819D02*
X81061905Y-110414819D01*
X81061905Y-110414819D02*
X81300000Y-110414819D01*
X81300000Y-110414819D02*
X81442857Y-110462438D01*
X81442857Y-110462438D02*
X81538095Y-110557676D01*
X81538095Y-110557676D02*
X81585714Y-110652914D01*
X81585714Y-110652914D02*
X81633333Y-110843390D01*
X81633333Y-110843390D02*
X81633333Y-110986247D01*
X81633333Y-110986247D02*
X81585714Y-111176723D01*
X81585714Y-111176723D02*
X81538095Y-111271961D01*
X81538095Y-111271961D02*
X81442857Y-111367200D01*
X81442857Y-111367200D02*
X81300000Y-111414819D01*
X81300000Y-111414819D02*
X81061905Y-111414819D01*
X82538095Y-110414819D02*
X82061905Y-110414819D01*
X82061905Y-110414819D02*
X82014286Y-110891009D01*
X82014286Y-110891009D02*
X82061905Y-110843390D01*
X82061905Y-110843390D02*
X82157143Y-110795771D01*
X82157143Y-110795771D02*
X82395238Y-110795771D01*
X82395238Y-110795771D02*
X82490476Y-110843390D01*
X82490476Y-110843390D02*
X82538095Y-110891009D01*
X82538095Y-110891009D02*
X82585714Y-110986247D01*
X82585714Y-110986247D02*
X82585714Y-111224342D01*
X82585714Y-111224342D02*
X82538095Y-111319580D01*
X82538095Y-111319580D02*
X82490476Y-111367200D01*
X82490476Y-111367200D02*
X82395238Y-111414819D01*
X82395238Y-111414819D02*
X82157143Y-111414819D01*
X82157143Y-111414819D02*
X82061905Y-111367200D01*
X82061905Y-111367200D02*
X82014286Y-111319580D01*
X82628571Y-109512295D02*
X82171428Y-109512295D01*
X82400000Y-109512295D02*
X82400000Y-108712295D01*
X82400000Y-108712295D02*
X82323809Y-108826580D01*
X82323809Y-108826580D02*
X82247619Y-108902771D01*
X82247619Y-108902771D02*
X82171428Y-108940866D01*
X118915714Y-116824819D02*
X118915714Y-115824819D01*
X118915714Y-115824819D02*
X119153809Y-115824819D01*
X119153809Y-115824819D02*
X119296666Y-115872438D01*
X119296666Y-115872438D02*
X119391904Y-115967676D01*
X119391904Y-115967676D02*
X119439523Y-116062914D01*
X119439523Y-116062914D02*
X119487142Y-116253390D01*
X119487142Y-116253390D02*
X119487142Y-116396247D01*
X119487142Y-116396247D02*
X119439523Y-116586723D01*
X119439523Y-116586723D02*
X119391904Y-116681961D01*
X119391904Y-116681961D02*
X119296666Y-116777200D01*
X119296666Y-116777200D02*
X119153809Y-116824819D01*
X119153809Y-116824819D02*
X118915714Y-116824819D01*
X119868095Y-115920057D02*
X119915714Y-115872438D01*
X119915714Y-115872438D02*
X120010952Y-115824819D01*
X120010952Y-115824819D02*
X120249047Y-115824819D01*
X120249047Y-115824819D02*
X120344285Y-115872438D01*
X120344285Y-115872438D02*
X120391904Y-115920057D01*
X120391904Y-115920057D02*
X120439523Y-116015295D01*
X120439523Y-116015295D02*
X120439523Y-116110533D01*
X120439523Y-116110533D02*
X120391904Y-116253390D01*
X120391904Y-116253390D02*
X119820476Y-116824819D01*
X119820476Y-116824819D02*
X120439523Y-116824819D01*
X120820476Y-115920057D02*
X120868095Y-115872438D01*
X120868095Y-115872438D02*
X120963333Y-115824819D01*
X120963333Y-115824819D02*
X121201428Y-115824819D01*
X121201428Y-115824819D02*
X121296666Y-115872438D01*
X121296666Y-115872438D02*
X121344285Y-115920057D01*
X121344285Y-115920057D02*
X121391904Y-116015295D01*
X121391904Y-116015295D02*
X121391904Y-116110533D01*
X121391904Y-116110533D02*
X121344285Y-116253390D01*
X121344285Y-116253390D02*
X120772857Y-116824819D01*
X120772857Y-116824819D02*
X121391904Y-116824819D01*
X121528571Y-114512295D02*
X121071428Y-114512295D01*
X121300000Y-114512295D02*
X121300000Y-113712295D01*
X121300000Y-113712295D02*
X121223809Y-113826580D01*
X121223809Y-113826580D02*
X121147619Y-113902771D01*
X121147619Y-113902771D02*
X121071428Y-113940866D01*
X99585714Y-102704819D02*
X99585714Y-101704819D01*
X99585714Y-101704819D02*
X99823809Y-101704819D01*
X99823809Y-101704819D02*
X99966666Y-101752438D01*
X99966666Y-101752438D02*
X100061904Y-101847676D01*
X100061904Y-101847676D02*
X100109523Y-101942914D01*
X100109523Y-101942914D02*
X100157142Y-102133390D01*
X100157142Y-102133390D02*
X100157142Y-102276247D01*
X100157142Y-102276247D02*
X100109523Y-102466723D01*
X100109523Y-102466723D02*
X100061904Y-102561961D01*
X100061904Y-102561961D02*
X99966666Y-102657200D01*
X99966666Y-102657200D02*
X99823809Y-102704819D01*
X99823809Y-102704819D02*
X99585714Y-102704819D01*
X101109523Y-102704819D02*
X100538095Y-102704819D01*
X100823809Y-102704819D02*
X100823809Y-101704819D01*
X100823809Y-101704819D02*
X100728571Y-101847676D01*
X100728571Y-101847676D02*
X100633333Y-101942914D01*
X100633333Y-101942914D02*
X100538095Y-101990533D01*
X102014285Y-101704819D02*
X101538095Y-101704819D01*
X101538095Y-101704819D02*
X101490476Y-102181009D01*
X101490476Y-102181009D02*
X101538095Y-102133390D01*
X101538095Y-102133390D02*
X101633333Y-102085771D01*
X101633333Y-102085771D02*
X101871428Y-102085771D01*
X101871428Y-102085771D02*
X101966666Y-102133390D01*
X101966666Y-102133390D02*
X102014285Y-102181009D01*
X102014285Y-102181009D02*
X102061904Y-102276247D01*
X102061904Y-102276247D02*
X102061904Y-102514342D01*
X102061904Y-102514342D02*
X102014285Y-102609580D01*
X102014285Y-102609580D02*
X101966666Y-102657200D01*
X101966666Y-102657200D02*
X101871428Y-102704819D01*
X101871428Y-102704819D02*
X101633333Y-102704819D01*
X101633333Y-102704819D02*
X101538095Y-102657200D01*
X101538095Y-102657200D02*
X101490476Y-102609580D01*
X97928571Y-104512295D02*
X97471428Y-104512295D01*
X97700000Y-104512295D02*
X97700000Y-103712295D01*
X97700000Y-103712295D02*
X97623809Y-103826580D01*
X97623809Y-103826580D02*
X97547619Y-103902771D01*
X97547619Y-103902771D02*
X97471428Y-103940866D01*
X118965714Y-96734819D02*
X118965714Y-95734819D01*
X118965714Y-95734819D02*
X119203809Y-95734819D01*
X119203809Y-95734819D02*
X119346666Y-95782438D01*
X119346666Y-95782438D02*
X119441904Y-95877676D01*
X119441904Y-95877676D02*
X119489523Y-95972914D01*
X119489523Y-95972914D02*
X119537142Y-96163390D01*
X119537142Y-96163390D02*
X119537142Y-96306247D01*
X119537142Y-96306247D02*
X119489523Y-96496723D01*
X119489523Y-96496723D02*
X119441904Y-96591961D01*
X119441904Y-96591961D02*
X119346666Y-96687200D01*
X119346666Y-96687200D02*
X119203809Y-96734819D01*
X119203809Y-96734819D02*
X118965714Y-96734819D01*
X119918095Y-95830057D02*
X119965714Y-95782438D01*
X119965714Y-95782438D02*
X120060952Y-95734819D01*
X120060952Y-95734819D02*
X120299047Y-95734819D01*
X120299047Y-95734819D02*
X120394285Y-95782438D01*
X120394285Y-95782438D02*
X120441904Y-95830057D01*
X120441904Y-95830057D02*
X120489523Y-95925295D01*
X120489523Y-95925295D02*
X120489523Y-96020533D01*
X120489523Y-96020533D02*
X120441904Y-96163390D01*
X120441904Y-96163390D02*
X119870476Y-96734819D01*
X119870476Y-96734819D02*
X120489523Y-96734819D01*
X121346666Y-95734819D02*
X121156190Y-95734819D01*
X121156190Y-95734819D02*
X121060952Y-95782438D01*
X121060952Y-95782438D02*
X121013333Y-95830057D01*
X121013333Y-95830057D02*
X120918095Y-95972914D01*
X120918095Y-95972914D02*
X120870476Y-96163390D01*
X120870476Y-96163390D02*
X120870476Y-96544342D01*
X120870476Y-96544342D02*
X120918095Y-96639580D01*
X120918095Y-96639580D02*
X120965714Y-96687200D01*
X120965714Y-96687200D02*
X121060952Y-96734819D01*
X121060952Y-96734819D02*
X121251428Y-96734819D01*
X121251428Y-96734819D02*
X121346666Y-96687200D01*
X121346666Y-96687200D02*
X121394285Y-96639580D01*
X121394285Y-96639580D02*
X121441904Y-96544342D01*
X121441904Y-96544342D02*
X121441904Y-96306247D01*
X121441904Y-96306247D02*
X121394285Y-96211009D01*
X121394285Y-96211009D02*
X121346666Y-96163390D01*
X121346666Y-96163390D02*
X121251428Y-96115771D01*
X121251428Y-96115771D02*
X121060952Y-96115771D01*
X121060952Y-96115771D02*
X120965714Y-96163390D01*
X120965714Y-96163390D02*
X120918095Y-96211009D01*
X120918095Y-96211009D02*
X120870476Y-96306247D01*
X121528571Y-94512295D02*
X121071428Y-94512295D01*
X121300000Y-94512295D02*
X121300000Y-93712295D01*
X121300000Y-93712295D02*
X121223809Y-93826580D01*
X121223809Y-93826580D02*
X121147619Y-93902771D01*
X121147619Y-93902771D02*
X121071428Y-93940866D01*
X89371905Y-106454819D02*
X89371905Y-105454819D01*
X89371905Y-105454819D02*
X89610000Y-105454819D01*
X89610000Y-105454819D02*
X89752857Y-105502438D01*
X89752857Y-105502438D02*
X89848095Y-105597676D01*
X89848095Y-105597676D02*
X89895714Y-105692914D01*
X89895714Y-105692914D02*
X89943333Y-105883390D01*
X89943333Y-105883390D02*
X89943333Y-106026247D01*
X89943333Y-106026247D02*
X89895714Y-106216723D01*
X89895714Y-106216723D02*
X89848095Y-106311961D01*
X89848095Y-106311961D02*
X89752857Y-106407200D01*
X89752857Y-106407200D02*
X89610000Y-106454819D01*
X89610000Y-106454819D02*
X89371905Y-106454819D01*
X90419524Y-106454819D02*
X90610000Y-106454819D01*
X90610000Y-106454819D02*
X90705238Y-106407200D01*
X90705238Y-106407200D02*
X90752857Y-106359580D01*
X90752857Y-106359580D02*
X90848095Y-106216723D01*
X90848095Y-106216723D02*
X90895714Y-106026247D01*
X90895714Y-106026247D02*
X90895714Y-105645295D01*
X90895714Y-105645295D02*
X90848095Y-105550057D01*
X90848095Y-105550057D02*
X90800476Y-105502438D01*
X90800476Y-105502438D02*
X90705238Y-105454819D01*
X90705238Y-105454819D02*
X90514762Y-105454819D01*
X90514762Y-105454819D02*
X90419524Y-105502438D01*
X90419524Y-105502438D02*
X90371905Y-105550057D01*
X90371905Y-105550057D02*
X90324286Y-105645295D01*
X90324286Y-105645295D02*
X90324286Y-105883390D01*
X90324286Y-105883390D02*
X90371905Y-105978628D01*
X90371905Y-105978628D02*
X90419524Y-106026247D01*
X90419524Y-106026247D02*
X90514762Y-106073866D01*
X90514762Y-106073866D02*
X90705238Y-106073866D01*
X90705238Y-106073866D02*
X90800476Y-106026247D01*
X90800476Y-106026247D02*
X90848095Y-105978628D01*
X90848095Y-105978628D02*
X90895714Y-105883390D01*
X90928571Y-104512295D02*
X90471428Y-104512295D01*
X90700000Y-104512295D02*
X90700000Y-103712295D01*
X90700000Y-103712295D02*
X90623809Y-103826580D01*
X90623809Y-103826580D02*
X90547619Y-103902771D01*
X90547619Y-103902771D02*
X90471428Y-103940866D01*
X141315714Y-116864819D02*
X141315714Y-115864819D01*
X141315714Y-115864819D02*
X141553809Y-115864819D01*
X141553809Y-115864819D02*
X141696666Y-115912438D01*
X141696666Y-115912438D02*
X141791904Y-116007676D01*
X141791904Y-116007676D02*
X141839523Y-116102914D01*
X141839523Y-116102914D02*
X141887142Y-116293390D01*
X141887142Y-116293390D02*
X141887142Y-116436247D01*
X141887142Y-116436247D02*
X141839523Y-116626723D01*
X141839523Y-116626723D02*
X141791904Y-116721961D01*
X141791904Y-116721961D02*
X141696666Y-116817200D01*
X141696666Y-116817200D02*
X141553809Y-116864819D01*
X141553809Y-116864819D02*
X141315714Y-116864819D01*
X142220476Y-115864819D02*
X142839523Y-115864819D01*
X142839523Y-115864819D02*
X142506190Y-116245771D01*
X142506190Y-116245771D02*
X142649047Y-116245771D01*
X142649047Y-116245771D02*
X142744285Y-116293390D01*
X142744285Y-116293390D02*
X142791904Y-116341009D01*
X142791904Y-116341009D02*
X142839523Y-116436247D01*
X142839523Y-116436247D02*
X142839523Y-116674342D01*
X142839523Y-116674342D02*
X142791904Y-116769580D01*
X142791904Y-116769580D02*
X142744285Y-116817200D01*
X142744285Y-116817200D02*
X142649047Y-116864819D01*
X142649047Y-116864819D02*
X142363333Y-116864819D01*
X142363333Y-116864819D02*
X142268095Y-116817200D01*
X142268095Y-116817200D02*
X142220476Y-116769580D01*
X143744285Y-115864819D02*
X143268095Y-115864819D01*
X143268095Y-115864819D02*
X143220476Y-116341009D01*
X143220476Y-116341009D02*
X143268095Y-116293390D01*
X143268095Y-116293390D02*
X143363333Y-116245771D01*
X143363333Y-116245771D02*
X143601428Y-116245771D01*
X143601428Y-116245771D02*
X143696666Y-116293390D01*
X143696666Y-116293390D02*
X143744285Y-116341009D01*
X143744285Y-116341009D02*
X143791904Y-116436247D01*
X143791904Y-116436247D02*
X143791904Y-116674342D01*
X143791904Y-116674342D02*
X143744285Y-116769580D01*
X143744285Y-116769580D02*
X143696666Y-116817200D01*
X143696666Y-116817200D02*
X143601428Y-116864819D01*
X143601428Y-116864819D02*
X143363333Y-116864819D01*
X143363333Y-116864819D02*
X143268095Y-116817200D01*
X143268095Y-116817200D02*
X143220476Y-116769580D01*
X143698571Y-113982295D02*
X143241428Y-113982295D01*
X143470000Y-113982295D02*
X143470000Y-113182295D01*
X143470000Y-113182295D02*
X143393809Y-113296580D01*
X143393809Y-113296580D02*
X143317619Y-113372771D01*
X143317619Y-113372771D02*
X143241428Y-113410866D01*
X80971905Y-96254819D02*
X80971905Y-95254819D01*
X80971905Y-95254819D02*
X81210000Y-95254819D01*
X81210000Y-95254819D02*
X81352857Y-95302438D01*
X81352857Y-95302438D02*
X81448095Y-95397676D01*
X81448095Y-95397676D02*
X81495714Y-95492914D01*
X81495714Y-95492914D02*
X81543333Y-95683390D01*
X81543333Y-95683390D02*
X81543333Y-95826247D01*
X81543333Y-95826247D02*
X81495714Y-96016723D01*
X81495714Y-96016723D02*
X81448095Y-96111961D01*
X81448095Y-96111961D02*
X81352857Y-96207200D01*
X81352857Y-96207200D02*
X81210000Y-96254819D01*
X81210000Y-96254819D02*
X80971905Y-96254819D01*
X81924286Y-95350057D02*
X81971905Y-95302438D01*
X81971905Y-95302438D02*
X82067143Y-95254819D01*
X82067143Y-95254819D02*
X82305238Y-95254819D01*
X82305238Y-95254819D02*
X82400476Y-95302438D01*
X82400476Y-95302438D02*
X82448095Y-95350057D01*
X82448095Y-95350057D02*
X82495714Y-95445295D01*
X82495714Y-95445295D02*
X82495714Y-95540533D01*
X82495714Y-95540533D02*
X82448095Y-95683390D01*
X82448095Y-95683390D02*
X81876667Y-96254819D01*
X81876667Y-96254819D02*
X82495714Y-96254819D01*
X82628571Y-94512295D02*
X82171428Y-94512295D01*
X82400000Y-94512295D02*
X82400000Y-93712295D01*
X82400000Y-93712295D02*
X82323809Y-93826580D01*
X82323809Y-93826580D02*
X82247619Y-93902771D01*
X82247619Y-93902771D02*
X82171428Y-93940866D01*
X141285714Y-110394819D02*
X141285714Y-109394819D01*
X141285714Y-109394819D02*
X141523809Y-109394819D01*
X141523809Y-109394819D02*
X141666666Y-109442438D01*
X141666666Y-109442438D02*
X141761904Y-109537676D01*
X141761904Y-109537676D02*
X141809523Y-109632914D01*
X141809523Y-109632914D02*
X141857142Y-109823390D01*
X141857142Y-109823390D02*
X141857142Y-109966247D01*
X141857142Y-109966247D02*
X141809523Y-110156723D01*
X141809523Y-110156723D02*
X141761904Y-110251961D01*
X141761904Y-110251961D02*
X141666666Y-110347200D01*
X141666666Y-110347200D02*
X141523809Y-110394819D01*
X141523809Y-110394819D02*
X141285714Y-110394819D01*
X142190476Y-109394819D02*
X142809523Y-109394819D01*
X142809523Y-109394819D02*
X142476190Y-109775771D01*
X142476190Y-109775771D02*
X142619047Y-109775771D01*
X142619047Y-109775771D02*
X142714285Y-109823390D01*
X142714285Y-109823390D02*
X142761904Y-109871009D01*
X142761904Y-109871009D02*
X142809523Y-109966247D01*
X142809523Y-109966247D02*
X142809523Y-110204342D01*
X142809523Y-110204342D02*
X142761904Y-110299580D01*
X142761904Y-110299580D02*
X142714285Y-110347200D01*
X142714285Y-110347200D02*
X142619047Y-110394819D01*
X142619047Y-110394819D02*
X142333333Y-110394819D01*
X142333333Y-110394819D02*
X142238095Y-110347200D01*
X142238095Y-110347200D02*
X142190476Y-110299580D01*
X143190476Y-109490057D02*
X143238095Y-109442438D01*
X143238095Y-109442438D02*
X143333333Y-109394819D01*
X143333333Y-109394819D02*
X143571428Y-109394819D01*
X143571428Y-109394819D02*
X143666666Y-109442438D01*
X143666666Y-109442438D02*
X143714285Y-109490057D01*
X143714285Y-109490057D02*
X143761904Y-109585295D01*
X143761904Y-109585295D02*
X143761904Y-109680533D01*
X143761904Y-109680533D02*
X143714285Y-109823390D01*
X143714285Y-109823390D02*
X143142857Y-110394819D01*
X143142857Y-110394819D02*
X143761904Y-110394819D01*
X135528571Y-109512295D02*
X135071428Y-109512295D01*
X135300000Y-109512295D02*
X135300000Y-108712295D01*
X135300000Y-108712295D02*
X135223809Y-108826580D01*
X135223809Y-108826580D02*
X135147619Y-108902771D01*
X135147619Y-108902771D02*
X135071428Y-108940866D01*
X99585714Y-92704819D02*
X99585714Y-91704819D01*
X99585714Y-91704819D02*
X99823809Y-91704819D01*
X99823809Y-91704819D02*
X99966666Y-91752438D01*
X99966666Y-91752438D02*
X100061904Y-91847676D01*
X100061904Y-91847676D02*
X100109523Y-91942914D01*
X100109523Y-91942914D02*
X100157142Y-92133390D01*
X100157142Y-92133390D02*
X100157142Y-92276247D01*
X100157142Y-92276247D02*
X100109523Y-92466723D01*
X100109523Y-92466723D02*
X100061904Y-92561961D01*
X100061904Y-92561961D02*
X99966666Y-92657200D01*
X99966666Y-92657200D02*
X99823809Y-92704819D01*
X99823809Y-92704819D02*
X99585714Y-92704819D01*
X101109523Y-92704819D02*
X100538095Y-92704819D01*
X100823809Y-92704819D02*
X100823809Y-91704819D01*
X100823809Y-91704819D02*
X100728571Y-91847676D01*
X100728571Y-91847676D02*
X100633333Y-91942914D01*
X100633333Y-91942914D02*
X100538095Y-91990533D01*
X101490476Y-91800057D02*
X101538095Y-91752438D01*
X101538095Y-91752438D02*
X101633333Y-91704819D01*
X101633333Y-91704819D02*
X101871428Y-91704819D01*
X101871428Y-91704819D02*
X101966666Y-91752438D01*
X101966666Y-91752438D02*
X102014285Y-91800057D01*
X102014285Y-91800057D02*
X102061904Y-91895295D01*
X102061904Y-91895295D02*
X102061904Y-91990533D01*
X102061904Y-91990533D02*
X102014285Y-92133390D01*
X102014285Y-92133390D02*
X101442857Y-92704819D01*
X101442857Y-92704819D02*
X102061904Y-92704819D01*
X97928571Y-94512295D02*
X97471428Y-94512295D01*
X97700000Y-94512295D02*
X97700000Y-93712295D01*
X97700000Y-93712295D02*
X97623809Y-93826580D01*
X97623809Y-93826580D02*
X97547619Y-93902771D01*
X97547619Y-93902771D02*
X97471428Y-93940866D01*
X110735714Y-115444819D02*
X110735714Y-114444819D01*
X110735714Y-114444819D02*
X110973809Y-114444819D01*
X110973809Y-114444819D02*
X111116666Y-114492438D01*
X111116666Y-114492438D02*
X111211904Y-114587676D01*
X111211904Y-114587676D02*
X111259523Y-114682914D01*
X111259523Y-114682914D02*
X111307142Y-114873390D01*
X111307142Y-114873390D02*
X111307142Y-115016247D01*
X111307142Y-115016247D02*
X111259523Y-115206723D01*
X111259523Y-115206723D02*
X111211904Y-115301961D01*
X111211904Y-115301961D02*
X111116666Y-115397200D01*
X111116666Y-115397200D02*
X110973809Y-115444819D01*
X110973809Y-115444819D02*
X110735714Y-115444819D01*
X112259523Y-115444819D02*
X111688095Y-115444819D01*
X111973809Y-115444819D02*
X111973809Y-114444819D01*
X111973809Y-114444819D02*
X111878571Y-114587676D01*
X111878571Y-114587676D02*
X111783333Y-114682914D01*
X111783333Y-114682914D02*
X111688095Y-114730533D01*
X112735714Y-115444819D02*
X112926190Y-115444819D01*
X112926190Y-115444819D02*
X113021428Y-115397200D01*
X113021428Y-115397200D02*
X113069047Y-115349580D01*
X113069047Y-115349580D02*
X113164285Y-115206723D01*
X113164285Y-115206723D02*
X113211904Y-115016247D01*
X113211904Y-115016247D02*
X113211904Y-114635295D01*
X113211904Y-114635295D02*
X113164285Y-114540057D01*
X113164285Y-114540057D02*
X113116666Y-114492438D01*
X113116666Y-114492438D02*
X113021428Y-114444819D01*
X113021428Y-114444819D02*
X112830952Y-114444819D01*
X112830952Y-114444819D02*
X112735714Y-114492438D01*
X112735714Y-114492438D02*
X112688095Y-114540057D01*
X112688095Y-114540057D02*
X112640476Y-114635295D01*
X112640476Y-114635295D02*
X112640476Y-114873390D01*
X112640476Y-114873390D02*
X112688095Y-114968628D01*
X112688095Y-114968628D02*
X112735714Y-115016247D01*
X112735714Y-115016247D02*
X112830952Y-115063866D01*
X112830952Y-115063866D02*
X113021428Y-115063866D01*
X113021428Y-115063866D02*
X113116666Y-115016247D01*
X113116666Y-115016247D02*
X113164285Y-114968628D01*
X113164285Y-114968628D02*
X113211904Y-114873390D01*
X104928571Y-114512295D02*
X104471428Y-114512295D01*
X104700000Y-114512295D02*
X104700000Y-113712295D01*
X104700000Y-113712295D02*
X104623809Y-113826580D01*
X104623809Y-113826580D02*
X104547619Y-113902771D01*
X104547619Y-113902771D02*
X104471428Y-113940866D01*
X110735714Y-98764819D02*
X110735714Y-97764819D01*
X110735714Y-97764819D02*
X110973809Y-97764819D01*
X110973809Y-97764819D02*
X111116666Y-97812438D01*
X111116666Y-97812438D02*
X111211904Y-97907676D01*
X111211904Y-97907676D02*
X111259523Y-98002914D01*
X111259523Y-98002914D02*
X111307142Y-98193390D01*
X111307142Y-98193390D02*
X111307142Y-98336247D01*
X111307142Y-98336247D02*
X111259523Y-98526723D01*
X111259523Y-98526723D02*
X111211904Y-98621961D01*
X111211904Y-98621961D02*
X111116666Y-98717200D01*
X111116666Y-98717200D02*
X110973809Y-98764819D01*
X110973809Y-98764819D02*
X110735714Y-98764819D01*
X111688095Y-97860057D02*
X111735714Y-97812438D01*
X111735714Y-97812438D02*
X111830952Y-97764819D01*
X111830952Y-97764819D02*
X112069047Y-97764819D01*
X112069047Y-97764819D02*
X112164285Y-97812438D01*
X112164285Y-97812438D02*
X112211904Y-97860057D01*
X112211904Y-97860057D02*
X112259523Y-97955295D01*
X112259523Y-97955295D02*
X112259523Y-98050533D01*
X112259523Y-98050533D02*
X112211904Y-98193390D01*
X112211904Y-98193390D02*
X111640476Y-98764819D01*
X111640476Y-98764819D02*
X112259523Y-98764819D01*
X113211904Y-98764819D02*
X112640476Y-98764819D01*
X112926190Y-98764819D02*
X112926190Y-97764819D01*
X112926190Y-97764819D02*
X112830952Y-97907676D01*
X112830952Y-97907676D02*
X112735714Y-98002914D01*
X112735714Y-98002914D02*
X112640476Y-98050533D01*
X113138571Y-96862295D02*
X112681428Y-96862295D01*
X112910000Y-96862295D02*
X112910000Y-96062295D01*
X112910000Y-96062295D02*
X112833809Y-96176580D01*
X112833809Y-96176580D02*
X112757619Y-96252771D01*
X112757619Y-96252771D02*
X112681428Y-96290866D01*
D11*
%TO.C,D27*%
X128750000Y-93010000D02*
X128750000Y-96990000D01*
X128750000Y-93010000D02*
X134050000Y-93010000D01*
X128750000Y-96990000D02*
X133390000Y-96990000D01*
X134050000Y-96300000D02*
X133390000Y-96990000D01*
X134050000Y-96300000D02*
X134050000Y-93010000D01*
%TO.C,D13*%
X105150000Y-93010000D02*
X105150000Y-96990000D01*
X105150000Y-93010000D02*
X110450000Y-93010000D01*
X105150000Y-96990000D02*
X109790000Y-96990000D01*
X110450000Y-96300000D02*
X109790000Y-96990000D01*
X110450000Y-96300000D02*
X110450000Y-93010000D01*
%TO.C,D14*%
X105150000Y-98010000D02*
X105150000Y-101990000D01*
X105150000Y-98010000D02*
X110450000Y-98010000D01*
X105150000Y-101990000D02*
X109790000Y-101990000D01*
X110450000Y-101300000D02*
X109790000Y-101990000D01*
X110450000Y-101300000D02*
X110450000Y-98010000D01*
%TO.C,D7*%
X91150000Y-113010000D02*
X91150000Y-116990000D01*
X91150000Y-113010000D02*
X96450000Y-113010000D01*
X91150000Y-116990000D02*
X95790000Y-116990000D01*
X96450000Y-116300000D02*
X95790000Y-116990000D01*
X96450000Y-116300000D02*
X96450000Y-113010000D01*
%TO.C,D20*%
X113450000Y-105010000D02*
X113450000Y-108990000D01*
X113450000Y-105010000D02*
X118750000Y-105010000D01*
X113450000Y-108990000D02*
X118090000Y-108990000D01*
X118750000Y-108300000D02*
X118090000Y-108990000D01*
X118750000Y-108300000D02*
X118750000Y-105010000D01*
%TO.C,D41*%
X158050000Y-93010000D02*
X158050000Y-96990000D01*
X158050000Y-93010000D02*
X163350000Y-93010000D01*
X158050000Y-96990000D02*
X162690000Y-96990000D01*
X163350000Y-96300000D02*
X162690000Y-96990000D01*
X163350000Y-96300000D02*
X163350000Y-93010000D01*
%TO.C,D4*%
X82850000Y-103010000D02*
X82850000Y-106990000D01*
X82850000Y-103010000D02*
X88150000Y-103010000D01*
X82850000Y-106990000D02*
X87490000Y-106990000D01*
X88150000Y-106300000D02*
X87490000Y-106990000D01*
X88150000Y-106300000D02*
X88150000Y-103010000D01*
%TO.C,D39*%
X144050000Y-93010000D02*
X144050000Y-96990000D01*
X144050000Y-93010000D02*
X149350000Y-93010000D01*
X144050000Y-96990000D02*
X148690000Y-96990000D01*
X149350000Y-96300000D02*
X148690000Y-96990000D01*
X149350000Y-96300000D02*
X149350000Y-93010000D01*
%TO.C,D42*%
X158050000Y-98010000D02*
X158050000Y-101990000D01*
X158050000Y-98010000D02*
X163350000Y-98010000D01*
X158050000Y-101990000D02*
X162690000Y-101990000D01*
X163350000Y-101300000D02*
X162690000Y-101990000D01*
X163350000Y-101300000D02*
X163350000Y-98010000D01*
%TO.C,D3*%
X82850000Y-98010000D02*
X82850000Y-101990000D01*
X82850000Y-98010000D02*
X88150000Y-98010000D01*
X82850000Y-101990000D02*
X87490000Y-101990000D01*
X88150000Y-101300000D02*
X87490000Y-101990000D01*
X88150000Y-101300000D02*
X88150000Y-98010000D01*
%TO.C,D40*%
X151050000Y-93010000D02*
X151050000Y-96990000D01*
X151050000Y-93010000D02*
X156350000Y-93010000D01*
X151050000Y-96990000D02*
X155690000Y-96990000D01*
X156350000Y-96300000D02*
X155690000Y-96990000D01*
X156350000Y-96300000D02*
X156350000Y-93010000D01*
%TO.C,D43*%
X151050000Y-103010000D02*
X151050000Y-106990000D01*
X151050000Y-103010000D02*
X156350000Y-103010000D01*
X151050000Y-106990000D02*
X155690000Y-106990000D01*
X156350000Y-106300000D02*
X155690000Y-106990000D01*
X156350000Y-106300000D02*
X156350000Y-103010000D01*
%TO.C,D37*%
X144050000Y-103010000D02*
X144050000Y-106990000D01*
X144050000Y-103010000D02*
X149350000Y-103010000D01*
X144050000Y-106990000D02*
X148690000Y-106990000D01*
X149350000Y-106300000D02*
X148690000Y-106990000D01*
X149350000Y-106300000D02*
X149350000Y-103010000D01*
%TO.C,D10*%
X91150000Y-98010000D02*
X91150000Y-101990000D01*
X91150000Y-98010000D02*
X96450000Y-98010000D01*
X91150000Y-101990000D02*
X95790000Y-101990000D01*
X96450000Y-101300000D02*
X95790000Y-101990000D01*
X96450000Y-101300000D02*
X96450000Y-98010000D01*
%TO.C,D45*%
X158050000Y-108010000D02*
X158050000Y-111990000D01*
X158050000Y-108010000D02*
X163350000Y-108010000D01*
X158050000Y-111990000D02*
X162690000Y-111990000D01*
X163350000Y-111300000D02*
X162690000Y-111990000D01*
X163350000Y-111300000D02*
X163350000Y-108010000D01*
%TO.C,D30*%
X128750000Y-103010000D02*
X128750000Y-106990000D01*
X128750000Y-103010000D02*
X134050000Y-103010000D01*
X128750000Y-106990000D02*
X133390000Y-106990000D01*
X134050000Y-106300000D02*
X133390000Y-106990000D01*
X134050000Y-106300000D02*
X134050000Y-103010000D01*
%TO.C,D34*%
X135750000Y-113010000D02*
X135750000Y-116990000D01*
X135750000Y-113010000D02*
X141050000Y-113010000D01*
X135750000Y-116990000D02*
X140390000Y-116990000D01*
X141050000Y-116300000D02*
X140390000Y-116990000D01*
X141050000Y-116300000D02*
X141050000Y-113010000D01*
%TO.C,D25*%
X121750000Y-98010000D02*
X121750000Y-101990000D01*
X121750000Y-98010000D02*
X127050000Y-98010000D01*
X121750000Y-101990000D02*
X126390000Y-101990000D01*
X127050000Y-101300000D02*
X126390000Y-101990000D01*
X127050000Y-101300000D02*
X127050000Y-98010000D01*
%TO.C,D6*%
X82850000Y-113010000D02*
X82850000Y-116990000D01*
X82850000Y-113010000D02*
X88150000Y-113010000D01*
X82850000Y-116990000D02*
X87490000Y-116990000D01*
X88150000Y-116300000D02*
X87490000Y-116990000D01*
X88150000Y-116300000D02*
X88150000Y-113010000D01*
%TO.C,D8*%
X91150000Y-108010000D02*
X91150000Y-111990000D01*
X91150000Y-108010000D02*
X96450000Y-108010000D01*
X91150000Y-111990000D02*
X95790000Y-111990000D01*
X96450000Y-111300000D02*
X95790000Y-111990000D01*
X96450000Y-111300000D02*
X96450000Y-108010000D01*
%TO.C,D17*%
X105150000Y-108010000D02*
X105150000Y-111990000D01*
X105150000Y-108010000D02*
X110450000Y-108010000D01*
X105150000Y-111990000D02*
X109790000Y-111990000D01*
X110450000Y-111300000D02*
X109790000Y-111990000D01*
X110450000Y-111300000D02*
X110450000Y-108010000D01*
%TO.C,D18*%
X98150000Y-113010000D02*
X98150000Y-116990000D01*
X98150000Y-113010000D02*
X103450000Y-113010000D01*
X98150000Y-116990000D02*
X102790000Y-116990000D01*
X103450000Y-116300000D02*
X102790000Y-116990000D01*
X103450000Y-116300000D02*
X103450000Y-113010000D01*
%TO.C,D47*%
X158050000Y-113010000D02*
X158050000Y-116990000D01*
X158050000Y-113010000D02*
X163350000Y-113010000D01*
X158050000Y-116990000D02*
X162690000Y-116990000D01*
X163350000Y-116300000D02*
X162690000Y-116990000D01*
X163350000Y-116300000D02*
X163350000Y-113010000D01*
%TO.C,D23*%
X121750000Y-108010000D02*
X121750000Y-111990000D01*
X121750000Y-108010000D02*
X127050000Y-108010000D01*
X121750000Y-111990000D02*
X126390000Y-111990000D01*
X127050000Y-111300000D02*
X126390000Y-111990000D01*
X127050000Y-111300000D02*
X127050000Y-108010000D01*
%TO.C,D31*%
X135750000Y-103010000D02*
X135750000Y-106990000D01*
X135750000Y-103010000D02*
X141050000Y-103010000D01*
X135750000Y-106990000D02*
X140390000Y-106990000D01*
X141050000Y-106300000D02*
X140390000Y-106990000D01*
X141050000Y-106300000D02*
X141050000Y-103010000D01*
%TO.C,D29*%
X135750000Y-98010000D02*
X135750000Y-101990000D01*
X135750000Y-98010000D02*
X141050000Y-98010000D01*
X135750000Y-101990000D02*
X140390000Y-101990000D01*
X141050000Y-101300000D02*
X140390000Y-101990000D01*
X141050000Y-101300000D02*
X141050000Y-98010000D01*
%TO.C,D46*%
X151050000Y-113010000D02*
X151050000Y-116990000D01*
X151050000Y-113010000D02*
X156350000Y-113010000D01*
X151050000Y-116990000D02*
X155690000Y-116990000D01*
X156350000Y-116300000D02*
X155690000Y-116990000D01*
X156350000Y-116300000D02*
X156350000Y-113010000D01*
%TO.C,D28*%
X135750000Y-93010000D02*
X135750000Y-96990000D01*
X135750000Y-93010000D02*
X141050000Y-93010000D01*
X135750000Y-96990000D02*
X140390000Y-96990000D01*
X141050000Y-96300000D02*
X140390000Y-96990000D01*
X141050000Y-96300000D02*
X141050000Y-93010000D01*
%TO.C,D16*%
X105150000Y-103010000D02*
X105150000Y-106990000D01*
X105150000Y-103010000D02*
X110450000Y-103010000D01*
X105150000Y-106990000D02*
X109790000Y-106990000D01*
X110450000Y-106300000D02*
X109790000Y-106990000D01*
X110450000Y-106300000D02*
X110450000Y-103010000D01*
%TO.C,D11*%
X91150000Y-93010000D02*
X91150000Y-96990000D01*
X91150000Y-93010000D02*
X96450000Y-93010000D01*
X91150000Y-96990000D02*
X95790000Y-96990000D01*
X96450000Y-96300000D02*
X95790000Y-96990000D01*
X96450000Y-96300000D02*
X96450000Y-93010000D01*
%TO.C,D38*%
X144050000Y-98010000D02*
X144050000Y-101990000D01*
X144050000Y-98010000D02*
X149350000Y-98010000D01*
X144050000Y-101990000D02*
X148690000Y-101990000D01*
X149350000Y-101300000D02*
X148690000Y-101990000D01*
X149350000Y-101300000D02*
X149350000Y-98010000D01*
%TO.C,D44*%
X158050000Y-103010000D02*
X158050000Y-106990000D01*
X158050000Y-103010000D02*
X163350000Y-103010000D01*
X158050000Y-106990000D02*
X162690000Y-106990000D01*
X163350000Y-106300000D02*
X162690000Y-106990000D01*
X163350000Y-106300000D02*
X163350000Y-103010000D01*
%TO.C,D33*%
X128750000Y-113010000D02*
X128750000Y-116990000D01*
X128750000Y-113010000D02*
X134050000Y-113010000D01*
X128750000Y-116990000D02*
X133390000Y-116990000D01*
X134050000Y-116300000D02*
X133390000Y-116990000D01*
X134050000Y-116300000D02*
X134050000Y-113010000D01*
%TO.C,D24*%
X121750000Y-103010000D02*
X121750000Y-106990000D01*
X121750000Y-103010000D02*
X127050000Y-103010000D01*
X121750000Y-106990000D02*
X126390000Y-106990000D01*
X127050000Y-106300000D02*
X126390000Y-106990000D01*
X127050000Y-106300000D02*
X127050000Y-103010000D01*
%TO.C,D1*%
X113450000Y-113010000D02*
X113450000Y-116990000D01*
X113450000Y-113010000D02*
X118750000Y-113010000D01*
X113450000Y-116990000D02*
X118090000Y-116990000D01*
X118750000Y-116300000D02*
X118090000Y-116990000D01*
X118750000Y-116300000D02*
X118750000Y-113010000D01*
%TO.C,D36*%
X144050000Y-108010000D02*
X144050000Y-111990000D01*
X144050000Y-108010000D02*
X149350000Y-108010000D01*
X144050000Y-111990000D02*
X148690000Y-111990000D01*
X149350000Y-111300000D02*
X148690000Y-111990000D01*
X149350000Y-111300000D02*
X149350000Y-108010000D01*
%TO.C,D5*%
X82850000Y-108010000D02*
X82850000Y-111990000D01*
X82850000Y-108010000D02*
X88150000Y-108010000D01*
X82850000Y-111990000D02*
X87490000Y-111990000D01*
X88150000Y-111300000D02*
X87490000Y-111990000D01*
X88150000Y-111300000D02*
X88150000Y-108010000D01*
%TO.C,D22*%
X121750000Y-113010000D02*
X121750000Y-116990000D01*
X121750000Y-113010000D02*
X127050000Y-113010000D01*
X121750000Y-116990000D02*
X126390000Y-116990000D01*
X127050000Y-116300000D02*
X126390000Y-116990000D01*
X127050000Y-116300000D02*
X127050000Y-113010000D01*
%TO.C,D15*%
X98150000Y-103010000D02*
X98150000Y-106990000D01*
X98150000Y-103010000D02*
X103450000Y-103010000D01*
X98150000Y-106990000D02*
X102790000Y-106990000D01*
X103450000Y-106300000D02*
X102790000Y-106990000D01*
X103450000Y-106300000D02*
X103450000Y-103010000D01*
%TO.C,D26*%
X121750000Y-93010000D02*
X121750000Y-96990000D01*
X121750000Y-93010000D02*
X127050000Y-93010000D01*
X121750000Y-96990000D02*
X126390000Y-96990000D01*
X127050000Y-96300000D02*
X126390000Y-96990000D01*
X127050000Y-96300000D02*
X127050000Y-93010000D01*
%TO.C,D9*%
X91150000Y-103010000D02*
X91150000Y-106990000D01*
X91150000Y-103010000D02*
X96450000Y-103010000D01*
X91150000Y-106990000D02*
X95790000Y-106990000D01*
X96450000Y-106300000D02*
X95790000Y-106990000D01*
X96450000Y-106300000D02*
X96450000Y-103010000D01*
%TO.C,D35*%
X144050000Y-113010000D02*
X144050000Y-116990000D01*
X144050000Y-113010000D02*
X149350000Y-113010000D01*
X144050000Y-116990000D02*
X148690000Y-116990000D01*
X149350000Y-116300000D02*
X148690000Y-116990000D01*
X149350000Y-116300000D02*
X149350000Y-113010000D01*
%TO.C,D2*%
X82850000Y-93010000D02*
X82850000Y-96990000D01*
X82850000Y-93010000D02*
X88150000Y-93010000D01*
X82850000Y-96990000D02*
X87490000Y-96990000D01*
X88150000Y-96300000D02*
X87490000Y-96990000D01*
X88150000Y-96300000D02*
X88150000Y-93010000D01*
%TO.C,D32*%
X135750000Y-108010000D02*
X135750000Y-111990000D01*
X135750000Y-108010000D02*
X141050000Y-108010000D01*
X135750000Y-111990000D02*
X140390000Y-111990000D01*
X141050000Y-111300000D02*
X140390000Y-111990000D01*
X141050000Y-111300000D02*
X141050000Y-108010000D01*
%TO.C,D12*%
X98150000Y-93010000D02*
X98150000Y-96990000D01*
X98150000Y-93010000D02*
X103450000Y-93010000D01*
X98150000Y-96990000D02*
X102790000Y-96990000D01*
X103450000Y-96300000D02*
X102790000Y-96990000D01*
X103450000Y-96300000D02*
X103450000Y-93010000D01*
%TO.C,D19*%
X105150000Y-113010000D02*
X105150000Y-116990000D01*
X105150000Y-113010000D02*
X110450000Y-113010000D01*
X105150000Y-116990000D02*
X109790000Y-116990000D01*
X110450000Y-116300000D02*
X109790000Y-116990000D01*
X110450000Y-116300000D02*
X110450000Y-113010000D01*
%TO.C,D21*%
X113450000Y-95010000D02*
X113450000Y-98990000D01*
X113450000Y-95010000D02*
X118750000Y-95010000D01*
X113450000Y-98990000D02*
X118090000Y-98990000D01*
X118750000Y-98300000D02*
X118090000Y-98990000D01*
X118750000Y-98300000D02*
X118750000Y-95010000D01*
%TD*%
M02*
