%TF.GenerationSoftware,KiCad,Pcbnew,9.0.5*%
%TF.CreationDate,2025-11-12T22:48:52+02:00*%
%TF.ProjectId,Business_Card,42757369-6e65-4737-935f-436172642e6b,rev?*%
%TF.SameCoordinates,Original*%
%TF.FileFunction,Plated,1,4,PTH,Drill*%
%TF.FilePolarity,Positive*%
%FSLAX46Y46*%
G04 Gerber Fmt 4.6, Leading zero omitted, Abs format (unit mm)*
G04 Created by KiCad (PCBNEW 9.0.5) date 2025-11-12 22:48:52*
%MOMM*%
%LPD*%
G01*
G04 APERTURE LIST*
%TA.AperFunction,ViaDrill*%
%ADD10C,0.300000*%
%TD*%
G04 APERTURE END LIST*
D10*
X84410418Y-102470000D03*
X84410418Y-112350000D03*
X84500000Y-107460000D03*
X84510000Y-97450000D03*
X84720000Y-117660000D03*
X86580000Y-107460000D03*
X86590000Y-97450000D03*
X86690000Y-102500000D03*
X86690000Y-112350000D03*
X87540000Y-123470000D03*
X88720000Y-112450000D03*
X88750000Y-107340000D03*
X88770000Y-102300000D03*
X88790000Y-96940000D03*
X89490000Y-94120000D03*
X92030000Y-120420000D03*
X93360000Y-95900000D03*
X93370000Y-100890000D03*
X93370000Y-105900000D03*
X93370000Y-110890000D03*
X93409501Y-115888712D03*
X94190000Y-99100000D03*
X94190000Y-109100000D03*
X94190000Y-114130000D03*
X94220000Y-94110000D03*
X94230000Y-104130000D03*
X95440000Y-112330000D03*
X95460000Y-102510000D03*
X95460000Y-107450000D03*
X95520000Y-97500000D03*
X95700000Y-123720000D03*
X97270000Y-115940000D03*
X98860000Y-100480000D03*
X99130000Y-110550000D03*
X100320000Y-120750000D03*
X100350000Y-95900000D03*
X100370000Y-115890000D03*
X100430000Y-105890000D03*
X101170000Y-114080000D03*
X101220000Y-94110000D03*
X101230000Y-104080000D03*
X102420000Y-97430000D03*
X102460000Y-107470000D03*
X104290000Y-116650000D03*
X104360000Y-110930000D03*
X104540000Y-100900000D03*
X104980000Y-123720000D03*
X107360000Y-105880000D03*
X107400000Y-95880000D03*
X107420000Y-115890000D03*
X108200000Y-94110000D03*
X108200000Y-99110000D03*
X108220000Y-104120000D03*
X108220000Y-109120000D03*
X108220000Y-114110000D03*
X109060000Y-121330000D03*
X111080000Y-96660000D03*
X111080000Y-102150000D03*
X111410000Y-106720000D03*
X111820000Y-112410000D03*
X112810000Y-124010000D03*
X114320000Y-101720000D03*
X114480000Y-118440000D03*
X114500000Y-110680000D03*
X114750000Y-121740000D03*
X115670000Y-97900000D03*
X115720000Y-107870000D03*
X116460000Y-96100000D03*
X116460000Y-106110000D03*
X117870000Y-112290000D03*
X118410000Y-103860000D03*
X118870000Y-99590000D03*
X118870000Y-109570000D03*
X119940000Y-114970000D03*
X120810000Y-119480000D03*
X121100000Y-100400000D03*
X121270000Y-95190000D03*
X121350000Y-122690000D03*
X121400000Y-105880000D03*
X121980000Y-112460000D03*
X122770000Y-117460000D03*
X123806541Y-92707913D03*
X124606541Y-91907913D03*
X124780415Y-94379999D03*
X125406547Y-91107913D03*
X125580209Y-93210000D03*
X126381875Y-93192973D03*
X127500000Y-111379000D03*
X127520000Y-114110000D03*
X127530000Y-99090000D03*
X127550000Y-94130000D03*
X127550000Y-104090000D03*
X127550000Y-109100000D03*
X129810000Y-100090000D03*
X129990000Y-137750000D03*
X130100000Y-122320000D03*
X130270000Y-128380000D03*
X130640000Y-88590000D03*
X130970000Y-105890000D03*
X130970000Y-115910000D03*
X131010000Y-95910000D03*
X131720000Y-94080000D03*
X131780000Y-114100000D03*
X133000000Y-139950000D03*
X133010000Y-118150000D03*
X133980000Y-108160000D03*
X134160000Y-100180000D03*
X134490000Y-104130000D03*
X135190000Y-118830000D03*
X135220000Y-111380000D03*
X135560000Y-125230000D03*
X135560000Y-133580000D03*
X136760000Y-96810000D03*
X137190000Y-97940000D03*
X137600000Y-88590000D03*
X137960000Y-100920000D03*
X137970000Y-115890000D03*
X137980000Y-105900000D03*
X138390000Y-138620000D03*
X138562422Y-96561470D03*
X138670000Y-104140000D03*
X138820000Y-94100000D03*
X138820000Y-99130000D03*
X138820000Y-109100000D03*
X138820000Y-114110000D03*
X141980000Y-108720000D03*
X141990000Y-102500000D03*
X144090000Y-88770000D03*
X144420000Y-97480000D03*
X144730000Y-107540000D03*
X144940000Y-102520000D03*
X146250000Y-100890000D03*
X146250000Y-105890000D03*
X146330000Y-136340000D03*
X146400000Y-117154076D03*
X146430000Y-109979000D03*
X146440000Y-115870000D03*
X146460000Y-114080000D03*
X147060000Y-109100000D03*
X147080000Y-104110000D03*
X147130000Y-99100000D03*
X148840415Y-92499999D03*
X148870415Y-89599999D03*
X148970415Y-90800825D03*
X149170000Y-117154076D03*
X149360000Y-96930000D03*
X149400000Y-107350000D03*
X149550000Y-94110000D03*
X149800000Y-111430000D03*
X150040000Y-99990000D03*
X151810000Y-102370000D03*
X152060000Y-117204076D03*
X152100000Y-108840000D03*
X152790415Y-137559999D03*
X153490000Y-105260000D03*
X153720000Y-95910000D03*
X153860000Y-117144076D03*
X154130000Y-94100000D03*
X154630000Y-109860000D03*
X154670415Y-98789999D03*
X155250000Y-97550000D03*
X155310415Y-137659999D03*
X155370000Y-112320000D03*
X156120415Y-102490000D03*
X156670000Y-117104076D03*
X157880415Y-137719999D03*
X158910000Y-107514076D03*
X160260000Y-100900000D03*
X160270000Y-110860000D03*
X160280000Y-95890000D03*
X160410415Y-137539999D03*
X160510000Y-94100000D03*
X160760000Y-105590000D03*
X160910000Y-102550000D03*
X161000000Y-109060000D03*
X161040000Y-104140000D03*
X161120000Y-99130000D03*
X161730000Y-112920000D03*
X162950000Y-139290000D03*
X164140000Y-105044076D03*
X164160415Y-94229999D03*
X164260000Y-88560000D03*
X164340000Y-112150000D03*
X164470000Y-135990000D03*
X164880000Y-100110000D03*
X164960000Y-116924076D03*
X165050000Y-107600000D03*
M02*
